G04*
G04 #@! TF.GenerationSoftware,Altium Limited,Altium Designer,21.8.1 (53)*
G04*
G04 Layer_Color=32896*
%FSLAX24Y24*%
%MOIN*%
G70*
G04*
G04 #@! TF.SameCoordinates,3F75DA6B-4E5A-4059-B2AF-D795626689C9*
G04*
G04*
G04 #@! TF.FilePolarity,Positive*
G04*
G01*
G75*
%ADD17C,0.0039*%
G36*
X8965Y1643D02*
X8970D01*
X8976Y1642D01*
X8982Y1642D01*
X8989Y1641D01*
X8997Y1640D01*
X9005Y1638D01*
X9021Y1634D01*
X9030Y1632D01*
X9038Y1629D01*
X9046Y1625D01*
X9055Y1621D01*
X9055Y1621D01*
X9057Y1620D01*
X9059Y1619D01*
X9062Y1617D01*
X9065Y1615D01*
X9069Y1612D01*
X9074Y1608D01*
X9079Y1605D01*
X9084Y1600D01*
X9090Y1596D01*
X9095Y1590D01*
X9101Y1584D01*
X9106Y1578D01*
X9111Y1572D01*
X9116Y1564D01*
X9121Y1557D01*
X9121Y1556D01*
X9122Y1555D01*
X9123Y1552D01*
X9124Y1549D01*
X9126Y1545D01*
X9128Y1540D01*
X9131Y1535D01*
X9133Y1529D01*
X9135Y1521D01*
X9137Y1514D01*
X9139Y1506D01*
X9142Y1497D01*
X9143Y1488D01*
X9144Y1479D01*
X9146Y1469D01*
X9146Y1458D01*
X9081Y1452D01*
Y1453D01*
X9081Y1455D01*
X9080Y1458D01*
X9080Y1462D01*
X9079Y1467D01*
X9078Y1473D01*
X9076Y1479D01*
X9075Y1486D01*
X9070Y1501D01*
X9067Y1508D01*
X9063Y1516D01*
X9060Y1523D01*
X9055Y1530D01*
X9050Y1536D01*
X9045Y1542D01*
X9044Y1542D01*
X9043Y1543D01*
X9041Y1545D01*
X9039Y1546D01*
X9036Y1549D01*
X9032Y1551D01*
X9027Y1554D01*
X9022Y1557D01*
X9016Y1560D01*
X9010Y1562D01*
X9003Y1565D01*
X8995Y1567D01*
X8986Y1569D01*
X8978Y1570D01*
X8968Y1571D01*
X8958Y1572D01*
X8952D01*
X8948Y1571D01*
X8944Y1571D01*
X8938Y1570D01*
X8932Y1569D01*
X8925Y1568D01*
X8911Y1565D01*
X8904Y1563D01*
X8897Y1561D01*
X8890Y1557D01*
X8883Y1554D01*
X8876Y1550D01*
X8870Y1546D01*
X8870Y1545D01*
X8869Y1544D01*
X8868Y1543D01*
X8866Y1541D01*
X8864Y1538D01*
X8861Y1536D01*
X8859Y1532D01*
X8856Y1528D01*
X8853Y1523D01*
X8850Y1518D01*
X8845Y1507D01*
X8844Y1501D01*
X8842Y1494D01*
X8841Y1487D01*
X8841Y1479D01*
Y1479D01*
Y1477D01*
Y1476D01*
X8841Y1473D01*
Y1470D01*
X8842Y1466D01*
X8844Y1458D01*
X8846Y1448D01*
X8850Y1439D01*
X8855Y1429D01*
X8859Y1425D01*
X8863Y1421D01*
X8863D01*
X8864Y1420D01*
X8865Y1419D01*
X8867Y1417D01*
X8870Y1415D01*
X8874Y1413D01*
X8878Y1410D01*
X8883Y1408D01*
X8890Y1405D01*
X8896Y1401D01*
X8905Y1398D01*
X8914Y1394D01*
X8924Y1390D01*
X8935Y1387D01*
X8948Y1383D01*
X8962Y1379D01*
X8963D01*
X8965Y1378D01*
X8969Y1377D01*
X8974Y1375D01*
X8980Y1374D01*
X8987Y1371D01*
X8995Y1369D01*
X9003Y1366D01*
X9021Y1361D01*
X9038Y1355D01*
X9046Y1352D01*
X9054Y1349D01*
X9061Y1346D01*
X9067Y1343D01*
X9068Y1342D01*
X9070Y1342D01*
X9072Y1340D01*
X9075Y1338D01*
X9079Y1336D01*
X9083Y1333D01*
X9088Y1329D01*
X9094Y1326D01*
X9105Y1317D01*
X9117Y1306D01*
X9127Y1294D01*
X9133Y1287D01*
X9137Y1280D01*
X9138Y1279D01*
X9138Y1278D01*
X9140Y1276D01*
X9141Y1273D01*
X9143Y1269D01*
X9145Y1265D01*
X9147Y1260D01*
X9150Y1254D01*
X9152Y1248D01*
X9154Y1240D01*
X9156Y1233D01*
X9158Y1225D01*
X9159Y1216D01*
X9161Y1207D01*
X9161Y1198D01*
X9162Y1187D01*
Y1187D01*
Y1185D01*
Y1182D01*
X9161Y1178D01*
X9161Y1174D01*
X9160Y1168D01*
X9159Y1162D01*
X9158Y1155D01*
X9157Y1148D01*
X9156Y1140D01*
X9151Y1124D01*
X9148Y1116D01*
X9145Y1107D01*
X9141Y1098D01*
X9137Y1090D01*
X9136Y1090D01*
X9135Y1088D01*
X9134Y1086D01*
X9132Y1083D01*
X9129Y1079D01*
X9127Y1075D01*
X9123Y1071D01*
X9119Y1066D01*
X9114Y1060D01*
X9109Y1055D01*
X9103Y1049D01*
X9097Y1044D01*
X9091Y1038D01*
X9084Y1033D01*
X9076Y1028D01*
X9068Y1024D01*
X9068Y1023D01*
X9067Y1023D01*
X9064Y1021D01*
X9061Y1020D01*
X9057Y1018D01*
X9051Y1016D01*
X9046Y1015D01*
X9039Y1012D01*
X9032Y1010D01*
X9024Y1008D01*
X9016Y1006D01*
X9007Y1005D01*
X8997Y1003D01*
X8987Y1002D01*
X8976Y1001D01*
X8965Y1001D01*
X8961D01*
X8959Y1001D01*
X8956D01*
X8950Y1002D01*
X8941Y1003D01*
X8932Y1004D01*
X8922Y1005D01*
X8911Y1008D01*
X8899Y1011D01*
X8887Y1015D01*
X8874Y1019D01*
X8861Y1025D01*
X8849Y1031D01*
X8837Y1039D01*
X8825Y1047D01*
X8814Y1057D01*
X8814Y1058D01*
X8812Y1060D01*
X8809Y1063D01*
X8805Y1068D01*
X8801Y1074D01*
X8796Y1081D01*
X8791Y1089D01*
X8786Y1098D01*
X8780Y1108D01*
X8775Y1120D01*
X8770Y1133D01*
X8766Y1147D01*
X8762Y1161D01*
X8759Y1177D01*
X8757Y1194D01*
X8756Y1212D01*
X8820Y1218D01*
Y1218D01*
X8820Y1216D01*
Y1213D01*
X8821Y1210D01*
X8822Y1206D01*
X8823Y1201D01*
X8824Y1195D01*
X8824Y1189D01*
X8828Y1176D01*
X8832Y1163D01*
X8837Y1150D01*
X8839Y1144D01*
X8843Y1138D01*
Y1138D01*
X8844Y1137D01*
X8844Y1136D01*
X8846Y1134D01*
X8850Y1128D01*
X8856Y1122D01*
X8863Y1115D01*
X8872Y1107D01*
X8882Y1099D01*
X8894Y1092D01*
X8895D01*
X8895Y1091D01*
X8897Y1091D01*
X8900Y1090D01*
X8903Y1088D01*
X8907Y1087D01*
X8911Y1086D01*
X8916Y1084D01*
X8921Y1082D01*
X8927Y1081D01*
X8940Y1078D01*
X8954Y1076D01*
X8970Y1075D01*
X8976D01*
X8980Y1076D01*
X8985Y1076D01*
X8991Y1076D01*
X8997Y1077D01*
X9004Y1079D01*
X9019Y1082D01*
X9026Y1085D01*
X9034Y1087D01*
X9042Y1091D01*
X9049Y1095D01*
X9057Y1099D01*
X9063Y1104D01*
X9063Y1105D01*
X9064Y1106D01*
X9066Y1107D01*
X9068Y1110D01*
X9071Y1112D01*
X9073Y1116D01*
X9077Y1120D01*
X9080Y1125D01*
X9083Y1130D01*
X9086Y1136D01*
X9089Y1142D01*
X9091Y1149D01*
X9093Y1156D01*
X9095Y1164D01*
X9096Y1172D01*
X9097Y1181D01*
Y1181D01*
Y1182D01*
Y1183D01*
Y1185D01*
X9096Y1190D01*
X9095Y1197D01*
X9093Y1204D01*
X9092Y1213D01*
X9088Y1221D01*
X9084Y1228D01*
Y1229D01*
X9084Y1229D01*
X9082Y1232D01*
X9079Y1236D01*
X9075Y1240D01*
X9070Y1246D01*
X9063Y1251D01*
X9056Y1257D01*
X9047Y1262D01*
X9047D01*
X9046Y1263D01*
X9045Y1263D01*
X9042Y1264D01*
X9039Y1266D01*
X9036Y1268D01*
X9031Y1269D01*
X9025Y1272D01*
X9019Y1274D01*
X9011Y1277D01*
X9003Y1280D01*
X8993Y1284D01*
X8982Y1287D01*
X8971Y1291D01*
X8957Y1295D01*
X8943Y1299D01*
X8942Y1300D01*
X8940Y1300D01*
X8936Y1302D01*
X8931Y1303D01*
X8925Y1305D01*
X8918Y1307D01*
X8911Y1310D01*
X8903Y1313D01*
X8886Y1319D01*
X8869Y1327D01*
X8861Y1330D01*
X8853Y1334D01*
X8846Y1338D01*
X8840Y1342D01*
X8839Y1343D01*
X8839Y1343D01*
X8837Y1344D01*
X8835Y1346D01*
X8832Y1348D01*
X8829Y1351D01*
X8823Y1357D01*
X8815Y1365D01*
X8807Y1374D01*
X8799Y1385D01*
X8793Y1397D01*
Y1398D01*
X8792Y1399D01*
X8791Y1400D01*
X8790Y1403D01*
X8789Y1406D01*
X8787Y1410D01*
X8786Y1414D01*
X8784Y1419D01*
X8783Y1425D01*
X8781Y1430D01*
X8778Y1443D01*
X8777Y1457D01*
X8776Y1472D01*
Y1473D01*
Y1476D01*
X8776Y1480D01*
X8777Y1485D01*
X8777Y1491D01*
X8778Y1499D01*
X8780Y1507D01*
X8782Y1516D01*
X8784Y1526D01*
X8788Y1536D01*
X8791Y1546D01*
X8796Y1556D01*
X8802Y1567D01*
X8808Y1577D01*
X8815Y1587D01*
X8824Y1596D01*
X8824Y1596D01*
X8826Y1598D01*
X8829Y1600D01*
X8833Y1603D01*
X8838Y1607D01*
X8844Y1611D01*
X8851Y1615D01*
X8859Y1620D01*
X8868Y1624D01*
X8878Y1628D01*
X8888Y1632D01*
X8900Y1636D01*
X8913Y1639D01*
X8926Y1642D01*
X8940Y1643D01*
X8955Y1644D01*
X8961D01*
X8965Y1643D01*
D02*
G37*
G36*
X1569D02*
X1574D01*
X1580Y1642D01*
X1587Y1642D01*
X1594Y1641D01*
X1601Y1640D01*
X1609Y1638D01*
X1626Y1634D01*
X1634Y1632D01*
X1643Y1629D01*
X1651Y1625D01*
X1659Y1621D01*
X1660Y1621D01*
X1661Y1620D01*
X1663Y1619D01*
X1666Y1617D01*
X1670Y1615D01*
X1674Y1612D01*
X1679Y1608D01*
X1683Y1605D01*
X1689Y1600D01*
X1694Y1596D01*
X1700Y1590D01*
X1705Y1584D01*
X1711Y1578D01*
X1716Y1572D01*
X1721Y1564D01*
X1725Y1557D01*
X1726Y1556D01*
X1726Y1555D01*
X1727Y1552D01*
X1729Y1549D01*
X1731Y1545D01*
X1733Y1540D01*
X1735Y1535D01*
X1737Y1529D01*
X1740Y1521D01*
X1742Y1514D01*
X1744Y1506D01*
X1746Y1497D01*
X1747Y1488D01*
X1749Y1479D01*
X1750Y1469D01*
X1751Y1458D01*
X1685Y1452D01*
Y1453D01*
X1685Y1455D01*
X1685Y1458D01*
X1684Y1462D01*
X1683Y1467D01*
X1682Y1473D01*
X1680Y1479D01*
X1679Y1486D01*
X1674Y1501D01*
X1671Y1508D01*
X1668Y1516D01*
X1664Y1523D01*
X1660Y1530D01*
X1655Y1536D01*
X1649Y1542D01*
X1649Y1542D01*
X1648Y1543D01*
X1646Y1545D01*
X1643Y1546D01*
X1640Y1549D01*
X1636Y1551D01*
X1632Y1554D01*
X1627Y1557D01*
X1621Y1560D01*
X1615Y1562D01*
X1607Y1565D01*
X1600Y1567D01*
X1591Y1569D01*
X1582Y1570D01*
X1572Y1571D01*
X1562Y1572D01*
X1557D01*
X1553Y1571D01*
X1548Y1571D01*
X1543Y1570D01*
X1536Y1569D01*
X1530Y1568D01*
X1516Y1565D01*
X1509Y1563D01*
X1501Y1561D01*
X1494Y1557D01*
X1487Y1554D01*
X1481Y1550D01*
X1475Y1546D01*
X1474Y1545D01*
X1473Y1544D01*
X1472Y1543D01*
X1470Y1541D01*
X1468Y1538D01*
X1465Y1536D01*
X1463Y1532D01*
X1460Y1528D01*
X1457Y1523D01*
X1455Y1518D01*
X1450Y1507D01*
X1448Y1501D01*
X1447Y1494D01*
X1446Y1487D01*
X1445Y1479D01*
Y1479D01*
Y1477D01*
Y1476D01*
X1446Y1473D01*
Y1470D01*
X1447Y1466D01*
X1448Y1458D01*
X1451Y1448D01*
X1454Y1439D01*
X1460Y1429D01*
X1463Y1425D01*
X1467Y1421D01*
X1468D01*
X1468Y1420D01*
X1470Y1419D01*
X1472Y1417D01*
X1474Y1415D01*
X1478Y1413D01*
X1483Y1410D01*
X1488Y1408D01*
X1494Y1405D01*
X1501Y1401D01*
X1509Y1398D01*
X1518Y1394D01*
X1529Y1390D01*
X1540Y1387D01*
X1553Y1383D01*
X1566Y1379D01*
X1567D01*
X1569Y1378D01*
X1574Y1377D01*
X1579Y1375D01*
X1584Y1374D01*
X1592Y1371D01*
X1600Y1369D01*
X1608Y1366D01*
X1625Y1361D01*
X1643Y1355D01*
X1651Y1352D01*
X1659Y1349D01*
X1665Y1346D01*
X1672Y1343D01*
X1672Y1342D01*
X1674Y1342D01*
X1676Y1340D01*
X1680Y1338D01*
X1683Y1336D01*
X1688Y1333D01*
X1693Y1329D01*
X1698Y1326D01*
X1709Y1317D01*
X1721Y1306D01*
X1732Y1294D01*
X1737Y1287D01*
X1742Y1280D01*
X1742Y1279D01*
X1743Y1278D01*
X1744Y1276D01*
X1746Y1273D01*
X1747Y1269D01*
X1750Y1265D01*
X1752Y1260D01*
X1754Y1254D01*
X1756Y1248D01*
X1758Y1240D01*
X1761Y1233D01*
X1762Y1225D01*
X1764Y1216D01*
X1765Y1207D01*
X1766Y1198D01*
X1766Y1187D01*
Y1187D01*
Y1185D01*
Y1182D01*
X1766Y1178D01*
X1765Y1174D01*
X1765Y1168D01*
X1764Y1162D01*
X1763Y1155D01*
X1761Y1148D01*
X1760Y1140D01*
X1756Y1124D01*
X1753Y1116D01*
X1749Y1107D01*
X1746Y1098D01*
X1741Y1090D01*
X1741Y1090D01*
X1740Y1088D01*
X1738Y1086D01*
X1736Y1083D01*
X1734Y1079D01*
X1731Y1075D01*
X1727Y1071D01*
X1723Y1066D01*
X1718Y1060D01*
X1713Y1055D01*
X1708Y1049D01*
X1702Y1044D01*
X1695Y1038D01*
X1688Y1033D01*
X1680Y1028D01*
X1673Y1024D01*
X1672Y1023D01*
X1671Y1023D01*
X1668Y1021D01*
X1665Y1020D01*
X1661Y1018D01*
X1656Y1016D01*
X1650Y1015D01*
X1644Y1012D01*
X1637Y1010D01*
X1629Y1008D01*
X1620Y1006D01*
X1611Y1005D01*
X1601Y1003D01*
X1591Y1002D01*
X1580Y1001D01*
X1569Y1001D01*
X1565D01*
X1563Y1001D01*
X1560D01*
X1554Y1002D01*
X1546Y1003D01*
X1537Y1004D01*
X1526Y1005D01*
X1515Y1008D01*
X1504Y1011D01*
X1491Y1015D01*
X1478Y1019D01*
X1466Y1025D01*
X1453Y1031D01*
X1441Y1039D01*
X1429Y1047D01*
X1418Y1057D01*
X1418Y1058D01*
X1416Y1060D01*
X1413Y1063D01*
X1410Y1068D01*
X1405Y1074D01*
X1401Y1081D01*
X1396Y1089D01*
X1390Y1098D01*
X1385Y1108D01*
X1380Y1120D01*
X1375Y1133D01*
X1371Y1147D01*
X1367Y1161D01*
X1364Y1177D01*
X1362Y1194D01*
X1361Y1212D01*
X1424Y1218D01*
Y1218D01*
X1425Y1216D01*
Y1213D01*
X1425Y1210D01*
X1426Y1206D01*
X1427Y1201D01*
X1428Y1195D01*
X1429Y1189D01*
X1432Y1176D01*
X1436Y1163D01*
X1441Y1150D01*
X1444Y1144D01*
X1447Y1138D01*
Y1138D01*
X1448Y1137D01*
X1449Y1136D01*
X1450Y1134D01*
X1455Y1128D01*
X1460Y1122D01*
X1468Y1115D01*
X1477Y1107D01*
X1487Y1099D01*
X1498Y1092D01*
X1499D01*
X1500Y1091D01*
X1502Y1091D01*
X1504Y1090D01*
X1508Y1088D01*
X1511Y1087D01*
X1516Y1086D01*
X1521Y1084D01*
X1526Y1082D01*
X1532Y1081D01*
X1544Y1078D01*
X1559Y1076D01*
X1574Y1075D01*
X1580D01*
X1584Y1076D01*
X1589Y1076D01*
X1595Y1076D01*
X1601Y1077D01*
X1608Y1079D01*
X1623Y1082D01*
X1631Y1085D01*
X1639Y1087D01*
X1646Y1091D01*
X1654Y1095D01*
X1661Y1099D01*
X1667Y1104D01*
X1668Y1105D01*
X1669Y1106D01*
X1670Y1107D01*
X1673Y1110D01*
X1675Y1112D01*
X1678Y1116D01*
X1681Y1120D01*
X1684Y1125D01*
X1687Y1130D01*
X1690Y1136D01*
X1693Y1142D01*
X1696Y1149D01*
X1698Y1156D01*
X1700Y1164D01*
X1701Y1172D01*
X1701Y1181D01*
Y1181D01*
Y1182D01*
Y1183D01*
Y1185D01*
X1701Y1190D01*
X1700Y1197D01*
X1698Y1204D01*
X1696Y1213D01*
X1693Y1221D01*
X1689Y1228D01*
Y1229D01*
X1688Y1229D01*
X1686Y1232D01*
X1684Y1236D01*
X1680Y1240D01*
X1674Y1246D01*
X1668Y1251D01*
X1660Y1257D01*
X1652Y1262D01*
X1651D01*
X1650Y1263D01*
X1649Y1263D01*
X1647Y1264D01*
X1644Y1266D01*
X1640Y1268D01*
X1635Y1269D01*
X1630Y1272D01*
X1623Y1274D01*
X1616Y1277D01*
X1607Y1280D01*
X1598Y1284D01*
X1587Y1287D01*
X1575Y1291D01*
X1562Y1295D01*
X1547Y1299D01*
X1546Y1300D01*
X1544Y1300D01*
X1540Y1302D01*
X1535Y1303D01*
X1529Y1305D01*
X1523Y1307D01*
X1515Y1310D01*
X1508Y1313D01*
X1490Y1319D01*
X1473Y1327D01*
X1465Y1330D01*
X1458Y1334D01*
X1451Y1338D01*
X1444Y1342D01*
X1444Y1343D01*
X1443Y1343D01*
X1442Y1344D01*
X1439Y1346D01*
X1437Y1348D01*
X1434Y1351D01*
X1427Y1357D01*
X1419Y1365D01*
X1412Y1374D01*
X1404Y1385D01*
X1397Y1397D01*
Y1398D01*
X1396Y1399D01*
X1396Y1400D01*
X1394Y1403D01*
X1393Y1406D01*
X1392Y1410D01*
X1390Y1414D01*
X1389Y1419D01*
X1387Y1425D01*
X1386Y1430D01*
X1383Y1443D01*
X1381Y1457D01*
X1380Y1472D01*
Y1473D01*
Y1476D01*
X1381Y1480D01*
X1381Y1485D01*
X1382Y1491D01*
X1383Y1499D01*
X1384Y1507D01*
X1386Y1516D01*
X1389Y1526D01*
X1392Y1536D01*
X1396Y1546D01*
X1401Y1556D01*
X1406Y1567D01*
X1412Y1577D01*
X1420Y1587D01*
X1428Y1596D01*
X1429Y1596D01*
X1431Y1598D01*
X1433Y1600D01*
X1438Y1603D01*
X1442Y1607D01*
X1448Y1611D01*
X1455Y1615D01*
X1463Y1620D01*
X1472Y1624D01*
X1482Y1628D01*
X1493Y1632D01*
X1504Y1636D01*
X1517Y1639D01*
X1530Y1642D01*
X1545Y1643D01*
X1560Y1644D01*
X1565D01*
X1569Y1643D01*
D02*
G37*
G36*
X4235Y1011D02*
X4165D01*
X3898Y1498D01*
Y1011D01*
X3833D01*
Y1633D01*
X3902D01*
X4170Y1145D01*
Y1633D01*
X4235D01*
Y1011D01*
D02*
G37*
G36*
X8472D02*
X8407D01*
Y1531D01*
X8259Y1011D01*
X8198D01*
X8051Y1540D01*
Y1011D01*
X7986D01*
Y1633D01*
X8087D01*
X8208Y1192D01*
X8232Y1101D01*
Y1101D01*
X8232Y1102D01*
X8233Y1104D01*
X8234Y1107D01*
X8235Y1111D01*
X8236Y1115D01*
X8238Y1120D01*
X8239Y1126D01*
X8241Y1133D01*
X8242Y1140D01*
X8245Y1148D01*
X8248Y1157D01*
X8250Y1167D01*
X8253Y1177D01*
X8256Y1188D01*
X8259Y1200D01*
X8381Y1633D01*
X8472D01*
Y1011D01*
D02*
G37*
G36*
X10522D02*
X10450D01*
Y1098D01*
X10522D01*
Y1011D01*
D02*
G37*
G36*
X10335Y1560D02*
X10034D01*
Y1369D01*
X10316D01*
Y1296D01*
X10034D01*
Y1085D01*
X10347D01*
Y1011D01*
X9966D01*
Y1633D01*
X10335D01*
Y1560D01*
D02*
G37*
G36*
X9642Y1632D02*
X9648D01*
X9655Y1632D01*
X9662Y1632D01*
X9678Y1630D01*
X9695Y1628D01*
X9703Y1627D01*
X9710Y1625D01*
X9718Y1623D01*
X9724Y1621D01*
X9725D01*
X9726Y1620D01*
X9729Y1620D01*
X9732Y1618D01*
X9736Y1617D01*
X9740Y1614D01*
X9745Y1612D01*
X9751Y1609D01*
X9757Y1606D01*
X9763Y1602D01*
X9769Y1597D01*
X9776Y1592D01*
X9782Y1587D01*
X9789Y1581D01*
X9795Y1574D01*
X9801Y1567D01*
X9802Y1567D01*
X9803Y1565D01*
X9805Y1563D01*
X9807Y1560D01*
X9810Y1556D01*
X9813Y1551D01*
X9816Y1546D01*
X9820Y1540D01*
X9824Y1533D01*
X9828Y1525D01*
X9832Y1517D01*
X9837Y1508D01*
X9841Y1499D01*
X9845Y1489D01*
X9849Y1478D01*
X9852Y1467D01*
Y1467D01*
X9853Y1465D01*
X9854Y1461D01*
X9855Y1457D01*
X9857Y1451D01*
X9858Y1444D01*
X9860Y1436D01*
X9862Y1427D01*
X9863Y1417D01*
X9865Y1406D01*
X9867Y1395D01*
X9868Y1382D01*
X9869Y1369D01*
X9870Y1355D01*
X9871Y1340D01*
Y1325D01*
Y1325D01*
Y1324D01*
Y1323D01*
Y1321D01*
Y1318D01*
Y1315D01*
X9870Y1312D01*
Y1308D01*
X9870Y1299D01*
X9869Y1288D01*
X9868Y1276D01*
X9867Y1263D01*
X9865Y1250D01*
X9863Y1235D01*
X9861Y1220D01*
X9858Y1205D01*
X9854Y1190D01*
X9850Y1175D01*
X9845Y1160D01*
X9840Y1146D01*
X9839Y1145D01*
X9838Y1143D01*
X9836Y1139D01*
X9834Y1134D01*
X9831Y1128D01*
X9827Y1122D01*
X9823Y1114D01*
X9818Y1106D01*
X9813Y1097D01*
X9806Y1088D01*
X9800Y1080D01*
X9793Y1071D01*
X9785Y1063D01*
X9777Y1055D01*
X9769Y1048D01*
X9760Y1042D01*
X9759Y1041D01*
X9758Y1041D01*
X9755Y1039D01*
X9751Y1037D01*
X9746Y1035D01*
X9740Y1032D01*
X9734Y1030D01*
X9726Y1027D01*
X9718Y1024D01*
X9708Y1021D01*
X9698Y1019D01*
X9686Y1016D01*
X9674Y1014D01*
X9661Y1013D01*
X9648Y1012D01*
X9633Y1011D01*
X9450D01*
Y1633D01*
X9636D01*
X9642Y1632D01*
D02*
G37*
G36*
X9334Y1011D02*
X9266D01*
Y1633D01*
X9334D01*
Y1011D01*
D02*
G37*
G36*
X7366Y1560D02*
X7197D01*
Y1011D01*
X7130D01*
Y1560D01*
X6962D01*
Y1633D01*
X7366D01*
Y1560D01*
D02*
G37*
G36*
X6931D02*
X6762D01*
Y1011D01*
X6695D01*
Y1560D01*
X6527D01*
Y1633D01*
X6931D01*
Y1560D01*
D02*
G37*
G36*
X5733Y1632D02*
X5738D01*
X5744Y1632D01*
X5750Y1632D01*
X5757Y1631D01*
X5772Y1628D01*
X5787Y1625D01*
X5802Y1621D01*
X5809Y1618D01*
X5816Y1615D01*
X5816D01*
X5817Y1614D01*
X5819Y1613D01*
X5821Y1611D01*
X5824Y1609D01*
X5827Y1607D01*
X5835Y1601D01*
X5844Y1593D01*
X5849Y1588D01*
X5853Y1583D01*
X5858Y1578D01*
X5862Y1572D01*
X5867Y1565D01*
X5871Y1558D01*
X5871Y1558D01*
X5872Y1557D01*
X5873Y1555D01*
X5875Y1551D01*
X5876Y1548D01*
X5878Y1544D01*
X5880Y1539D01*
X5882Y1533D01*
X5884Y1527D01*
X5886Y1521D01*
X5890Y1507D01*
X5892Y1491D01*
X5892Y1483D01*
X5893Y1474D01*
Y1474D01*
Y1472D01*
Y1470D01*
X5892Y1467D01*
Y1463D01*
X5892Y1459D01*
X5892Y1454D01*
X5891Y1449D01*
X5888Y1436D01*
X5885Y1424D01*
X5881Y1410D01*
X5874Y1397D01*
Y1396D01*
X5873Y1395D01*
X5872Y1394D01*
X5871Y1391D01*
X5869Y1388D01*
X5866Y1385D01*
X5861Y1377D01*
X5853Y1369D01*
X5844Y1359D01*
X5834Y1350D01*
X5821Y1342D01*
X5822D01*
X5823Y1341D01*
X5826Y1340D01*
X5829Y1339D01*
X5832Y1337D01*
X5837Y1334D01*
X5842Y1332D01*
X5847Y1329D01*
X5852Y1325D01*
X5858Y1321D01*
X5864Y1317D01*
X5870Y1312D01*
X5876Y1306D01*
X5881Y1300D01*
X5887Y1294D01*
X5892Y1287D01*
X5892Y1286D01*
X5892Y1285D01*
X5894Y1283D01*
X5896Y1280D01*
X5897Y1276D01*
X5900Y1272D01*
X5902Y1266D01*
X5905Y1260D01*
X5907Y1253D01*
X5909Y1246D01*
X5912Y1238D01*
X5913Y1230D01*
X5915Y1221D01*
X5917Y1212D01*
X5917Y1202D01*
X5917Y1191D01*
Y1191D01*
Y1189D01*
Y1186D01*
X5917Y1182D01*
X5917Y1177D01*
X5916Y1171D01*
X5916Y1165D01*
X5915Y1157D01*
X5913Y1150D01*
X5912Y1142D01*
X5908Y1126D01*
X5905Y1117D01*
X5902Y1108D01*
X5898Y1100D01*
X5894Y1092D01*
X5894Y1091D01*
X5893Y1090D01*
X5892Y1088D01*
X5890Y1085D01*
X5888Y1081D01*
X5885Y1077D01*
X5882Y1073D01*
X5878Y1068D01*
X5869Y1058D01*
X5858Y1048D01*
X5846Y1039D01*
X5840Y1034D01*
X5832Y1031D01*
X5832D01*
X5831Y1030D01*
X5828Y1029D01*
X5826Y1027D01*
X5821Y1026D01*
X5817Y1025D01*
X5811Y1023D01*
X5805Y1021D01*
X5798Y1019D01*
X5790Y1017D01*
X5781Y1016D01*
X5772Y1015D01*
X5761Y1013D01*
X5750Y1012D01*
X5739Y1012D01*
X5727Y1011D01*
X5533D01*
Y1633D01*
X5729D01*
X5733Y1632D01*
D02*
G37*
G36*
X5060D02*
X5066D01*
X5073Y1632D01*
X5080Y1632D01*
X5088Y1631D01*
X5105Y1629D01*
X5123Y1626D01*
X5131Y1623D01*
X5139Y1621D01*
X5146Y1618D01*
X5153Y1615D01*
X5154D01*
X5154Y1614D01*
X5156Y1613D01*
X5159Y1612D01*
X5162Y1610D01*
X5165Y1607D01*
X5169Y1605D01*
X5173Y1602D01*
X5177Y1598D01*
X5182Y1593D01*
X5186Y1589D01*
X5191Y1583D01*
X5195Y1578D01*
X5200Y1572D01*
X5204Y1565D01*
X5209Y1557D01*
X5209Y1557D01*
X5209Y1556D01*
X5210Y1553D01*
X5212Y1550D01*
X5214Y1546D01*
X5215Y1542D01*
X5218Y1536D01*
X5219Y1531D01*
X5222Y1524D01*
X5224Y1517D01*
X5225Y1509D01*
X5227Y1501D01*
X5229Y1492D01*
X5229Y1483D01*
X5230Y1474D01*
X5230Y1464D01*
Y1463D01*
Y1460D01*
X5230Y1457D01*
Y1452D01*
X5229Y1446D01*
X5229Y1439D01*
X5227Y1431D01*
X5226Y1423D01*
X5224Y1414D01*
X5221Y1405D01*
X5219Y1395D01*
X5215Y1386D01*
X5211Y1376D01*
X5206Y1367D01*
X5200Y1358D01*
X5194Y1349D01*
X5193Y1349D01*
X5192Y1348D01*
X5190Y1345D01*
X5187Y1343D01*
X5183Y1339D01*
X5178Y1335D01*
X5173Y1331D01*
X5166Y1326D01*
X5159Y1321D01*
X5151Y1317D01*
X5143Y1312D01*
X5133Y1308D01*
X5123Y1304D01*
X5112Y1300D01*
X5100Y1297D01*
X5087Y1294D01*
X5088D01*
X5088Y1293D01*
X5090Y1292D01*
X5092Y1291D01*
X5097Y1288D01*
X5103Y1284D01*
X5110Y1278D01*
X5117Y1272D01*
X5124Y1266D01*
X5130Y1259D01*
X5131Y1259D01*
X5132Y1258D01*
X5133Y1256D01*
X5135Y1253D01*
X5138Y1250D01*
X5141Y1246D01*
X5144Y1241D01*
X5148Y1236D01*
X5152Y1231D01*
X5156Y1224D01*
X5165Y1211D01*
X5174Y1196D01*
X5183Y1180D01*
X5272Y1011D01*
X5187D01*
X5119Y1140D01*
X5119Y1141D01*
X5118Y1143D01*
X5116Y1147D01*
X5113Y1152D01*
X5110Y1159D01*
X5106Y1166D01*
X5102Y1173D01*
X5097Y1182D01*
X5088Y1198D01*
X5078Y1215D01*
X5073Y1223D01*
X5068Y1231D01*
X5064Y1237D01*
X5060Y1243D01*
Y1243D01*
X5059Y1244D01*
X5058Y1245D01*
X5057Y1247D01*
X5052Y1251D01*
X5048Y1257D01*
X5042Y1263D01*
X5035Y1268D01*
X5028Y1274D01*
X5021Y1278D01*
X5020Y1278D01*
X5017Y1279D01*
X5013Y1281D01*
X5007Y1283D01*
X5000Y1284D01*
X4991Y1286D01*
X4980Y1287D01*
X4968Y1288D01*
X4891D01*
Y1011D01*
X4823D01*
Y1633D01*
X5056D01*
X5060Y1632D01*
D02*
G37*
G36*
X4719Y1560D02*
X4418D01*
Y1369D01*
X4700D01*
Y1296D01*
X4418D01*
Y1085D01*
X4731D01*
Y1011D01*
X4350D01*
Y1633D01*
X4719D01*
Y1560D01*
D02*
G37*
G36*
X3731D02*
X3430D01*
Y1369D01*
X3712D01*
Y1296D01*
X3430D01*
Y1085D01*
X3743D01*
Y1011D01*
X3362D01*
Y1633D01*
X3731D01*
Y1560D01*
D02*
G37*
G36*
X3274D02*
X2998D01*
Y1367D01*
X3237D01*
Y1294D01*
X2998D01*
Y1011D01*
X2930D01*
Y1633D01*
X3274D01*
Y1560D01*
D02*
G37*
G36*
X2839D02*
X2563D01*
Y1367D01*
X2802D01*
Y1294D01*
X2563D01*
Y1011D01*
X2495D01*
Y1633D01*
X2839D01*
Y1560D01*
D02*
G37*
G36*
X2373Y1011D02*
X2306D01*
Y1633D01*
X2373D01*
Y1011D01*
D02*
G37*
G36*
X2225Y1560D02*
X2056D01*
Y1011D01*
X1989D01*
Y1560D01*
X1821D01*
Y1633D01*
X2225D01*
Y1560D01*
D02*
G37*
G36*
X7665Y1643D02*
X7670D01*
X7676Y1642D01*
X7683Y1642D01*
X7691Y1641D01*
X7699Y1639D01*
X7709Y1637D01*
X7718Y1635D01*
X7728Y1632D01*
X7739Y1628D01*
X7750Y1623D01*
X7760Y1618D01*
X7771Y1612D01*
X7782Y1606D01*
X7782Y1605D01*
X7784Y1604D01*
X7787Y1602D01*
X7791Y1598D01*
X7795Y1595D01*
X7801Y1590D01*
X7807Y1584D01*
X7813Y1577D01*
X7820Y1570D01*
X7828Y1562D01*
X7835Y1553D01*
X7842Y1543D01*
X7849Y1532D01*
X7856Y1520D01*
X7863Y1508D01*
X7869Y1495D01*
X7870Y1494D01*
X7871Y1491D01*
X7873Y1487D01*
X7874Y1482D01*
X7877Y1475D01*
X7880Y1466D01*
X7883Y1457D01*
X7886Y1446D01*
X7889Y1434D01*
X7892Y1420D01*
X7894Y1406D01*
X7897Y1391D01*
X7899Y1375D01*
X7901Y1358D01*
X7902Y1340D01*
X7902Y1322D01*
Y1321D01*
Y1320D01*
Y1318D01*
Y1316D01*
Y1312D01*
X7902Y1309D01*
Y1304D01*
X7901Y1299D01*
X7901Y1293D01*
X7900Y1287D01*
X7899Y1280D01*
X7899Y1273D01*
X7897Y1258D01*
X7894Y1242D01*
X7891Y1224D01*
X7887Y1206D01*
X7882Y1187D01*
X7876Y1168D01*
X7868Y1150D01*
X7860Y1131D01*
X7850Y1113D01*
X7839Y1096D01*
Y1096D01*
X7838Y1096D01*
X7838Y1094D01*
X7836Y1092D01*
X7832Y1088D01*
X7827Y1081D01*
X7820Y1074D01*
X7812Y1066D01*
X7802Y1058D01*
X7791Y1049D01*
X7778Y1040D01*
X7765Y1031D01*
X7750Y1023D01*
X7734Y1016D01*
X7717Y1010D01*
X7698Y1005D01*
X7689Y1003D01*
X7679Y1002D01*
X7669Y1001D01*
X7658Y1001D01*
X7653D01*
X7651Y1001D01*
X7647D01*
X7644Y1002D01*
X7640Y1002D01*
X7630Y1004D01*
X7619Y1006D01*
X7607Y1009D01*
X7593Y1013D01*
X7579Y1018D01*
X7565Y1025D01*
X7549Y1033D01*
X7534Y1042D01*
X7526Y1048D01*
X7519Y1054D01*
X7512Y1060D01*
X7504Y1067D01*
X7497Y1074D01*
X7490Y1082D01*
X7483Y1090D01*
X7477Y1099D01*
Y1100D01*
X7476Y1100D01*
X7475Y1102D01*
X7474Y1103D01*
X7473Y1106D01*
X7471Y1108D01*
X7469Y1112D01*
X7467Y1115D01*
X7462Y1124D01*
X7457Y1134D01*
X7452Y1146D01*
X7446Y1159D01*
X7440Y1174D01*
X7434Y1191D01*
X7429Y1208D01*
X7424Y1227D01*
X7421Y1248D01*
X7418Y1268D01*
X7416Y1291D01*
X7415Y1314D01*
Y1314D01*
Y1316D01*
Y1318D01*
Y1321D01*
X7415Y1325D01*
Y1329D01*
X7416Y1334D01*
Y1340D01*
X7416Y1347D01*
X7417Y1354D01*
X7418Y1361D01*
X7419Y1369D01*
X7421Y1386D01*
X7424Y1404D01*
X7427Y1424D01*
X7432Y1444D01*
X7438Y1464D01*
X7444Y1484D01*
X7452Y1504D01*
X7462Y1523D01*
X7472Y1541D01*
X7484Y1558D01*
Y1559D01*
X7485Y1559D01*
X7488Y1562D01*
X7492Y1566D01*
X7497Y1572D01*
X7504Y1578D01*
X7512Y1586D01*
X7522Y1593D01*
X7533Y1601D01*
X7545Y1609D01*
X7558Y1617D01*
X7572Y1624D01*
X7588Y1631D01*
X7604Y1636D01*
X7621Y1640D01*
X7640Y1643D01*
X7649Y1643D01*
X7659Y1644D01*
X7662D01*
X7665Y1643D01*
D02*
G37*
G36*
X6241D02*
X6246D01*
X6252Y1642D01*
X6259Y1642D01*
X6266Y1641D01*
X6275Y1639D01*
X6285Y1637D01*
X6294Y1635D01*
X6304Y1632D01*
X6315Y1628D01*
X6326Y1623D01*
X6336Y1618D01*
X6347Y1612D01*
X6357Y1606D01*
X6358Y1605D01*
X6360Y1604D01*
X6363Y1602D01*
X6367Y1598D01*
X6371Y1595D01*
X6377Y1590D01*
X6383Y1584D01*
X6389Y1577D01*
X6396Y1570D01*
X6403Y1562D01*
X6411Y1553D01*
X6418Y1543D01*
X6425Y1532D01*
X6432Y1520D01*
X6439Y1508D01*
X6445Y1495D01*
X6446Y1494D01*
X6447Y1491D01*
X6448Y1487D01*
X6450Y1482D01*
X6453Y1475D01*
X6456Y1466D01*
X6458Y1457D01*
X6462Y1446D01*
X6465Y1434D01*
X6468Y1420D01*
X6470Y1406D01*
X6473Y1391D01*
X6475Y1375D01*
X6477Y1358D01*
X6478Y1340D01*
X6478Y1322D01*
Y1321D01*
Y1320D01*
Y1318D01*
Y1316D01*
Y1312D01*
X6478Y1309D01*
Y1304D01*
X6477Y1299D01*
X6477Y1293D01*
X6476Y1287D01*
X6475Y1280D01*
X6475Y1273D01*
X6473Y1258D01*
X6470Y1242D01*
X6467Y1224D01*
X6463Y1206D01*
X6458Y1187D01*
X6452Y1168D01*
X6444Y1150D01*
X6436Y1131D01*
X6426Y1113D01*
X6415Y1096D01*
Y1096D01*
X6414Y1096D01*
X6413Y1094D01*
X6412Y1092D01*
X6408Y1088D01*
X6402Y1081D01*
X6396Y1074D01*
X6387Y1066D01*
X6378Y1058D01*
X6367Y1049D01*
X6354Y1040D01*
X6341Y1031D01*
X6326Y1023D01*
X6310Y1016D01*
X6292Y1010D01*
X6274Y1005D01*
X6265Y1003D01*
X6255Y1002D01*
X6245Y1001D01*
X6234Y1001D01*
X6229D01*
X6226Y1001D01*
X6223D01*
X6220Y1002D01*
X6215Y1002D01*
X6206Y1004D01*
X6195Y1006D01*
X6183Y1009D01*
X6169Y1013D01*
X6155Y1018D01*
X6140Y1025D01*
X6125Y1033D01*
X6110Y1042D01*
X6102Y1048D01*
X6095Y1054D01*
X6088Y1060D01*
X6080Y1067D01*
X6073Y1074D01*
X6066Y1082D01*
X6059Y1090D01*
X6053Y1099D01*
Y1100D01*
X6052Y1100D01*
X6051Y1102D01*
X6050Y1103D01*
X6048Y1106D01*
X6047Y1108D01*
X6045Y1112D01*
X6043Y1115D01*
X6038Y1124D01*
X6033Y1134D01*
X6028Y1146D01*
X6022Y1159D01*
X6016Y1174D01*
X6010Y1191D01*
X6005Y1208D01*
X6000Y1227D01*
X5997Y1248D01*
X5993Y1268D01*
X5992Y1291D01*
X5991Y1314D01*
Y1314D01*
Y1316D01*
Y1318D01*
Y1321D01*
X5991Y1325D01*
Y1329D01*
X5992Y1334D01*
Y1340D01*
X5992Y1347D01*
X5993Y1354D01*
X5993Y1361D01*
X5994Y1369D01*
X5997Y1386D01*
X5999Y1404D01*
X6003Y1424D01*
X6008Y1444D01*
X6013Y1464D01*
X6020Y1484D01*
X6028Y1504D01*
X6038Y1523D01*
X6048Y1541D01*
X6060Y1558D01*
Y1559D01*
X6061Y1559D01*
X6064Y1562D01*
X6068Y1566D01*
X6073Y1572D01*
X6080Y1578D01*
X6088Y1586D01*
X6098Y1593D01*
X6109Y1601D01*
X6120Y1609D01*
X6134Y1617D01*
X6148Y1624D01*
X6164Y1631D01*
X6180Y1636D01*
X6197Y1640D01*
X6215Y1643D01*
X6225Y1643D01*
X6235Y1644D01*
X6238D01*
X6241Y1643D01*
D02*
G37*
G36*
X9267Y876D02*
X9272D01*
X9278Y875D01*
X9284Y875D01*
X9291Y874D01*
X9299Y873D01*
X9307Y871D01*
X9324Y867D01*
X9332Y864D01*
X9340Y862D01*
X9349Y858D01*
X9357Y854D01*
X9357Y853D01*
X9359Y853D01*
X9361Y852D01*
X9364Y850D01*
X9367Y848D01*
X9371Y845D01*
X9376Y841D01*
X9381Y838D01*
X9386Y833D01*
X9392Y828D01*
X9397Y823D01*
X9403Y817D01*
X9408Y811D01*
X9413Y804D01*
X9418Y797D01*
X9423Y789D01*
X9423Y789D01*
X9424Y787D01*
X9425Y785D01*
X9426Y782D01*
X9428Y778D01*
X9431Y773D01*
X9433Y767D01*
X9435Y762D01*
X9437Y754D01*
X9440Y747D01*
X9441Y739D01*
X9444Y730D01*
X9445Y721D01*
X9446Y711D01*
X9448Y701D01*
X9448Y691D01*
X9383Y685D01*
Y686D01*
X9383Y688D01*
X9382Y691D01*
X9382Y695D01*
X9381Y700D01*
X9380Y706D01*
X9378Y712D01*
X9377Y719D01*
X9372Y734D01*
X9369Y741D01*
X9365Y748D01*
X9362Y756D01*
X9357Y762D01*
X9352Y769D01*
X9347Y775D01*
X9346Y775D01*
X9345Y776D01*
X9344Y777D01*
X9341Y779D01*
X9338Y782D01*
X9334Y784D01*
X9330Y787D01*
X9324Y790D01*
X9319Y792D01*
X9312Y795D01*
X9305Y797D01*
X9297Y800D01*
X9289Y802D01*
X9280Y803D01*
X9270Y804D01*
X9260Y804D01*
X9254D01*
X9250Y804D01*
X9246Y803D01*
X9240Y803D01*
X9234Y802D01*
X9228Y801D01*
X9213Y798D01*
X9206Y796D01*
X9199Y793D01*
X9192Y790D01*
X9185Y787D01*
X9178Y783D01*
X9173Y778D01*
X9172Y778D01*
X9171Y777D01*
X9170Y776D01*
X9168Y774D01*
X9166Y771D01*
X9163Y768D01*
X9161Y765D01*
X9158Y761D01*
X9155Y756D01*
X9153Y751D01*
X9147Y740D01*
X9146Y733D01*
X9144Y726D01*
X9143Y720D01*
X9143Y712D01*
Y711D01*
Y710D01*
Y708D01*
X9143Y706D01*
Y702D01*
X9144Y699D01*
X9146Y691D01*
X9148Y681D01*
X9152Y671D01*
X9158Y662D01*
X9161Y658D01*
X9165Y654D01*
X9165D01*
X9166Y653D01*
X9168Y651D01*
X9169Y650D01*
X9172Y648D01*
X9176Y646D01*
X9180Y643D01*
X9185Y640D01*
X9192Y637D01*
X9198Y634D01*
X9207Y630D01*
X9216Y627D01*
X9226Y623D01*
X9238Y620D01*
X9250Y615D01*
X9264Y611D01*
X9265D01*
X9267Y610D01*
X9271Y610D01*
X9276Y608D01*
X9282Y606D01*
X9289Y604D01*
X9297Y602D01*
X9305Y599D01*
X9323Y594D01*
X9340Y588D01*
X9349Y585D01*
X9356Y581D01*
X9363Y579D01*
X9370Y575D01*
X9370Y575D01*
X9372Y575D01*
X9374Y573D01*
X9377Y571D01*
X9381Y569D01*
X9385Y566D01*
X9390Y562D01*
X9396Y559D01*
X9407Y549D01*
X9419Y539D01*
X9430Y526D01*
X9435Y520D01*
X9440Y513D01*
X9440Y512D01*
X9441Y511D01*
X9442Y509D01*
X9443Y506D01*
X9445Y502D01*
X9447Y498D01*
X9450Y493D01*
X9452Y487D01*
X9454Y480D01*
X9456Y473D01*
X9458Y465D01*
X9460Y458D01*
X9461Y449D01*
X9463Y440D01*
X9463Y430D01*
X9464Y420D01*
Y420D01*
Y418D01*
Y415D01*
X9463Y411D01*
X9463Y407D01*
X9462Y401D01*
X9461Y395D01*
X9461Y388D01*
X9459Y381D01*
X9458Y373D01*
X9453Y357D01*
X9451Y348D01*
X9447Y340D01*
X9443Y331D01*
X9439Y323D01*
X9438Y322D01*
X9437Y321D01*
X9436Y319D01*
X9434Y316D01*
X9431Y312D01*
X9429Y308D01*
X9425Y303D01*
X9421Y298D01*
X9416Y293D01*
X9411Y287D01*
X9405Y282D01*
X9400Y276D01*
X9393Y271D01*
X9386Y266D01*
X9378Y261D01*
X9370Y256D01*
X9370Y256D01*
X9369Y256D01*
X9366Y254D01*
X9363Y253D01*
X9359Y251D01*
X9354Y249D01*
X9348Y247D01*
X9341Y245D01*
X9335Y243D01*
X9326Y241D01*
X9318Y239D01*
X9309Y237D01*
X9299Y236D01*
X9289Y235D01*
X9278Y234D01*
X9267Y234D01*
X9263D01*
X9261Y234D01*
X9258D01*
X9252Y235D01*
X9244Y236D01*
X9234Y237D01*
X9224Y238D01*
X9213Y241D01*
X9201Y244D01*
X9189Y247D01*
X9176Y252D01*
X9163Y257D01*
X9151Y264D01*
X9139Y271D01*
X9127Y280D01*
X9116Y290D01*
X9116Y291D01*
X9114Y293D01*
X9111Y296D01*
X9107Y301D01*
X9103Y307D01*
X9098Y313D01*
X9093Y322D01*
X9088Y331D01*
X9082Y341D01*
X9077Y353D01*
X9072Y366D01*
X9068Y379D01*
X9064Y394D01*
X9061Y410D01*
X9059Y427D01*
X9058Y444D01*
X9122Y451D01*
Y451D01*
X9122Y449D01*
Y446D01*
X9123Y443D01*
X9124Y438D01*
X9125Y433D01*
X9126Y428D01*
X9127Y422D01*
X9130Y409D01*
X9134Y396D01*
X9139Y383D01*
X9142Y377D01*
X9145Y371D01*
Y371D01*
X9146Y370D01*
X9147Y368D01*
X9148Y367D01*
X9153Y361D01*
X9158Y355D01*
X9165Y347D01*
X9174Y340D01*
X9184Y332D01*
X9196Y325D01*
X9197D01*
X9198Y324D01*
X9199Y324D01*
X9202Y322D01*
X9205Y321D01*
X9209Y320D01*
X9213Y318D01*
X9218Y317D01*
X9223Y315D01*
X9229Y313D01*
X9242Y311D01*
X9256Y309D01*
X9272Y308D01*
X9278D01*
X9282Y308D01*
X9287Y309D01*
X9293Y309D01*
X9299Y310D01*
X9306Y312D01*
X9321Y315D01*
X9329Y317D01*
X9336Y320D01*
X9344Y323D01*
X9351Y327D01*
X9359Y332D01*
X9365Y337D01*
X9365Y337D01*
X9366Y338D01*
X9368Y340D01*
X9370Y342D01*
X9373Y345D01*
X9375Y349D01*
X9379Y353D01*
X9382Y357D01*
X9385Y363D01*
X9388Y369D01*
X9391Y375D01*
X9393Y382D01*
X9395Y389D01*
X9397Y397D01*
X9398Y405D01*
X9399Y413D01*
Y414D01*
Y415D01*
Y416D01*
Y418D01*
X9398Y423D01*
X9397Y430D01*
X9395Y437D01*
X9394Y445D01*
X9390Y453D01*
X9386Y461D01*
Y462D01*
X9386Y462D01*
X9384Y465D01*
X9381Y468D01*
X9377Y473D01*
X9372Y479D01*
X9365Y484D01*
X9358Y490D01*
X9350Y495D01*
X9349D01*
X9348Y495D01*
X9347Y496D01*
X9345Y497D01*
X9341Y499D01*
X9338Y500D01*
X9333Y502D01*
X9327Y504D01*
X9321Y507D01*
X9314Y510D01*
X9305Y513D01*
X9295Y516D01*
X9284Y520D01*
X9273Y524D01*
X9259Y528D01*
X9245Y532D01*
X9244Y533D01*
X9242Y533D01*
X9238Y534D01*
X9233Y536D01*
X9227Y538D01*
X9220Y540D01*
X9213Y543D01*
X9205Y545D01*
X9188Y552D01*
X9171Y560D01*
X9163Y563D01*
X9155Y567D01*
X9148Y571D01*
X9142Y575D01*
X9142Y575D01*
X9141Y576D01*
X9139Y577D01*
X9137Y579D01*
X9134Y581D01*
X9132Y584D01*
X9125Y590D01*
X9117Y598D01*
X9109Y607D01*
X9102Y618D01*
X9095Y630D01*
Y630D01*
X9094Y631D01*
X9093Y633D01*
X9092Y636D01*
X9091Y639D01*
X9089Y643D01*
X9088Y647D01*
X9087Y652D01*
X9085Y657D01*
X9083Y663D01*
X9081Y676D01*
X9079Y690D01*
X9078Y705D01*
Y706D01*
Y708D01*
X9078Y712D01*
X9079Y718D01*
X9079Y724D01*
X9081Y731D01*
X9082Y740D01*
X9084Y749D01*
X9087Y758D01*
X9090Y768D01*
X9093Y779D01*
X9098Y789D01*
X9104Y799D01*
X9110Y809D01*
X9117Y819D01*
X9126Y828D01*
X9127Y829D01*
X9128Y831D01*
X9131Y833D01*
X9135Y836D01*
X9140Y840D01*
X9146Y844D01*
X9153Y848D01*
X9161Y853D01*
X9170Y857D01*
X9180Y861D01*
X9190Y865D01*
X9202Y869D01*
X9215Y872D01*
X9228Y874D01*
X9243Y876D01*
X9258Y877D01*
X9263D01*
X9267Y876D01*
D02*
G37*
G36*
X7674D02*
X7679D01*
X7685Y875D01*
X7692Y875D01*
X7698Y874D01*
X7706Y873D01*
X7714Y871D01*
X7731Y867D01*
X7739Y864D01*
X7747Y862D01*
X7756Y858D01*
X7764Y854D01*
X7764Y853D01*
X7766Y853D01*
X7768Y852D01*
X7771Y850D01*
X7774Y848D01*
X7778Y845D01*
X7783Y841D01*
X7788Y838D01*
X7793Y833D01*
X7799Y828D01*
X7804Y823D01*
X7810Y817D01*
X7815Y811D01*
X7820Y804D01*
X7825Y797D01*
X7830Y789D01*
X7830Y789D01*
X7831Y787D01*
X7832Y785D01*
X7833Y782D01*
X7835Y778D01*
X7838Y773D01*
X7840Y767D01*
X7842Y762D01*
X7844Y754D01*
X7847Y747D01*
X7848Y739D01*
X7851Y730D01*
X7852Y721D01*
X7853Y711D01*
X7855Y701D01*
X7855Y691D01*
X7790Y685D01*
Y686D01*
X7790Y688D01*
X7789Y691D01*
X7789Y695D01*
X7788Y700D01*
X7787Y706D01*
X7785Y712D01*
X7784Y719D01*
X7779Y734D01*
X7776Y741D01*
X7772Y748D01*
X7769Y756D01*
X7764Y762D01*
X7759Y769D01*
X7754Y775D01*
X7753Y775D01*
X7752Y776D01*
X7751Y777D01*
X7748Y779D01*
X7745Y782D01*
X7741Y784D01*
X7737Y787D01*
X7732Y790D01*
X7726Y792D01*
X7719Y795D01*
X7712Y797D01*
X7704Y800D01*
X7696Y802D01*
X7687Y803D01*
X7677Y804D01*
X7667Y804D01*
X7661D01*
X7657Y804D01*
X7653Y803D01*
X7647Y803D01*
X7641Y802D01*
X7635Y801D01*
X7621Y798D01*
X7613Y796D01*
X7606Y793D01*
X7599Y790D01*
X7592Y787D01*
X7585Y783D01*
X7580Y778D01*
X7579Y778D01*
X7578Y777D01*
X7577Y776D01*
X7575Y774D01*
X7573Y771D01*
X7570Y768D01*
X7568Y765D01*
X7565Y761D01*
X7562Y756D01*
X7560Y751D01*
X7555Y740D01*
X7553Y733D01*
X7551Y726D01*
X7550Y720D01*
X7550Y712D01*
Y711D01*
Y710D01*
Y708D01*
X7550Y706D01*
Y702D01*
X7551Y699D01*
X7553Y691D01*
X7555Y681D01*
X7559Y671D01*
X7565Y662D01*
X7568Y658D01*
X7572Y654D01*
X7572D01*
X7573Y653D01*
X7575Y651D01*
X7576Y650D01*
X7579Y648D01*
X7583Y646D01*
X7587Y643D01*
X7592Y640D01*
X7599Y637D01*
X7606Y634D01*
X7614Y630D01*
X7623Y627D01*
X7633Y623D01*
X7645Y620D01*
X7657Y615D01*
X7671Y611D01*
X7672D01*
X7674Y610D01*
X7678Y610D01*
X7683Y608D01*
X7689Y606D01*
X7696Y604D01*
X7704Y602D01*
X7712Y599D01*
X7730Y594D01*
X7747Y588D01*
X7756Y585D01*
X7763Y581D01*
X7770Y579D01*
X7777Y575D01*
X7777Y575D01*
X7779Y575D01*
X7781Y573D01*
X7784Y571D01*
X7788Y569D01*
X7793Y566D01*
X7798Y562D01*
X7803Y559D01*
X7814Y549D01*
X7826Y539D01*
X7837Y526D01*
X7842Y520D01*
X7847Y513D01*
X7847Y512D01*
X7848Y511D01*
X7849Y509D01*
X7850Y506D01*
X7852Y502D01*
X7854Y498D01*
X7857Y493D01*
X7859Y487D01*
X7861Y480D01*
X7863Y473D01*
X7865Y465D01*
X7867Y458D01*
X7868Y449D01*
X7870Y440D01*
X7870Y430D01*
X7871Y420D01*
Y420D01*
Y418D01*
Y415D01*
X7870Y411D01*
X7870Y407D01*
X7869Y401D01*
X7868Y395D01*
X7868Y388D01*
X7866Y381D01*
X7865Y373D01*
X7860Y357D01*
X7858Y348D01*
X7854Y340D01*
X7850Y331D01*
X7846Y323D01*
X7845Y322D01*
X7844Y321D01*
X7843Y319D01*
X7841Y316D01*
X7838Y312D01*
X7836Y308D01*
X7832Y303D01*
X7828Y298D01*
X7823Y293D01*
X7818Y287D01*
X7813Y282D01*
X7807Y276D01*
X7800Y271D01*
X7793Y266D01*
X7785Y261D01*
X7778Y256D01*
X7777Y256D01*
X7776Y256D01*
X7773Y254D01*
X7770Y253D01*
X7766Y251D01*
X7761Y249D01*
X7755Y247D01*
X7748Y245D01*
X7742Y243D01*
X7733Y241D01*
X7725Y239D01*
X7716Y237D01*
X7706Y236D01*
X7696Y235D01*
X7685Y234D01*
X7674Y234D01*
X7670D01*
X7668Y234D01*
X7665D01*
X7659Y235D01*
X7651Y236D01*
X7641Y237D01*
X7631Y238D01*
X7620Y241D01*
X7608Y244D01*
X7596Y247D01*
X7583Y252D01*
X7570Y257D01*
X7558Y264D01*
X7546Y271D01*
X7534Y280D01*
X7523Y290D01*
X7523Y291D01*
X7521Y293D01*
X7518Y296D01*
X7515Y301D01*
X7510Y307D01*
X7505Y313D01*
X7500Y322D01*
X7495Y331D01*
X7489Y341D01*
X7484Y353D01*
X7479Y366D01*
X7475Y379D01*
X7471Y394D01*
X7469Y410D01*
X7466Y427D01*
X7465Y444D01*
X7529Y451D01*
Y451D01*
X7530Y449D01*
Y446D01*
X7530Y443D01*
X7531Y438D01*
X7532Y433D01*
X7533Y428D01*
X7534Y422D01*
X7537Y409D01*
X7541Y396D01*
X7546Y383D01*
X7549Y377D01*
X7552Y371D01*
Y371D01*
X7553Y370D01*
X7554Y368D01*
X7555Y367D01*
X7560Y361D01*
X7565Y355D01*
X7572Y347D01*
X7581Y340D01*
X7591Y332D01*
X7603Y325D01*
X7604D01*
X7605Y324D01*
X7606Y324D01*
X7609Y322D01*
X7612Y321D01*
X7616Y320D01*
X7621Y318D01*
X7626Y317D01*
X7631Y315D01*
X7636Y313D01*
X7649Y311D01*
X7663Y309D01*
X7679Y308D01*
X7685D01*
X7689Y308D01*
X7694Y309D01*
X7700Y309D01*
X7706Y310D01*
X7713Y312D01*
X7728Y315D01*
X7736Y317D01*
X7743Y320D01*
X7751Y323D01*
X7758Y327D01*
X7766Y332D01*
X7772Y337D01*
X7772Y337D01*
X7773Y338D01*
X7775Y340D01*
X7778Y342D01*
X7780Y345D01*
X7782Y349D01*
X7786Y353D01*
X7789Y357D01*
X7792Y363D01*
X7795Y369D01*
X7798Y375D01*
X7800Y382D01*
X7803Y389D01*
X7804Y397D01*
X7805Y405D01*
X7806Y413D01*
Y414D01*
Y415D01*
Y416D01*
Y418D01*
X7805Y423D01*
X7804Y430D01*
X7803Y437D01*
X7801Y445D01*
X7798Y453D01*
X7793Y461D01*
Y462D01*
X7793Y462D01*
X7791Y465D01*
X7788Y468D01*
X7784Y473D01*
X7779Y479D01*
X7772Y484D01*
X7765Y490D01*
X7757Y495D01*
X7756D01*
X7755Y495D01*
X7754Y496D01*
X7752Y497D01*
X7748Y499D01*
X7745Y500D01*
X7740Y502D01*
X7734Y504D01*
X7728Y507D01*
X7721Y510D01*
X7712Y513D01*
X7702Y516D01*
X7692Y520D01*
X7680Y524D01*
X7666Y528D01*
X7652Y532D01*
X7651Y533D01*
X7649Y533D01*
X7645Y534D01*
X7640Y536D01*
X7634Y538D01*
X7627Y540D01*
X7620Y543D01*
X7612Y545D01*
X7595Y552D01*
X7578Y560D01*
X7570Y563D01*
X7562Y567D01*
X7555Y571D01*
X7549Y575D01*
X7549Y575D01*
X7548Y576D01*
X7546Y577D01*
X7544Y579D01*
X7541Y581D01*
X7539Y584D01*
X7532Y590D01*
X7524Y598D01*
X7516Y607D01*
X7509Y618D01*
X7502Y630D01*
Y630D01*
X7501Y631D01*
X7500Y633D01*
X7499Y636D01*
X7498Y639D01*
X7496Y643D01*
X7495Y647D01*
X7494Y652D01*
X7492Y657D01*
X7490Y663D01*
X7488Y676D01*
X7486Y690D01*
X7485Y705D01*
Y706D01*
Y708D01*
X7485Y712D01*
X7486Y718D01*
X7486Y724D01*
X7488Y731D01*
X7489Y740D01*
X7491Y749D01*
X7494Y758D01*
X7497Y768D01*
X7500Y779D01*
X7505Y789D01*
X7511Y799D01*
X7517Y809D01*
X7525Y819D01*
X7533Y828D01*
X7534Y829D01*
X7535Y831D01*
X7538Y833D01*
X7542Y836D01*
X7547Y840D01*
X7553Y844D01*
X7560Y848D01*
X7568Y853D01*
X7577Y857D01*
X7587Y861D01*
X7597Y865D01*
X7609Y869D01*
X7622Y872D01*
X7635Y874D01*
X7650Y876D01*
X7665Y877D01*
X7670D01*
X7674Y876D01*
D02*
G37*
G36*
X7200D02*
X7205D01*
X7210Y875D01*
X7217Y875D01*
X7224Y874D01*
X7231Y873D01*
X7239Y871D01*
X7256Y867D01*
X7264Y864D01*
X7273Y862D01*
X7281Y858D01*
X7289Y854D01*
X7290Y853D01*
X7291Y853D01*
X7293Y852D01*
X7297Y850D01*
X7300Y848D01*
X7304Y845D01*
X7309Y841D01*
X7313Y838D01*
X7319Y833D01*
X7324Y828D01*
X7330Y823D01*
X7335Y817D01*
X7341Y811D01*
X7346Y804D01*
X7351Y797D01*
X7355Y789D01*
X7356Y789D01*
X7356Y787D01*
X7358Y785D01*
X7359Y782D01*
X7361Y778D01*
X7363Y773D01*
X7365Y767D01*
X7368Y762D01*
X7370Y754D01*
X7372Y747D01*
X7374Y739D01*
X7376Y730D01*
X7378Y721D01*
X7379Y711D01*
X7380Y701D01*
X7381Y691D01*
X7316Y685D01*
Y686D01*
X7315Y688D01*
X7315Y691D01*
X7314Y695D01*
X7313Y700D01*
X7312Y706D01*
X7311Y712D01*
X7309Y719D01*
X7304Y734D01*
X7302Y741D01*
X7298Y748D01*
X7294Y756D01*
X7290Y762D01*
X7285Y769D01*
X7279Y775D01*
X7279Y775D01*
X7278Y776D01*
X7276Y777D01*
X7273Y779D01*
X7271Y782D01*
X7267Y784D01*
X7262Y787D01*
X7257Y790D01*
X7251Y792D01*
X7245Y795D01*
X7237Y797D01*
X7230Y800D01*
X7221Y802D01*
X7212Y803D01*
X7202Y804D01*
X7192Y804D01*
X7187D01*
X7183Y804D01*
X7178Y803D01*
X7173Y803D01*
X7166Y802D01*
X7160Y801D01*
X7146Y798D01*
X7139Y796D01*
X7131Y793D01*
X7124Y790D01*
X7117Y787D01*
X7111Y783D01*
X7105Y778D01*
X7105Y778D01*
X7104Y777D01*
X7102Y776D01*
X7100Y774D01*
X7098Y771D01*
X7095Y768D01*
X7093Y765D01*
X7090Y761D01*
X7087Y756D01*
X7085Y751D01*
X7080Y740D01*
X7078Y733D01*
X7077Y726D01*
X7076Y720D01*
X7075Y712D01*
Y711D01*
Y710D01*
Y708D01*
X7076Y706D01*
Y702D01*
X7077Y699D01*
X7078Y691D01*
X7081Y681D01*
X7085Y671D01*
X7090Y662D01*
X7094Y658D01*
X7097Y654D01*
X7098D01*
X7098Y653D01*
X7100Y651D01*
X7102Y650D01*
X7105Y648D01*
X7108Y646D01*
X7113Y643D01*
X7118Y640D01*
X7124Y637D01*
X7131Y634D01*
X7139Y630D01*
X7148Y627D01*
X7159Y623D01*
X7170Y620D01*
X7183Y615D01*
X7196Y611D01*
X7197D01*
X7200Y610D01*
X7204Y610D01*
X7209Y608D01*
X7215Y606D01*
X7222Y604D01*
X7230Y602D01*
X7238Y599D01*
X7255Y594D01*
X7273Y588D01*
X7281Y585D01*
X7289Y581D01*
X7296Y579D01*
X7302Y575D01*
X7302Y575D01*
X7304Y575D01*
X7307Y573D01*
X7310Y571D01*
X7313Y569D01*
X7318Y566D01*
X7323Y562D01*
X7328Y559D01*
X7339Y549D01*
X7351Y539D01*
X7362Y526D01*
X7368Y520D01*
X7372Y513D01*
X7373Y512D01*
X7373Y511D01*
X7374Y509D01*
X7376Y506D01*
X7378Y502D01*
X7380Y498D01*
X7382Y493D01*
X7384Y487D01*
X7386Y480D01*
X7388Y473D01*
X7391Y465D01*
X7393Y458D01*
X7394Y449D01*
X7395Y440D01*
X7396Y430D01*
X7396Y420D01*
Y420D01*
Y418D01*
Y415D01*
X7396Y411D01*
X7395Y407D01*
X7395Y401D01*
X7394Y395D01*
X7393Y388D01*
X7392Y381D01*
X7390Y373D01*
X7386Y357D01*
X7383Y348D01*
X7379Y340D01*
X7376Y331D01*
X7371Y323D01*
X7371Y322D01*
X7370Y321D01*
X7368Y319D01*
X7367Y316D01*
X7364Y312D01*
X7361Y308D01*
X7358Y303D01*
X7353Y298D01*
X7348Y293D01*
X7343Y287D01*
X7338Y282D01*
X7332Y276D01*
X7325Y271D01*
X7318Y266D01*
X7311Y261D01*
X7303Y256D01*
X7302Y256D01*
X7301Y256D01*
X7298Y254D01*
X7295Y253D01*
X7291Y251D01*
X7286Y249D01*
X7281Y247D01*
X7274Y245D01*
X7267Y243D01*
X7259Y241D01*
X7251Y239D01*
X7242Y237D01*
X7231Y236D01*
X7221Y235D01*
X7211Y234D01*
X7200Y234D01*
X7196D01*
X7193Y234D01*
X7191D01*
X7184Y235D01*
X7176Y236D01*
X7167Y237D01*
X7156Y238D01*
X7146Y241D01*
X7134Y244D01*
X7121Y247D01*
X7109Y252D01*
X7096Y257D01*
X7084Y264D01*
X7071Y271D01*
X7060Y280D01*
X7049Y290D01*
X7048Y291D01*
X7046Y293D01*
X7044Y296D01*
X7040Y301D01*
X7035Y307D01*
X7031Y313D01*
X7026Y322D01*
X7020Y331D01*
X7015Y341D01*
X7010Y353D01*
X7005Y366D01*
X7001Y379D01*
X6997Y394D01*
X6994Y410D01*
X6992Y427D01*
X6991Y444D01*
X7054Y451D01*
Y451D01*
X7055Y449D01*
Y446D01*
X7055Y443D01*
X7056Y438D01*
X7057Y433D01*
X7058Y428D01*
X7059Y422D01*
X7062Y409D01*
X7066Y396D01*
X7071Y383D01*
X7074Y377D01*
X7077Y371D01*
Y371D01*
X7078Y370D01*
X7079Y368D01*
X7080Y367D01*
X7085Y361D01*
X7090Y355D01*
X7098Y347D01*
X7107Y340D01*
X7117Y332D01*
X7129Y325D01*
X7129D01*
X7130Y324D01*
X7132Y324D01*
X7135Y322D01*
X7138Y321D01*
X7141Y320D01*
X7146Y318D01*
X7151Y317D01*
X7156Y315D01*
X7162Y313D01*
X7175Y311D01*
X7189Y309D01*
X7204Y308D01*
X7210D01*
X7214Y308D01*
X7219Y309D01*
X7225Y309D01*
X7231Y310D01*
X7238Y312D01*
X7253Y315D01*
X7261Y317D01*
X7269Y320D01*
X7277Y323D01*
X7284Y327D01*
X7291Y332D01*
X7297Y337D01*
X7298Y337D01*
X7299Y338D01*
X7301Y340D01*
X7303Y342D01*
X7305Y345D01*
X7308Y349D01*
X7311Y353D01*
X7314Y357D01*
X7317Y363D01*
X7321Y369D01*
X7323Y375D01*
X7326Y382D01*
X7328Y389D01*
X7330Y397D01*
X7331Y405D01*
X7331Y413D01*
Y414D01*
Y415D01*
Y416D01*
Y418D01*
X7331Y423D01*
X7330Y430D01*
X7328Y437D01*
X7326Y445D01*
X7323Y453D01*
X7319Y461D01*
Y462D01*
X7318Y462D01*
X7317Y465D01*
X7314Y468D01*
X7310Y473D01*
X7304Y479D01*
X7298Y484D01*
X7291Y490D01*
X7282Y495D01*
X7282D01*
X7281Y495D01*
X7279Y496D01*
X7277Y497D01*
X7274Y499D01*
X7270Y500D01*
X7266Y502D01*
X7260Y504D01*
X7253Y507D01*
X7246Y510D01*
X7237Y513D01*
X7228Y516D01*
X7217Y520D01*
X7205Y524D01*
X7192Y528D01*
X7177Y532D01*
X7176Y533D01*
X7174Y533D01*
X7171Y534D01*
X7166Y536D01*
X7160Y538D01*
X7153Y540D01*
X7146Y543D01*
X7138Y545D01*
X7120Y552D01*
X7104Y560D01*
X7095Y563D01*
X7088Y567D01*
X7081Y571D01*
X7075Y575D01*
X7074Y575D01*
X7073Y576D01*
X7072Y577D01*
X7070Y579D01*
X7067Y581D01*
X7064Y584D01*
X7057Y590D01*
X7049Y598D01*
X7042Y607D01*
X7034Y618D01*
X7027Y630D01*
Y630D01*
X7026Y631D01*
X7026Y633D01*
X7024Y636D01*
X7023Y639D01*
X7022Y643D01*
X7020Y647D01*
X7019Y652D01*
X7017Y657D01*
X7016Y663D01*
X7013Y676D01*
X7011Y690D01*
X7010Y705D01*
Y706D01*
Y708D01*
X7011Y712D01*
X7011Y718D01*
X7012Y724D01*
X7013Y731D01*
X7014Y740D01*
X7016Y749D01*
X7019Y758D01*
X7022Y768D01*
X7026Y779D01*
X7031Y789D01*
X7036Y799D01*
X7043Y809D01*
X7050Y819D01*
X7059Y828D01*
X7059Y829D01*
X7061Y831D01*
X7064Y833D01*
X7068Y836D01*
X7072Y840D01*
X7078Y844D01*
X7085Y848D01*
X7093Y853D01*
X7102Y857D01*
X7112Y861D01*
X7123Y865D01*
X7135Y869D01*
X7147Y872D01*
X7161Y874D01*
X7175Y876D01*
X7190Y877D01*
X7196D01*
X7200Y876D01*
D02*
G37*
G36*
X5264D02*
X5269Y876D01*
X5275Y875D01*
X5283Y874D01*
X5291Y873D01*
X5300Y871D01*
X5310Y868D01*
X5320Y865D01*
X5331Y862D01*
X5341Y857D01*
X5352Y852D01*
X5363Y846D01*
X5373Y839D01*
X5383Y831D01*
X5384Y830D01*
X5386Y828D01*
X5388Y826D01*
X5392Y822D01*
X5396Y817D01*
X5401Y812D01*
X5407Y805D01*
X5412Y797D01*
X5419Y787D01*
X5425Y777D01*
X5431Y767D01*
X5437Y755D01*
X5443Y742D01*
X5448Y727D01*
X5453Y712D01*
X5458Y696D01*
X5392Y677D01*
Y677D01*
X5391Y678D01*
X5391Y680D01*
X5390Y682D01*
X5389Y686D01*
X5388Y689D01*
X5386Y693D01*
X5385Y697D01*
X5381Y707D01*
X5376Y718D01*
X5370Y730D01*
X5362Y742D01*
X5353Y754D01*
X5344Y765D01*
X5332Y776D01*
X5320Y786D01*
X5313Y790D01*
X5306Y794D01*
X5299Y797D01*
X5291Y801D01*
X5282Y803D01*
X5274Y805D01*
X5265Y806D01*
X5255Y806D01*
X5250D01*
X5247Y806D01*
X5243Y805D01*
X5237Y805D01*
X5232Y804D01*
X5225Y803D01*
X5211Y800D01*
X5204Y797D01*
X5197Y795D01*
X5189Y792D01*
X5182Y788D01*
X5174Y784D01*
X5167Y780D01*
X5167Y779D01*
X5165Y778D01*
X5164Y777D01*
X5161Y775D01*
X5158Y772D01*
X5154Y769D01*
X5150Y765D01*
X5146Y760D01*
X5141Y755D01*
X5136Y749D01*
X5131Y742D01*
X5126Y735D01*
X5121Y726D01*
X5117Y718D01*
X5112Y709D01*
X5108Y699D01*
X5107Y698D01*
X5107Y696D01*
X5106Y693D01*
X5104Y689D01*
X5103Y683D01*
X5101Y677D01*
X5099Y669D01*
X5097Y661D01*
X5095Y651D01*
X5093Y640D01*
X5091Y629D01*
X5089Y616D01*
X5088Y603D01*
X5087Y590D01*
X5086Y575D01*
X5086Y559D01*
Y559D01*
Y558D01*
Y556D01*
Y554D01*
Y550D01*
X5086Y547D01*
Y543D01*
X5087Y538D01*
Y533D01*
X5087Y528D01*
X5088Y515D01*
X5089Y502D01*
X5091Y488D01*
X5093Y472D01*
X5097Y456D01*
X5100Y440D01*
X5104Y425D01*
X5110Y409D01*
X5116Y394D01*
X5123Y381D01*
X5130Y368D01*
X5131Y367D01*
X5133Y365D01*
X5135Y362D01*
X5138Y358D01*
X5143Y353D01*
X5149Y348D01*
X5155Y342D01*
X5162Y336D01*
X5170Y330D01*
X5179Y324D01*
X5189Y319D01*
X5200Y314D01*
X5211Y310D01*
X5224Y307D01*
X5236Y305D01*
X5250Y304D01*
X5252D01*
X5255Y305D01*
X5259D01*
X5264Y306D01*
X5270Y307D01*
X5276Y307D01*
X5283Y309D01*
X5290Y311D01*
X5297Y314D01*
X5305Y317D01*
X5313Y321D01*
X5321Y325D01*
X5330Y331D01*
X5337Y337D01*
X5345Y343D01*
X5346Y344D01*
X5347Y345D01*
X5349Y347D01*
X5351Y351D01*
X5355Y355D01*
X5358Y360D01*
X5362Y366D01*
X5367Y373D01*
X5371Y381D01*
X5376Y390D01*
X5380Y399D01*
X5385Y410D01*
X5389Y422D01*
X5392Y434D01*
X5396Y448D01*
X5399Y462D01*
X5467Y441D01*
Y441D01*
X5466Y440D01*
Y438D01*
X5466Y437D01*
X5465Y434D01*
X5464Y431D01*
X5462Y424D01*
X5460Y415D01*
X5457Y405D01*
X5452Y394D01*
X5448Y383D01*
X5443Y370D01*
X5437Y357D01*
X5431Y344D01*
X5424Y331D01*
X5416Y319D01*
X5407Y307D01*
X5397Y296D01*
X5387Y285D01*
X5387Y285D01*
X5385Y283D01*
X5382Y281D01*
X5377Y277D01*
X5372Y273D01*
X5366Y269D01*
X5358Y264D01*
X5349Y260D01*
X5340Y255D01*
X5330Y250D01*
X5318Y246D01*
X5306Y242D01*
X5293Y238D01*
X5280Y236D01*
X5266Y234D01*
X5251Y234D01*
X5248D01*
X5244Y234D01*
X5239D01*
X5233Y235D01*
X5226Y236D01*
X5218Y236D01*
X5209Y238D01*
X5200Y240D01*
X5190Y242D01*
X5180Y245D01*
X5170Y248D01*
X5160Y252D01*
X5149Y256D01*
X5139Y262D01*
X5130Y268D01*
X5129Y268D01*
X5128Y270D01*
X5125Y271D01*
X5122Y275D01*
X5117Y278D01*
X5113Y283D01*
X5107Y288D01*
X5101Y295D01*
X5094Y302D01*
X5088Y310D01*
X5081Y319D01*
X5074Y329D01*
X5068Y340D01*
X5061Y352D01*
X5054Y365D01*
X5048Y379D01*
X5048Y380D01*
X5047Y383D01*
X5045Y387D01*
X5043Y393D01*
X5041Y400D01*
X5038Y408D01*
X5035Y418D01*
X5032Y430D01*
X5029Y443D01*
X5026Y457D01*
X5023Y471D01*
X5021Y487D01*
X5019Y504D01*
X5017Y522D01*
X5017Y540D01*
X5016Y559D01*
Y560D01*
Y560D01*
Y562D01*
Y564D01*
Y566D01*
Y569D01*
X5017Y576D01*
X5017Y585D01*
X5018Y595D01*
X5019Y607D01*
X5020Y620D01*
X5022Y633D01*
X5024Y647D01*
X5027Y661D01*
X5030Y676D01*
X5033Y691D01*
X5037Y705D01*
X5042Y719D01*
X5048Y733D01*
X5048Y734D01*
X5049Y736D01*
X5051Y740D01*
X5054Y745D01*
X5057Y751D01*
X5061Y757D01*
X5066Y765D01*
X5071Y773D01*
X5077Y782D01*
X5083Y790D01*
X5090Y799D01*
X5098Y808D01*
X5106Y817D01*
X5115Y825D01*
X5124Y833D01*
X5134Y840D01*
X5135Y841D01*
X5137Y842D01*
X5140Y843D01*
X5144Y846D01*
X5149Y849D01*
X5155Y852D01*
X5163Y855D01*
X5170Y858D01*
X5179Y862D01*
X5189Y865D01*
X5199Y868D01*
X5209Y871D01*
X5220Y873D01*
X5232Y875D01*
X5245Y876D01*
X5257Y877D01*
X5260D01*
X5264Y876D01*
D02*
G37*
G36*
X4724Y244D02*
X4657D01*
Y537D01*
X4392D01*
Y244D01*
X4325D01*
Y866D01*
X4392D01*
Y610D01*
X4657D01*
Y866D01*
X4724D01*
Y244D01*
D02*
G37*
G36*
X13117Y607D02*
X13045D01*
Y694D01*
X13117D01*
Y607D01*
D02*
G37*
G36*
X14164Y868D02*
X14168Y867D01*
X14173Y867D01*
X14180Y866D01*
X14187Y864D01*
X14194Y862D01*
X14203Y860D01*
X14211Y857D01*
X14219Y853D01*
X14228Y848D01*
X14237Y843D01*
X14246Y837D01*
X14255Y830D01*
X14263Y822D01*
X14264Y822D01*
X14265Y820D01*
X14267Y817D01*
X14270Y814D01*
X14273Y809D01*
X14277Y804D01*
X14281Y798D01*
X14285Y791D01*
X14289Y782D01*
X14293Y774D01*
X14296Y765D01*
X14299Y754D01*
X14302Y743D01*
X14304Y732D01*
X14306Y720D01*
X14306Y707D01*
Y706D01*
Y705D01*
Y703D01*
X14306Y700D01*
Y696D01*
X14305Y692D01*
X14305Y687D01*
X14304Y682D01*
X14302Y670D01*
X14299Y657D01*
X14294Y645D01*
X14288Y632D01*
Y631D01*
X14287Y630D01*
X14286Y629D01*
X14284Y626D01*
X14283Y624D01*
X14280Y620D01*
X14274Y613D01*
X14267Y605D01*
X14258Y597D01*
X14248Y589D01*
X14236Y581D01*
X14237D01*
X14238Y580D01*
X14239Y580D01*
X14241Y579D01*
X14244Y578D01*
X14247Y577D01*
X14254Y574D01*
X14262Y570D01*
X14270Y565D01*
X14279Y560D01*
X14287Y553D01*
X14287D01*
X14288Y552D01*
X14290Y549D01*
X14294Y545D01*
X14298Y539D01*
X14304Y531D01*
X14309Y522D01*
X14314Y512D01*
X14319Y500D01*
Y500D01*
X14319Y499D01*
X14320Y497D01*
X14321Y495D01*
X14322Y492D01*
X14323Y488D01*
X14324Y484D01*
X14325Y479D01*
X14326Y474D01*
X14327Y468D01*
X14329Y456D01*
X14331Y443D01*
X14331Y428D01*
Y428D01*
Y427D01*
Y426D01*
Y424D01*
X14331Y420D01*
X14330Y414D01*
X14330Y407D01*
X14329Y398D01*
X14327Y389D01*
X14325Y378D01*
X14322Y367D01*
X14319Y356D01*
X14315Y345D01*
X14310Y333D01*
X14304Y321D01*
X14298Y310D01*
X14290Y298D01*
X14281Y288D01*
X14280Y287D01*
X14279Y286D01*
X14276Y283D01*
X14272Y279D01*
X14267Y275D01*
X14261Y271D01*
X14254Y266D01*
X14247Y261D01*
X14239Y256D01*
X14229Y251D01*
X14219Y246D01*
X14208Y242D01*
X14197Y239D01*
X14185Y236D01*
X14173Y234D01*
X14160Y234D01*
X14157D01*
X14153Y234D01*
X14149Y235D01*
X14143Y235D01*
X14137Y236D01*
X14129Y238D01*
X14122Y240D01*
X14113Y242D01*
X14104Y245D01*
X14095Y249D01*
X14086Y254D01*
X14077Y259D01*
X14067Y266D01*
X14058Y273D01*
X14049Y281D01*
X14049Y281D01*
X14047Y283D01*
X14045Y286D01*
X14042Y290D01*
X14038Y295D01*
X14035Y300D01*
X14030Y307D01*
X14026Y315D01*
X14021Y323D01*
X14016Y333D01*
X14012Y343D01*
X14008Y355D01*
X14005Y367D01*
X14002Y380D01*
X13999Y394D01*
X13998Y409D01*
X14060Y419D01*
Y418D01*
X14061Y418D01*
Y416D01*
X14061Y413D01*
X14061Y411D01*
X14062Y408D01*
X14064Y400D01*
X14067Y391D01*
X14071Y380D01*
X14075Y369D01*
X14080Y358D01*
X14086Y346D01*
X14092Y335D01*
X14101Y325D01*
X14110Y316D01*
X14120Y308D01*
X14126Y305D01*
X14132Y302D01*
X14138Y300D01*
X14145Y298D01*
X14152Y297D01*
X14159Y297D01*
X14161D01*
X14163Y297D01*
X14166D01*
X14170Y297D01*
X14174Y298D01*
X14179Y300D01*
X14184Y301D01*
X14190Y303D01*
X14196Y305D01*
X14202Y308D01*
X14208Y312D01*
X14214Y316D01*
X14221Y321D01*
X14227Y326D01*
X14233Y332D01*
X14233Y333D01*
X14234Y334D01*
X14236Y336D01*
X14238Y339D01*
X14240Y342D01*
X14243Y347D01*
X14246Y352D01*
X14249Y358D01*
X14252Y364D01*
X14255Y372D01*
X14258Y379D01*
X14260Y388D01*
X14262Y397D01*
X14264Y406D01*
X14264Y416D01*
X14265Y427D01*
Y427D01*
Y429D01*
Y432D01*
X14264Y436D01*
X14264Y440D01*
X14264Y446D01*
X14263Y452D01*
X14261Y458D01*
X14258Y472D01*
X14255Y479D01*
X14253Y486D01*
X14249Y494D01*
X14245Y501D01*
X14241Y508D01*
X14236Y514D01*
X14235Y514D01*
X14234Y515D01*
X14233Y517D01*
X14231Y519D01*
X14228Y522D01*
X14224Y524D01*
X14221Y528D01*
X14216Y531D01*
X14211Y534D01*
X14206Y537D01*
X14194Y542D01*
X14187Y544D01*
X14180Y546D01*
X14173Y547D01*
X14165Y547D01*
X14162D01*
X14158Y547D01*
X14152Y546D01*
X14146Y545D01*
X14139Y544D01*
X14131Y541D01*
X14121Y539D01*
X14128Y606D01*
X14138Y605D01*
X14142D01*
X14146Y605D01*
X14150Y606D01*
X14154Y606D01*
X14159Y607D01*
X14165Y609D01*
X14177Y612D01*
X14183Y614D01*
X14189Y617D01*
X14195Y620D01*
X14202Y624D01*
X14208Y628D01*
X14213Y633D01*
X14213Y634D01*
X14214Y635D01*
X14216Y636D01*
X14218Y638D01*
X14220Y641D01*
X14222Y645D01*
X14225Y649D01*
X14228Y653D01*
X14230Y658D01*
X14233Y664D01*
X14235Y670D01*
X14238Y677D01*
X14239Y684D01*
X14241Y692D01*
X14242Y700D01*
X14242Y709D01*
Y709D01*
Y711D01*
Y713D01*
X14242Y716D01*
X14241Y720D01*
X14241Y724D01*
X14240Y729D01*
X14239Y734D01*
X14236Y745D01*
X14232Y757D01*
X14229Y762D01*
X14226Y768D01*
X14222Y774D01*
X14218Y779D01*
X14217Y779D01*
X14217Y780D01*
X14215Y781D01*
X14213Y783D01*
X14211Y785D01*
X14208Y787D01*
X14201Y792D01*
X14193Y797D01*
X14183Y801D01*
X14177Y803D01*
X14171Y804D01*
X14165Y805D01*
X14159Y805D01*
X14155D01*
X14153Y805D01*
X14150Y804D01*
X14146Y804D01*
X14138Y802D01*
X14128Y798D01*
X14123Y796D01*
X14118Y793D01*
X14113Y790D01*
X14108Y786D01*
X14103Y782D01*
X14098Y777D01*
X14097Y777D01*
X14097Y776D01*
X14096Y774D01*
X14094Y772D01*
X14092Y769D01*
X14090Y765D01*
X14087Y761D01*
X14085Y756D01*
X14082Y751D01*
X14079Y744D01*
X14077Y737D01*
X14074Y730D01*
X14072Y722D01*
X14070Y713D01*
X14068Y703D01*
X14066Y693D01*
X14004Y707D01*
Y707D01*
Y708D01*
X14005Y711D01*
X14006Y715D01*
X14007Y720D01*
X14008Y726D01*
X14010Y734D01*
X14012Y743D01*
X14015Y752D01*
X14019Y762D01*
X14022Y771D01*
X14027Y781D01*
X14031Y791D01*
X14037Y801D01*
X14043Y810D01*
X14050Y819D01*
X14057Y827D01*
X14058Y828D01*
X14059Y829D01*
X14061Y831D01*
X14065Y833D01*
X14069Y837D01*
X14074Y840D01*
X14079Y844D01*
X14086Y848D01*
X14092Y851D01*
X14100Y855D01*
X14108Y858D01*
X14117Y862D01*
X14127Y864D01*
X14137Y866D01*
X14147Y868D01*
X14158Y868D01*
X14161D01*
X14164Y868D01*
D02*
G37*
G36*
X5746Y613D02*
X5970Y244D01*
X5881D01*
X5699Y558D01*
X5616Y459D01*
Y244D01*
X5548D01*
Y866D01*
X5616D01*
Y557D01*
X5869Y866D01*
X5960D01*
X5746Y613D01*
D02*
G37*
G36*
X11933Y244D02*
X11863D01*
X11596Y731D01*
Y244D01*
X11531D01*
Y866D01*
X11600D01*
X11868Y377D01*
Y866D01*
X11933D01*
Y244D01*
D02*
G37*
G36*
X6425D02*
X6355D01*
X6088Y731D01*
Y244D01*
X6023D01*
Y866D01*
X6092D01*
X6360Y377D01*
Y866D01*
X6425D01*
Y244D01*
D02*
G37*
G36*
X15695D02*
X15630D01*
Y764D01*
X15482Y244D01*
X15421D01*
X15274Y773D01*
Y244D01*
X15209D01*
Y866D01*
X15310D01*
X15431Y425D01*
X15455Y333D01*
Y334D01*
X15456Y335D01*
X15456Y337D01*
X15457Y340D01*
X15458Y343D01*
X15459Y348D01*
X15461Y353D01*
X15462Y359D01*
X15464Y366D01*
X15466Y373D01*
X15468Y381D01*
X15471Y390D01*
X15473Y400D01*
X15476Y410D01*
X15479Y421D01*
X15482Y433D01*
X15604Y866D01*
X15695D01*
Y244D01*
D02*
G37*
G36*
X15103D02*
X15037D01*
Y764D01*
X14889Y244D01*
X14828D01*
X14681Y773D01*
Y244D01*
X14616D01*
Y866D01*
X14718D01*
X14838Y425D01*
X14862Y333D01*
Y334D01*
X14863Y335D01*
X14863Y337D01*
X14864Y340D01*
X14865Y343D01*
X14866Y348D01*
X14868Y353D01*
X14869Y359D01*
X14871Y366D01*
X14873Y373D01*
X14875Y381D01*
X14878Y390D01*
X14880Y400D01*
X14883Y410D01*
X14886Y421D01*
X14890Y433D01*
X15012Y866D01*
X15103D01*
Y244D01*
D02*
G37*
G36*
X8497Y876D02*
X8503D01*
X8510Y875D01*
X8519Y874D01*
X8528Y873D01*
X8539Y872D01*
X8550Y869D01*
X8562Y867D01*
X8574Y863D01*
X8587Y859D01*
X8600Y855D01*
X8612Y849D01*
X8625Y843D01*
X8638Y836D01*
X8639Y835D01*
X8641Y834D01*
X8644Y832D01*
X8649Y828D01*
X8655Y824D01*
X8661Y819D01*
X8668Y813D01*
X8676Y806D01*
X8684Y798D01*
X8693Y789D01*
X8702Y779D01*
X8711Y769D01*
X8720Y757D01*
X8728Y745D01*
X8737Y732D01*
X8744Y718D01*
X8745Y717D01*
X8746Y714D01*
X8748Y710D01*
X8751Y704D01*
X8754Y697D01*
X8757Y688D01*
X8761Y679D01*
X8765Y667D01*
X8768Y656D01*
X8772Y642D01*
X8775Y628D01*
X8778Y613D01*
X8781Y597D01*
X8783Y581D01*
X8784Y564D01*
X8785Y547D01*
Y546D01*
Y545D01*
Y544D01*
Y541D01*
X8784Y538D01*
Y534D01*
X8784Y530D01*
X8784Y525D01*
X8783Y520D01*
X8783Y514D01*
X8782Y508D01*
X8781Y502D01*
X8778Y487D01*
X8776Y471D01*
X8772Y454D01*
X8767Y437D01*
X8761Y418D01*
X8753Y399D01*
X8745Y380D01*
X8735Y361D01*
X8724Y342D01*
X8711Y323D01*
X8710Y322D01*
X8708Y320D01*
X8704Y316D01*
X8700Y311D01*
X8694Y305D01*
X8687Y298D01*
X8679Y291D01*
X8670Y283D01*
X8661Y275D01*
X8650Y268D01*
X8639Y261D01*
X8627Y255D01*
X8615Y250D01*
X8602Y246D01*
X8589Y243D01*
X8582Y243D01*
X8575Y242D01*
X8572D01*
X8570Y243D01*
X8566D01*
X8563Y243D01*
X8556Y245D01*
X8548Y246D01*
X8540Y250D01*
X8532Y254D01*
X8529Y256D01*
X8526Y259D01*
X8525Y260D01*
X8523Y262D01*
X8521Y266D01*
X8518Y272D01*
X8515Y280D01*
X8512Y289D01*
X8510Y301D01*
X8509Y307D01*
X8508Y313D01*
X8508Y313D01*
X8507Y312D01*
X8506Y310D01*
X8504Y307D01*
X8502Y305D01*
X8499Y302D01*
X8492Y294D01*
X8485Y285D01*
X8475Y276D01*
X8466Y268D01*
X8455Y261D01*
X8455D01*
X8454Y260D01*
X8453Y259D01*
X8451Y258D01*
X8448Y256D01*
X8445Y255D01*
X8438Y252D01*
X8430Y249D01*
X8421Y246D01*
X8412Y244D01*
X8403Y243D01*
X8401D01*
X8398Y244D01*
X8394Y244D01*
X8390Y245D01*
X8385Y246D01*
X8379Y247D01*
X8374Y249D01*
X8367Y251D01*
X8360Y255D01*
X8353Y258D01*
X8345Y263D01*
X8339Y268D01*
X8331Y274D01*
X8324Y281D01*
X8318Y289D01*
X8317Y290D01*
X8316Y292D01*
X8314Y295D01*
X8311Y299D01*
X8308Y305D01*
X8304Y312D01*
X8301Y319D01*
X8297Y328D01*
X8293Y338D01*
X8289Y349D01*
X8285Y361D01*
X8282Y374D01*
X8280Y388D01*
X8278Y402D01*
X8276Y418D01*
X8276Y433D01*
Y434D01*
Y437D01*
Y440D01*
X8276Y446D01*
X8277Y452D01*
X8278Y460D01*
X8278Y468D01*
X8279Y478D01*
X8281Y488D01*
X8283Y499D01*
X8285Y510D01*
X8288Y522D01*
X8292Y534D01*
X8296Y547D01*
X8300Y560D01*
X8306Y572D01*
X8306Y573D01*
X8307Y575D01*
X8309Y579D01*
X8311Y583D01*
X8314Y589D01*
X8318Y595D01*
X8321Y602D01*
X8326Y610D01*
X8331Y618D01*
X8336Y626D01*
X8349Y643D01*
X8355Y651D01*
X8362Y659D01*
X8369Y666D01*
X8377Y672D01*
X8377Y672D01*
X8379Y673D01*
X8381Y675D01*
X8384Y677D01*
X8388Y679D01*
X8392Y682D01*
X8397Y685D01*
X8402Y688D01*
X8408Y691D01*
X8414Y694D01*
X8428Y699D01*
X8435Y701D01*
X8442Y703D01*
X8450Y704D01*
X8457Y704D01*
X8460D01*
X8462Y704D01*
X8465D01*
X8468Y703D01*
X8475Y702D01*
X8484Y700D01*
X8493Y696D01*
X8503Y691D01*
X8508Y688D01*
X8513Y685D01*
X8514D01*
X8515Y684D01*
X8516Y683D01*
X8518Y681D01*
X8521Y679D01*
X8523Y676D01*
X8530Y670D01*
X8537Y662D01*
X8545Y652D01*
X8553Y640D01*
X8561Y626D01*
X8572Y691D01*
X8635D01*
X8585Y407D01*
Y407D01*
X8584Y404D01*
X8584Y402D01*
X8583Y398D01*
X8582Y393D01*
X8581Y388D01*
X8580Y377D01*
X8578Y365D01*
X8577Y359D01*
X8576Y354D01*
X8576Y350D01*
X8575Y346D01*
X8575Y343D01*
Y341D01*
Y341D01*
Y339D01*
X8575Y337D01*
X8576Y334D01*
X8576Y331D01*
X8577Y327D01*
X8579Y324D01*
X8581Y321D01*
X8582Y321D01*
X8583Y320D01*
X8584Y319D01*
X8586Y317D01*
X8589Y316D01*
X8592Y315D01*
X8595Y314D01*
X8599Y313D01*
X8600D01*
X8602Y314D01*
X8607Y315D01*
X8612Y317D01*
X8620Y321D01*
X8624Y323D01*
X8629Y326D01*
X8634Y329D01*
X8640Y333D01*
X8645Y338D01*
X8652Y343D01*
X8652Y343D01*
X8653Y344D01*
X8655Y346D01*
X8657Y348D01*
X8660Y352D01*
X8664Y355D01*
X8667Y360D01*
X8672Y365D01*
X8676Y371D01*
X8681Y377D01*
X8686Y384D01*
X8691Y392D01*
X8695Y400D01*
X8700Y409D01*
X8705Y418D01*
X8709Y429D01*
X8710Y429D01*
X8710Y432D01*
X8712Y434D01*
X8713Y439D01*
X8715Y444D01*
X8717Y450D01*
X8719Y457D01*
X8721Y465D01*
X8723Y474D01*
X8726Y483D01*
X8728Y493D01*
X8729Y503D01*
X8732Y525D01*
X8733Y537D01*
X8733Y549D01*
Y549D01*
Y552D01*
Y556D01*
X8733Y561D01*
X8732Y568D01*
X8731Y576D01*
X8730Y585D01*
X8729Y594D01*
X8727Y604D01*
X8725Y615D01*
X8723Y626D01*
X8719Y638D01*
X8715Y650D01*
X8711Y662D01*
X8706Y674D01*
X8700Y685D01*
X8700Y686D01*
X8699Y688D01*
X8697Y691D01*
X8694Y695D01*
X8691Y700D01*
X8687Y706D01*
X8682Y713D01*
X8677Y720D01*
X8671Y727D01*
X8664Y735D01*
X8657Y743D01*
X8648Y751D01*
X8640Y759D01*
X8631Y767D01*
X8621Y773D01*
X8610Y780D01*
X8610Y781D01*
X8607Y782D01*
X8604Y783D01*
X8600Y786D01*
X8595Y788D01*
X8588Y791D01*
X8581Y794D01*
X8573Y797D01*
X8564Y801D01*
X8555Y804D01*
X8544Y807D01*
X8533Y809D01*
X8522Y812D01*
X8510Y813D01*
X8498Y814D01*
X8485Y815D01*
X8482D01*
X8478Y814D01*
X8472D01*
X8465Y813D01*
X8456Y812D01*
X8447Y811D01*
X8437Y809D01*
X8426Y807D01*
X8414Y804D01*
X8403Y801D01*
X8390Y797D01*
X8378Y792D01*
X8365Y786D01*
X8352Y779D01*
X8340Y772D01*
X8339Y771D01*
X8337Y770D01*
X8334Y767D01*
X8329Y763D01*
X8324Y759D01*
X8317Y753D01*
X8310Y747D01*
X8303Y739D01*
X8294Y731D01*
X8286Y721D01*
X8277Y711D01*
X8268Y699D01*
X8259Y686D01*
X8251Y673D01*
X8242Y658D01*
X8235Y643D01*
Y642D01*
X8234Y642D01*
X8234Y640D01*
X8233Y639D01*
X8231Y634D01*
X8228Y628D01*
X8226Y620D01*
X8222Y610D01*
X8218Y599D01*
X8215Y586D01*
X8211Y573D01*
X8207Y558D01*
X8204Y542D01*
X8201Y525D01*
X8198Y507D01*
X8197Y488D01*
X8195Y468D01*
X8195Y448D01*
Y448D01*
Y447D01*
Y445D01*
Y443D01*
Y441D01*
X8195Y438D01*
Y434D01*
Y431D01*
X8196Y422D01*
X8197Y412D01*
X8198Y400D01*
X8199Y387D01*
X8201Y373D01*
X8204Y359D01*
X8207Y345D01*
X8210Y330D01*
X8214Y315D01*
X8219Y300D01*
X8225Y286D01*
X8231Y272D01*
X8232Y271D01*
X8233Y269D01*
X8235Y265D01*
X8238Y260D01*
X8242Y254D01*
X8246Y247D01*
X8252Y240D01*
X8258Y231D01*
X8265Y223D01*
X8273Y214D01*
X8281Y205D01*
X8290Y195D01*
X8300Y186D01*
X8311Y178D01*
X8323Y170D01*
X8335Y162D01*
X8336Y162D01*
X8338Y160D01*
X8342Y159D01*
X8347Y156D01*
X8354Y154D01*
X8361Y150D01*
X8370Y147D01*
X8380Y144D01*
X8392Y140D01*
X8404Y136D01*
X8417Y133D01*
X8431Y130D01*
X8446Y128D01*
X8462Y126D01*
X8478Y125D01*
X8495Y125D01*
X8499D01*
X8504Y125D01*
X8510D01*
X8517Y125D01*
X8525Y126D01*
X8535Y127D01*
X8545Y129D01*
X8556Y131D01*
X8568Y133D01*
X8580Y136D01*
X8592Y140D01*
X8605Y143D01*
X8617Y148D01*
X8630Y153D01*
X8642Y160D01*
X8643Y160D01*
X8645Y161D01*
X8648Y163D01*
X8652Y166D01*
X8658Y170D01*
X8664Y174D01*
X8671Y179D01*
X8678Y184D01*
X8686Y191D01*
X8694Y198D01*
X8702Y205D01*
X8710Y214D01*
X8718Y222D01*
X8725Y232D01*
X8733Y242D01*
X8739Y252D01*
X8802D01*
X8801Y252D01*
X8801Y250D01*
X8799Y247D01*
X8798Y244D01*
X8795Y239D01*
X8793Y234D01*
X8789Y228D01*
X8785Y221D01*
X8781Y214D01*
X8776Y206D01*
X8770Y198D01*
X8764Y190D01*
X8757Y181D01*
X8750Y172D01*
X8742Y163D01*
X8733Y155D01*
X8733Y154D01*
X8731Y153D01*
X8728Y150D01*
X8725Y147D01*
X8720Y143D01*
X8715Y139D01*
X8709Y134D01*
X8702Y128D01*
X8694Y123D01*
X8686Y117D01*
X8677Y111D01*
X8668Y105D01*
X8659Y100D01*
X8648Y94D01*
X8638Y89D01*
X8627Y85D01*
X8627Y84D01*
X8625Y84D01*
X8622Y83D01*
X8617Y81D01*
X8612Y79D01*
X8605Y78D01*
X8598Y75D01*
X8589Y74D01*
X8580Y71D01*
X8570Y69D01*
X8559Y67D01*
X8547Y65D01*
X8535Y64D01*
X8522Y63D01*
X8509Y62D01*
X8495Y62D01*
X8488D01*
X8485Y62D01*
X8481D01*
X8477Y63D01*
X8467Y63D01*
X8456Y64D01*
X8444Y65D01*
X8430Y67D01*
X8416Y69D01*
X8401Y73D01*
X8386Y76D01*
X8370Y80D01*
X8354Y85D01*
X8339Y91D01*
X8323Y98D01*
X8308Y106D01*
X8308Y106D01*
X8305Y108D01*
X8301Y110D01*
X8296Y114D01*
X8289Y119D01*
X8282Y125D01*
X8273Y131D01*
X8264Y139D01*
X8255Y147D01*
X8245Y157D01*
X8235Y168D01*
X8225Y179D01*
X8215Y192D01*
X8205Y206D01*
X8196Y220D01*
X8187Y236D01*
Y236D01*
X8187Y236D01*
X8187Y238D01*
X8186Y240D01*
X8185Y241D01*
X8183Y244D01*
X8181Y251D01*
X8177Y259D01*
X8173Y269D01*
X8170Y281D01*
X8166Y293D01*
X8161Y308D01*
X8157Y323D01*
X8154Y341D01*
X8150Y358D01*
X8147Y378D01*
X8145Y398D01*
X8144Y419D01*
X8143Y442D01*
Y442D01*
Y443D01*
Y445D01*
Y448D01*
Y450D01*
X8144Y454D01*
Y458D01*
X8144Y463D01*
Y468D01*
X8145Y474D01*
X8145Y481D01*
X8146Y488D01*
X8147Y503D01*
X8149Y519D01*
X8152Y536D01*
X8155Y555D01*
X8159Y574D01*
X8164Y594D01*
X8169Y614D01*
X8176Y634D01*
X8183Y655D01*
X8192Y674D01*
Y675D01*
X8192Y676D01*
X8193Y677D01*
X8194Y679D01*
X8196Y681D01*
X8197Y684D01*
X8201Y691D01*
X8206Y700D01*
X8211Y710D01*
X8218Y721D01*
X8226Y732D01*
X8234Y745D01*
X8243Y757D01*
X8253Y770D01*
X8264Y783D01*
X8276Y795D01*
X8288Y807D01*
X8301Y817D01*
X8315Y828D01*
X8316Y828D01*
X8318Y830D01*
X8323Y832D01*
X8328Y835D01*
X8335Y839D01*
X8344Y843D01*
X8354Y848D01*
X8364Y852D01*
X8377Y857D01*
X8390Y861D01*
X8404Y865D01*
X8419Y869D01*
X8436Y872D01*
X8453Y874D01*
X8470Y876D01*
X8489Y877D01*
X8492D01*
X8497Y876D01*
D02*
G37*
G36*
X15886Y244D02*
X15815D01*
Y331D01*
X15886D01*
Y244D01*
D02*
G37*
G36*
X13909D02*
X13837D01*
Y331D01*
X13909D01*
Y244D01*
D02*
G37*
G36*
X13117D02*
X13045D01*
Y331D01*
X13117D01*
Y244D01*
D02*
G37*
G36*
X12758Y865D02*
X12764D01*
X12771Y865D01*
X12778Y864D01*
X12786Y863D01*
X12803Y862D01*
X12820Y858D01*
X12828Y856D01*
X12837Y854D01*
X12844Y851D01*
X12851Y848D01*
X12851D01*
X12852Y847D01*
X12854Y846D01*
X12856Y845D01*
X12859Y843D01*
X12863Y840D01*
X12866Y838D01*
X12870Y834D01*
X12875Y831D01*
X12879Y826D01*
X12884Y822D01*
X12889Y816D01*
X12893Y811D01*
X12898Y804D01*
X12902Y797D01*
X12906Y790D01*
X12907Y790D01*
X12907Y788D01*
X12908Y786D01*
X12910Y783D01*
X12911Y779D01*
X12913Y775D01*
X12915Y769D01*
X12917Y763D01*
X12919Y757D01*
X12921Y750D01*
X12923Y742D01*
X12925Y734D01*
X12926Y725D01*
X12927Y716D01*
X12928Y706D01*
X12928Y696D01*
Y696D01*
Y693D01*
X12928Y690D01*
Y685D01*
X12927Y679D01*
X12926Y672D01*
X12925Y664D01*
X12924Y656D01*
X12922Y647D01*
X12919Y638D01*
X12916Y628D01*
X12913Y619D01*
X12909Y609D01*
X12904Y600D01*
X12898Y591D01*
X12891Y582D01*
X12891Y582D01*
X12889Y580D01*
X12888Y578D01*
X12884Y575D01*
X12881Y572D01*
X12876Y568D01*
X12870Y564D01*
X12864Y559D01*
X12857Y554D01*
X12849Y549D01*
X12840Y545D01*
X12831Y540D01*
X12820Y536D01*
X12809Y533D01*
X12798Y529D01*
X12785Y527D01*
X12785D01*
X12786Y526D01*
X12787Y525D01*
X12789Y524D01*
X12794Y520D01*
X12801Y516D01*
X12808Y511D01*
X12815Y505D01*
X12822Y499D01*
X12828Y492D01*
X12828Y492D01*
X12829Y490D01*
X12831Y489D01*
X12833Y486D01*
X12836Y483D01*
X12839Y479D01*
X12842Y474D01*
X12846Y469D01*
X12850Y463D01*
X12854Y457D01*
X12863Y444D01*
X12872Y429D01*
X12881Y413D01*
X12970Y244D01*
X12885D01*
X12817Y373D01*
X12817Y374D01*
X12815Y376D01*
X12813Y380D01*
X12811Y385D01*
X12808Y392D01*
X12803Y398D01*
X12799Y406D01*
X12795Y414D01*
X12785Y431D01*
X12775Y448D01*
X12770Y456D01*
X12766Y463D01*
X12762Y470D01*
X12757Y475D01*
Y476D01*
X12757Y477D01*
X12756Y478D01*
X12754Y479D01*
X12750Y484D01*
X12745Y490D01*
X12739Y496D01*
X12732Y501D01*
X12726Y507D01*
X12718Y511D01*
X12717Y511D01*
X12715Y512D01*
X12711Y514D01*
X12705Y516D01*
X12697Y517D01*
X12688Y519D01*
X12678Y520D01*
X12666Y520D01*
X12588D01*
Y244D01*
X12521D01*
Y866D01*
X12753D01*
X12758Y865D01*
D02*
G37*
G36*
X12417Y792D02*
X12115D01*
Y602D01*
X12398D01*
Y529D01*
X12115D01*
Y317D01*
X12429D01*
Y244D01*
X12048D01*
Y866D01*
X12417D01*
Y792D01*
D02*
G37*
G36*
X11428D02*
X11127D01*
Y602D01*
X11409D01*
Y529D01*
X11127D01*
Y317D01*
X11440D01*
Y244D01*
X11060D01*
Y866D01*
X11428D01*
Y792D01*
D02*
G37*
G36*
X10972D02*
X10695D01*
Y600D01*
X10935D01*
Y527D01*
X10695D01*
Y244D01*
X10628D01*
Y866D01*
X10972D01*
Y792D01*
D02*
G37*
G36*
X10537D02*
X10260D01*
Y600D01*
X10500D01*
Y527D01*
X10260D01*
Y244D01*
X10193D01*
Y866D01*
X10537D01*
Y792D01*
D02*
G37*
G36*
X10071Y244D02*
X10003D01*
Y866D01*
X10071D01*
Y244D01*
D02*
G37*
G36*
X9922Y792D02*
X9754D01*
Y244D01*
X9686D01*
Y792D01*
X9518D01*
Y866D01*
X9922D01*
Y792D01*
D02*
G37*
G36*
X6909D02*
X6608D01*
Y602D01*
X6890D01*
Y529D01*
X6608D01*
Y317D01*
X6921D01*
Y244D01*
X6540D01*
Y866D01*
X6909D01*
Y792D01*
D02*
G37*
G36*
X4919Y244D02*
X4852D01*
Y866D01*
X4919D01*
Y244D01*
D02*
G37*
G36*
X4257Y792D02*
X4088D01*
Y244D01*
X4021D01*
Y792D01*
X3853D01*
Y866D01*
X4257D01*
Y792D01*
D02*
G37*
G36*
X3360Y317D02*
X3611D01*
Y244D01*
X3293D01*
Y866D01*
X3360D01*
Y317D01*
D02*
G37*
G36*
X3243Y244D02*
X3166D01*
X3106Y433D01*
X2893D01*
X2838Y244D01*
X2766D01*
X2961Y866D01*
X3034D01*
X3243Y244D01*
D02*
G37*
G36*
X2754Y792D02*
X2585D01*
Y244D01*
X2518D01*
Y792D01*
X2350D01*
Y866D01*
X2754D01*
Y792D01*
D02*
G37*
G36*
X1765D02*
X1596D01*
Y244D01*
X1529D01*
Y792D01*
X1361D01*
Y866D01*
X1765D01*
Y792D01*
D02*
G37*
G36*
X13577Y868D02*
X13582Y867D01*
X13589Y866D01*
X13596Y864D01*
X13604Y863D01*
X13612Y860D01*
X13622Y856D01*
X13631Y852D01*
X13640Y847D01*
X13650Y840D01*
X13659Y833D01*
X13668Y824D01*
X13677Y814D01*
X13686Y802D01*
X13686Y802D01*
X13687Y800D01*
X13688Y799D01*
X13689Y797D01*
X13690Y794D01*
X13692Y791D01*
X13694Y787D01*
X13696Y783D01*
X13698Y779D01*
X13700Y774D01*
X13702Y768D01*
X13704Y762D01*
X13707Y756D01*
X13709Y749D01*
X13711Y742D01*
X13713Y733D01*
X13716Y725D01*
X13718Y716D01*
X13721Y706D01*
X13723Y696D01*
X13725Y686D01*
X13727Y675D01*
X13729Y663D01*
X13730Y651D01*
X13732Y638D01*
X13733Y625D01*
X13734Y611D01*
X13735Y597D01*
X13736Y582D01*
X13737Y566D01*
Y550D01*
Y550D01*
Y549D01*
Y546D01*
Y544D01*
Y540D01*
X13736Y535D01*
Y530D01*
Y525D01*
X13736Y519D01*
X13735Y512D01*
X13735Y504D01*
X13734Y497D01*
X13733Y480D01*
X13731Y463D01*
X13729Y444D01*
X13726Y424D01*
X13723Y405D01*
X13719Y385D01*
X13714Y366D01*
X13708Y347D01*
X13702Y330D01*
X13694Y314D01*
X13694Y313D01*
X13692Y311D01*
X13690Y307D01*
X13687Y302D01*
X13682Y296D01*
X13677Y289D01*
X13670Y281D01*
X13663Y274D01*
X13655Y266D01*
X13646Y259D01*
X13635Y252D01*
X13624Y246D01*
X13612Y241D01*
X13599Y237D01*
X13585Y235D01*
X13577Y234D01*
X13570Y234D01*
X13566D01*
X13563Y234D01*
X13557Y235D01*
X13551Y236D01*
X13544Y237D01*
X13536Y240D01*
X13527Y243D01*
X13518Y246D01*
X13509Y251D01*
X13499Y257D01*
X13489Y264D01*
X13479Y272D01*
X13469Y281D01*
X13460Y292D01*
X13450Y305D01*
X13450Y306D01*
X13449Y308D01*
X13446Y312D01*
X13445Y315D01*
X13443Y318D01*
X13441Y322D01*
X13440Y327D01*
X13438Y331D01*
X13436Y337D01*
X13434Y342D01*
X13432Y348D01*
X13429Y355D01*
X13427Y362D01*
X13425Y370D01*
X13423Y378D01*
X13421Y387D01*
X13419Y396D01*
X13417Y406D01*
X13415Y416D01*
X13413Y427D01*
X13411Y438D01*
X13410Y450D01*
X13408Y463D01*
X13407Y476D01*
X13406Y490D01*
X13405Y504D01*
X13404Y519D01*
X13404Y534D01*
Y550D01*
Y551D01*
Y552D01*
Y554D01*
Y557D01*
Y561D01*
X13404Y565D01*
Y570D01*
Y576D01*
X13405Y582D01*
X13405Y589D01*
X13406Y596D01*
X13406Y604D01*
X13408Y621D01*
X13409Y639D01*
X13411Y658D01*
X13414Y677D01*
X13418Y697D01*
X13422Y716D01*
X13426Y736D01*
X13432Y754D01*
X13439Y772D01*
X13446Y787D01*
Y788D01*
X13446Y788D01*
X13448Y791D01*
X13450Y795D01*
X13454Y800D01*
X13458Y806D01*
X13464Y813D01*
X13470Y820D01*
X13477Y828D01*
X13485Y835D01*
X13495Y843D01*
X13505Y849D01*
X13516Y855D01*
X13529Y861D01*
X13541Y864D01*
X13556Y867D01*
X13563Y868D01*
X13574D01*
X13577Y868D01*
D02*
G37*
G36*
X2064Y876D02*
X2069D01*
X2075Y875D01*
X2082Y875D01*
X2090Y873D01*
X2098Y872D01*
X2108Y870D01*
X2117Y868D01*
X2127Y864D01*
X2138Y861D01*
X2149Y856D01*
X2159Y851D01*
X2170Y845D01*
X2181Y838D01*
X2181Y838D01*
X2183Y837D01*
X2186Y834D01*
X2190Y831D01*
X2194Y828D01*
X2200Y822D01*
X2206Y817D01*
X2212Y810D01*
X2219Y803D01*
X2226Y795D01*
X2234Y786D01*
X2241Y776D01*
X2248Y765D01*
X2255Y753D01*
X2262Y741D01*
X2268Y727D01*
X2269Y726D01*
X2270Y724D01*
X2272Y720D01*
X2273Y715D01*
X2276Y707D01*
X2279Y699D01*
X2282Y690D01*
X2285Y679D01*
X2288Y666D01*
X2291Y653D01*
X2293Y639D01*
X2296Y624D01*
X2298Y608D01*
X2300Y591D01*
X2301Y573D01*
X2301Y554D01*
Y554D01*
Y553D01*
Y551D01*
Y549D01*
Y545D01*
X2301Y541D01*
Y537D01*
X2300Y532D01*
X2300Y526D01*
X2299Y520D01*
X2298Y513D01*
X2298Y506D01*
X2296Y491D01*
X2293Y474D01*
X2290Y457D01*
X2286Y439D01*
X2281Y420D01*
X2275Y401D01*
X2267Y383D01*
X2259Y364D01*
X2249Y346D01*
X2238Y329D01*
Y329D01*
X2237Y328D01*
X2236Y327D01*
X2235Y325D01*
X2231Y321D01*
X2226Y314D01*
X2219Y307D01*
X2211Y299D01*
X2201Y291D01*
X2190Y281D01*
X2177Y272D01*
X2164Y264D01*
X2149Y256D01*
X2133Y249D01*
X2115Y242D01*
X2097Y238D01*
X2088Y236D01*
X2078Y235D01*
X2068Y234D01*
X2057Y234D01*
X2052D01*
X2050Y234D01*
X2046D01*
X2043Y235D01*
X2039Y235D01*
X2029Y237D01*
X2018Y239D01*
X2006Y242D01*
X1992Y246D01*
X1978Y251D01*
X1964Y258D01*
X1948Y266D01*
X1933Y275D01*
X1925Y281D01*
X1918Y287D01*
X1911Y293D01*
X1903Y300D01*
X1896Y307D01*
X1889Y315D01*
X1882Y323D01*
X1876Y332D01*
Y332D01*
X1875Y333D01*
X1874Y334D01*
X1873Y336D01*
X1872Y338D01*
X1870Y341D01*
X1868Y344D01*
X1866Y348D01*
X1861Y357D01*
X1856Y367D01*
X1851Y379D01*
X1845Y392D01*
X1839Y407D01*
X1833Y423D01*
X1828Y441D01*
X1823Y460D01*
X1820Y480D01*
X1817Y501D01*
X1815Y524D01*
X1814Y547D01*
Y547D01*
Y549D01*
Y551D01*
Y554D01*
X1814Y558D01*
Y562D01*
X1815Y567D01*
Y573D01*
X1815Y580D01*
X1816Y586D01*
X1817Y594D01*
X1817Y601D01*
X1820Y619D01*
X1822Y637D01*
X1826Y656D01*
X1831Y676D01*
X1837Y696D01*
X1843Y717D01*
X1851Y737D01*
X1861Y756D01*
X1871Y774D01*
X1883Y791D01*
Y792D01*
X1884Y792D01*
X1887Y795D01*
X1891Y799D01*
X1896Y804D01*
X1903Y811D01*
X1911Y818D01*
X1921Y826D01*
X1932Y834D01*
X1943Y842D01*
X1957Y850D01*
X1971Y857D01*
X1987Y863D01*
X2003Y869D01*
X2020Y873D01*
X2039Y876D01*
X2048Y876D01*
X2058Y877D01*
X2061D01*
X2064Y876D01*
D02*
G37*
%LPC*%
G36*
X9634Y1560D02*
X9517D01*
Y1085D01*
X9632D01*
X9636Y1085D01*
X9642D01*
X9648Y1086D01*
X9655Y1086D01*
X9662Y1087D01*
X9678Y1090D01*
X9695Y1094D01*
X9703Y1096D01*
X9710Y1099D01*
X9718Y1102D01*
X9724Y1106D01*
X9725Y1107D01*
X9726Y1107D01*
X9728Y1108D01*
X9730Y1110D01*
X9733Y1112D01*
X9736Y1115D01*
X9740Y1119D01*
X9744Y1123D01*
X9748Y1127D01*
X9752Y1132D01*
X9757Y1138D01*
X9761Y1144D01*
X9765Y1151D01*
X9769Y1158D01*
X9773Y1166D01*
X9777Y1175D01*
X9777Y1176D01*
X9778Y1177D01*
X9779Y1181D01*
X9780Y1186D01*
X9783Y1192D01*
X9785Y1199D01*
X9787Y1208D01*
X9789Y1218D01*
X9791Y1228D01*
X9794Y1239D01*
X9796Y1252D01*
X9798Y1265D01*
X9799Y1279D01*
X9800Y1294D01*
X9801Y1310D01*
X9801Y1326D01*
Y1327D01*
Y1327D01*
Y1329D01*
Y1330D01*
Y1333D01*
Y1335D01*
X9801Y1342D01*
X9800Y1350D01*
X9800Y1359D01*
X9799Y1369D01*
X9798Y1380D01*
X9797Y1392D01*
X9795Y1404D01*
X9793Y1416D01*
X9790Y1429D01*
X9787Y1441D01*
X9784Y1453D01*
X9780Y1464D01*
X9775Y1475D01*
X9775Y1475D01*
X9774Y1477D01*
X9773Y1480D01*
X9771Y1483D01*
X9768Y1488D01*
X9765Y1493D01*
X9762Y1498D01*
X9758Y1504D01*
X9753Y1510D01*
X9748Y1516D01*
X9737Y1528D01*
X9730Y1534D01*
X9724Y1539D01*
X9717Y1543D01*
X9709Y1547D01*
X9709D01*
X9708Y1547D01*
X9707Y1548D01*
X9704Y1549D01*
X9701Y1550D01*
X9698Y1551D01*
X9693Y1552D01*
X9689Y1553D01*
X9683Y1555D01*
X9677Y1556D01*
X9669Y1557D01*
X9662Y1558D01*
X9653Y1558D01*
X9644Y1559D01*
X9634Y1560D01*
D02*
G37*
G36*
X5712D02*
X5600D01*
Y1372D01*
X5720D01*
X5725Y1372D01*
X5734Y1373D01*
X5744Y1373D01*
X5754Y1374D01*
X5764Y1376D01*
X5768Y1377D01*
X5771Y1378D01*
X5772D01*
X5773Y1378D01*
X5774Y1379D01*
X5776Y1380D01*
X5781Y1381D01*
X5786Y1385D01*
X5793Y1389D01*
X5800Y1394D01*
X5806Y1400D01*
X5812Y1407D01*
Y1408D01*
X5812Y1408D01*
X5813Y1410D01*
X5814Y1411D01*
X5815Y1413D01*
X5816Y1416D01*
X5819Y1422D01*
X5822Y1430D01*
X5824Y1440D01*
X5826Y1452D01*
X5826Y1465D01*
Y1465D01*
Y1466D01*
Y1468D01*
Y1470D01*
X5826Y1473D01*
Y1476D01*
X5825Y1484D01*
X5823Y1493D01*
X5821Y1502D01*
X5818Y1511D01*
X5813Y1520D01*
Y1521D01*
X5813Y1521D01*
X5811Y1524D01*
X5808Y1528D01*
X5804Y1532D01*
X5799Y1537D01*
X5794Y1542D01*
X5787Y1547D01*
X5779Y1551D01*
X5779D01*
X5778Y1551D01*
X5777Y1552D01*
X5775Y1552D01*
X5772Y1553D01*
X5770Y1554D01*
X5766Y1555D01*
X5761Y1556D01*
X5756Y1556D01*
X5751Y1557D01*
X5745Y1558D01*
X5738Y1558D01*
X5730Y1559D01*
X5721Y1559D01*
X5712Y1560D01*
D02*
G37*
G36*
X5727Y1299D02*
X5600D01*
Y1085D01*
X5734D01*
X5737Y1085D01*
X5741D01*
X5750Y1086D01*
X5760Y1086D01*
X5770Y1088D01*
X5781Y1090D01*
X5785Y1091D01*
X5789Y1092D01*
X5789D01*
X5790Y1092D01*
X5791Y1093D01*
X5793Y1094D01*
X5799Y1097D01*
X5805Y1101D01*
X5812Y1106D01*
X5819Y1112D01*
X5826Y1120D01*
X5832Y1128D01*
Y1129D01*
X5833Y1130D01*
X5834Y1131D01*
X5835Y1133D01*
X5836Y1136D01*
X5837Y1138D01*
X5839Y1142D01*
X5840Y1146D01*
X5843Y1155D01*
X5846Y1166D01*
X5847Y1178D01*
X5848Y1192D01*
Y1192D01*
Y1193D01*
Y1195D01*
Y1198D01*
X5847Y1201D01*
X5847Y1204D01*
X5846Y1213D01*
X5844Y1222D01*
X5842Y1232D01*
X5838Y1242D01*
X5833Y1251D01*
Y1252D01*
X5833Y1252D01*
X5832Y1253D01*
X5831Y1255D01*
X5827Y1259D01*
X5823Y1265D01*
X5817Y1271D01*
X5811Y1277D01*
X5803Y1282D01*
X5794Y1287D01*
X5794D01*
X5793Y1288D01*
X5791Y1288D01*
X5790Y1289D01*
X5787Y1290D01*
X5784Y1291D01*
X5780Y1292D01*
X5775Y1293D01*
X5770Y1294D01*
X5765Y1295D01*
X5759Y1296D01*
X5752Y1297D01*
X5744Y1298D01*
X5736Y1298D01*
X5727Y1299D01*
D02*
G37*
G36*
X5051Y1564D02*
X4891D01*
Y1359D01*
X5043D01*
X5047Y1359D01*
X5052D01*
X5057Y1360D01*
X5062Y1360D01*
X5073Y1362D01*
X5086Y1364D01*
X5097Y1367D01*
X5102Y1369D01*
X5107Y1370D01*
X5108D01*
X5108Y1371D01*
X5109Y1372D01*
X5111Y1373D01*
X5116Y1375D01*
X5121Y1379D01*
X5128Y1384D01*
X5134Y1390D01*
X5140Y1398D01*
X5146Y1406D01*
Y1407D01*
X5147Y1407D01*
X5148Y1409D01*
X5149Y1411D01*
X5149Y1413D01*
X5151Y1416D01*
X5154Y1423D01*
X5156Y1431D01*
X5159Y1441D01*
X5160Y1451D01*
X5161Y1463D01*
Y1464D01*
Y1465D01*
Y1468D01*
X5160Y1471D01*
X5160Y1475D01*
X5159Y1480D01*
X5159Y1485D01*
X5157Y1490D01*
X5154Y1502D01*
X5152Y1508D01*
X5149Y1514D01*
X5146Y1520D01*
X5142Y1526D01*
X5138Y1531D01*
X5133Y1537D01*
X5133Y1537D01*
X5132Y1538D01*
X5130Y1540D01*
X5128Y1541D01*
X5125Y1543D01*
X5121Y1546D01*
X5117Y1548D01*
X5113Y1551D01*
X5107Y1553D01*
X5101Y1556D01*
X5094Y1558D01*
X5087Y1560D01*
X5079Y1561D01*
X5070Y1563D01*
X5061Y1564D01*
X5051Y1564D01*
D02*
G37*
G36*
X7659Y1573D02*
X7656D01*
X7652Y1573D01*
X7646Y1572D01*
X7640Y1572D01*
X7632Y1570D01*
X7624Y1568D01*
X7615Y1566D01*
X7605Y1562D01*
X7595Y1558D01*
X7585Y1553D01*
X7574Y1546D01*
X7564Y1539D01*
X7553Y1531D01*
X7543Y1521D01*
X7534Y1510D01*
X7533Y1509D01*
X7531Y1506D01*
X7529Y1503D01*
X7526Y1498D01*
X7522Y1491D01*
X7518Y1482D01*
X7514Y1473D01*
X7509Y1461D01*
X7504Y1448D01*
X7500Y1434D01*
X7496Y1418D01*
X7492Y1400D01*
X7489Y1380D01*
X7487Y1359D01*
X7485Y1337D01*
X7484Y1313D01*
Y1313D01*
Y1312D01*
Y1310D01*
Y1308D01*
Y1305D01*
X7485Y1302D01*
Y1299D01*
X7485Y1294D01*
X7486Y1284D01*
X7487Y1273D01*
X7489Y1261D01*
X7491Y1248D01*
X7494Y1233D01*
X7497Y1219D01*
X7501Y1204D01*
X7506Y1189D01*
X7512Y1175D01*
X7518Y1161D01*
X7526Y1147D01*
X7535Y1135D01*
X7535Y1134D01*
X7537Y1132D01*
X7540Y1129D01*
X7544Y1125D01*
X7549Y1120D01*
X7555Y1115D01*
X7561Y1109D01*
X7569Y1103D01*
X7578Y1097D01*
X7587Y1091D01*
X7597Y1086D01*
X7608Y1081D01*
X7620Y1077D01*
X7632Y1074D01*
X7645Y1072D01*
X7658Y1071D01*
X7661D01*
X7665Y1072D01*
X7670Y1072D01*
X7676Y1073D01*
X7684Y1075D01*
X7692Y1077D01*
X7701Y1080D01*
X7711Y1083D01*
X7721Y1087D01*
X7731Y1092D01*
X7742Y1098D01*
X7752Y1106D01*
X7762Y1114D01*
X7772Y1124D01*
X7782Y1135D01*
X7782Y1136D01*
X7784Y1138D01*
X7787Y1142D01*
X7790Y1147D01*
X7794Y1154D01*
X7798Y1162D01*
X7803Y1172D01*
X7808Y1183D01*
X7812Y1195D01*
X7817Y1209D01*
X7821Y1225D01*
X7825Y1242D01*
X7828Y1260D01*
X7830Y1280D01*
X7832Y1301D01*
X7833Y1324D01*
Y1324D01*
Y1324D01*
Y1327D01*
Y1331D01*
X7832Y1337D01*
X7832Y1344D01*
X7831Y1352D01*
X7830Y1361D01*
X7829Y1371D01*
X7828Y1382D01*
X7826Y1394D01*
X7824Y1405D01*
X7822Y1418D01*
X7818Y1430D01*
X7815Y1443D01*
X7811Y1455D01*
X7807Y1467D01*
Y1467D01*
X7806Y1469D01*
X7804Y1471D01*
X7803Y1475D01*
X7801Y1479D01*
X7798Y1484D01*
X7795Y1489D01*
X7792Y1495D01*
X7788Y1501D01*
X7783Y1507D01*
X7778Y1513D01*
X7773Y1520D01*
X7767Y1526D01*
X7761Y1532D01*
X7754Y1539D01*
X7747Y1544D01*
X7746Y1545D01*
X7745Y1546D01*
X7742Y1547D01*
X7740Y1549D01*
X7736Y1551D01*
X7732Y1553D01*
X7727Y1556D01*
X7721Y1559D01*
X7714Y1561D01*
X7707Y1564D01*
X7701Y1567D01*
X7693Y1569D01*
X7685Y1571D01*
X7676Y1572D01*
X7668Y1573D01*
X7659Y1573D01*
D02*
G37*
G36*
X6235D02*
X6232D01*
X6228Y1573D01*
X6222Y1572D01*
X6216Y1572D01*
X6208Y1570D01*
X6200Y1568D01*
X6191Y1566D01*
X6181Y1562D01*
X6171Y1558D01*
X6160Y1553D01*
X6150Y1546D01*
X6139Y1539D01*
X6129Y1531D01*
X6119Y1521D01*
X6109Y1510D01*
X6109Y1509D01*
X6107Y1506D01*
X6105Y1503D01*
X6102Y1498D01*
X6098Y1491D01*
X6094Y1482D01*
X6089Y1473D01*
X6085Y1461D01*
X6080Y1448D01*
X6076Y1434D01*
X6072Y1418D01*
X6068Y1400D01*
X6065Y1380D01*
X6063Y1359D01*
X6061Y1337D01*
X6060Y1313D01*
Y1313D01*
Y1312D01*
Y1310D01*
Y1308D01*
Y1305D01*
X6061Y1302D01*
Y1299D01*
X6061Y1294D01*
X6062Y1284D01*
X6063Y1273D01*
X6064Y1261D01*
X6067Y1248D01*
X6069Y1233D01*
X6073Y1219D01*
X6077Y1204D01*
X6082Y1189D01*
X6088Y1175D01*
X6094Y1161D01*
X6102Y1147D01*
X6111Y1135D01*
X6111Y1134D01*
X6113Y1132D01*
X6116Y1129D01*
X6120Y1125D01*
X6125Y1120D01*
X6131Y1115D01*
X6137Y1109D01*
X6145Y1103D01*
X6154Y1097D01*
X6163Y1091D01*
X6173Y1086D01*
X6184Y1081D01*
X6195Y1077D01*
X6208Y1074D01*
X6220Y1072D01*
X6234Y1071D01*
X6237D01*
X6241Y1072D01*
X6246Y1072D01*
X6252Y1073D01*
X6260Y1075D01*
X6268Y1077D01*
X6277Y1080D01*
X6286Y1083D01*
X6296Y1087D01*
X6307Y1092D01*
X6317Y1098D01*
X6328Y1106D01*
X6338Y1114D01*
X6348Y1124D01*
X6358Y1135D01*
X6358Y1136D01*
X6360Y1138D01*
X6362Y1142D01*
X6366Y1147D01*
X6370Y1154D01*
X6374Y1162D01*
X6378Y1172D01*
X6383Y1183D01*
X6388Y1195D01*
X6392Y1209D01*
X6397Y1225D01*
X6401Y1242D01*
X6404Y1260D01*
X6406Y1280D01*
X6408Y1301D01*
X6408Y1324D01*
Y1324D01*
Y1324D01*
Y1327D01*
Y1331D01*
X6408Y1337D01*
X6407Y1344D01*
X6407Y1352D01*
X6406Y1361D01*
X6405Y1371D01*
X6404Y1382D01*
X6402Y1394D01*
X6400Y1405D01*
X6397Y1418D01*
X6394Y1430D01*
X6391Y1443D01*
X6387Y1455D01*
X6382Y1467D01*
Y1467D01*
X6382Y1469D01*
X6380Y1471D01*
X6379Y1475D01*
X6377Y1479D01*
X6374Y1484D01*
X6371Y1489D01*
X6367Y1495D01*
X6363Y1501D01*
X6359Y1507D01*
X6354Y1513D01*
X6349Y1520D01*
X6343Y1526D01*
X6337Y1532D01*
X6330Y1539D01*
X6322Y1544D01*
X6322Y1545D01*
X6321Y1546D01*
X6318Y1547D01*
X6316Y1549D01*
X6311Y1551D01*
X6307Y1553D01*
X6302Y1556D01*
X6296Y1559D01*
X6290Y1561D01*
X6283Y1564D01*
X6276Y1567D01*
X6269Y1569D01*
X6261Y1571D01*
X6252Y1572D01*
X6244Y1573D01*
X6235Y1573D01*
D02*
G37*
G36*
X8460Y641D02*
X8457D01*
X8455Y641D01*
X8453D01*
X8450Y640D01*
X8444Y639D01*
X8436Y636D01*
X8427Y632D01*
X8423Y630D01*
X8418Y626D01*
X8413Y623D01*
X8408Y619D01*
X8408Y619D01*
X8407Y618D01*
X8405Y617D01*
X8404Y615D01*
X8401Y612D01*
X8399Y609D01*
X8396Y605D01*
X8393Y601D01*
X8389Y596D01*
X8385Y590D01*
X8381Y584D01*
X8377Y576D01*
X8373Y569D01*
X8369Y560D01*
X8365Y550D01*
X8361Y540D01*
Y539D01*
X8360Y537D01*
X8359Y534D01*
X8358Y530D01*
X8356Y525D01*
X8354Y519D01*
X8352Y512D01*
X8350Y505D01*
X8349Y497D01*
X8347Y488D01*
X8345Y479D01*
X8343Y469D01*
X8341Y449D01*
X8340Y439D01*
X8340Y428D01*
Y428D01*
Y426D01*
Y423D01*
X8340Y419D01*
X8341Y414D01*
X8341Y408D01*
X8342Y402D01*
X8343Y395D01*
X8345Y381D01*
X8349Y366D01*
X8352Y358D01*
X8355Y351D01*
X8359Y344D01*
X8363Y338D01*
X8363Y337D01*
X8364Y337D01*
X8365Y335D01*
X8367Y333D01*
X8371Y328D01*
X8378Y322D01*
X8385Y316D01*
X8394Y311D01*
X8399Y309D01*
X8404Y307D01*
X8409Y307D01*
X8414Y306D01*
X8417D01*
X8419Y307D01*
X8421Y307D01*
X8424Y307D01*
X8431Y309D01*
X8439Y312D01*
X8448Y317D01*
X8453Y319D01*
X8458Y322D01*
X8464Y327D01*
X8469Y331D01*
X8470Y331D01*
X8470Y332D01*
X8472Y333D01*
X8474Y335D01*
X8477Y338D01*
X8480Y341D01*
X8483Y345D01*
X8486Y350D01*
X8490Y355D01*
X8495Y361D01*
X8499Y367D01*
X8503Y374D01*
X8507Y382D01*
X8511Y390D01*
X8516Y398D01*
X8520Y408D01*
X8520Y408D01*
X8521Y410D01*
X8521Y413D01*
X8523Y417D01*
X8525Y422D01*
X8526Y428D01*
X8528Y434D01*
X8531Y442D01*
X8532Y450D01*
X8534Y458D01*
X8536Y468D01*
X8538Y477D01*
X8540Y498D01*
X8541Y508D01*
Y519D01*
Y520D01*
Y522D01*
Y524D01*
X8541Y529D01*
X8540Y534D01*
X8540Y539D01*
X8539Y546D01*
X8538Y553D01*
X8535Y567D01*
X8531Y582D01*
X8528Y590D01*
X8525Y597D01*
X8521Y603D01*
X8517Y610D01*
X8517Y610D01*
X8516Y611D01*
X8515Y612D01*
X8513Y615D01*
X8511Y617D01*
X8508Y620D01*
X8501Y625D01*
X8493Y631D01*
X8483Y636D01*
X8478Y639D01*
X8472Y640D01*
X8466Y641D01*
X8460Y641D01*
D02*
G37*
G36*
X12749Y797D02*
X12588D01*
Y592D01*
X12741D01*
X12745Y592D01*
X12749D01*
X12754Y593D01*
X12760Y593D01*
X12771Y595D01*
X12783Y597D01*
X12795Y600D01*
X12800Y601D01*
X12805Y603D01*
X12805D01*
X12806Y604D01*
X12807Y605D01*
X12809Y605D01*
X12813Y608D01*
X12819Y612D01*
X12825Y617D01*
X12832Y623D01*
X12838Y630D01*
X12844Y639D01*
Y640D01*
X12844Y640D01*
X12845Y641D01*
X12846Y644D01*
X12847Y646D01*
X12848Y649D01*
X12851Y656D01*
X12854Y664D01*
X12856Y674D01*
X12858Y684D01*
X12858Y696D01*
Y696D01*
Y698D01*
Y701D01*
X12858Y704D01*
X12858Y708D01*
X12857Y712D01*
X12856Y717D01*
X12855Y723D01*
X12852Y735D01*
X12849Y741D01*
X12847Y747D01*
X12843Y753D01*
X12840Y759D01*
X12836Y764D01*
X12831Y770D01*
X12830Y770D01*
X12829Y771D01*
X12828Y772D01*
X12826Y774D01*
X12823Y776D01*
X12819Y778D01*
X12815Y781D01*
X12810Y783D01*
X12805Y786D01*
X12798Y788D01*
X12792Y791D01*
X12784Y793D01*
X12777Y794D01*
X12768Y796D01*
X12759Y797D01*
X12749Y797D01*
D02*
G37*
G36*
X2996Y800D02*
Y800D01*
X2996Y797D01*
X2995Y794D01*
X2995Y790D01*
X2994Y785D01*
X2992Y778D01*
X2991Y771D01*
X2989Y763D01*
X2987Y754D01*
X2985Y745D01*
X2983Y735D01*
X2980Y725D01*
X2975Y704D01*
X2969Y681D01*
X2912Y499D01*
X3086D01*
X3032Y671D01*
Y672D01*
X3032Y672D01*
X3031Y675D01*
X3030Y679D01*
X3028Y685D01*
X3026Y691D01*
X3024Y699D01*
X3021Y708D01*
X3019Y717D01*
X3016Y727D01*
X3013Y738D01*
X3007Y759D01*
X3001Y781D01*
X2999Y791D01*
X2996Y800D01*
D02*
G37*
G36*
X13568Y805D02*
X13566D01*
X13564Y805D01*
X13561Y804D01*
X13557Y804D01*
X13553Y802D01*
X13548Y801D01*
X13543Y799D01*
X13538Y796D01*
X13532Y792D01*
X13526Y788D01*
X13520Y783D01*
X13514Y777D01*
X13508Y770D01*
X13502Y762D01*
X13497Y753D01*
X13496Y752D01*
X13495Y750D01*
X13494Y747D01*
X13492Y742D01*
X13490Y736D01*
X13488Y728D01*
X13485Y719D01*
X13483Y708D01*
X13481Y702D01*
X13480Y695D01*
X13479Y688D01*
X13477Y681D01*
X13476Y672D01*
X13475Y664D01*
X13474Y655D01*
X13473Y645D01*
X13472Y635D01*
X13471Y625D01*
X13470Y614D01*
X13470Y603D01*
X13469Y590D01*
X13469Y578D01*
X13468Y565D01*
Y551D01*
Y550D01*
Y549D01*
Y547D01*
Y544D01*
Y541D01*
Y537D01*
X13469Y532D01*
Y526D01*
Y520D01*
X13469Y514D01*
X13470Y500D01*
X13470Y485D01*
X13472Y468D01*
X13473Y452D01*
X13475Y435D01*
X13478Y418D01*
X13480Y401D01*
X13484Y386D01*
X13487Y372D01*
X13490Y365D01*
X13492Y359D01*
X13494Y353D01*
X13497Y348D01*
X13497Y347D01*
X13498Y346D01*
X13500Y343D01*
X13502Y340D01*
X13505Y336D01*
X13509Y332D01*
X13512Y327D01*
X13517Y322D01*
X13522Y317D01*
X13528Y313D01*
X13534Y308D01*
X13541Y305D01*
X13548Y301D01*
X13555Y299D01*
X13563Y297D01*
X13571Y297D01*
X13573D01*
X13576Y297D01*
X13579Y297D01*
X13582Y298D01*
X13586Y299D01*
X13591Y301D01*
X13596Y303D01*
X13602Y306D01*
X13608Y309D01*
X13614Y313D01*
X13620Y318D01*
X13626Y324D01*
X13632Y331D01*
X13638Y339D01*
X13643Y348D01*
X13644Y349D01*
X13645Y351D01*
X13646Y354D01*
X13648Y359D01*
X13650Y365D01*
X13652Y373D01*
X13655Y382D01*
X13658Y393D01*
X13659Y399D01*
X13661Y406D01*
X13662Y413D01*
X13663Y421D01*
X13665Y429D01*
X13666Y438D01*
X13667Y446D01*
X13668Y456D01*
X13669Y466D01*
X13670Y476D01*
X13671Y488D01*
X13671Y499D01*
X13672Y511D01*
X13672Y524D01*
X13672Y537D01*
Y551D01*
Y551D01*
Y553D01*
Y554D01*
Y558D01*
Y561D01*
Y565D01*
X13672Y570D01*
Y575D01*
Y581D01*
X13672Y588D01*
X13671Y601D01*
X13670Y617D01*
X13669Y633D01*
X13667Y650D01*
X13665Y667D01*
X13663Y684D01*
X13660Y701D01*
X13657Y716D01*
X13653Y730D01*
X13651Y737D01*
X13648Y743D01*
X13646Y749D01*
X13643Y754D01*
X13643Y754D01*
X13642Y756D01*
X13640Y758D01*
X13638Y762D01*
X13635Y766D01*
X13632Y770D01*
X13627Y775D01*
X13623Y780D01*
X13618Y784D01*
X13612Y789D01*
X13606Y793D01*
X13599Y797D01*
X13592Y801D01*
X13584Y803D01*
X13576Y805D01*
X13568Y805D01*
D02*
G37*
G36*
X2058Y806D02*
X2055D01*
X2051Y806D01*
X2045Y805D01*
X2039Y804D01*
X2031Y803D01*
X2023Y801D01*
X2014Y798D01*
X2004Y795D01*
X1994Y791D01*
X1984Y786D01*
X1973Y779D01*
X1963Y772D01*
X1952Y763D01*
X1942Y754D01*
X1933Y742D01*
X1932Y742D01*
X1930Y739D01*
X1928Y736D01*
X1925Y731D01*
X1921Y724D01*
X1917Y715D01*
X1913Y706D01*
X1908Y694D01*
X1903Y681D01*
X1899Y666D01*
X1895Y650D01*
X1891Y633D01*
X1888Y613D01*
X1886Y592D01*
X1884Y570D01*
X1883Y546D01*
Y545D01*
Y544D01*
Y543D01*
Y541D01*
Y538D01*
X1884Y535D01*
Y531D01*
X1884Y527D01*
X1885Y517D01*
X1886Y506D01*
X1888Y494D01*
X1890Y480D01*
X1893Y466D01*
X1896Y452D01*
X1900Y437D01*
X1905Y422D01*
X1911Y408D01*
X1917Y393D01*
X1925Y380D01*
X1934Y367D01*
X1934Y367D01*
X1936Y365D01*
X1939Y362D01*
X1943Y357D01*
X1948Y353D01*
X1954Y347D01*
X1960Y342D01*
X1968Y336D01*
X1977Y330D01*
X1986Y324D01*
X1996Y319D01*
X2007Y314D01*
X2019Y310D01*
X2031Y307D01*
X2044Y305D01*
X2057Y304D01*
X2060D01*
X2064Y305D01*
X2069Y305D01*
X2075Y306D01*
X2083Y307D01*
X2091Y310D01*
X2100Y312D01*
X2110Y316D01*
X2120Y320D01*
X2130Y325D01*
X2140Y331D01*
X2151Y338D01*
X2161Y347D01*
X2171Y357D01*
X2181Y368D01*
X2181Y369D01*
X2183Y371D01*
X2186Y375D01*
X2189Y380D01*
X2193Y387D01*
X2197Y395D01*
X2201Y404D01*
X2206Y416D01*
X2211Y428D01*
X2216Y442D01*
X2220Y458D01*
X2224Y474D01*
X2227Y493D01*
X2229Y513D01*
X2231Y534D01*
X2231Y556D01*
Y557D01*
Y557D01*
Y560D01*
Y564D01*
X2231Y570D01*
X2231Y577D01*
X2230Y585D01*
X2229Y594D01*
X2228Y604D01*
X2227Y615D01*
X2225Y626D01*
X2223Y638D01*
X2221Y650D01*
X2217Y663D01*
X2214Y676D01*
X2210Y688D01*
X2206Y700D01*
Y700D01*
X2205Y702D01*
X2203Y704D01*
X2202Y708D01*
X2200Y712D01*
X2197Y716D01*
X2194Y722D01*
X2191Y727D01*
X2186Y733D01*
X2182Y740D01*
X2177Y746D01*
X2172Y752D01*
X2166Y759D01*
X2160Y765D01*
X2153Y772D01*
X2146Y777D01*
X2145Y777D01*
X2144Y778D01*
X2141Y780D01*
X2139Y782D01*
X2135Y784D01*
X2130Y786D01*
X2125Y789D01*
X2120Y792D01*
X2113Y794D01*
X2106Y797D01*
X2100Y799D01*
X2092Y802D01*
X2084Y803D01*
X2075Y805D01*
X2067Y806D01*
X2058Y806D01*
D02*
G37*
%LPD*%
D17*
X-592Y1000D02*
G03*
X-848Y1250I-253J-3D01*
G01*
X-1229Y1440D02*
G03*
X-1028Y1250I190J0D01*
G01*
X1018D02*
G03*
X1219Y1440I10J190D01*
G01*
X848Y1250D02*
G03*
X592Y1000I-3J-253D01*
G01*
X-1229Y1440D02*
Y1886D01*
X1221D01*
Y1440D02*
Y1886D01*
X-592Y0D02*
Y1000D01*
X-1028Y1250D02*
X-848D01*
X848D02*
X1018D01*
X592Y0D02*
Y1000D01*
X-592Y0D02*
X592D01*
M02*
