G04*
G04 #@! TF.GenerationSoftware,Altium Limited,Altium Designer,21.8.1 (53)*
G04*
G04 Layer_Physical_Order=2*
G04 Layer_Color=16711680*
%FSLAX24Y24*%
%MOIN*%
G70*
G04*
G04 #@! TF.SameCoordinates,3F75DA6B-4E5A-4059-B2AF-D795626689C9*
G04*
G04*
G04 #@! TF.FilePolarity,Positive*
G04*
G01*
G75*
%ADD11C,0.0118*%
%ADD14C,0.0118*%
%ADD15C,0.0500*%
G36*
X-413Y2681D02*
X-412Y2660D01*
X-410Y2639D01*
X-405Y2618D01*
X-398Y2599D01*
X-390Y2580D01*
X-379Y2562D01*
X-367Y2545D01*
X-353Y2528D01*
X-337Y2512D01*
X-319Y2497D01*
X-626Y2498D01*
X-608Y2513D01*
X-592Y2528D01*
X-578Y2545D01*
X-565Y2562D01*
X-555Y2580D01*
X-547Y2599D01*
X-540Y2618D01*
X-535Y2639D01*
X-532Y2660D01*
X-531Y2681D01*
X-413D01*
D02*
G37*
G36*
X492Y14327D02*
X491Y14347D01*
X488Y14368D01*
X482Y14389D01*
X474Y14410D01*
X463Y14431D01*
X450Y14453D01*
X435Y14475D01*
X418Y14497D01*
X398Y14519D01*
X376Y14542D01*
X726Y14541D01*
X704Y14519D01*
X667Y14475D01*
X652Y14453D01*
X639Y14431D01*
X629Y14410D01*
X621Y14389D01*
X615Y14368D01*
X611Y14347D01*
X610Y14327D01*
X492Y14327D01*
D02*
G37*
D11*
X551Y7181D02*
G03*
X436Y7459I-394J0D01*
G01*
X-357Y11528D02*
G03*
X-472Y11250I278J-278D01*
G01*
X-472Y8519D02*
G03*
X-365Y8260I367J0D01*
G01*
X436Y12316D02*
G03*
X551Y12594I-278J278D01*
G01*
X436Y3753D02*
G03*
X551Y4031I-278J278D01*
G01*
X-354Y2968D02*
G03*
X-472Y2683I285J-285D01*
G01*
X-472Y11250D02*
Y11250D01*
X-365Y8260D02*
X-346Y8241D01*
X551Y4031D02*
Y4031D01*
D14*
Y14690D02*
Y14720D01*
Y12594D02*
Y14690D01*
X-346Y8241D02*
X436Y7459D01*
X551Y7181D02*
Y7181D01*
Y7181D02*
Y7181D01*
Y4031D02*
Y7181D01*
X-472Y11250D02*
Y11250D01*
Y11250D02*
Y11250D01*
Y11250D02*
Y11250D01*
X-472Y8519D02*
X-472Y11250D01*
X-354Y2968D02*
X436Y3753D01*
X-357Y11528D02*
X436Y12316D01*
X-472Y2299D02*
Y2300D01*
Y2681D01*
D15*
X-472Y2300D02*
D03*
X551Y14720D02*
D03*
M02*
