G04*
G04 #@! TF.GenerationSoftware,Altium Limited,Altium Designer,21.8.1 (53)*
G04*
G04 Layer_Physical_Order=1*
G04 Layer_Color=255*
%FSLAX24Y24*%
%MOIN*%
G70*
G04*
G04 #@! TF.SameCoordinates,3F75DA6B-4E5A-4059-B2AF-D795626689C9*
G04*
G04*
G04 #@! TF.FilePolarity,Positive*
G04*
G01*
G75*
%ADD11C,0.0118*%
%ADD12C,0.0150*%
%ADD13C,0.0118*%
%ADD14C,0.0118*%
%ADD15C,0.0500*%
G36*
X-533Y1907D02*
X-535Y1927D01*
X-538Y1948D01*
X-544Y1969D01*
X-552Y1990D01*
X-562Y2011D01*
X-575Y2033D01*
X-590Y2054D01*
X-608Y2076D01*
X-627Y2099D01*
X-649Y2121D01*
X-299Y2122D01*
X-321Y2099D01*
X-358Y2054D01*
X-374Y2033D01*
X-386Y2011D01*
X-397Y1990D01*
X-405Y1969D01*
X-411Y1948D01*
X-414Y1927D01*
X-415Y1907D01*
X-533Y1907D01*
D02*
G37*
G36*
X944Y14661D02*
X924Y14660D01*
X903Y14657D01*
X883Y14651D01*
X862Y14643D01*
X840Y14632D01*
X819Y14619D01*
X797Y14604D01*
X775Y14587D01*
X752Y14567D01*
X730Y14545D01*
X730Y14895D01*
X752Y14873D01*
X797Y14836D01*
X819Y14821D01*
X840Y14808D01*
X862Y14798D01*
X883Y14790D01*
X903Y14784D01*
X924Y14780D01*
X944Y14779D01*
X944Y14661D01*
D02*
G37*
D11*
X3878Y22476D02*
G03*
X3484Y22870I-394J0D01*
G01*
Y22082D02*
G03*
X3091Y22476I-394J0D01*
G01*
Y21689D02*
G03*
X2697Y22082I-394J0D01*
G01*
Y21295D02*
G03*
X2303Y21689I-394J0D01*
G01*
Y20901D02*
G03*
X1909Y21295I-394J0D01*
G01*
Y14720D02*
G03*
X2303Y15114I0J394D01*
G01*
Y14326D02*
G03*
X2697Y14720I0J394D01*
G01*
Y13933D02*
G03*
X3091Y14326I0J394D01*
G01*
Y13539D02*
G03*
X3484Y13933I0J394D01*
G01*
X3484Y13145D02*
G03*
X3878Y13539I0J394D01*
G01*
X549Y11430D02*
G03*
X435Y11706I-390J0D01*
G01*
X-430Y14693D02*
G03*
X-575Y14720I-144J-366D01*
G01*
X-429Y14692D02*
G03*
X-430Y14693I-145J-366D01*
G01*
X-427Y14692D02*
G03*
X-429Y14692I-147J-365D01*
G01*
X-427Y14298D02*
G03*
X-429Y14299I-147J-365D01*
G01*
X-427Y13904D02*
G03*
X-429Y13905I-147J-365D01*
G01*
X-430Y14299D02*
G03*
X-575Y14326I-144J-366D01*
G01*
X-429Y14299D02*
G03*
X-430Y14299I-145J-366D01*
G01*
Y13905D02*
G03*
X-575Y13933I-144J-366D01*
G01*
X-429Y13905D02*
G03*
X-430Y13905I-145J-366D01*
G01*
X-2697Y22082D02*
G03*
X-3091Y21689I0J-394D01*
G01*
X-2303Y21689D02*
G03*
X-2697Y21295I0J-394D01*
G01*
X-3091Y22476D02*
G03*
X-3484Y22082I0J-394D01*
G01*
X-3484Y22870D02*
G03*
X-3878Y22476I0J-394D01*
G01*
X-1909Y21295D02*
G03*
X-2303Y20901I0J-394D01*
G01*
Y15114D02*
G03*
X-1909Y14720I394J0D01*
G01*
X-2697D02*
G03*
X-2303Y14326I394J0D01*
G01*
X-3091D02*
G03*
X-2697Y13933I394J0D01*
G01*
X-427Y13510D02*
G03*
X-430Y13512I-147J-365D01*
G01*
D02*
G03*
X-575Y13539I-144J-366D01*
G01*
X-500Y12710D02*
G03*
X-446Y12581I183J0D01*
G01*
X-472Y4031D02*
G03*
X-357Y3753I394J0D01*
G01*
Y7459D02*
G03*
X-472Y7181I278J-278D01*
G01*
X-500Y12968D02*
G03*
X-677Y13145I-177J0D01*
G01*
X-3484Y13933D02*
G03*
X-3091Y13539I394J0D01*
G01*
X-3878D02*
G03*
X-3484Y13145I394J0D01*
G01*
X444Y8260D02*
G03*
X551Y8519I-259J259D01*
G01*
Y2693D02*
G03*
X436Y2971I-394J0D01*
G01*
X413Y11728D02*
X435Y11706D01*
X-3484Y22082D02*
Y22082D01*
X-500Y12931D02*
Y12968D01*
Y12710D02*
Y12716D01*
X-3484Y13145D02*
X-3465D01*
X-472Y7181D02*
Y7181D01*
X3484Y13933D02*
Y13933D01*
X425Y8241D02*
X444Y8260D01*
D12*
X436Y1818D02*
G03*
X551Y2096I-278J278D01*
G01*
X312Y1694D02*
G03*
X197Y1415I278J-278D01*
G01*
X-197D02*
G03*
X-312Y1694I-394J0D01*
G01*
X-474Y2019D02*
G03*
X-359Y1741I394J0D01*
G01*
X312Y1694D02*
X436Y1818D01*
X-359Y1741D02*
X-312Y1694D01*
X-474Y2019D02*
Y2300D01*
X-509Y2152D02*
Y2300D01*
X551Y2096D02*
Y2693D01*
X197Y0D02*
Y1415D01*
X-197Y0D02*
Y1415D01*
D13*
X-429Y14692D02*
D03*
Y14299D02*
D03*
Y13905D02*
D03*
X-3091Y21689D02*
D03*
X-2697Y21295D02*
D03*
X-2303Y20901D02*
D03*
X-446Y12581D02*
D03*
D14*
X2697Y14720D02*
Y21295D01*
X3484Y13933D02*
Y22082D01*
X3091Y14326D02*
Y21689D01*
X2303Y15114D02*
Y20901D01*
X551Y14720D02*
X1909D01*
X575Y13933D02*
X2697D01*
X575Y14326D02*
X2303D01*
X3878Y13539D02*
Y22476D01*
X3484Y13145D02*
X3484D01*
X575D02*
X3484D01*
X3484D01*
X575Y13539D02*
X3091D01*
X549Y11430D02*
X551Y8519D01*
X-357Y7459D02*
X425Y8241D01*
X-430Y14693D02*
X-429Y14692D01*
X-1909Y14720D02*
X-575D01*
X-429Y14692D02*
X430Y14354D01*
X-429Y14692D02*
X-429Y14692D01*
X-3484Y22870D02*
X3484D01*
X-3091Y22476D02*
X3091D01*
X-2697Y22082D02*
X2697D01*
X-2303Y21689D02*
X2303D01*
X-1909Y21295D02*
X1909D01*
X-429Y14299D02*
X430Y13960D01*
X-429Y14299D02*
X-429Y14299D01*
X-430Y13905D02*
X-429Y13905D01*
X430Y13566D01*
X-429Y13905D02*
X-429Y13905D01*
X-430Y14299D02*
X-429Y14299D01*
X-2697Y13933D02*
X-575D01*
X-2697Y21295D02*
Y21295D01*
X-3091Y21689D02*
Y21689D01*
Y14326D02*
Y21689D01*
X-3484Y22082D02*
Y22082D01*
Y22082D02*
Y22082D01*
Y13933D02*
Y22082D01*
Y13933D02*
Y13933D01*
X-2303Y15114D02*
Y20901D01*
Y20901D01*
Y14326D02*
X-575D01*
X-2697Y14720D02*
Y21295D01*
X-3484Y13933D02*
Y13933D01*
X-430Y13512D02*
X430Y13173D01*
X-446Y12581D02*
X-446Y12581D01*
X413Y11728D01*
X-446Y12581D02*
X-446Y12581D01*
X-3091Y13539D02*
X-575D01*
X-3465Y13145D02*
X-677D01*
X-3878Y13539D02*
Y22476D01*
X-472Y4031D02*
Y4031D01*
Y7181D02*
Y7181D01*
Y4031D02*
Y7181D01*
Y4031D02*
Y4031D01*
Y7181D02*
Y7181D01*
X430Y14354D02*
X456Y14345D01*
X483Y14337D01*
X510Y14332D01*
X537Y14328D01*
X564Y14327D01*
X575Y14326D01*
X430Y13960D02*
X456Y13951D01*
X483Y13944D01*
X510Y13938D01*
X537Y13935D01*
X564Y13933D01*
X575Y13933D01*
X430Y13566D02*
X456Y13557D01*
X483Y13550D01*
X510Y13544D01*
X537Y13541D01*
X564Y13539D01*
X575Y13539D01*
X430Y13173D02*
X456Y13164D01*
X483Y13156D01*
X510Y13151D01*
X537Y13147D01*
X564Y13145D01*
X575Y13145D01*
X-357Y3753D02*
X436Y2971D01*
X-500Y12716D02*
Y12931D01*
D15*
X-472Y2300D02*
D03*
X551Y14720D02*
D03*
M02*
