G04*
G04 #@! TF.GenerationSoftware,Altium Limited,Altium Designer,21.8.1 (53)*
G04*
G04 Layer_Color=16711935*
%FSLAX24Y24*%
%MOIN*%
G70*
G04*
G04 #@! TF.SameCoordinates,3F75DA6B-4E5A-4059-B2AF-D795626689C9*
G04*
G04*
G04 #@! TF.FilePolarity,Positive*
G04*
G01*
G75*
%ADD18C,0.0295*%
%ADD19C,0.0010*%
G36*
X13434Y864D02*
X13439D01*
X13444Y863D01*
X13451Y863D01*
X13458Y862D01*
X13465Y861D01*
X13473Y859D01*
X13490Y855D01*
X13498Y852D01*
X13507Y850D01*
X13515Y846D01*
X13523Y842D01*
X13524Y841D01*
X13525Y841D01*
X13527Y840D01*
X13531Y838D01*
X13534Y836D01*
X13538Y833D01*
X13543Y829D01*
X13547Y826D01*
X13553Y821D01*
X13558Y816D01*
X13564Y811D01*
X13569Y805D01*
X13575Y799D01*
X13580Y792D01*
X13585Y785D01*
X13589Y777D01*
X13590Y777D01*
X13590Y775D01*
X13591Y773D01*
X13593Y770D01*
X13595Y766D01*
X13597Y761D01*
X13599Y755D01*
X13601Y750D01*
X13604Y742D01*
X13606Y735D01*
X13608Y727D01*
X13610Y718D01*
X13612Y709D01*
X13613Y699D01*
X13614Y689D01*
X13615Y679D01*
X13550Y673D01*
Y674D01*
X13549Y676D01*
X13549Y679D01*
X13548Y683D01*
X13547Y688D01*
X13546Y694D01*
X13545Y700D01*
X13543Y707D01*
X13538Y722D01*
X13536Y729D01*
X13532Y736D01*
X13528Y744D01*
X13524Y750D01*
X13519Y757D01*
X13513Y763D01*
X13513Y763D01*
X13512Y764D01*
X13510Y765D01*
X13507Y767D01*
X13505Y770D01*
X13500Y772D01*
X13496Y775D01*
X13491Y778D01*
X13485Y780D01*
X13479Y783D01*
X13471Y785D01*
X13464Y788D01*
X13455Y790D01*
X13446Y791D01*
X13436Y792D01*
X13426Y792D01*
X13421D01*
X13417Y792D01*
X13412Y791D01*
X13407Y791D01*
X13400Y790D01*
X13394Y789D01*
X13380Y786D01*
X13373Y784D01*
X13365Y781D01*
X13358Y778D01*
X13351Y775D01*
X13345Y771D01*
X13339Y766D01*
X13339Y766D01*
X13338Y765D01*
X13336Y764D01*
X13334Y762D01*
X13332Y759D01*
X13329Y756D01*
X13327Y753D01*
X13324Y749D01*
X13321Y744D01*
X13319Y739D01*
X13314Y728D01*
X13312Y721D01*
X13311Y715D01*
X13310Y708D01*
X13309Y700D01*
Y699D01*
Y698D01*
Y696D01*
X13310Y694D01*
Y690D01*
X13311Y687D01*
X13312Y679D01*
X13315Y669D01*
X13318Y659D01*
X13324Y650D01*
X13328Y646D01*
X13331Y642D01*
X13332D01*
X13332Y641D01*
X13334Y639D01*
X13336Y638D01*
X13339Y636D01*
X13342Y634D01*
X13347Y631D01*
X13352Y628D01*
X13358Y625D01*
X13365Y622D01*
X13373Y618D01*
X13382Y615D01*
X13393Y611D01*
X13404Y608D01*
X13417Y603D01*
X13430Y599D01*
X13431D01*
X13434Y598D01*
X13438Y598D01*
X13443Y596D01*
X13449Y594D01*
X13456Y592D01*
X13464Y590D01*
X13472Y587D01*
X13489Y582D01*
X13507Y576D01*
X13515Y573D01*
X13523Y569D01*
X13530Y567D01*
X13536Y563D01*
X13536Y563D01*
X13538Y563D01*
X13541Y561D01*
X13544Y559D01*
X13547Y557D01*
X13552Y554D01*
X13557Y550D01*
X13562Y547D01*
X13573Y538D01*
X13585Y527D01*
X13596Y514D01*
X13601Y508D01*
X13606Y501D01*
X13606Y500D01*
X13607Y499D01*
X13608Y497D01*
X13610Y494D01*
X13612Y490D01*
X13614Y486D01*
X13616Y481D01*
X13618Y475D01*
X13620Y468D01*
X13622Y461D01*
X13625Y453D01*
X13627Y446D01*
X13628Y437D01*
X13629Y428D01*
X13630Y418D01*
X13630Y408D01*
Y408D01*
Y406D01*
Y403D01*
X13630Y399D01*
X13629Y395D01*
X13629Y389D01*
X13628Y383D01*
X13627Y376D01*
X13626Y369D01*
X13624Y361D01*
X13620Y345D01*
X13617Y336D01*
X13613Y328D01*
X13610Y319D01*
X13605Y311D01*
X13605Y310D01*
X13604Y309D01*
X13602Y307D01*
X13601Y304D01*
X13598Y300D01*
X13595Y296D01*
X13591Y291D01*
X13587Y286D01*
X13582Y281D01*
X13577Y275D01*
X13572Y270D01*
X13566Y265D01*
X13559Y259D01*
X13552Y254D01*
X13545Y249D01*
X13537Y244D01*
X13536Y244D01*
X13535Y244D01*
X13532Y242D01*
X13529Y241D01*
X13525Y239D01*
X13520Y237D01*
X13515Y235D01*
X13508Y233D01*
X13501Y231D01*
X13493Y229D01*
X13485Y227D01*
X13475Y225D01*
X13465Y224D01*
X13455Y223D01*
X13445Y222D01*
X13434Y222D01*
X13429D01*
X13427Y222D01*
X13425D01*
X13418Y223D01*
X13410Y224D01*
X13401Y225D01*
X13390Y226D01*
X13379Y229D01*
X13368Y232D01*
X13355Y235D01*
X13343Y240D01*
X13330Y245D01*
X13318Y252D01*
X13305Y259D01*
X13293Y268D01*
X13283Y278D01*
X13282Y279D01*
X13280Y281D01*
X13278Y284D01*
X13274Y289D01*
X13269Y295D01*
X13265Y301D01*
X13260Y310D01*
X13254Y319D01*
X13249Y329D01*
X13244Y341D01*
X13239Y354D01*
X13235Y367D01*
X13231Y382D01*
X13228Y398D01*
X13226Y415D01*
X13225Y432D01*
X13288Y439D01*
Y439D01*
X13289Y437D01*
Y434D01*
X13289Y431D01*
X13290Y426D01*
X13291Y421D01*
X13292Y416D01*
X13293Y410D01*
X13296Y397D01*
X13300Y384D01*
X13305Y371D01*
X13308Y365D01*
X13311Y359D01*
Y359D01*
X13312Y358D01*
X13313Y356D01*
X13314Y355D01*
X13319Y349D01*
X13324Y343D01*
X13332Y335D01*
X13341Y328D01*
X13351Y320D01*
X13363Y313D01*
X13363D01*
X13364Y312D01*
X13366Y312D01*
X13369Y310D01*
X13372Y309D01*
X13375Y308D01*
X13380Y306D01*
X13385Y305D01*
X13390Y303D01*
X13396Y301D01*
X13409Y299D01*
X13423Y297D01*
X13438Y296D01*
X13444D01*
X13448Y296D01*
X13453Y297D01*
X13459Y297D01*
X13465Y298D01*
X13472Y300D01*
X13487Y303D01*
X13495Y305D01*
X13503Y308D01*
X13511Y311D01*
X13518Y315D01*
X13525Y320D01*
X13531Y325D01*
X13532Y325D01*
X13533Y326D01*
X13535Y328D01*
X13537Y330D01*
X13539Y333D01*
X13542Y337D01*
X13545Y341D01*
X13548Y345D01*
X13551Y351D01*
X13555Y357D01*
X13557Y363D01*
X13560Y370D01*
X13562Y377D01*
X13564Y385D01*
X13565Y393D01*
X13565Y401D01*
Y402D01*
Y403D01*
Y404D01*
Y406D01*
X13565Y411D01*
X13564Y418D01*
X13562Y425D01*
X13560Y433D01*
X13557Y441D01*
X13553Y449D01*
Y450D01*
X13552Y450D01*
X13551Y453D01*
X13548Y457D01*
X13544Y461D01*
X13538Y467D01*
X13532Y472D01*
X13525Y478D01*
X13516Y483D01*
X13515D01*
X13515Y483D01*
X13513Y484D01*
X13511Y485D01*
X13508Y487D01*
X13504Y488D01*
X13500Y490D01*
X13494Y492D01*
X13487Y495D01*
X13480Y498D01*
X13471Y501D01*
X13462Y504D01*
X13451Y508D01*
X13439Y512D01*
X13426Y516D01*
X13411Y520D01*
X13410Y521D01*
X13408Y521D01*
X13404Y522D01*
X13399Y524D01*
X13394Y526D01*
X13387Y528D01*
X13379Y531D01*
X13372Y533D01*
X13354Y540D01*
X13338Y548D01*
X13329Y551D01*
X13322Y555D01*
X13315Y559D01*
X13308Y563D01*
X13308Y563D01*
X13307Y564D01*
X13306Y565D01*
X13303Y567D01*
X13301Y569D01*
X13298Y572D01*
X13291Y578D01*
X13283Y586D01*
X13276Y595D01*
X13268Y606D01*
X13261Y618D01*
Y618D01*
X13260Y619D01*
X13260Y621D01*
X13258Y624D01*
X13257Y627D01*
X13256Y631D01*
X13254Y635D01*
X13253Y640D01*
X13251Y645D01*
X13250Y651D01*
X13247Y664D01*
X13245Y678D01*
X13244Y693D01*
Y694D01*
Y696D01*
X13245Y700D01*
X13245Y706D01*
X13246Y712D01*
X13247Y720D01*
X13248Y728D01*
X13250Y737D01*
X13253Y746D01*
X13256Y756D01*
X13260Y767D01*
X13265Y777D01*
X13270Y787D01*
X13277Y797D01*
X13284Y807D01*
X13293Y816D01*
X13293Y817D01*
X13295Y819D01*
X13298Y821D01*
X13302Y824D01*
X13306Y828D01*
X13312Y832D01*
X13319Y836D01*
X13327Y841D01*
X13336Y845D01*
X13346Y849D01*
X13357Y853D01*
X13369Y857D01*
X13381Y860D01*
X13394Y862D01*
X13409Y864D01*
X13424Y865D01*
X13429D01*
X13434Y864D01*
D02*
G37*
G36*
X1609D02*
X1614Y864D01*
X1620Y863D01*
X1627Y862D01*
X1636Y861D01*
X1645Y859D01*
X1655Y856D01*
X1665Y853D01*
X1675Y850D01*
X1686Y845D01*
X1696Y840D01*
X1707Y834D01*
X1718Y827D01*
X1728Y819D01*
X1728Y818D01*
X1730Y816D01*
X1733Y814D01*
X1736Y810D01*
X1741Y806D01*
X1746Y800D01*
X1751Y793D01*
X1757Y785D01*
X1763Y775D01*
X1769Y765D01*
X1776Y755D01*
X1782Y743D01*
X1787Y730D01*
X1793Y715D01*
X1798Y700D01*
X1802Y684D01*
X1736Y665D01*
Y665D01*
X1736Y666D01*
X1736Y668D01*
X1735Y670D01*
X1734Y674D01*
X1733Y677D01*
X1731Y681D01*
X1730Y685D01*
X1726Y695D01*
X1720Y706D01*
X1714Y718D01*
X1706Y730D01*
X1698Y742D01*
X1688Y753D01*
X1677Y764D01*
X1665Y774D01*
X1658Y778D01*
X1650Y782D01*
X1643Y785D01*
X1635Y789D01*
X1627Y791D01*
X1618Y793D01*
X1610Y794D01*
X1600Y794D01*
X1595D01*
X1591Y794D01*
X1587Y793D01*
X1582Y793D01*
X1576Y792D01*
X1570Y791D01*
X1556Y788D01*
X1549Y785D01*
X1541Y783D01*
X1534Y780D01*
X1526Y776D01*
X1519Y772D01*
X1512Y768D01*
X1511Y767D01*
X1510Y766D01*
X1508Y765D01*
X1505Y763D01*
X1503Y760D01*
X1499Y757D01*
X1495Y753D01*
X1490Y748D01*
X1486Y743D01*
X1481Y737D01*
X1476Y730D01*
X1471Y723D01*
X1466Y715D01*
X1461Y706D01*
X1457Y697D01*
X1452Y687D01*
X1452Y686D01*
X1451Y684D01*
X1450Y681D01*
X1449Y677D01*
X1447Y671D01*
X1445Y665D01*
X1443Y657D01*
X1441Y649D01*
X1439Y639D01*
X1437Y628D01*
X1435Y617D01*
X1434Y604D01*
X1432Y591D01*
X1431Y578D01*
X1431Y563D01*
X1430Y547D01*
Y547D01*
Y546D01*
Y544D01*
Y542D01*
Y538D01*
X1431Y535D01*
Y531D01*
X1431Y526D01*
Y521D01*
X1432Y516D01*
X1433Y503D01*
X1434Y490D01*
X1436Y476D01*
X1438Y460D01*
X1441Y444D01*
X1445Y428D01*
X1449Y413D01*
X1454Y397D01*
X1460Y382D01*
X1467Y369D01*
X1475Y356D01*
X1475Y355D01*
X1477Y353D01*
X1479Y350D01*
X1483Y346D01*
X1488Y341D01*
X1493Y336D01*
X1499Y330D01*
X1507Y324D01*
X1515Y318D01*
X1524Y312D01*
X1534Y307D01*
X1544Y302D01*
X1556Y298D01*
X1568Y295D01*
X1581Y293D01*
X1594Y292D01*
X1597D01*
X1600Y293D01*
X1604D01*
X1609Y294D01*
X1614Y295D01*
X1620Y295D01*
X1627Y297D01*
X1634Y299D01*
X1642Y302D01*
X1650Y305D01*
X1658Y309D01*
X1666Y313D01*
X1674Y319D01*
X1682Y325D01*
X1690Y331D01*
X1690Y332D01*
X1691Y333D01*
X1693Y335D01*
X1696Y339D01*
X1699Y343D01*
X1703Y348D01*
X1707Y354D01*
X1711Y361D01*
X1716Y369D01*
X1721Y378D01*
X1725Y387D01*
X1729Y398D01*
X1733Y410D01*
X1737Y422D01*
X1741Y436D01*
X1743Y450D01*
X1811Y429D01*
Y429D01*
X1811Y428D01*
Y426D01*
X1810Y425D01*
X1809Y422D01*
X1809Y419D01*
X1807Y412D01*
X1804Y403D01*
X1801Y393D01*
X1797Y382D01*
X1793Y371D01*
X1787Y358D01*
X1782Y345D01*
X1775Y332D01*
X1768Y319D01*
X1760Y307D01*
X1751Y295D01*
X1742Y284D01*
X1732Y273D01*
X1731Y273D01*
X1729Y271D01*
X1726Y269D01*
X1722Y265D01*
X1716Y261D01*
X1710Y257D01*
X1702Y252D01*
X1694Y248D01*
X1685Y243D01*
X1674Y238D01*
X1663Y234D01*
X1651Y230D01*
X1638Y226D01*
X1625Y224D01*
X1610Y222D01*
X1595Y222D01*
X1592D01*
X1589Y222D01*
X1584D01*
X1578Y223D01*
X1570Y224D01*
X1563Y224D01*
X1554Y226D01*
X1544Y228D01*
X1535Y230D01*
X1525Y233D01*
X1514Y236D01*
X1504Y240D01*
X1494Y244D01*
X1484Y250D01*
X1474Y256D01*
X1474Y256D01*
X1472Y258D01*
X1469Y259D01*
X1466Y263D01*
X1462Y266D01*
X1457Y271D01*
X1451Y276D01*
X1445Y283D01*
X1439Y290D01*
X1433Y298D01*
X1426Y307D01*
X1419Y317D01*
X1412Y328D01*
X1405Y340D01*
X1399Y353D01*
X1392Y367D01*
X1392Y368D01*
X1391Y371D01*
X1390Y375D01*
X1387Y381D01*
X1385Y388D01*
X1382Y396D01*
X1380Y406D01*
X1377Y418D01*
X1374Y431D01*
X1371Y445D01*
X1368Y459D01*
X1366Y475D01*
X1363Y492D01*
X1362Y510D01*
X1361Y528D01*
X1361Y547D01*
Y548D01*
Y548D01*
Y550D01*
Y552D01*
Y554D01*
Y557D01*
X1361Y564D01*
X1362Y573D01*
X1362Y583D01*
X1363Y595D01*
X1365Y608D01*
X1366Y621D01*
X1368Y635D01*
X1371Y649D01*
X1374Y664D01*
X1378Y679D01*
X1382Y693D01*
X1387Y707D01*
X1392Y721D01*
X1393Y722D01*
X1394Y724D01*
X1396Y728D01*
X1398Y733D01*
X1402Y739D01*
X1406Y745D01*
X1410Y753D01*
X1415Y761D01*
X1421Y770D01*
X1428Y778D01*
X1435Y787D01*
X1443Y796D01*
X1451Y805D01*
X1459Y813D01*
X1469Y821D01*
X1479Y828D01*
X1479Y829D01*
X1482Y830D01*
X1484Y831D01*
X1488Y834D01*
X1494Y837D01*
X1500Y840D01*
X1507Y843D01*
X1515Y846D01*
X1524Y850D01*
X1533Y853D01*
X1543Y856D01*
X1554Y859D01*
X1565Y861D01*
X1577Y863D01*
X1589Y864D01*
X1601Y865D01*
X1605D01*
X1609Y864D01*
D02*
G37*
G36*
X9870Y561D02*
X10063Y232D01*
X9980D01*
X9851Y453D01*
X9850Y454D01*
X9849Y457D01*
X9847Y461D01*
X9844Y466D01*
X9841Y472D01*
X9837Y479D01*
X9833Y487D01*
X9829Y495D01*
Y494D01*
X9828Y493D01*
X9828Y492D01*
X9826Y489D01*
X9825Y487D01*
X9823Y483D01*
X9820Y477D01*
X9816Y469D01*
X9812Y461D01*
X9808Y454D01*
X9806Y452D01*
X9805Y449D01*
X9676Y232D01*
X9596D01*
X9793Y556D01*
X9619Y854D01*
X9699D01*
X9792Y694D01*
X9793Y694D01*
X9794Y692D01*
X9795Y689D01*
X9797Y686D01*
X9799Y682D01*
X9802Y677D01*
X9805Y672D01*
X9808Y666D01*
X9815Y654D01*
X9821Y641D01*
X9828Y629D01*
X9830Y624D01*
X9833Y618D01*
Y618D01*
X9834Y619D01*
X9835Y621D01*
X9835Y624D01*
X9837Y627D01*
X9839Y630D01*
X9841Y634D01*
X9844Y639D01*
X9850Y650D01*
X9857Y662D01*
X9865Y675D01*
X9873Y689D01*
X9976Y854D01*
X10049D01*
X9870Y561D01*
D02*
G37*
G36*
X5191Y495D02*
Y232D01*
X5124D01*
Y495D01*
X4928Y854D01*
X5010D01*
X5109Y666D01*
X5110Y666D01*
X5111Y664D01*
X5112Y661D01*
X5114Y657D01*
X5117Y652D01*
X5120Y646D01*
X5123Y639D01*
X5127Y632D01*
X5131Y624D01*
X5135Y616D01*
X5144Y598D01*
X5153Y580D01*
X5162Y561D01*
X5162Y562D01*
X5163Y563D01*
X5164Y566D01*
X5166Y570D01*
X5168Y574D01*
X5170Y580D01*
X5174Y586D01*
X5177Y593D01*
X5181Y601D01*
X5185Y609D01*
X5189Y618D01*
X5194Y628D01*
X5200Y638D01*
X5205Y649D01*
X5217Y671D01*
X5316Y854D01*
X5395D01*
X5191Y495D01*
D02*
G37*
G36*
X11274Y232D02*
X11204D01*
X10937Y719D01*
Y232D01*
X10872D01*
Y854D01*
X10941D01*
X11209Y366D01*
Y854D01*
X11274D01*
Y232D01*
D02*
G37*
G36*
X2665D02*
X2596D01*
X2398Y854D01*
X2471D01*
X2603Y402D01*
Y401D01*
X2604Y400D01*
X2605Y397D01*
X2606Y393D01*
X2607Y388D01*
X2609Y383D01*
X2611Y376D01*
X2612Y370D01*
X2615Y362D01*
X2616Y354D01*
X2621Y337D01*
X2626Y319D01*
X2630Y300D01*
Y301D01*
X2631Y303D01*
X2631Y305D01*
X2632Y309D01*
X2633Y314D01*
X2635Y319D01*
X2636Y325D01*
X2638Y332D01*
X2640Y340D01*
X2642Y348D01*
X2646Y365D01*
X2652Y383D01*
X2657Y402D01*
X2795Y854D01*
X2863D01*
X2665Y232D01*
D02*
G37*
G36*
X14804Y780D02*
X14502D01*
Y590D01*
X14784D01*
Y517D01*
X14502D01*
Y305D01*
X14815D01*
Y232D01*
X14435D01*
Y854D01*
X14804D01*
Y780D01*
D02*
G37*
G36*
X14110Y853D02*
X14116D01*
X14123Y853D01*
X14131Y852D01*
X14147Y851D01*
X14163Y849D01*
X14171Y847D01*
X14179Y846D01*
X14186Y844D01*
X14193Y842D01*
X14193D01*
X14195Y841D01*
X14198Y841D01*
X14200Y839D01*
X14204Y837D01*
X14209Y835D01*
X14214Y833D01*
X14219Y830D01*
X14225Y826D01*
X14231Y822D01*
X14238Y818D01*
X14244Y813D01*
X14251Y807D01*
X14257Y801D01*
X14264Y795D01*
X14270Y788D01*
X14270Y787D01*
X14271Y786D01*
X14273Y784D01*
X14275Y780D01*
X14278Y777D01*
X14281Y772D01*
X14285Y767D01*
X14289Y760D01*
X14293Y754D01*
X14297Y746D01*
X14301Y738D01*
X14305Y729D01*
X14309Y720D01*
X14314Y709D01*
X14317Y699D01*
X14321Y688D01*
Y688D01*
X14322Y685D01*
X14323Y682D01*
X14324Y678D01*
X14325Y672D01*
X14327Y665D01*
X14329Y657D01*
X14330Y648D01*
X14332Y638D01*
X14334Y627D01*
X14335Y616D01*
X14337Y603D01*
X14338Y590D01*
X14339Y576D01*
X14339Y561D01*
Y546D01*
Y546D01*
Y545D01*
Y543D01*
Y542D01*
Y539D01*
Y536D01*
X14339Y532D01*
Y528D01*
X14339Y519D01*
X14338Y509D01*
X14337Y497D01*
X14335Y484D01*
X14334Y471D01*
X14332Y456D01*
X14329Y441D01*
X14326Y426D01*
X14323Y411D01*
X14319Y396D01*
X14314Y381D01*
X14308Y367D01*
X14308Y366D01*
X14307Y364D01*
X14305Y360D01*
X14303Y355D01*
X14299Y349D01*
X14296Y342D01*
X14291Y335D01*
X14287Y326D01*
X14281Y318D01*
X14275Y309D01*
X14269Y300D01*
X14262Y292D01*
X14254Y284D01*
X14246Y276D01*
X14238Y269D01*
X14228Y263D01*
X14228Y262D01*
X14226Y261D01*
X14223Y260D01*
X14220Y258D01*
X14215Y255D01*
X14209Y253D01*
X14203Y250D01*
X14195Y248D01*
X14186Y244D01*
X14177Y242D01*
X14166Y239D01*
X14155Y237D01*
X14143Y235D01*
X14130Y234D01*
X14116Y233D01*
X14102Y232D01*
X13918D01*
Y854D01*
X14105D01*
X14110Y853D01*
D02*
G37*
G36*
X13802Y232D02*
X13735D01*
Y854D01*
X13802D01*
Y232D01*
D02*
G37*
G36*
X12783Y853D02*
X12789D01*
X12797Y853D01*
X12804Y852D01*
X12820Y851D01*
X12837Y849D01*
X12845Y847D01*
X12853Y846D01*
X12860Y844D01*
X12866Y841D01*
X12867D01*
X12868Y841D01*
X12870Y840D01*
X12874Y838D01*
X12877Y836D01*
X12882Y834D01*
X12886Y831D01*
X12892Y828D01*
X12897Y824D01*
X12903Y820D01*
X12909Y815D01*
X12914Y810D01*
X12920Y804D01*
X12926Y797D01*
X12932Y790D01*
X12937Y782D01*
X12937Y781D01*
X12938Y780D01*
X12939Y777D01*
X12941Y774D01*
X12943Y770D01*
X12945Y765D01*
X12948Y759D01*
X12950Y752D01*
X12952Y745D01*
X12955Y736D01*
X12957Y728D01*
X12959Y718D01*
X12961Y708D01*
X12962Y698D01*
X12963Y687D01*
X12963Y675D01*
Y674D01*
Y674D01*
Y671D01*
X12963Y667D01*
Y661D01*
X12962Y654D01*
X12961Y645D01*
X12959Y636D01*
X12958Y626D01*
X12955Y616D01*
X12953Y604D01*
X12949Y593D01*
X12945Y582D01*
X12940Y570D01*
X12934Y559D01*
X12928Y548D01*
X12920Y538D01*
X12919Y538D01*
X12918Y536D01*
X12915Y533D01*
X12912Y530D01*
X12907Y526D01*
X12901Y521D01*
X12894Y517D01*
X12885Y512D01*
X12876Y507D01*
X12865Y502D01*
X12853Y497D01*
X12839Y493D01*
X12825Y490D01*
X12808Y487D01*
X12791Y486D01*
X12772Y485D01*
X12642D01*
Y232D01*
X12575D01*
Y854D01*
X12777D01*
X12783Y853D01*
D02*
G37*
G36*
X11953Y780D02*
X11784D01*
Y232D01*
X11716D01*
Y780D01*
X11549D01*
Y854D01*
X11953D01*
Y780D01*
D02*
G37*
G36*
X9543D02*
X9242D01*
Y590D01*
X9524D01*
Y517D01*
X9242D01*
Y305D01*
X9555D01*
Y232D01*
X9174D01*
Y854D01*
X9543D01*
Y780D01*
D02*
G37*
G36*
X8840Y305D02*
X9092D01*
Y232D01*
X8773D01*
Y854D01*
X8840D01*
Y305D01*
D02*
G37*
G36*
X8691Y780D02*
X8414D01*
Y588D01*
X8653D01*
Y515D01*
X8414D01*
Y232D01*
X8347D01*
Y854D01*
X8691D01*
Y780D01*
D02*
G37*
G36*
X7867Y853D02*
X7873D01*
X7880Y853D01*
X7887Y852D01*
X7895Y851D01*
X7912Y850D01*
X7929Y846D01*
X7938Y844D01*
X7946Y842D01*
X7953Y839D01*
X7960Y836D01*
X7960D01*
X7961Y835D01*
X7963Y834D01*
X7965Y833D01*
X7969Y831D01*
X7972Y828D01*
X7975Y826D01*
X7980Y822D01*
X7984Y819D01*
X7989Y814D01*
X7993Y810D01*
X7998Y804D01*
X8002Y799D01*
X8007Y792D01*
X8011Y785D01*
X8015Y778D01*
X8016Y778D01*
X8016Y776D01*
X8017Y774D01*
X8019Y771D01*
X8020Y767D01*
X8022Y763D01*
X8025Y757D01*
X8026Y751D01*
X8029Y745D01*
X8030Y738D01*
X8032Y730D01*
X8034Y722D01*
X8035Y713D01*
X8036Y704D01*
X8037Y694D01*
X8037Y684D01*
Y684D01*
Y681D01*
X8037Y678D01*
Y673D01*
X8036Y667D01*
X8035Y660D01*
X8034Y652D01*
X8033Y644D01*
X8031Y635D01*
X8028Y626D01*
X8025Y616D01*
X8022Y607D01*
X8018Y597D01*
X8013Y588D01*
X8007Y579D01*
X8000Y570D01*
X8000Y570D01*
X7999Y568D01*
X7997Y566D01*
X7994Y563D01*
X7990Y560D01*
X7985Y556D01*
X7980Y552D01*
X7973Y547D01*
X7966Y542D01*
X7958Y538D01*
X7949Y533D01*
X7940Y528D01*
X7929Y524D01*
X7919Y521D01*
X7907Y517D01*
X7894Y515D01*
X7894D01*
X7895Y514D01*
X7897Y513D01*
X7899Y512D01*
X7904Y508D01*
X7910Y504D01*
X7917Y499D01*
X7924Y493D01*
X7931Y487D01*
X7937Y480D01*
X7938Y480D01*
X7939Y478D01*
X7940Y477D01*
X7942Y474D01*
X7945Y471D01*
X7948Y467D01*
X7951Y462D01*
X7955Y457D01*
X7959Y452D01*
X7963Y445D01*
X7972Y432D01*
X7981Y417D01*
X7990Y401D01*
X8079Y232D01*
X7994D01*
X7926Y361D01*
X7926Y362D01*
X7924Y364D01*
X7923Y368D01*
X7920Y373D01*
X7917Y380D01*
X7913Y386D01*
X7909Y394D01*
X7904Y402D01*
X7894Y419D01*
X7884Y436D01*
X7879Y444D01*
X7875Y452D01*
X7871Y458D01*
X7867Y463D01*
Y464D01*
X7866Y465D01*
X7865Y466D01*
X7863Y467D01*
X7859Y472D01*
X7854Y478D01*
X7848Y484D01*
X7842Y489D01*
X7835Y495D01*
X7828Y499D01*
X7827Y499D01*
X7824Y500D01*
X7820Y502D01*
X7814Y504D01*
X7807Y505D01*
X7798Y507D01*
X7787Y508D01*
X7775Y508D01*
X7697D01*
Y232D01*
X7630D01*
Y854D01*
X7863D01*
X7867Y853D01*
D02*
G37*
G36*
X6990Y780D02*
X6713D01*
Y588D01*
X6953D01*
Y515D01*
X6713D01*
Y232D01*
X6646D01*
Y854D01*
X6990D01*
Y780D01*
D02*
G37*
G36*
X6166Y853D02*
X6172D01*
X6179Y853D01*
X6186Y852D01*
X6195Y851D01*
X6211Y850D01*
X6229Y846D01*
X6237Y844D01*
X6245Y842D01*
X6252Y839D01*
X6259Y836D01*
X6260D01*
X6261Y835D01*
X6262Y834D01*
X6265Y833D01*
X6268Y831D01*
X6271Y828D01*
X6275Y826D01*
X6279Y822D01*
X6283Y819D01*
X6288Y814D01*
X6292Y810D01*
X6297Y804D01*
X6301Y799D01*
X6306Y792D01*
X6311Y785D01*
X6315Y778D01*
X6315Y778D01*
X6316Y776D01*
X6316Y774D01*
X6318Y771D01*
X6320Y767D01*
X6321Y763D01*
X6324Y757D01*
X6326Y751D01*
X6328Y745D01*
X6330Y738D01*
X6331Y730D01*
X6333Y722D01*
X6335Y713D01*
X6336Y704D01*
X6336Y694D01*
X6337Y684D01*
Y684D01*
Y681D01*
X6336Y678D01*
Y673D01*
X6336Y667D01*
X6335Y660D01*
X6333Y652D01*
X6332Y644D01*
X6330Y635D01*
X6327Y626D01*
X6325Y616D01*
X6321Y607D01*
X6317Y597D01*
X6312Y588D01*
X6306Y579D01*
X6300Y570D01*
X6299Y570D01*
X6298Y568D01*
X6296Y566D01*
X6293Y563D01*
X6289Y560D01*
X6284Y556D01*
X6279Y552D01*
X6272Y547D01*
X6266Y542D01*
X6257Y538D01*
X6249Y533D01*
X6239Y528D01*
X6229Y524D01*
X6218Y521D01*
X6206Y517D01*
X6193Y515D01*
X6194D01*
X6195Y514D01*
X6196Y513D01*
X6198Y512D01*
X6203Y508D01*
X6209Y504D01*
X6216Y499D01*
X6223Y493D01*
X6230Y487D01*
X6236Y480D01*
X6237Y480D01*
X6238Y478D01*
X6239Y477D01*
X6241Y474D01*
X6244Y471D01*
X6247Y467D01*
X6251Y462D01*
X6254Y457D01*
X6258Y452D01*
X6262Y445D01*
X6271Y432D01*
X6281Y417D01*
X6289Y401D01*
X6378Y232D01*
X6293D01*
X6225Y361D01*
X6225Y362D01*
X6224Y364D01*
X6222Y368D01*
X6219Y373D01*
X6216Y380D01*
X6212Y386D01*
X6208Y394D01*
X6203Y402D01*
X6194Y419D01*
X6184Y436D01*
X6179Y444D01*
X6174Y452D01*
X6170Y458D01*
X6166Y463D01*
Y464D01*
X6165Y465D01*
X6164Y466D01*
X6163Y467D01*
X6159Y472D01*
X6154Y478D01*
X6148Y484D01*
X6141Y489D01*
X6134Y495D01*
X6127Y499D01*
X6126Y499D01*
X6123Y500D01*
X6119Y502D01*
X6113Y504D01*
X6106Y505D01*
X6097Y507D01*
X6086Y508D01*
X6074Y508D01*
X5997D01*
Y232D01*
X5929D01*
Y854D01*
X6162D01*
X6166Y853D01*
D02*
G37*
G36*
X5825Y780D02*
X5524D01*
Y590D01*
X5806D01*
Y517D01*
X5524D01*
Y305D01*
X5837D01*
Y232D01*
X5457D01*
Y854D01*
X5825D01*
Y780D01*
D02*
G37*
G36*
X4927Y232D02*
X4850D01*
X4790Y421D01*
X4577D01*
X4522Y232D01*
X4450D01*
X4645Y854D01*
X4718D01*
X4927Y232D01*
D02*
G37*
G36*
X4173Y305D02*
X4425D01*
Y232D01*
X4106D01*
Y854D01*
X4173D01*
Y305D01*
D02*
G37*
G36*
X3635Y853D02*
X3641D01*
X3648Y853D01*
X3655Y852D01*
X3663Y851D01*
X3680Y850D01*
X3698Y846D01*
X3706Y844D01*
X3714Y842D01*
X3721Y839D01*
X3728Y836D01*
X3728D01*
X3729Y835D01*
X3731Y834D01*
X3733Y833D01*
X3737Y831D01*
X3740Y828D01*
X3743Y826D01*
X3748Y822D01*
X3752Y819D01*
X3757Y814D01*
X3761Y810D01*
X3766Y804D01*
X3770Y799D01*
X3775Y792D01*
X3779Y785D01*
X3784Y778D01*
X3784Y778D01*
X3784Y776D01*
X3785Y774D01*
X3787Y771D01*
X3789Y767D01*
X3790Y763D01*
X3793Y757D01*
X3794Y751D01*
X3797Y745D01*
X3799Y738D01*
X3800Y730D01*
X3802Y722D01*
X3804Y713D01*
X3804Y704D01*
X3805Y694D01*
X3805Y684D01*
Y684D01*
Y681D01*
X3805Y678D01*
Y673D01*
X3804Y667D01*
X3804Y660D01*
X3802Y652D01*
X3801Y644D01*
X3799Y635D01*
X3796Y626D01*
X3794Y616D01*
X3790Y607D01*
X3786Y597D01*
X3781Y588D01*
X3775Y579D01*
X3768Y570D01*
X3768Y570D01*
X3767Y568D01*
X3765Y566D01*
X3762Y563D01*
X3758Y560D01*
X3753Y556D01*
X3748Y552D01*
X3741Y547D01*
X3734Y542D01*
X3726Y538D01*
X3718Y533D01*
X3708Y528D01*
X3698Y524D01*
X3687Y521D01*
X3675Y517D01*
X3662Y515D01*
X3662D01*
X3663Y514D01*
X3665Y513D01*
X3667Y512D01*
X3672Y508D01*
X3678Y504D01*
X3685Y499D01*
X3692Y493D01*
X3699Y487D01*
X3705Y480D01*
X3706Y480D01*
X3707Y478D01*
X3708Y477D01*
X3710Y474D01*
X3713Y471D01*
X3716Y467D01*
X3719Y462D01*
X3723Y457D01*
X3727Y452D01*
X3731Y445D01*
X3740Y432D01*
X3749Y417D01*
X3758Y401D01*
X3847Y232D01*
X3762D01*
X3694Y361D01*
X3694Y362D01*
X3692Y364D01*
X3691Y368D01*
X3688Y373D01*
X3685Y380D01*
X3681Y386D01*
X3677Y394D01*
X3672Y402D01*
X3662Y419D01*
X3652Y436D01*
X3647Y444D01*
X3643Y452D01*
X3639Y458D01*
X3635Y463D01*
Y464D01*
X3634Y465D01*
X3633Y466D01*
X3632Y467D01*
X3627Y472D01*
X3622Y478D01*
X3617Y484D01*
X3610Y489D01*
X3603Y495D01*
X3596Y499D01*
X3595Y499D01*
X3592Y500D01*
X3588Y502D01*
X3582Y504D01*
X3575Y505D01*
X3566Y507D01*
X3555Y508D01*
X3543Y508D01*
X3465D01*
Y232D01*
X3398D01*
Y854D01*
X3631D01*
X3635Y853D01*
D02*
G37*
G36*
X3294Y780D02*
X2993D01*
Y590D01*
X3275D01*
Y517D01*
X2993D01*
Y305D01*
X3306D01*
Y232D01*
X2925D01*
Y854D01*
X3294D01*
Y780D01*
D02*
G37*
G36*
X12252Y864D02*
X12257D01*
X12263Y863D01*
X12270Y863D01*
X12277Y861D01*
X12286Y860D01*
X12296Y858D01*
X12305Y856D01*
X12315Y852D01*
X12326Y849D01*
X12337Y844D01*
X12347Y839D01*
X12358Y833D01*
X12368Y826D01*
X12369Y826D01*
X12371Y825D01*
X12374Y822D01*
X12378Y819D01*
X12382Y816D01*
X12388Y811D01*
X12394Y805D01*
X12400Y798D01*
X12407Y791D01*
X12414Y783D01*
X12422Y774D01*
X12429Y764D01*
X12436Y753D01*
X12443Y741D01*
X12450Y729D01*
X12456Y715D01*
X12457Y715D01*
X12458Y712D01*
X12459Y708D01*
X12461Y703D01*
X12464Y695D01*
X12467Y687D01*
X12469Y678D01*
X12473Y667D01*
X12476Y654D01*
X12479Y641D01*
X12481Y627D01*
X12484Y612D01*
X12486Y596D01*
X12488Y579D01*
X12489Y561D01*
X12489Y543D01*
Y542D01*
Y541D01*
Y539D01*
Y537D01*
Y533D01*
X12489Y529D01*
Y525D01*
X12488Y520D01*
X12488Y514D01*
X12487Y508D01*
X12486Y501D01*
X12486Y494D01*
X12484Y479D01*
X12481Y462D01*
X12478Y445D01*
X12474Y427D01*
X12469Y408D01*
X12463Y389D01*
X12455Y371D01*
X12447Y352D01*
X12437Y334D01*
X12426Y317D01*
Y317D01*
X12425Y316D01*
X12424Y315D01*
X12423Y313D01*
X12419Y309D01*
X12413Y302D01*
X12407Y295D01*
X12398Y287D01*
X12389Y279D01*
X12378Y270D01*
X12365Y260D01*
X12352Y252D01*
X12337Y244D01*
X12321Y237D01*
X12303Y230D01*
X12285Y226D01*
X12276Y224D01*
X12266Y223D01*
X12256Y222D01*
X12245Y222D01*
X12240D01*
X12237Y222D01*
X12234D01*
X12231Y223D01*
X12226Y223D01*
X12217Y225D01*
X12206Y227D01*
X12194Y230D01*
X12180Y234D01*
X12166Y239D01*
X12151Y246D01*
X12136Y254D01*
X12121Y263D01*
X12113Y269D01*
X12106Y275D01*
X12099Y281D01*
X12091Y288D01*
X12084Y295D01*
X12077Y303D01*
X12070Y311D01*
X12064Y320D01*
Y320D01*
X12063Y321D01*
X12062Y322D01*
X12061Y324D01*
X12060Y326D01*
X12058Y329D01*
X12056Y332D01*
X12054Y336D01*
X12049Y345D01*
X12044Y355D01*
X12039Y367D01*
X12033Y380D01*
X12027Y395D01*
X12021Y411D01*
X12016Y429D01*
X12011Y448D01*
X12008Y468D01*
X12004Y489D01*
X12003Y512D01*
X12002Y535D01*
Y535D01*
Y537D01*
Y539D01*
Y542D01*
X12002Y546D01*
Y550D01*
X12003Y555D01*
Y561D01*
X12003Y568D01*
X12004Y574D01*
X12004Y582D01*
X12005Y589D01*
X12008Y607D01*
X12010Y625D01*
X12014Y644D01*
X12019Y664D01*
X12024Y684D01*
X12031Y705D01*
X12039Y725D01*
X12049Y744D01*
X12059Y762D01*
X12071Y779D01*
Y780D01*
X12072Y780D01*
X12075Y783D01*
X12079Y787D01*
X12084Y792D01*
X12091Y799D01*
X12099Y806D01*
X12109Y814D01*
X12120Y822D01*
X12131Y830D01*
X12145Y838D01*
X12159Y845D01*
X12175Y851D01*
X12191Y857D01*
X12208Y861D01*
X12226Y864D01*
X12236Y864D01*
X12246Y865D01*
X12249D01*
X12252Y864D01*
D02*
G37*
G36*
X10551D02*
X10556D01*
X10562Y863D01*
X10569Y863D01*
X10577Y861D01*
X10585Y860D01*
X10595Y858D01*
X10604Y856D01*
X10614Y852D01*
X10625Y849D01*
X10636Y844D01*
X10646Y839D01*
X10657Y833D01*
X10668Y826D01*
X10668Y826D01*
X10670Y825D01*
X10673Y822D01*
X10677Y819D01*
X10681Y816D01*
X10687Y811D01*
X10693Y805D01*
X10699Y798D01*
X10706Y791D01*
X10714Y783D01*
X10721Y774D01*
X10728Y764D01*
X10735Y753D01*
X10742Y741D01*
X10749Y729D01*
X10755Y715D01*
X10756Y715D01*
X10757Y712D01*
X10759Y708D01*
X10760Y703D01*
X10763Y695D01*
X10766Y687D01*
X10769Y678D01*
X10772Y667D01*
X10775Y654D01*
X10778Y641D01*
X10781Y627D01*
X10783Y612D01*
X10785Y596D01*
X10787Y579D01*
X10788Y561D01*
X10788Y543D01*
Y542D01*
Y541D01*
Y539D01*
Y537D01*
Y533D01*
X10788Y529D01*
Y525D01*
X10787Y520D01*
X10787Y514D01*
X10786Y508D01*
X10785Y501D01*
X10785Y494D01*
X10783Y479D01*
X10781Y462D01*
X10777Y445D01*
X10773Y427D01*
X10768Y408D01*
X10762Y389D01*
X10755Y371D01*
X10746Y352D01*
X10736Y334D01*
X10725Y317D01*
Y317D01*
X10725Y316D01*
X10724Y315D01*
X10722Y313D01*
X10718Y309D01*
X10713Y302D01*
X10706Y295D01*
X10698Y287D01*
X10688Y279D01*
X10677Y270D01*
X10664Y260D01*
X10651Y252D01*
X10636Y244D01*
X10620Y237D01*
X10603Y230D01*
X10584Y226D01*
X10575Y224D01*
X10565Y223D01*
X10555Y222D01*
X10544Y222D01*
X10539D01*
X10537Y222D01*
X10533D01*
X10530Y223D01*
X10526Y223D01*
X10516Y225D01*
X10505Y227D01*
X10493Y230D01*
X10479Y234D01*
X10465Y239D01*
X10451Y246D01*
X10435Y254D01*
X10420Y263D01*
X10412Y269D01*
X10405Y275D01*
X10398Y281D01*
X10391Y288D01*
X10383Y295D01*
X10376Y303D01*
X10369Y311D01*
X10363Y320D01*
Y320D01*
X10362Y321D01*
X10361Y322D01*
X10360Y324D01*
X10359Y326D01*
X10357Y329D01*
X10355Y332D01*
X10353Y336D01*
X10348Y345D01*
X10343Y355D01*
X10338Y367D01*
X10332Y380D01*
X10326Y395D01*
X10320Y411D01*
X10315Y429D01*
X10310Y448D01*
X10307Y468D01*
X10304Y489D01*
X10302Y512D01*
X10301Y535D01*
Y535D01*
Y537D01*
Y539D01*
Y542D01*
X10301Y546D01*
Y550D01*
X10302Y555D01*
Y561D01*
X10302Y568D01*
X10303Y574D01*
X10304Y582D01*
X10305Y589D01*
X10307Y607D01*
X10310Y625D01*
X10313Y644D01*
X10318Y664D01*
X10324Y684D01*
X10330Y705D01*
X10338Y725D01*
X10348Y744D01*
X10358Y762D01*
X10371Y779D01*
Y780D01*
X10371Y780D01*
X10374Y783D01*
X10378Y787D01*
X10383Y792D01*
X10390Y799D01*
X10398Y806D01*
X10408Y814D01*
X10419Y822D01*
X10431Y830D01*
X10444Y838D01*
X10458Y845D01*
X10474Y851D01*
X10490Y857D01*
X10507Y861D01*
X10526Y864D01*
X10535Y864D01*
X10545Y865D01*
X10548D01*
X10551Y864D01*
D02*
G37*
G36*
X7307D02*
X7312D01*
X7318Y863D01*
X7325Y863D01*
X7333Y861D01*
X7342Y860D01*
X7351Y858D01*
X7361Y856D01*
X7371Y852D01*
X7381Y849D01*
X7392Y844D01*
X7403Y839D01*
X7413Y833D01*
X7424Y826D01*
X7424Y826D01*
X7426Y825D01*
X7429Y822D01*
X7433Y819D01*
X7438Y816D01*
X7443Y811D01*
X7449Y805D01*
X7456Y798D01*
X7463Y791D01*
X7470Y783D01*
X7477Y774D01*
X7484Y764D01*
X7492Y753D01*
X7499Y741D01*
X7505Y729D01*
X7512Y715D01*
X7512Y715D01*
X7513Y712D01*
X7515Y708D01*
X7517Y703D01*
X7520Y695D01*
X7522Y687D01*
X7525Y678D01*
X7528Y667D01*
X7531Y654D01*
X7534Y641D01*
X7537Y627D01*
X7540Y612D01*
X7541Y596D01*
X7543Y579D01*
X7544Y561D01*
X7545Y543D01*
Y542D01*
Y541D01*
Y539D01*
Y537D01*
Y533D01*
X7544Y529D01*
Y525D01*
X7544Y520D01*
X7543Y514D01*
X7543Y508D01*
X7542Y501D01*
X7541Y494D01*
X7539Y479D01*
X7537Y462D01*
X7533Y445D01*
X7529Y427D01*
X7524Y408D01*
X7518Y389D01*
X7511Y371D01*
X7503Y352D01*
X7493Y334D01*
X7482Y317D01*
Y317D01*
X7481Y316D01*
X7480Y315D01*
X7479Y313D01*
X7474Y309D01*
X7469Y302D01*
X7462Y295D01*
X7454Y287D01*
X7444Y279D01*
X7433Y270D01*
X7421Y260D01*
X7407Y252D01*
X7392Y244D01*
X7376Y237D01*
X7359Y230D01*
X7341Y226D01*
X7331Y224D01*
X7321Y223D01*
X7311Y222D01*
X7301Y222D01*
X7296D01*
X7293Y222D01*
X7290D01*
X7286Y223D01*
X7282Y223D01*
X7272Y225D01*
X7262Y227D01*
X7249Y230D01*
X7236Y234D01*
X7221Y239D01*
X7207Y246D01*
X7191Y254D01*
X7176Y263D01*
X7169Y269D01*
X7161Y275D01*
X7154Y281D01*
X7147Y288D01*
X7140Y295D01*
X7132Y303D01*
X7125Y311D01*
X7119Y320D01*
Y320D01*
X7119Y321D01*
X7118Y322D01*
X7116Y324D01*
X7115Y326D01*
X7113Y329D01*
X7111Y332D01*
X7110Y336D01*
X7105Y345D01*
X7100Y355D01*
X7094Y367D01*
X7088Y380D01*
X7082Y395D01*
X7077Y411D01*
X7072Y429D01*
X7067Y448D01*
X7063Y468D01*
X7060Y489D01*
X7058Y512D01*
X7057Y535D01*
Y535D01*
Y537D01*
Y539D01*
Y542D01*
X7058Y546D01*
Y550D01*
X7058Y555D01*
Y561D01*
X7059Y568D01*
X7060Y574D01*
X7060Y582D01*
X7061Y589D01*
X7063Y607D01*
X7066Y625D01*
X7070Y644D01*
X7074Y664D01*
X7080Y684D01*
X7087Y705D01*
X7095Y725D01*
X7104Y744D01*
X7115Y762D01*
X7127Y779D01*
Y780D01*
X7128Y780D01*
X7130Y783D01*
X7134Y787D01*
X7140Y792D01*
X7146Y799D01*
X7155Y806D01*
X7164Y814D01*
X7175Y822D01*
X7187Y830D01*
X7200Y838D01*
X7215Y845D01*
X7230Y851D01*
X7247Y857D01*
X7264Y861D01*
X7282Y864D01*
X7292Y864D01*
X7301Y865D01*
X7304D01*
X7307Y864D01*
D02*
G37*
G36*
X2126D02*
X2131D01*
X2137Y863D01*
X2144Y863D01*
X2152Y861D01*
X2161Y860D01*
X2170Y858D01*
X2180Y856D01*
X2190Y852D01*
X2200Y849D01*
X2211Y844D01*
X2221Y839D01*
X2232Y833D01*
X2243Y826D01*
X2243Y826D01*
X2245Y825D01*
X2248Y822D01*
X2252Y819D01*
X2257Y816D01*
X2262Y811D01*
X2268Y805D01*
X2275Y798D01*
X2282Y791D01*
X2289Y783D01*
X2296Y774D01*
X2303Y764D01*
X2311Y753D01*
X2317Y741D01*
X2324Y729D01*
X2331Y715D01*
X2331Y715D01*
X2332Y712D01*
X2334Y708D01*
X2336Y703D01*
X2338Y695D01*
X2341Y687D01*
X2344Y678D01*
X2347Y667D01*
X2350Y654D01*
X2353Y641D01*
X2356Y627D01*
X2358Y612D01*
X2360Y596D01*
X2362Y579D01*
X2363Y561D01*
X2363Y543D01*
Y542D01*
Y541D01*
Y539D01*
Y537D01*
Y533D01*
X2363Y529D01*
Y525D01*
X2363Y520D01*
X2362Y514D01*
X2362Y508D01*
X2361Y501D01*
X2360Y494D01*
X2358Y479D01*
X2356Y462D01*
X2352Y445D01*
X2348Y427D01*
X2343Y408D01*
X2337Y389D01*
X2330Y371D01*
X2322Y352D01*
X2312Y334D01*
X2301Y317D01*
Y317D01*
X2300Y316D01*
X2299Y315D01*
X2297Y313D01*
X2293Y309D01*
X2288Y302D01*
X2281Y295D01*
X2273Y287D01*
X2263Y279D01*
X2252Y270D01*
X2240Y260D01*
X2226Y252D01*
X2211Y244D01*
X2195Y237D01*
X2178Y230D01*
X2160Y226D01*
X2150Y224D01*
X2140Y223D01*
X2130Y222D01*
X2120Y222D01*
X2115D01*
X2112Y222D01*
X2109D01*
X2105Y223D01*
X2101Y223D01*
X2091Y225D01*
X2080Y227D01*
X2068Y230D01*
X2055Y234D01*
X2040Y239D01*
X2026Y246D01*
X2010Y254D01*
X1995Y263D01*
X1988Y269D01*
X1980Y275D01*
X1973Y281D01*
X1966Y288D01*
X1958Y295D01*
X1951Y303D01*
X1944Y311D01*
X1938Y320D01*
Y320D01*
X1938Y321D01*
X1937Y322D01*
X1935Y324D01*
X1934Y326D01*
X1932Y329D01*
X1930Y332D01*
X1928Y336D01*
X1923Y345D01*
X1918Y355D01*
X1913Y367D01*
X1907Y380D01*
X1901Y395D01*
X1896Y411D01*
X1891Y429D01*
X1886Y448D01*
X1882Y468D01*
X1879Y489D01*
X1877Y512D01*
X1876Y535D01*
Y535D01*
Y537D01*
Y539D01*
Y542D01*
X1877Y546D01*
Y550D01*
X1877Y555D01*
Y561D01*
X1878Y568D01*
X1878Y574D01*
X1879Y582D01*
X1880Y589D01*
X1882Y607D01*
X1885Y625D01*
X1888Y644D01*
X1893Y664D01*
X1899Y684D01*
X1906Y705D01*
X1913Y725D01*
X1923Y744D01*
X1933Y762D01*
X1946Y779D01*
Y780D01*
X1947Y780D01*
X1949Y783D01*
X1953Y787D01*
X1958Y792D01*
X1965Y799D01*
X1974Y806D01*
X1983Y814D01*
X1994Y822D01*
X2006Y830D01*
X2019Y838D01*
X2034Y845D01*
X2049Y851D01*
X2065Y857D01*
X2083Y861D01*
X2101Y864D01*
X2110Y864D01*
X2120Y865D01*
X2123D01*
X2126Y864D01*
D02*
G37*
%LPC*%
G36*
X14103Y780D02*
X13986D01*
Y305D01*
X14100D01*
X14105Y306D01*
X14110D01*
X14116Y307D01*
X14123Y307D01*
X14131Y308D01*
X14147Y311D01*
X14163Y315D01*
X14171Y317D01*
X14179Y320D01*
X14186Y323D01*
X14193Y327D01*
X14193Y327D01*
X14194Y328D01*
X14196Y329D01*
X14198Y331D01*
X14202Y333D01*
X14205Y336D01*
X14208Y340D01*
X14213Y344D01*
X14217Y348D01*
X14221Y353D01*
X14225Y359D01*
X14229Y365D01*
X14234Y371D01*
X14238Y379D01*
X14242Y387D01*
X14245Y396D01*
X14246Y396D01*
X14246Y398D01*
X14248Y402D01*
X14249Y407D01*
X14251Y413D01*
X14253Y420D01*
X14255Y429D01*
X14258Y438D01*
X14260Y449D01*
X14262Y460D01*
X14264Y473D01*
X14266Y486D01*
X14268Y500D01*
X14269Y515D01*
X14269Y531D01*
X14270Y547D01*
Y548D01*
Y548D01*
Y549D01*
Y551D01*
Y553D01*
Y556D01*
X14269Y563D01*
X14269Y571D01*
X14269Y580D01*
X14268Y590D01*
X14267Y601D01*
X14265Y613D01*
X14264Y625D01*
X14262Y637D01*
X14259Y649D01*
X14256Y662D01*
X14253Y674D01*
X14249Y685D01*
X14244Y695D01*
X14244Y696D01*
X14243Y698D01*
X14241Y700D01*
X14239Y704D01*
X14237Y709D01*
X14234Y714D01*
X14230Y719D01*
X14226Y725D01*
X14222Y731D01*
X14217Y737D01*
X14205Y749D01*
X14199Y755D01*
X14193Y760D01*
X14185Y764D01*
X14178Y768D01*
X14178D01*
X14177Y768D01*
X14175Y769D01*
X14173Y770D01*
X14170Y771D01*
X14167Y772D01*
X14162Y773D01*
X14157Y774D01*
X14152Y775D01*
X14145Y776D01*
X14138Y778D01*
X14130Y779D01*
X14122Y779D01*
X14112Y780D01*
X14103Y780D01*
D02*
G37*
G36*
X12782D02*
X12642D01*
Y558D01*
X12779D01*
X12783Y559D01*
X12789Y559D01*
X12795Y560D01*
X12801Y561D01*
X12808Y562D01*
X12823Y565D01*
X12831Y568D01*
X12838Y570D01*
X12845Y573D01*
X12852Y577D01*
X12858Y581D01*
X12864Y586D01*
X12865Y587D01*
X12866Y588D01*
X12867Y589D01*
X12869Y592D01*
X12871Y594D01*
X12874Y598D01*
X12876Y603D01*
X12879Y608D01*
X12882Y613D01*
X12884Y619D01*
X12887Y626D01*
X12889Y634D01*
X12891Y642D01*
X12892Y651D01*
X12893Y661D01*
X12894Y671D01*
Y672D01*
Y673D01*
Y675D01*
Y678D01*
X12893Y681D01*
X12893Y684D01*
X12892Y693D01*
X12890Y703D01*
X12888Y714D01*
X12884Y724D01*
X12879Y735D01*
Y735D01*
X12879Y736D01*
X12878Y737D01*
X12877Y739D01*
X12874Y743D01*
X12869Y749D01*
X12864Y755D01*
X12858Y761D01*
X12852Y766D01*
X12845Y770D01*
X12844Y771D01*
X12843Y771D01*
X12841Y772D01*
X12838Y773D01*
X12836Y774D01*
X12832Y775D01*
X12828Y775D01*
X12823Y776D01*
X12818Y777D01*
X12813Y778D01*
X12806Y779D01*
X12798Y780D01*
X12790Y780D01*
X12782Y780D01*
D02*
G37*
G36*
X7858Y785D02*
X7697D01*
Y580D01*
X7850D01*
X7854Y580D01*
X7858D01*
X7863Y581D01*
X7869Y581D01*
X7880Y583D01*
X7893Y585D01*
X7904Y588D01*
X7909Y589D01*
X7914Y591D01*
X7914D01*
X7915Y592D01*
X7916Y593D01*
X7918Y593D01*
X7923Y596D01*
X7928Y600D01*
X7934Y605D01*
X7941Y611D01*
X7947Y618D01*
X7953Y627D01*
Y628D01*
X7954Y628D01*
X7954Y629D01*
X7955Y632D01*
X7956Y634D01*
X7958Y637D01*
X7960Y644D01*
X7963Y652D01*
X7965Y662D01*
X7967Y672D01*
X7968Y684D01*
Y684D01*
Y686D01*
Y689D01*
X7967Y692D01*
X7967Y696D01*
X7966Y700D01*
X7965Y705D01*
X7964Y711D01*
X7961Y723D01*
X7959Y729D01*
X7956Y735D01*
X7953Y741D01*
X7949Y747D01*
X7945Y752D01*
X7940Y758D01*
X7939Y758D01*
X7939Y759D01*
X7937Y760D01*
X7935Y762D01*
X7932Y764D01*
X7928Y766D01*
X7924Y769D01*
X7919Y771D01*
X7914Y774D01*
X7908Y776D01*
X7901Y779D01*
X7894Y781D01*
X7886Y782D01*
X7877Y784D01*
X7868Y785D01*
X7858Y785D01*
D02*
G37*
G36*
X6157D02*
X5997D01*
Y580D01*
X6149D01*
X6153Y580D01*
X6158D01*
X6163Y581D01*
X6168Y581D01*
X6180Y583D01*
X6192Y585D01*
X6203Y588D01*
X6208Y589D01*
X6213Y591D01*
X6214D01*
X6214Y592D01*
X6215Y593D01*
X6217Y593D01*
X6222Y596D01*
X6227Y600D01*
X6234Y605D01*
X6240Y611D01*
X6246Y618D01*
X6252Y627D01*
Y628D01*
X6253Y628D01*
X6254Y629D01*
X6255Y632D01*
X6256Y634D01*
X6257Y637D01*
X6260Y644D01*
X6262Y652D01*
X6265Y662D01*
X6266Y672D01*
X6267Y684D01*
Y684D01*
Y686D01*
Y689D01*
X6266Y692D01*
X6266Y696D01*
X6266Y700D01*
X6265Y705D01*
X6263Y711D01*
X6260Y723D01*
X6258Y729D01*
X6255Y735D01*
X6252Y741D01*
X6248Y747D01*
X6244Y752D01*
X6239Y758D01*
X6239Y758D01*
X6238Y759D01*
X6236Y760D01*
X6234Y762D01*
X6231Y764D01*
X6227Y766D01*
X6223Y769D01*
X6219Y771D01*
X6213Y774D01*
X6207Y776D01*
X6200Y779D01*
X6193Y781D01*
X6185Y782D01*
X6176Y784D01*
X6167Y785D01*
X6157Y785D01*
D02*
G37*
G36*
X4680Y788D02*
Y788D01*
X4680Y785D01*
X4679Y782D01*
X4678Y778D01*
X4678Y773D01*
X4676Y766D01*
X4675Y759D01*
X4673Y751D01*
X4671Y742D01*
X4669Y733D01*
X4667Y723D01*
X4664Y713D01*
X4659Y692D01*
X4653Y669D01*
X4596Y487D01*
X4769D01*
X4716Y659D01*
Y660D01*
X4716Y660D01*
X4715Y663D01*
X4714Y667D01*
X4712Y673D01*
X4710Y679D01*
X4708Y687D01*
X4705Y696D01*
X4703Y705D01*
X4700Y715D01*
X4697Y726D01*
X4691Y747D01*
X4685Y769D01*
X4683Y779D01*
X4680Y788D01*
D02*
G37*
G36*
X3626Y785D02*
X3465D01*
Y580D01*
X3618D01*
X3622Y580D01*
X3627D01*
X3632Y581D01*
X3637Y581D01*
X3648Y583D01*
X3661Y585D01*
X3672Y588D01*
X3677Y589D01*
X3682Y591D01*
X3683D01*
X3683Y592D01*
X3684Y593D01*
X3686Y593D01*
X3691Y596D01*
X3696Y600D01*
X3703Y605D01*
X3709Y611D01*
X3715Y618D01*
X3721Y627D01*
Y628D01*
X3722Y628D01*
X3723Y629D01*
X3723Y632D01*
X3724Y634D01*
X3726Y637D01*
X3728Y644D01*
X3731Y652D01*
X3733Y662D01*
X3735Y672D01*
X3736Y684D01*
Y684D01*
Y686D01*
Y689D01*
X3735Y692D01*
X3735Y696D01*
X3734Y700D01*
X3733Y705D01*
X3732Y711D01*
X3729Y723D01*
X3727Y729D01*
X3724Y735D01*
X3721Y741D01*
X3717Y747D01*
X3713Y752D01*
X3708Y758D01*
X3708Y758D01*
X3707Y759D01*
X3705Y760D01*
X3703Y762D01*
X3700Y764D01*
X3696Y766D01*
X3692Y769D01*
X3688Y771D01*
X3682Y774D01*
X3676Y776D01*
X3669Y779D01*
X3662Y781D01*
X3654Y782D01*
X3645Y784D01*
X3636Y785D01*
X3626Y785D01*
D02*
G37*
G36*
X12246Y794D02*
X12243D01*
X12239Y794D01*
X12233Y793D01*
X12227Y792D01*
X12219Y791D01*
X12211Y789D01*
X12202Y786D01*
X12192Y783D01*
X12182Y779D01*
X12171Y774D01*
X12161Y767D01*
X12150Y760D01*
X12140Y751D01*
X12130Y742D01*
X12120Y730D01*
X12120Y730D01*
X12118Y727D01*
X12116Y724D01*
X12113Y719D01*
X12109Y712D01*
X12105Y703D01*
X12100Y694D01*
X12096Y682D01*
X12091Y669D01*
X12087Y654D01*
X12083Y639D01*
X12079Y621D01*
X12076Y601D01*
X12074Y580D01*
X12072Y558D01*
X12071Y534D01*
Y533D01*
Y532D01*
Y531D01*
Y529D01*
Y526D01*
X12072Y523D01*
Y519D01*
X12072Y515D01*
X12073Y505D01*
X12074Y494D01*
X12075Y482D01*
X12078Y468D01*
X12080Y454D01*
X12084Y440D01*
X12088Y425D01*
X12093Y410D01*
X12099Y396D01*
X12105Y381D01*
X12113Y368D01*
X12122Y355D01*
X12122Y355D01*
X12124Y353D01*
X12127Y350D01*
X12131Y345D01*
X12136Y341D01*
X12142Y335D01*
X12148Y330D01*
X12156Y324D01*
X12165Y318D01*
X12174Y312D01*
X12184Y307D01*
X12195Y302D01*
X12206Y298D01*
X12219Y295D01*
X12231Y293D01*
X12245Y292D01*
X12248D01*
X12252Y293D01*
X12257Y293D01*
X12263Y294D01*
X12271Y295D01*
X12279Y298D01*
X12288Y300D01*
X12297Y304D01*
X12307Y308D01*
X12318Y313D01*
X12328Y319D01*
X12339Y326D01*
X12349Y335D01*
X12359Y345D01*
X12369Y356D01*
X12369Y357D01*
X12371Y359D01*
X12373Y363D01*
X12377Y368D01*
X12381Y375D01*
X12385Y383D01*
X12389Y392D01*
X12394Y404D01*
X12399Y416D01*
X12403Y430D01*
X12408Y446D01*
X12412Y462D01*
X12415Y481D01*
X12417Y501D01*
X12419Y522D01*
X12419Y544D01*
Y545D01*
Y545D01*
Y548D01*
Y552D01*
X12419Y558D01*
X12419Y565D01*
X12418Y573D01*
X12417Y582D01*
X12416Y592D01*
X12415Y603D01*
X12413Y614D01*
X12411Y626D01*
X12408Y639D01*
X12405Y651D01*
X12402Y664D01*
X12398Y676D01*
X12393Y688D01*
Y688D01*
X12393Y690D01*
X12391Y692D01*
X12390Y696D01*
X12388Y700D01*
X12385Y704D01*
X12382Y710D01*
X12378Y715D01*
X12374Y721D01*
X12370Y728D01*
X12365Y734D01*
X12360Y740D01*
X12354Y747D01*
X12348Y753D01*
X12341Y760D01*
X12333Y765D01*
X12333Y765D01*
X12332Y766D01*
X12329Y768D01*
X12327Y770D01*
X12322Y772D01*
X12318Y774D01*
X12313Y777D01*
X12307Y780D01*
X12301Y782D01*
X12294Y785D01*
X12287Y787D01*
X12280Y790D01*
X12272Y791D01*
X12263Y793D01*
X12255Y794D01*
X12246Y794D01*
D02*
G37*
G36*
X10545D02*
X10542D01*
X10538Y794D01*
X10533Y793D01*
X10526Y792D01*
X10518Y791D01*
X10510Y789D01*
X10501Y786D01*
X10491Y783D01*
X10481Y779D01*
X10471Y774D01*
X10460Y767D01*
X10450Y760D01*
X10439Y751D01*
X10429Y742D01*
X10420Y730D01*
X10419Y730D01*
X10417Y727D01*
X10415Y724D01*
X10412Y719D01*
X10408Y712D01*
X10404Y703D01*
X10400Y694D01*
X10395Y682D01*
X10391Y669D01*
X10386Y654D01*
X10382Y639D01*
X10378Y621D01*
X10375Y601D01*
X10373Y580D01*
X10371Y558D01*
X10371Y534D01*
Y533D01*
Y532D01*
Y531D01*
Y529D01*
Y526D01*
X10371Y523D01*
Y519D01*
X10371Y515D01*
X10372Y505D01*
X10373Y494D01*
X10375Y482D01*
X10377Y468D01*
X10380Y454D01*
X10383Y440D01*
X10387Y425D01*
X10392Y410D01*
X10398Y396D01*
X10404Y381D01*
X10412Y368D01*
X10421Y355D01*
X10422Y355D01*
X10423Y353D01*
X10426Y350D01*
X10430Y345D01*
X10435Y341D01*
X10441Y335D01*
X10447Y330D01*
X10455Y324D01*
X10464Y318D01*
X10473Y312D01*
X10483Y307D01*
X10494Y302D01*
X10506Y298D01*
X10518Y295D01*
X10531Y293D01*
X10544Y292D01*
X10547D01*
X10551Y293D01*
X10556Y293D01*
X10563Y294D01*
X10570Y295D01*
X10578Y298D01*
X10587Y300D01*
X10597Y304D01*
X10607Y308D01*
X10617Y313D01*
X10628Y319D01*
X10638Y326D01*
X10649Y335D01*
X10659Y345D01*
X10668Y356D01*
X10669Y357D01*
X10670Y359D01*
X10673Y363D01*
X10676Y368D01*
X10680Y375D01*
X10684Y383D01*
X10689Y392D01*
X10694Y404D01*
X10698Y416D01*
X10703Y430D01*
X10707Y446D01*
X10711Y462D01*
X10714Y481D01*
X10716Y501D01*
X10718Y522D01*
X10719Y544D01*
Y545D01*
Y545D01*
Y548D01*
Y552D01*
X10718Y558D01*
X10718Y565D01*
X10717Y573D01*
X10716Y582D01*
X10715Y592D01*
X10714Y603D01*
X10712Y614D01*
X10710Y626D01*
X10708Y639D01*
X10705Y651D01*
X10701Y664D01*
X10697Y676D01*
X10693Y688D01*
Y688D01*
X10692Y690D01*
X10690Y692D01*
X10689Y696D01*
X10687Y700D01*
X10684Y704D01*
X10681Y710D01*
X10678Y715D01*
X10674Y721D01*
X10669Y728D01*
X10664Y734D01*
X10659Y740D01*
X10653Y747D01*
X10647Y753D01*
X10640Y760D01*
X10633Y765D01*
X10632Y765D01*
X10631Y766D01*
X10629Y768D01*
X10626Y770D01*
X10622Y772D01*
X10618Y774D01*
X10613Y777D01*
X10607Y780D01*
X10600Y782D01*
X10593Y785D01*
X10587Y787D01*
X10579Y790D01*
X10571Y791D01*
X10563Y793D01*
X10554Y794D01*
X10545Y794D01*
D02*
G37*
G36*
X7302D02*
X7298D01*
X7294Y794D01*
X7289Y793D01*
X7282Y792D01*
X7275Y791D01*
X7267Y789D01*
X7257Y786D01*
X7247Y783D01*
X7237Y779D01*
X7227Y774D01*
X7216Y767D01*
X7206Y760D01*
X7196Y751D01*
X7186Y742D01*
X7176Y730D01*
X7176Y730D01*
X7174Y727D01*
X7171Y724D01*
X7168Y719D01*
X7165Y712D01*
X7161Y703D01*
X7156Y694D01*
X7151Y682D01*
X7147Y669D01*
X7142Y654D01*
X7138Y639D01*
X7135Y621D01*
X7131Y601D01*
X7129Y580D01*
X7127Y558D01*
X7127Y534D01*
Y533D01*
Y532D01*
Y531D01*
Y529D01*
Y526D01*
X7127Y523D01*
Y519D01*
X7128Y515D01*
X7128Y505D01*
X7130Y494D01*
X7131Y482D01*
X7133Y468D01*
X7136Y454D01*
X7139Y440D01*
X7143Y425D01*
X7148Y410D01*
X7154Y396D01*
X7161Y381D01*
X7168Y368D01*
X7177Y355D01*
X7178Y355D01*
X7180Y353D01*
X7182Y350D01*
X7186Y345D01*
X7191Y341D01*
X7197Y335D01*
X7204Y330D01*
X7211Y324D01*
X7220Y318D01*
X7230Y312D01*
X7240Y307D01*
X7251Y302D01*
X7262Y298D01*
X7274Y295D01*
X7287Y293D01*
X7300Y292D01*
X7303D01*
X7307Y293D01*
X7312Y293D01*
X7319Y294D01*
X7326Y295D01*
X7335Y298D01*
X7343Y300D01*
X7353Y304D01*
X7363Y308D01*
X7373Y313D01*
X7384Y319D01*
X7394Y326D01*
X7405Y335D01*
X7415Y345D01*
X7424Y356D01*
X7425Y357D01*
X7427Y359D01*
X7429Y363D01*
X7432Y368D01*
X7436Y375D01*
X7440Y383D01*
X7445Y392D01*
X7450Y404D01*
X7454Y416D01*
X7459Y430D01*
X7463Y446D01*
X7467Y462D01*
X7470Y481D01*
X7473Y501D01*
X7474Y522D01*
X7475Y544D01*
Y545D01*
Y545D01*
Y548D01*
Y552D01*
X7474Y558D01*
X7474Y565D01*
X7474Y573D01*
X7473Y582D01*
X7472Y592D01*
X7470Y603D01*
X7469Y614D01*
X7467Y626D01*
X7464Y639D01*
X7461Y651D01*
X7458Y664D01*
X7454Y676D01*
X7449Y688D01*
Y688D01*
X7448Y690D01*
X7447Y692D01*
X7445Y696D01*
X7443Y700D01*
X7440Y704D01*
X7438Y710D01*
X7434Y715D01*
X7430Y721D01*
X7425Y728D01*
X7421Y734D01*
X7415Y740D01*
X7409Y747D01*
X7403Y753D01*
X7396Y760D01*
X7389Y765D01*
X7388Y765D01*
X7387Y766D01*
X7385Y768D01*
X7382Y770D01*
X7378Y772D01*
X7374Y774D01*
X7369Y777D01*
X7363Y780D01*
X7357Y782D01*
X7350Y785D01*
X7343Y787D01*
X7335Y790D01*
X7327Y791D01*
X7319Y793D01*
X7310Y794D01*
X7302Y794D01*
D02*
G37*
G36*
X2120D02*
X2117D01*
X2113Y794D01*
X2108Y793D01*
X2101Y792D01*
X2094Y791D01*
X2085Y789D01*
X2076Y786D01*
X2066Y783D01*
X2056Y779D01*
X2046Y774D01*
X2035Y767D01*
X2025Y760D01*
X2014Y751D01*
X2004Y742D01*
X1995Y730D01*
X1994Y730D01*
X1993Y727D01*
X1990Y724D01*
X1987Y719D01*
X1984Y712D01*
X1979Y703D01*
X1975Y694D01*
X1970Y682D01*
X1966Y669D01*
X1961Y654D01*
X1957Y639D01*
X1954Y621D01*
X1950Y601D01*
X1948Y580D01*
X1946Y558D01*
X1946Y534D01*
Y533D01*
Y532D01*
Y531D01*
Y529D01*
Y526D01*
X1946Y523D01*
Y519D01*
X1947Y515D01*
X1947Y505D01*
X1948Y494D01*
X1950Y482D01*
X1952Y468D01*
X1955Y454D01*
X1958Y440D01*
X1962Y425D01*
X1967Y410D01*
X1973Y396D01*
X1979Y381D01*
X1987Y368D01*
X1996Y355D01*
X1997Y355D01*
X1999Y353D01*
X2001Y350D01*
X2005Y345D01*
X2010Y341D01*
X2016Y335D01*
X2023Y330D01*
X2030Y324D01*
X2039Y318D01*
X2049Y312D01*
X2059Y307D01*
X2070Y302D01*
X2081Y298D01*
X2093Y295D01*
X2106Y293D01*
X2119Y292D01*
X2122D01*
X2126Y293D01*
X2131Y293D01*
X2138Y294D01*
X2145Y295D01*
X2154Y298D01*
X2162Y300D01*
X2172Y304D01*
X2182Y308D01*
X2192Y313D01*
X2203Y319D01*
X2213Y326D01*
X2224Y335D01*
X2234Y345D01*
X2243Y356D01*
X2244Y357D01*
X2246Y359D01*
X2248Y363D01*
X2251Y368D01*
X2255Y375D01*
X2259Y383D01*
X2264Y392D01*
X2269Y404D01*
X2273Y416D01*
X2278Y430D01*
X2282Y446D01*
X2286Y462D01*
X2289Y481D01*
X2292Y501D01*
X2293Y522D01*
X2294Y544D01*
Y545D01*
Y545D01*
Y548D01*
Y552D01*
X2293Y558D01*
X2293Y565D01*
X2292Y573D01*
X2292Y582D01*
X2291Y592D01*
X2289Y603D01*
X2287Y614D01*
X2286Y626D01*
X2283Y639D01*
X2280Y651D01*
X2277Y664D01*
X2272Y676D01*
X2268Y688D01*
Y688D01*
X2267Y690D01*
X2266Y692D01*
X2264Y696D01*
X2262Y700D01*
X2259Y704D01*
X2257Y710D01*
X2253Y715D01*
X2249Y721D01*
X2244Y728D01*
X2240Y734D01*
X2234Y740D01*
X2228Y747D01*
X2222Y753D01*
X2215Y760D01*
X2208Y765D01*
X2207Y765D01*
X2206Y766D01*
X2204Y768D01*
X2201Y770D01*
X2197Y772D01*
X2193Y774D01*
X2188Y777D01*
X2182Y780D01*
X2176Y782D01*
X2169Y785D01*
X2162Y787D01*
X2154Y790D01*
X2146Y791D01*
X2138Y793D01*
X2129Y794D01*
X2120Y794D01*
D02*
G37*
%LPD*%
D18*
X-197Y0D02*
Y1378D01*
X197Y0D02*
Y1378D01*
D19*
X-591Y1045D02*
X-587Y1000D01*
X-587Y1009D02*
X587D01*
X-588Y1019D02*
X588D01*
X-603Y1088D02*
X-591Y1045D01*
X-622Y1128D02*
X-603Y1088D01*
X-589Y1029D02*
X589D01*
X-590Y1039D02*
X590D01*
X-587Y239D02*
X586D01*
X-587Y189D02*
X586D01*
X-587Y199D02*
X586D01*
X-587Y269D02*
X586D01*
X-587Y279D02*
X586D01*
X-587Y249D02*
X586D01*
X-587Y259D02*
X586D01*
X-1109Y1269D02*
X-1074Y1258D01*
X-1038Y1255D02*
X-1035Y1254D01*
X-1074Y1258D02*
X-1038Y1255D01*
X-1192Y1337D02*
X-1169Y1309D01*
X-1209Y1369D02*
X-1192Y1337D01*
X-1141Y1286D02*
X-1109Y1269D01*
X-1169Y1309D02*
X-1141Y1286D01*
X-716Y1221D02*
X-680Y1196D01*
X-757Y1240D02*
X-716Y1221D01*
X-648Y1164D02*
X-622Y1128D01*
X-680Y1196D02*
X-648Y1164D01*
X-1032Y1255D02*
X-844D01*
X-1035Y1254D02*
X-1032Y1255D01*
X-800Y1251D02*
X-757Y1240D01*
X-844Y1255D02*
X-800Y1251D01*
X-618Y1119D02*
X618D01*
X-623Y1129D02*
X623D01*
X-630Y1139D02*
X630D01*
X-637Y1149D02*
X637D01*
X-644Y1159D02*
X645D01*
X-653Y1169D02*
X653D01*
X-663Y1179D02*
X663D01*
X-592Y1049D02*
X592D01*
X-595Y1059D02*
X595D01*
X-598Y1069D02*
X598D01*
X-600Y1079D02*
X601D01*
X-604Y1089D02*
X604D01*
X-608Y1099D02*
X608D01*
X-613Y1109D02*
X613D01*
X-1109Y1269D02*
X1098D01*
X-1128Y1279D02*
X1118D01*
X-1144Y1289D02*
X1135D01*
X-1157Y1299D02*
X1147D01*
X-1169Y1309D02*
X1159D01*
X-1177Y1319D02*
X1167D01*
X-1186Y1329D02*
X1175D01*
X-673Y1189D02*
X673D01*
X-684Y1199D02*
X685D01*
X-699Y1209D02*
X699D01*
X-713Y1219D02*
X714D01*
X-733Y1229D02*
X734D01*
X-755Y1239D02*
X756D01*
X-791Y1249D02*
X792D01*
X-1075Y1259D02*
X1066D01*
X-1224Y1440D02*
X-1220Y1403D01*
X-1209Y1369D01*
X-1220Y1409D02*
X1210D01*
X-1221Y1419D02*
X1211D01*
X-1222Y1429D02*
X1212D01*
X-1223Y1439D02*
X1213D01*
X-1224Y1739D02*
X1213D01*
X-1193Y1339D02*
X1183D01*
X-1199Y1349D02*
X1189D01*
X-1204Y1359D02*
X1194D01*
X-1209Y1369D02*
X1199D01*
X-1212Y1379D02*
X1202D01*
X-1215Y1389D02*
X1205D01*
X-1219Y1399D02*
X1208D01*
X-1224Y1440D02*
Y1869D01*
Y1829D02*
X1213D01*
X-1224Y1839D02*
X1213D01*
X-1224Y1869D02*
X1213D01*
X-1224Y1869D02*
X1213D01*
X-1224Y1849D02*
X1213D01*
X-1224Y1859D02*
X1213D01*
X-1224Y1769D02*
X1213D01*
X-1224Y1779D02*
X1213D01*
X-1224Y1749D02*
X1213D01*
X-1224Y1759D02*
X1213D01*
X-1224Y1809D02*
X1213D01*
X-1224Y1819D02*
X1213D01*
X-1224Y1789D02*
X1213D01*
X-1224Y1799D02*
X1213D01*
X-1224Y1539D02*
X1213D01*
X-1224Y1519D02*
X1213D01*
X-1224Y1529D02*
X1213D01*
X-1224Y1569D02*
X1213D01*
X-1224Y1579D02*
X1213D01*
X-1224Y1549D02*
X1213D01*
X-1224Y1559D02*
X1213D01*
X-1224Y1469D02*
X1213D01*
X-1224Y1449D02*
X1213D01*
X-1224Y1459D02*
X1213D01*
X-1224Y1499D02*
X1213D01*
X-1224Y1509D02*
X1213D01*
X-1224Y1479D02*
X1213D01*
X-1224Y1489D02*
X1213D01*
X-1224Y1689D02*
X1213D01*
X-1224Y1669D02*
X1213D01*
X-1224Y1679D02*
X1213D01*
X-1224Y1719D02*
X1213D01*
X-1224Y1729D02*
X1213D01*
X-1224Y1699D02*
X1213D01*
X-1224Y1709D02*
X1213D01*
X-1224Y1609D02*
X1213D01*
X-1224Y1619D02*
X1213D01*
X-1224Y1589D02*
X1213D01*
X-1224Y1599D02*
X1213D01*
X-1224Y1649D02*
X1213D01*
X-1224Y1659D02*
X1213D01*
X-1224Y1629D02*
X1213D01*
X-1224Y1639D02*
X1213D01*
X-587Y89D02*
X586D01*
X-587Y69D02*
X586D01*
X-587Y79D02*
X586D01*
X-587Y119D02*
X586D01*
X-587Y129D02*
X586D01*
X-587Y99D02*
X586D01*
X-587Y109D02*
X586D01*
X-587Y19D02*
X586D01*
X-587Y5D02*
X586D01*
X-587Y9D02*
X586D01*
X-587Y49D02*
X586D01*
X-587Y59D02*
X586D01*
X-587Y29D02*
X586D01*
X-587Y39D02*
X586D01*
X-587Y159D02*
X586D01*
X-587Y139D02*
X586D01*
X-587Y149D02*
X586D01*
X-587Y209D02*
X586D01*
X-587Y219D02*
X586D01*
X-587Y169D02*
X586D01*
X-587Y179D02*
X586D01*
X-587Y5D02*
Y1000D01*
X586Y5D02*
Y1000D01*
X-587Y229D02*
X586D01*
X-587Y289D02*
X586D01*
X-587Y319D02*
X586D01*
X-587Y329D02*
X586D01*
X-587Y299D02*
X586D01*
X-587Y309D02*
X586D01*
X-587Y429D02*
X586D01*
X-587Y409D02*
X586D01*
X-587Y419D02*
X586D01*
X-587Y459D02*
X586D01*
X-587Y469D02*
X586D01*
X-587Y439D02*
X586D01*
X-587Y449D02*
X586D01*
X-587Y359D02*
X586D01*
X-587Y339D02*
X586D01*
X-587Y349D02*
X586D01*
X-587Y389D02*
X586D01*
X-587Y399D02*
X586D01*
X-587Y369D02*
X586D01*
X-587Y379D02*
X586D01*
X-587Y579D02*
X586D01*
X-587Y559D02*
X586D01*
X-587Y569D02*
X586D01*
X-587Y609D02*
X586D01*
X-587Y619D02*
X586D01*
X-587Y589D02*
X586D01*
X-587Y599D02*
X586D01*
X-587Y499D02*
X586D01*
X-587Y509D02*
X586D01*
X-587Y479D02*
X586D01*
X-587Y489D02*
X586D01*
X-587Y539D02*
X586D01*
X-587Y549D02*
X586D01*
X-587Y519D02*
X586D01*
X-587Y529D02*
X586D01*
X-587Y719D02*
X586D01*
X-587Y699D02*
X586D01*
X-587Y709D02*
X586D01*
X-587Y749D02*
X586D01*
X-587Y759D02*
X586D01*
X-587Y729D02*
X586D01*
X-587Y739D02*
X586D01*
X-587Y649D02*
X586D01*
X-587Y629D02*
X586D01*
X-587Y639D02*
X586D01*
X-587Y679D02*
X586D01*
X-587Y689D02*
X586D01*
X-587Y659D02*
X586D01*
X-587Y669D02*
X586D01*
X-587Y869D02*
X586D01*
X-587Y849D02*
X586D01*
X-587Y859D02*
X586D01*
X-587Y899D02*
X586D01*
X-587Y909D02*
X586D01*
X-587Y879D02*
X586D01*
X-587Y889D02*
X586D01*
X-587Y789D02*
X586D01*
X-587Y799D02*
X586D01*
X-587Y769D02*
X586D01*
X-587Y779D02*
X586D01*
X-587Y829D02*
X586D01*
X-587Y839D02*
X586D01*
X-587Y809D02*
X586D01*
X-587Y819D02*
X586D01*
X-587Y939D02*
X586D01*
X-587Y919D02*
X586D01*
X-587Y929D02*
X586D01*
X-587Y969D02*
X586D01*
X-587Y979D02*
X586D01*
X-587Y949D02*
X586D01*
X-587Y959D02*
X586D01*
X-587Y989D02*
X586D01*
X-587Y999D02*
X586D01*
Y1000D02*
X591Y1045D01*
X603Y1088D01*
X622Y1128D01*
X648Y1164D01*
X680Y1196D01*
X717Y1221D01*
X758Y1240D01*
X801Y1251D01*
X845Y1255D02*
X1029D01*
X801Y1251D02*
X845Y1255D01*
X1029D02*
X1031Y1255D01*
X1032Y1255D02*
X1068Y1259D01*
X1102Y1270D01*
X1133Y1287D01*
X1161Y1311D01*
X1183Y1339D01*
X1200Y1370D01*
X1210Y1405D01*
X1213Y1440D01*
X1213Y1869D02*
X1213Y1440D01*
M02*
