G04*
G04 #@! TF.GenerationSoftware,Altium Limited,Altium Designer,21.8.1 (53)*
G04*
G04 Layer_Color=16711935*
%FSLAX24Y24*%
%MOIN*%
G70*
G04*
G04 #@! TF.SameCoordinates,3F75DA6B-4E5A-4059-B2AF-D795626689C9*
G04*
G04*
G04 #@! TF.FilePolarity,Positive*
G04*
G01*
G75*
%ADD16C,0.0060*%
D16*
X4176Y22476D02*
G03*
X3484Y23168I-692J0D01*
G01*
X1024Y1240D02*
G03*
X1220Y1437I0J197D01*
G01*
X847Y1240D02*
G03*
X592Y984I0J-256D01*
G01*
X1442Y6946D02*
G03*
X1220Y5906I2338J-1041D01*
G01*
X3955Y12591D02*
G03*
X4176Y13631I-2338J1041D01*
G01*
X-4176D02*
G03*
X-3955Y12591I2559J0D01*
G01*
X-1220Y5906D02*
G03*
X-1442Y6946I-2559J0D01*
G01*
X-592Y984D02*
G03*
X-847Y1240I-256J0D01*
G01*
X-1220Y1437D02*
G03*
X-1024Y1240I197J0D01*
G01*
X-3484Y23168D02*
G03*
X-4176Y22476I0J-692D01*
G01*
X848Y1240D02*
X1024D01*
X592Y0D02*
Y984D01*
X1220Y1437D02*
Y5906D01*
X1442Y6946D02*
X3955Y12591D01*
X4176Y13631D02*
Y22476D01*
X-3484Y23168D02*
X3485D01*
X-4176Y13631D02*
Y22476D01*
X-3955Y12591D02*
X-1442Y6946D01*
X-1220Y1437D02*
Y5906D01*
X-592Y0D02*
Y984D01*
X-1024Y1240D02*
X-848D01*
X-592Y0D02*
X592D01*
M02*
