G04*
G04 #@! TF.GenerationSoftware,Altium Limited,Altium Designer,21.8.1 (53)*
G04*
G04 Layer_Color=8388736*
%FSLAX24Y24*%
%MOIN*%
G70*
G04*
G04 #@! TF.SameCoordinates,3F75DA6B-4E5A-4059-B2AF-D795626689C9*
G04*
G04*
G04 #@! TF.FilePolarity,Positive*
G04*
G01*
G75*
%ADD19C,0.0010*%
G36*
X15016Y864D02*
X15021D01*
X15026Y863D01*
X15033Y863D01*
X15040Y862D01*
X15047Y861D01*
X15055Y859D01*
X15072Y855D01*
X15080Y852D01*
X15089Y850D01*
X15097Y846D01*
X15105Y842D01*
X15106Y841D01*
X15107Y841D01*
X15109Y840D01*
X15113Y838D01*
X15116Y836D01*
X15120Y833D01*
X15125Y829D01*
X15129Y826D01*
X15135Y821D01*
X15140Y816D01*
X15146Y811D01*
X15151Y805D01*
X15157Y799D01*
X15162Y792D01*
X15167Y785D01*
X15171Y777D01*
X15172Y777D01*
X15172Y775D01*
X15174Y773D01*
X15175Y770D01*
X15177Y766D01*
X15179Y761D01*
X15181Y755D01*
X15184Y750D01*
X15186Y742D01*
X15188Y735D01*
X15190Y727D01*
X15192Y718D01*
X15194Y709D01*
X15195Y699D01*
X15196Y689D01*
X15197Y679D01*
X15132Y673D01*
Y674D01*
X15131Y676D01*
X15131Y679D01*
X15130Y683D01*
X15129Y688D01*
X15128Y694D01*
X15127Y700D01*
X15125Y707D01*
X15120Y722D01*
X15118Y729D01*
X15114Y736D01*
X15110Y744D01*
X15106Y750D01*
X15101Y757D01*
X15095Y763D01*
X15095Y763D01*
X15094Y764D01*
X15092Y765D01*
X15089Y767D01*
X15087Y770D01*
X15083Y772D01*
X15078Y775D01*
X15073Y778D01*
X15067Y780D01*
X15061Y783D01*
X15053Y785D01*
X15046Y788D01*
X15037Y790D01*
X15028Y791D01*
X15018Y792D01*
X15008Y792D01*
X15003D01*
X14999Y792D01*
X14994Y791D01*
X14989Y791D01*
X14982Y790D01*
X14976Y789D01*
X14962Y786D01*
X14955Y784D01*
X14947Y781D01*
X14940Y778D01*
X14933Y775D01*
X14927Y771D01*
X14921Y766D01*
X14921Y766D01*
X14920Y765D01*
X14918Y764D01*
X14916Y762D01*
X14914Y759D01*
X14911Y756D01*
X14909Y753D01*
X14906Y749D01*
X14903Y744D01*
X14901Y739D01*
X14896Y728D01*
X14894Y721D01*
X14893Y715D01*
X14892Y708D01*
X14891Y700D01*
Y699D01*
Y698D01*
Y696D01*
X14892Y694D01*
Y690D01*
X14893Y687D01*
X14894Y679D01*
X14897Y669D01*
X14901Y659D01*
X14906Y650D01*
X14910Y646D01*
X14913Y642D01*
X14914D01*
X14914Y641D01*
X14916Y639D01*
X14918Y638D01*
X14921Y636D01*
X14924Y634D01*
X14929Y631D01*
X14934Y628D01*
X14940Y625D01*
X14947Y622D01*
X14955Y618D01*
X14964Y615D01*
X14975Y611D01*
X14986Y608D01*
X14999Y603D01*
X15012Y599D01*
X15013D01*
X15016Y598D01*
X15020Y598D01*
X15025Y596D01*
X15031Y594D01*
X15038Y592D01*
X15046Y590D01*
X15054Y587D01*
X15071Y582D01*
X15089Y576D01*
X15097Y573D01*
X15105Y569D01*
X15112Y567D01*
X15118Y563D01*
X15118Y563D01*
X15120Y563D01*
X15123Y561D01*
X15126Y559D01*
X15129Y557D01*
X15134Y554D01*
X15139Y550D01*
X15144Y547D01*
X15155Y538D01*
X15167Y527D01*
X15178Y514D01*
X15184Y508D01*
X15188Y501D01*
X15189Y500D01*
X15189Y499D01*
X15190Y497D01*
X15192Y494D01*
X15194Y490D01*
X15196Y486D01*
X15198Y481D01*
X15200Y475D01*
X15202Y468D01*
X15204Y461D01*
X15207Y453D01*
X15209Y446D01*
X15210Y437D01*
X15211Y428D01*
X15212Y418D01*
X15212Y408D01*
Y408D01*
Y406D01*
Y403D01*
X15212Y399D01*
X15211Y395D01*
X15211Y389D01*
X15210Y383D01*
X15209Y376D01*
X15208Y369D01*
X15206Y361D01*
X15202Y345D01*
X15199Y336D01*
X15195Y328D01*
X15192Y319D01*
X15187Y311D01*
X15187Y310D01*
X15186Y309D01*
X15184Y307D01*
X15183Y304D01*
X15180Y300D01*
X15177Y296D01*
X15174Y291D01*
X15169Y286D01*
X15164Y281D01*
X15159Y275D01*
X15154Y270D01*
X15148Y265D01*
X15141Y259D01*
X15134Y254D01*
X15127Y249D01*
X15119Y244D01*
X15118Y244D01*
X15117Y244D01*
X15114Y242D01*
X15111Y241D01*
X15107Y239D01*
X15102Y237D01*
X15097Y235D01*
X15090Y233D01*
X15083Y231D01*
X15075Y229D01*
X15067Y227D01*
X15057Y225D01*
X15047Y224D01*
X15037Y223D01*
X15027Y222D01*
X15016Y222D01*
X15012D01*
X15009Y222D01*
X15007D01*
X15000Y223D01*
X14992Y224D01*
X14983Y225D01*
X14972Y226D01*
X14961Y229D01*
X14950Y232D01*
X14937Y235D01*
X14925Y240D01*
X14912Y245D01*
X14900Y252D01*
X14887Y259D01*
X14876Y268D01*
X14865Y278D01*
X14864Y279D01*
X14862Y281D01*
X14860Y284D01*
X14856Y289D01*
X14851Y295D01*
X14847Y301D01*
X14842Y310D01*
X14836Y319D01*
X14831Y329D01*
X14826Y341D01*
X14821Y354D01*
X14817Y367D01*
X14813Y382D01*
X14810Y398D01*
X14808Y415D01*
X14807Y432D01*
X14870Y439D01*
Y439D01*
X14871Y437D01*
Y434D01*
X14871Y431D01*
X14872Y426D01*
X14873Y421D01*
X14874Y416D01*
X14875Y410D01*
X14878Y397D01*
X14882Y384D01*
X14887Y371D01*
X14890Y365D01*
X14893Y359D01*
Y359D01*
X14894Y358D01*
X14895Y356D01*
X14896Y355D01*
X14901Y349D01*
X14906Y343D01*
X14914Y335D01*
X14923Y328D01*
X14933Y320D01*
X14945Y313D01*
X14945D01*
X14946Y312D01*
X14948Y312D01*
X14951Y310D01*
X14954Y309D01*
X14957Y308D01*
X14962Y306D01*
X14967Y305D01*
X14972Y303D01*
X14978Y301D01*
X14991Y299D01*
X15005Y297D01*
X15020Y296D01*
X15026D01*
X15030Y296D01*
X15035Y297D01*
X15041Y297D01*
X15047Y298D01*
X15054Y300D01*
X15069Y303D01*
X15077Y305D01*
X15085Y308D01*
X15093Y311D01*
X15100Y315D01*
X15107Y320D01*
X15113Y325D01*
X15114Y325D01*
X15115Y326D01*
X15117Y328D01*
X15119Y330D01*
X15121Y333D01*
X15124Y337D01*
X15127Y341D01*
X15130Y345D01*
X15133Y351D01*
X15137Y357D01*
X15139Y363D01*
X15142Y370D01*
X15144Y377D01*
X15146Y385D01*
X15147Y393D01*
X15147Y401D01*
Y402D01*
Y403D01*
Y404D01*
Y406D01*
X15147Y411D01*
X15146Y418D01*
X15144Y425D01*
X15142Y433D01*
X15139Y441D01*
X15135Y449D01*
Y450D01*
X15134Y450D01*
X15133Y453D01*
X15130Y457D01*
X15126Y461D01*
X15120Y467D01*
X15114Y472D01*
X15107Y478D01*
X15098Y483D01*
X15098D01*
X15097Y483D01*
X15095Y484D01*
X15093Y485D01*
X15090Y487D01*
X15086Y488D01*
X15082Y490D01*
X15076Y492D01*
X15069Y495D01*
X15062Y498D01*
X15053Y501D01*
X15044Y504D01*
X15033Y508D01*
X15021Y512D01*
X15008Y516D01*
X14993Y520D01*
X14992Y521D01*
X14990Y521D01*
X14987Y522D01*
X14982Y524D01*
X14976Y526D01*
X14969Y528D01*
X14961Y531D01*
X14954Y533D01*
X14936Y540D01*
X14920Y548D01*
X14911Y551D01*
X14904Y555D01*
X14897Y559D01*
X14891Y563D01*
X14890Y563D01*
X14889Y564D01*
X14888Y565D01*
X14886Y567D01*
X14883Y569D01*
X14880Y572D01*
X14873Y578D01*
X14865Y586D01*
X14858Y595D01*
X14850Y606D01*
X14843Y618D01*
Y618D01*
X14842Y619D01*
X14842Y621D01*
X14840Y624D01*
X14839Y627D01*
X14838Y631D01*
X14836Y635D01*
X14835Y640D01*
X14833Y645D01*
X14832Y651D01*
X14829Y664D01*
X14827Y678D01*
X14826Y693D01*
Y694D01*
Y696D01*
X14827Y700D01*
X14827Y706D01*
X14828Y712D01*
X14829Y720D01*
X14830Y728D01*
X14832Y737D01*
X14835Y746D01*
X14838Y756D01*
X14842Y767D01*
X14847Y777D01*
X14852Y787D01*
X14859Y797D01*
X14866Y807D01*
X14875Y816D01*
X14875Y817D01*
X14877Y819D01*
X14880Y821D01*
X14884Y824D01*
X14888Y828D01*
X14894Y832D01*
X14901Y836D01*
X14909Y841D01*
X14918Y845D01*
X14928Y849D01*
X14939Y853D01*
X14951Y857D01*
X14963Y860D01*
X14977Y862D01*
X14991Y864D01*
X15006Y865D01*
X15012D01*
X15016Y864D01*
D02*
G37*
G36*
X1609D02*
X1614Y864D01*
X1620Y863D01*
X1627Y862D01*
X1636Y861D01*
X1645Y859D01*
X1655Y856D01*
X1665Y853D01*
X1675Y850D01*
X1686Y845D01*
X1696Y840D01*
X1707Y834D01*
X1718Y827D01*
X1728Y819D01*
X1728Y818D01*
X1730Y816D01*
X1733Y814D01*
X1736Y810D01*
X1741Y806D01*
X1746Y800D01*
X1751Y793D01*
X1757Y785D01*
X1763Y775D01*
X1769Y765D01*
X1776Y755D01*
X1782Y743D01*
X1787Y730D01*
X1793Y715D01*
X1798Y700D01*
X1802Y684D01*
X1736Y665D01*
Y665D01*
X1736Y666D01*
X1736Y668D01*
X1735Y670D01*
X1734Y674D01*
X1733Y677D01*
X1731Y681D01*
X1730Y685D01*
X1726Y695D01*
X1720Y706D01*
X1714Y718D01*
X1706Y730D01*
X1698Y742D01*
X1688Y753D01*
X1677Y764D01*
X1665Y774D01*
X1658Y778D01*
X1650Y782D01*
X1643Y785D01*
X1635Y789D01*
X1627Y791D01*
X1618Y793D01*
X1610Y794D01*
X1600Y794D01*
X1595D01*
X1591Y794D01*
X1587Y793D01*
X1582Y793D01*
X1576Y792D01*
X1570Y791D01*
X1556Y788D01*
X1549Y785D01*
X1541Y783D01*
X1534Y780D01*
X1526Y776D01*
X1519Y772D01*
X1512Y768D01*
X1511Y767D01*
X1510Y766D01*
X1508Y765D01*
X1505Y763D01*
X1503Y760D01*
X1499Y757D01*
X1495Y753D01*
X1490Y748D01*
X1486Y743D01*
X1481Y737D01*
X1476Y730D01*
X1471Y723D01*
X1466Y715D01*
X1461Y706D01*
X1457Y697D01*
X1452Y687D01*
X1452Y686D01*
X1451Y684D01*
X1450Y681D01*
X1449Y677D01*
X1447Y671D01*
X1445Y665D01*
X1443Y657D01*
X1441Y649D01*
X1439Y639D01*
X1437Y628D01*
X1435Y617D01*
X1434Y604D01*
X1432Y591D01*
X1431Y578D01*
X1431Y563D01*
X1430Y547D01*
Y547D01*
Y546D01*
Y544D01*
Y542D01*
Y538D01*
X1431Y535D01*
Y531D01*
X1431Y526D01*
Y521D01*
X1432Y516D01*
X1433Y503D01*
X1434Y490D01*
X1436Y476D01*
X1438Y460D01*
X1441Y444D01*
X1445Y428D01*
X1449Y413D01*
X1454Y397D01*
X1460Y382D01*
X1467Y369D01*
X1475Y356D01*
X1475Y355D01*
X1477Y353D01*
X1479Y350D01*
X1483Y346D01*
X1488Y341D01*
X1493Y336D01*
X1499Y330D01*
X1507Y324D01*
X1515Y318D01*
X1524Y312D01*
X1534Y307D01*
X1544Y302D01*
X1556Y298D01*
X1568Y295D01*
X1581Y293D01*
X1594Y292D01*
X1597D01*
X1600Y293D01*
X1604D01*
X1609Y294D01*
X1614Y295D01*
X1620Y295D01*
X1627Y297D01*
X1634Y299D01*
X1642Y302D01*
X1650Y305D01*
X1658Y309D01*
X1666Y313D01*
X1674Y319D01*
X1682Y325D01*
X1690Y331D01*
X1690Y332D01*
X1691Y333D01*
X1693Y335D01*
X1696Y339D01*
X1699Y343D01*
X1703Y348D01*
X1707Y354D01*
X1711Y361D01*
X1716Y369D01*
X1721Y378D01*
X1725Y387D01*
X1729Y398D01*
X1733Y410D01*
X1737Y422D01*
X1741Y436D01*
X1743Y450D01*
X1811Y429D01*
Y429D01*
X1811Y428D01*
Y426D01*
X1810Y425D01*
X1809Y422D01*
X1809Y419D01*
X1807Y412D01*
X1804Y403D01*
X1801Y393D01*
X1797Y382D01*
X1793Y371D01*
X1787Y358D01*
X1782Y345D01*
X1775Y332D01*
X1768Y319D01*
X1760Y307D01*
X1751Y295D01*
X1742Y284D01*
X1732Y273D01*
X1731Y273D01*
X1729Y271D01*
X1726Y269D01*
X1722Y265D01*
X1716Y261D01*
X1710Y257D01*
X1702Y252D01*
X1694Y248D01*
X1685Y243D01*
X1674Y238D01*
X1663Y234D01*
X1651Y230D01*
X1638Y226D01*
X1625Y224D01*
X1610Y222D01*
X1595Y222D01*
X1592D01*
X1589Y222D01*
X1584D01*
X1578Y223D01*
X1570Y224D01*
X1563Y224D01*
X1554Y226D01*
X1544Y228D01*
X1535Y230D01*
X1525Y233D01*
X1514Y236D01*
X1504Y240D01*
X1494Y244D01*
X1484Y250D01*
X1474Y256D01*
X1474Y256D01*
X1472Y258D01*
X1469Y259D01*
X1466Y263D01*
X1462Y266D01*
X1457Y271D01*
X1451Y276D01*
X1445Y283D01*
X1439Y290D01*
X1433Y298D01*
X1426Y307D01*
X1419Y317D01*
X1412Y328D01*
X1405Y340D01*
X1399Y353D01*
X1392Y367D01*
X1392Y368D01*
X1391Y371D01*
X1390Y375D01*
X1387Y381D01*
X1385Y388D01*
X1382Y396D01*
X1380Y406D01*
X1377Y418D01*
X1374Y431D01*
X1371Y445D01*
X1368Y459D01*
X1366Y475D01*
X1363Y492D01*
X1362Y510D01*
X1361Y528D01*
X1361Y547D01*
Y548D01*
Y548D01*
Y550D01*
Y552D01*
Y554D01*
Y557D01*
X1361Y564D01*
X1362Y573D01*
X1362Y583D01*
X1363Y595D01*
X1365Y608D01*
X1366Y621D01*
X1368Y635D01*
X1371Y649D01*
X1374Y664D01*
X1378Y679D01*
X1382Y693D01*
X1387Y707D01*
X1392Y721D01*
X1393Y722D01*
X1394Y724D01*
X1396Y728D01*
X1398Y733D01*
X1402Y739D01*
X1406Y745D01*
X1410Y753D01*
X1415Y761D01*
X1421Y770D01*
X1428Y778D01*
X1435Y787D01*
X1443Y796D01*
X1451Y805D01*
X1459Y813D01*
X1469Y821D01*
X1479Y828D01*
X1479Y829D01*
X1482Y830D01*
X1484Y831D01*
X1488Y834D01*
X1494Y837D01*
X1500Y840D01*
X1507Y843D01*
X1515Y846D01*
X1524Y850D01*
X1533Y853D01*
X1543Y856D01*
X1554Y859D01*
X1565Y861D01*
X1577Y863D01*
X1589Y864D01*
X1601Y865D01*
X1605D01*
X1609Y864D01*
D02*
G37*
G36*
X9870Y561D02*
X10063Y232D01*
X9980D01*
X9851Y453D01*
X9850Y454D01*
X9849Y457D01*
X9847Y461D01*
X9844Y466D01*
X9841Y472D01*
X9837Y479D01*
X9833Y487D01*
X9829Y495D01*
Y494D01*
X9828Y493D01*
X9828Y492D01*
X9826Y489D01*
X9825Y487D01*
X9823Y483D01*
X9820Y477D01*
X9816Y469D01*
X9812Y461D01*
X9808Y454D01*
X9806Y452D01*
X9805Y449D01*
X9676Y232D01*
X9596D01*
X9793Y556D01*
X9619Y854D01*
X9699D01*
X9792Y694D01*
X9793Y694D01*
X9794Y692D01*
X9795Y689D01*
X9797Y686D01*
X9799Y682D01*
X9802Y677D01*
X9805Y672D01*
X9808Y666D01*
X9815Y654D01*
X9821Y641D01*
X9828Y629D01*
X9830Y624D01*
X9833Y618D01*
Y618D01*
X9834Y619D01*
X9835Y621D01*
X9835Y624D01*
X9837Y627D01*
X9839Y630D01*
X9841Y634D01*
X9844Y639D01*
X9850Y650D01*
X9857Y662D01*
X9865Y675D01*
X9873Y689D01*
X9976Y854D01*
X10049D01*
X9870Y561D01*
D02*
G37*
G36*
X5191Y495D02*
Y232D01*
X5124D01*
Y495D01*
X4928Y854D01*
X5010D01*
X5109Y666D01*
X5110Y666D01*
X5111Y664D01*
X5112Y661D01*
X5114Y657D01*
X5117Y652D01*
X5120Y646D01*
X5123Y639D01*
X5127Y632D01*
X5131Y624D01*
X5135Y616D01*
X5144Y598D01*
X5153Y580D01*
X5162Y561D01*
X5162Y562D01*
X5163Y563D01*
X5164Y566D01*
X5166Y570D01*
X5168Y574D01*
X5170Y580D01*
X5174Y586D01*
X5177Y593D01*
X5181Y601D01*
X5185Y609D01*
X5189Y618D01*
X5194Y628D01*
X5200Y638D01*
X5205Y649D01*
X5217Y671D01*
X5316Y854D01*
X5395D01*
X5191Y495D01*
D02*
G37*
G36*
X11274Y232D02*
X11204D01*
X10937Y719D01*
Y232D01*
X10872D01*
Y854D01*
X10941D01*
X11209Y366D01*
Y854D01*
X11274D01*
Y232D01*
D02*
G37*
G36*
X14523D02*
X14458D01*
Y752D01*
X14309Y232D01*
X14249D01*
X14102Y761D01*
Y232D01*
X14036D01*
Y854D01*
X14138D01*
X14259Y413D01*
X14283Y321D01*
Y322D01*
X14283Y323D01*
X14284Y325D01*
X14284Y328D01*
X14285Y331D01*
X14286Y336D01*
X14288Y341D01*
X14289Y347D01*
X14291Y354D01*
X14293Y361D01*
X14295Y369D01*
X14298Y378D01*
X14301Y388D01*
X14304Y398D01*
X14307Y409D01*
X14310Y421D01*
X14432Y854D01*
X14523D01*
Y232D01*
D02*
G37*
G36*
X2665D02*
X2596D01*
X2398Y854D01*
X2471D01*
X2603Y402D01*
Y401D01*
X2604Y400D01*
X2605Y397D01*
X2606Y393D01*
X2607Y388D01*
X2609Y383D01*
X2611Y376D01*
X2612Y370D01*
X2615Y362D01*
X2616Y354D01*
X2621Y337D01*
X2626Y319D01*
X2630Y300D01*
Y301D01*
X2631Y303D01*
X2631Y305D01*
X2632Y309D01*
X2633Y314D01*
X2635Y319D01*
X2636Y325D01*
X2638Y332D01*
X2640Y340D01*
X2642Y348D01*
X2646Y365D01*
X2652Y383D01*
X2657Y402D01*
X2795Y854D01*
X2863D01*
X2665Y232D01*
D02*
G37*
G36*
X16386Y780D02*
X16084D01*
Y590D01*
X16367D01*
Y517D01*
X16084D01*
Y305D01*
X16397D01*
Y232D01*
X16017D01*
Y854D01*
X16386D01*
Y780D01*
D02*
G37*
G36*
X15692Y853D02*
X15698D01*
X15705Y853D01*
X15713Y852D01*
X15729Y851D01*
X15745Y849D01*
X15753Y847D01*
X15761Y846D01*
X15768Y844D01*
X15775Y842D01*
X15775D01*
X15777Y841D01*
X15780Y841D01*
X15782Y839D01*
X15786Y837D01*
X15791Y835D01*
X15796Y833D01*
X15801Y830D01*
X15807Y826D01*
X15813Y822D01*
X15820Y818D01*
X15826Y813D01*
X15833Y807D01*
X15839Y801D01*
X15846Y795D01*
X15852Y788D01*
X15852Y787D01*
X15853Y786D01*
X15855Y784D01*
X15857Y780D01*
X15860Y777D01*
X15863Y772D01*
X15867Y767D01*
X15871Y760D01*
X15875Y754D01*
X15879Y746D01*
X15883Y738D01*
X15887Y729D01*
X15892Y720D01*
X15896Y709D01*
X15899Y699D01*
X15903Y688D01*
Y688D01*
X15904Y685D01*
X15905Y682D01*
X15906Y678D01*
X15907Y672D01*
X15909Y665D01*
X15911Y657D01*
X15912Y648D01*
X15914Y638D01*
X15916Y627D01*
X15917Y616D01*
X15919Y603D01*
X15920Y590D01*
X15921Y576D01*
X15922Y561D01*
Y546D01*
Y546D01*
Y545D01*
Y543D01*
Y542D01*
Y539D01*
Y536D01*
X15921Y532D01*
Y528D01*
X15921Y519D01*
X15920Y509D01*
X15919Y497D01*
X15917Y484D01*
X15916Y471D01*
X15914Y456D01*
X15912Y441D01*
X15908Y426D01*
X15905Y411D01*
X15901Y396D01*
X15896Y381D01*
X15890Y367D01*
X15890Y366D01*
X15889Y364D01*
X15887Y360D01*
X15885Y355D01*
X15882Y349D01*
X15878Y342D01*
X15873Y335D01*
X15869Y326D01*
X15863Y318D01*
X15857Y309D01*
X15851Y300D01*
X15844Y292D01*
X15836Y284D01*
X15828Y276D01*
X15820Y269D01*
X15811Y263D01*
X15810Y262D01*
X15808Y261D01*
X15806Y260D01*
X15802Y258D01*
X15797Y255D01*
X15791Y253D01*
X15785Y250D01*
X15777Y248D01*
X15768Y244D01*
X15759Y242D01*
X15748Y239D01*
X15737Y237D01*
X15725Y235D01*
X15712Y234D01*
X15698Y233D01*
X15684Y232D01*
X15500D01*
Y854D01*
X15687D01*
X15692Y853D01*
D02*
G37*
G36*
X15384Y232D02*
X15317D01*
Y854D01*
X15384D01*
Y232D01*
D02*
G37*
G36*
X13416Y780D02*
X13248D01*
Y232D01*
X13180D01*
Y780D01*
X13012D01*
Y854D01*
X13416D01*
Y780D01*
D02*
G37*
G36*
X12981D02*
X12813D01*
Y232D01*
X12745D01*
Y780D01*
X12577D01*
Y854D01*
X12981D01*
Y780D01*
D02*
G37*
G36*
X11784Y853D02*
X11789D01*
X11794Y853D01*
X11801Y852D01*
X11807Y851D01*
X11822Y849D01*
X11837Y846D01*
X11852Y841D01*
X11860Y839D01*
X11866Y836D01*
X11867D01*
X11867Y835D01*
X11869Y834D01*
X11872Y832D01*
X11875Y830D01*
X11878Y828D01*
X11886Y822D01*
X11895Y814D01*
X11899Y809D01*
X11904Y804D01*
X11908Y799D01*
X11913Y792D01*
X11918Y786D01*
X11922Y779D01*
X11922Y779D01*
X11923Y777D01*
X11923Y775D01*
X11925Y772D01*
X11927Y769D01*
X11928Y765D01*
X11931Y760D01*
X11933Y754D01*
X11935Y748D01*
X11937Y742D01*
X11940Y728D01*
X11943Y712D01*
X11943Y704D01*
X11943Y695D01*
Y694D01*
Y693D01*
Y691D01*
X11943Y688D01*
Y684D01*
X11943Y679D01*
X11942Y674D01*
X11941Y669D01*
X11939Y657D01*
X11936Y644D01*
X11931Y631D01*
X11925Y618D01*
Y617D01*
X11924Y616D01*
X11923Y614D01*
X11921Y612D01*
X11919Y609D01*
X11917Y606D01*
X11911Y598D01*
X11904Y589D01*
X11895Y580D01*
X11884Y571D01*
X11872Y563D01*
X11872D01*
X11874Y562D01*
X11876Y561D01*
X11879Y559D01*
X11883Y558D01*
X11888Y555D01*
X11893Y553D01*
X11898Y550D01*
X11903Y546D01*
X11909Y542D01*
X11914Y538D01*
X11920Y532D01*
X11926Y527D01*
X11932Y521D01*
X11937Y515D01*
X11942Y507D01*
X11943Y507D01*
X11943Y506D01*
X11944Y503D01*
X11946Y501D01*
X11948Y497D01*
X11950Y492D01*
X11953Y487D01*
X11955Y481D01*
X11958Y474D01*
X11960Y467D01*
X11962Y459D01*
X11964Y451D01*
X11966Y442D01*
X11967Y432D01*
X11968Y422D01*
X11968Y412D01*
Y411D01*
Y410D01*
Y406D01*
X11968Y402D01*
X11967Y397D01*
X11967Y392D01*
X11966Y386D01*
X11965Y378D01*
X11964Y371D01*
X11963Y363D01*
X11958Y346D01*
X11956Y338D01*
X11953Y329D01*
X11949Y321D01*
X11945Y313D01*
X11944Y312D01*
X11944Y311D01*
X11943Y309D01*
X11941Y306D01*
X11938Y302D01*
X11935Y298D01*
X11932Y294D01*
X11928Y289D01*
X11919Y279D01*
X11909Y269D01*
X11897Y259D01*
X11890Y255D01*
X11883Y251D01*
X11883D01*
X11881Y250D01*
X11879Y249D01*
X11876Y248D01*
X11872Y247D01*
X11867Y245D01*
X11862Y244D01*
X11856Y242D01*
X11848Y240D01*
X11840Y238D01*
X11832Y237D01*
X11822Y235D01*
X11812Y234D01*
X11801Y233D01*
X11790Y233D01*
X11777Y232D01*
X11584D01*
Y854D01*
X11780D01*
X11784Y853D01*
D02*
G37*
G36*
X9543Y780D02*
X9242D01*
Y590D01*
X9524D01*
Y517D01*
X9242D01*
Y305D01*
X9555D01*
Y232D01*
X9174D01*
Y854D01*
X9543D01*
Y780D01*
D02*
G37*
G36*
X8840Y305D02*
X9092D01*
Y232D01*
X8773D01*
Y854D01*
X8840D01*
Y305D01*
D02*
G37*
G36*
X8691Y780D02*
X8414D01*
Y588D01*
X8653D01*
Y515D01*
X8414D01*
Y232D01*
X8347D01*
Y854D01*
X8691D01*
Y780D01*
D02*
G37*
G36*
X7867Y853D02*
X7873D01*
X7880Y853D01*
X7887Y852D01*
X7895Y851D01*
X7912Y850D01*
X7929Y846D01*
X7938Y844D01*
X7946Y842D01*
X7953Y839D01*
X7960Y836D01*
X7960D01*
X7961Y835D01*
X7963Y834D01*
X7965Y833D01*
X7969Y831D01*
X7972Y828D01*
X7975Y826D01*
X7980Y822D01*
X7984Y819D01*
X7989Y814D01*
X7993Y810D01*
X7998Y804D01*
X8002Y799D01*
X8007Y792D01*
X8011Y785D01*
X8015Y778D01*
X8016Y778D01*
X8016Y776D01*
X8017Y774D01*
X8019Y771D01*
X8020Y767D01*
X8022Y763D01*
X8025Y757D01*
X8026Y751D01*
X8029Y745D01*
X8030Y738D01*
X8032Y730D01*
X8034Y722D01*
X8035Y713D01*
X8036Y704D01*
X8037Y694D01*
X8037Y684D01*
Y684D01*
Y681D01*
X8037Y678D01*
Y673D01*
X8036Y667D01*
X8035Y660D01*
X8034Y652D01*
X8033Y644D01*
X8031Y635D01*
X8028Y626D01*
X8025Y616D01*
X8022Y607D01*
X8018Y597D01*
X8013Y588D01*
X8007Y579D01*
X8000Y570D01*
X8000Y570D01*
X7999Y568D01*
X7997Y566D01*
X7994Y563D01*
X7990Y560D01*
X7985Y556D01*
X7980Y552D01*
X7973Y547D01*
X7966Y542D01*
X7958Y538D01*
X7949Y533D01*
X7940Y528D01*
X7929Y524D01*
X7919Y521D01*
X7907Y517D01*
X7894Y515D01*
X7894D01*
X7895Y514D01*
X7897Y513D01*
X7899Y512D01*
X7904Y508D01*
X7910Y504D01*
X7917Y499D01*
X7924Y493D01*
X7931Y487D01*
X7937Y480D01*
X7938Y480D01*
X7939Y478D01*
X7940Y477D01*
X7942Y474D01*
X7945Y471D01*
X7948Y467D01*
X7951Y462D01*
X7955Y457D01*
X7959Y452D01*
X7963Y445D01*
X7972Y432D01*
X7981Y417D01*
X7990Y401D01*
X8079Y232D01*
X7994D01*
X7926Y361D01*
X7926Y362D01*
X7924Y364D01*
X7923Y368D01*
X7920Y373D01*
X7917Y380D01*
X7913Y386D01*
X7909Y394D01*
X7904Y402D01*
X7894Y419D01*
X7884Y436D01*
X7879Y444D01*
X7875Y452D01*
X7871Y458D01*
X7867Y463D01*
Y464D01*
X7866Y465D01*
X7865Y466D01*
X7863Y467D01*
X7859Y472D01*
X7854Y478D01*
X7848Y484D01*
X7842Y489D01*
X7835Y495D01*
X7828Y499D01*
X7827Y499D01*
X7824Y500D01*
X7820Y502D01*
X7814Y504D01*
X7807Y505D01*
X7798Y507D01*
X7787Y508D01*
X7775Y508D01*
X7697D01*
Y232D01*
X7630D01*
Y854D01*
X7863D01*
X7867Y853D01*
D02*
G37*
G36*
X6990Y780D02*
X6713D01*
Y588D01*
X6953D01*
Y515D01*
X6713D01*
Y232D01*
X6646D01*
Y854D01*
X6990D01*
Y780D01*
D02*
G37*
G36*
X6166Y853D02*
X6172D01*
X6179Y853D01*
X6186Y852D01*
X6195Y851D01*
X6211Y850D01*
X6229Y846D01*
X6237Y844D01*
X6245Y842D01*
X6252Y839D01*
X6259Y836D01*
X6260D01*
X6261Y835D01*
X6262Y834D01*
X6265Y833D01*
X6268Y831D01*
X6271Y828D01*
X6275Y826D01*
X6279Y822D01*
X6283Y819D01*
X6288Y814D01*
X6292Y810D01*
X6297Y804D01*
X6301Y799D01*
X6306Y792D01*
X6311Y785D01*
X6315Y778D01*
X6315Y778D01*
X6316Y776D01*
X6316Y774D01*
X6318Y771D01*
X6320Y767D01*
X6321Y763D01*
X6324Y757D01*
X6326Y751D01*
X6328Y745D01*
X6330Y738D01*
X6331Y730D01*
X6333Y722D01*
X6335Y713D01*
X6336Y704D01*
X6336Y694D01*
X6337Y684D01*
Y684D01*
Y681D01*
X6336Y678D01*
Y673D01*
X6336Y667D01*
X6335Y660D01*
X6333Y652D01*
X6332Y644D01*
X6330Y635D01*
X6327Y626D01*
X6325Y616D01*
X6321Y607D01*
X6317Y597D01*
X6312Y588D01*
X6306Y579D01*
X6300Y570D01*
X6299Y570D01*
X6298Y568D01*
X6296Y566D01*
X6293Y563D01*
X6289Y560D01*
X6284Y556D01*
X6279Y552D01*
X6272Y547D01*
X6266Y542D01*
X6257Y538D01*
X6249Y533D01*
X6239Y528D01*
X6229Y524D01*
X6218Y521D01*
X6206Y517D01*
X6193Y515D01*
X6194D01*
X6195Y514D01*
X6196Y513D01*
X6198Y512D01*
X6203Y508D01*
X6209Y504D01*
X6216Y499D01*
X6223Y493D01*
X6230Y487D01*
X6236Y480D01*
X6237Y480D01*
X6238Y478D01*
X6239Y477D01*
X6241Y474D01*
X6244Y471D01*
X6247Y467D01*
X6251Y462D01*
X6254Y457D01*
X6258Y452D01*
X6262Y445D01*
X6271Y432D01*
X6281Y417D01*
X6289Y401D01*
X6378Y232D01*
X6293D01*
X6225Y361D01*
X6225Y362D01*
X6224Y364D01*
X6222Y368D01*
X6219Y373D01*
X6216Y380D01*
X6212Y386D01*
X6208Y394D01*
X6203Y402D01*
X6194Y419D01*
X6184Y436D01*
X6179Y444D01*
X6174Y452D01*
X6170Y458D01*
X6166Y463D01*
Y464D01*
X6165Y465D01*
X6164Y466D01*
X6163Y467D01*
X6159Y472D01*
X6154Y478D01*
X6148Y484D01*
X6141Y489D01*
X6134Y495D01*
X6127Y499D01*
X6126Y499D01*
X6123Y500D01*
X6119Y502D01*
X6113Y504D01*
X6106Y505D01*
X6097Y507D01*
X6086Y508D01*
X6074Y508D01*
X5997D01*
Y232D01*
X5929D01*
Y854D01*
X6162D01*
X6166Y853D01*
D02*
G37*
G36*
X5825Y780D02*
X5524D01*
Y590D01*
X5806D01*
Y517D01*
X5524D01*
Y305D01*
X5837D01*
Y232D01*
X5457D01*
Y854D01*
X5825D01*
Y780D01*
D02*
G37*
G36*
X4927Y232D02*
X4850D01*
X4790Y421D01*
X4577D01*
X4522Y232D01*
X4450D01*
X4645Y854D01*
X4718D01*
X4927Y232D01*
D02*
G37*
G36*
X4173Y305D02*
X4425D01*
Y232D01*
X4106D01*
Y854D01*
X4173D01*
Y305D01*
D02*
G37*
G36*
X3635Y853D02*
X3641D01*
X3648Y853D01*
X3655Y852D01*
X3663Y851D01*
X3680Y850D01*
X3698Y846D01*
X3706Y844D01*
X3714Y842D01*
X3721Y839D01*
X3728Y836D01*
X3728D01*
X3729Y835D01*
X3731Y834D01*
X3733Y833D01*
X3737Y831D01*
X3740Y828D01*
X3743Y826D01*
X3748Y822D01*
X3752Y819D01*
X3757Y814D01*
X3761Y810D01*
X3766Y804D01*
X3770Y799D01*
X3775Y792D01*
X3779Y785D01*
X3784Y778D01*
X3784Y778D01*
X3784Y776D01*
X3785Y774D01*
X3787Y771D01*
X3789Y767D01*
X3790Y763D01*
X3793Y757D01*
X3794Y751D01*
X3797Y745D01*
X3799Y738D01*
X3800Y730D01*
X3802Y722D01*
X3804Y713D01*
X3804Y704D01*
X3805Y694D01*
X3805Y684D01*
Y684D01*
Y681D01*
X3805Y678D01*
Y673D01*
X3804Y667D01*
X3804Y660D01*
X3802Y652D01*
X3801Y644D01*
X3799Y635D01*
X3796Y626D01*
X3794Y616D01*
X3790Y607D01*
X3786Y597D01*
X3781Y588D01*
X3775Y579D01*
X3768Y570D01*
X3768Y570D01*
X3767Y568D01*
X3765Y566D01*
X3762Y563D01*
X3758Y560D01*
X3753Y556D01*
X3748Y552D01*
X3741Y547D01*
X3734Y542D01*
X3726Y538D01*
X3718Y533D01*
X3708Y528D01*
X3698Y524D01*
X3687Y521D01*
X3675Y517D01*
X3662Y515D01*
X3662D01*
X3663Y514D01*
X3665Y513D01*
X3667Y512D01*
X3672Y508D01*
X3678Y504D01*
X3685Y499D01*
X3692Y493D01*
X3699Y487D01*
X3705Y480D01*
X3706Y480D01*
X3707Y478D01*
X3708Y477D01*
X3710Y474D01*
X3713Y471D01*
X3716Y467D01*
X3719Y462D01*
X3723Y457D01*
X3727Y452D01*
X3731Y445D01*
X3740Y432D01*
X3749Y417D01*
X3758Y401D01*
X3847Y232D01*
X3762D01*
X3694Y361D01*
X3694Y362D01*
X3692Y364D01*
X3691Y368D01*
X3688Y373D01*
X3685Y380D01*
X3681Y386D01*
X3677Y394D01*
X3672Y402D01*
X3662Y419D01*
X3652Y436D01*
X3647Y444D01*
X3643Y452D01*
X3639Y458D01*
X3635Y463D01*
Y464D01*
X3634Y465D01*
X3633Y466D01*
X3632Y467D01*
X3627Y472D01*
X3622Y478D01*
X3617Y484D01*
X3610Y489D01*
X3603Y495D01*
X3596Y499D01*
X3595Y499D01*
X3592Y500D01*
X3588Y502D01*
X3582Y504D01*
X3575Y505D01*
X3566Y507D01*
X3555Y508D01*
X3543Y508D01*
X3465D01*
Y232D01*
X3398D01*
Y854D01*
X3631D01*
X3635Y853D01*
D02*
G37*
G36*
X3294Y780D02*
X2993D01*
Y590D01*
X3275D01*
Y517D01*
X2993D01*
Y305D01*
X3306D01*
Y232D01*
X2925D01*
Y854D01*
X3294D01*
Y780D01*
D02*
G37*
G36*
X13716Y864D02*
X13721D01*
X13727Y863D01*
X13733Y863D01*
X13741Y861D01*
X13750Y860D01*
X13759Y858D01*
X13769Y856D01*
X13779Y852D01*
X13789Y849D01*
X13800Y844D01*
X13811Y839D01*
X13822Y833D01*
X13832Y826D01*
X13833Y826D01*
X13834Y825D01*
X13838Y822D01*
X13841Y819D01*
X13846Y816D01*
X13851Y811D01*
X13858Y805D01*
X13864Y798D01*
X13871Y791D01*
X13878Y783D01*
X13885Y774D01*
X13893Y764D01*
X13900Y753D01*
X13907Y741D01*
X13914Y729D01*
X13920Y715D01*
X13920Y715D01*
X13921Y712D01*
X13923Y708D01*
X13925Y703D01*
X13928Y695D01*
X13930Y687D01*
X13933Y678D01*
X13936Y667D01*
X13940Y654D01*
X13942Y641D01*
X13945Y627D01*
X13948Y612D01*
X13950Y596D01*
X13951Y579D01*
X13952Y561D01*
X13953Y543D01*
Y542D01*
Y541D01*
Y539D01*
Y537D01*
Y533D01*
X13952Y529D01*
Y525D01*
X13952Y520D01*
X13951Y514D01*
X13951Y508D01*
X13950Y501D01*
X13950Y494D01*
X13947Y479D01*
X13945Y462D01*
X13941Y445D01*
X13937Y427D01*
X13932Y408D01*
X13926Y389D01*
X13919Y371D01*
X13911Y352D01*
X13901Y334D01*
X13890Y317D01*
Y317D01*
X13889Y316D01*
X13888Y315D01*
X13887Y313D01*
X13883Y309D01*
X13877Y302D01*
X13870Y295D01*
X13862Y287D01*
X13853Y279D01*
X13841Y270D01*
X13829Y260D01*
X13815Y252D01*
X13800Y244D01*
X13784Y237D01*
X13767Y230D01*
X13749Y226D01*
X13739Y224D01*
X13729Y223D01*
X13719Y222D01*
X13709Y222D01*
X13704D01*
X13701Y222D01*
X13698D01*
X13694Y223D01*
X13690Y223D01*
X13681Y225D01*
X13670Y227D01*
X13657Y230D01*
X13644Y234D01*
X13630Y239D01*
X13615Y246D01*
X13600Y254D01*
X13585Y263D01*
X13577Y269D01*
X13570Y275D01*
X13562Y281D01*
X13555Y288D01*
X13548Y295D01*
X13541Y303D01*
X13534Y311D01*
X13527Y320D01*
Y320D01*
X13527Y321D01*
X13526Y322D01*
X13525Y324D01*
X13523Y326D01*
X13521Y329D01*
X13520Y332D01*
X13518Y336D01*
X13513Y345D01*
X13508Y355D01*
X13502Y367D01*
X13496Y380D01*
X13490Y395D01*
X13485Y411D01*
X13480Y429D01*
X13475Y448D01*
X13471Y468D01*
X13468Y489D01*
X13466Y512D01*
X13465Y535D01*
Y535D01*
Y537D01*
Y539D01*
Y542D01*
X13466Y546D01*
Y550D01*
X13466Y555D01*
Y561D01*
X13467Y568D01*
X13468Y574D01*
X13468Y582D01*
X13469Y589D01*
X13471Y607D01*
X13474Y625D01*
X13478Y644D01*
X13482Y664D01*
X13488Y684D01*
X13495Y705D01*
X13503Y725D01*
X13512Y744D01*
X13523Y762D01*
X13535Y779D01*
Y780D01*
X13536Y780D01*
X13538Y783D01*
X13542Y787D01*
X13548Y792D01*
X13555Y799D01*
X13563Y806D01*
X13572Y814D01*
X13583Y822D01*
X13595Y830D01*
X13608Y838D01*
X13623Y845D01*
X13638Y851D01*
X13655Y857D01*
X13672Y861D01*
X13690Y864D01*
X13700Y864D01*
X13709Y865D01*
X13713D01*
X13716Y864D01*
D02*
G37*
G36*
X12292D02*
X12297D01*
X12302Y863D01*
X12309Y863D01*
X12317Y861D01*
X12326Y860D01*
X12335Y858D01*
X12345Y856D01*
X12355Y852D01*
X12365Y849D01*
X12376Y844D01*
X12387Y839D01*
X12398Y833D01*
X12408Y826D01*
X12408Y826D01*
X12410Y825D01*
X12413Y822D01*
X12417Y819D01*
X12422Y816D01*
X12427Y811D01*
X12434Y805D01*
X12440Y798D01*
X12447Y791D01*
X12454Y783D01*
X12461Y774D01*
X12469Y764D01*
X12476Y753D01*
X12483Y741D01*
X12489Y729D01*
X12496Y715D01*
X12496Y715D01*
X12497Y712D01*
X12499Y708D01*
X12501Y703D01*
X12504Y695D01*
X12506Y687D01*
X12509Y678D01*
X12512Y667D01*
X12515Y654D01*
X12518Y641D01*
X12521Y627D01*
X12524Y612D01*
X12525Y596D01*
X12527Y579D01*
X12528Y561D01*
X12529Y543D01*
Y542D01*
Y541D01*
Y539D01*
Y537D01*
Y533D01*
X12528Y529D01*
Y525D01*
X12528Y520D01*
X12527Y514D01*
X12527Y508D01*
X12526Y501D01*
X12525Y494D01*
X12523Y479D01*
X12521Y462D01*
X12517Y445D01*
X12513Y427D01*
X12508Y408D01*
X12502Y389D01*
X12495Y371D01*
X12487Y352D01*
X12477Y334D01*
X12466Y317D01*
Y317D01*
X12465Y316D01*
X12464Y315D01*
X12463Y313D01*
X12459Y309D01*
X12453Y302D01*
X12446Y295D01*
X12438Y287D01*
X12429Y279D01*
X12417Y270D01*
X12405Y260D01*
X12391Y252D01*
X12376Y244D01*
X12360Y237D01*
X12343Y230D01*
X12325Y226D01*
X12315Y224D01*
X12305Y223D01*
X12295Y222D01*
X12285Y222D01*
X12280D01*
X12277Y222D01*
X12274D01*
X12270Y223D01*
X12266Y223D01*
X12257Y225D01*
X12246Y227D01*
X12233Y230D01*
X12220Y234D01*
X12206Y239D01*
X12191Y246D01*
X12176Y254D01*
X12161Y263D01*
X12153Y269D01*
X12146Y275D01*
X12138Y281D01*
X12131Y288D01*
X12124Y295D01*
X12116Y303D01*
X12110Y311D01*
X12103Y320D01*
Y320D01*
X12103Y321D01*
X12102Y322D01*
X12100Y324D01*
X12099Y326D01*
X12097Y329D01*
X12095Y332D01*
X12094Y336D01*
X12089Y345D01*
X12084Y355D01*
X12078Y367D01*
X12072Y380D01*
X12066Y395D01*
X12061Y411D01*
X12056Y429D01*
X12051Y448D01*
X12047Y468D01*
X12044Y489D01*
X12042Y512D01*
X12041Y535D01*
Y535D01*
Y537D01*
Y539D01*
Y542D01*
X12042Y546D01*
Y550D01*
X12042Y555D01*
Y561D01*
X12043Y568D01*
X12044Y574D01*
X12044Y582D01*
X12045Y589D01*
X12047Y607D01*
X12050Y625D01*
X12054Y644D01*
X12058Y664D01*
X12064Y684D01*
X12071Y705D01*
X12079Y725D01*
X12088Y744D01*
X12099Y762D01*
X12111Y779D01*
Y780D01*
X12112Y780D01*
X12114Y783D01*
X12118Y787D01*
X12124Y792D01*
X12130Y799D01*
X12139Y806D01*
X12148Y814D01*
X12159Y822D01*
X12171Y830D01*
X12184Y838D01*
X12199Y845D01*
X12214Y851D01*
X12231Y857D01*
X12248Y861D01*
X12266Y864D01*
X12276Y864D01*
X12285Y865D01*
X12288D01*
X12292Y864D01*
D02*
G37*
G36*
X10551D02*
X10556D01*
X10562Y863D01*
X10569Y863D01*
X10577Y861D01*
X10585Y860D01*
X10595Y858D01*
X10604Y856D01*
X10614Y852D01*
X10625Y849D01*
X10636Y844D01*
X10646Y839D01*
X10657Y833D01*
X10668Y826D01*
X10668Y826D01*
X10670Y825D01*
X10673Y822D01*
X10677Y819D01*
X10681Y816D01*
X10687Y811D01*
X10693Y805D01*
X10699Y798D01*
X10706Y791D01*
X10714Y783D01*
X10721Y774D01*
X10728Y764D01*
X10735Y753D01*
X10742Y741D01*
X10749Y729D01*
X10755Y715D01*
X10756Y715D01*
X10757Y712D01*
X10759Y708D01*
X10760Y703D01*
X10763Y695D01*
X10766Y687D01*
X10769Y678D01*
X10772Y667D01*
X10775Y654D01*
X10778Y641D01*
X10781Y627D01*
X10783Y612D01*
X10785Y596D01*
X10787Y579D01*
X10788Y561D01*
X10788Y543D01*
Y542D01*
Y541D01*
Y539D01*
Y537D01*
Y533D01*
X10788Y529D01*
Y525D01*
X10787Y520D01*
X10787Y514D01*
X10786Y508D01*
X10785Y501D01*
X10785Y494D01*
X10783Y479D01*
X10781Y462D01*
X10777Y445D01*
X10773Y427D01*
X10768Y408D01*
X10762Y389D01*
X10755Y371D01*
X10746Y352D01*
X10736Y334D01*
X10725Y317D01*
Y317D01*
X10725Y316D01*
X10724Y315D01*
X10722Y313D01*
X10718Y309D01*
X10713Y302D01*
X10706Y295D01*
X10698Y287D01*
X10688Y279D01*
X10677Y270D01*
X10664Y260D01*
X10651Y252D01*
X10636Y244D01*
X10620Y237D01*
X10603Y230D01*
X10584Y226D01*
X10575Y224D01*
X10565Y223D01*
X10555Y222D01*
X10544Y222D01*
X10539D01*
X10537Y222D01*
X10533D01*
X10530Y223D01*
X10526Y223D01*
X10516Y225D01*
X10505Y227D01*
X10493Y230D01*
X10479Y234D01*
X10465Y239D01*
X10451Y246D01*
X10435Y254D01*
X10420Y263D01*
X10412Y269D01*
X10405Y275D01*
X10398Y281D01*
X10391Y288D01*
X10383Y295D01*
X10376Y303D01*
X10369Y311D01*
X10363Y320D01*
Y320D01*
X10362Y321D01*
X10361Y322D01*
X10360Y324D01*
X10359Y326D01*
X10357Y329D01*
X10355Y332D01*
X10353Y336D01*
X10348Y345D01*
X10343Y355D01*
X10338Y367D01*
X10332Y380D01*
X10326Y395D01*
X10320Y411D01*
X10315Y429D01*
X10310Y448D01*
X10307Y468D01*
X10304Y489D01*
X10302Y512D01*
X10301Y535D01*
Y535D01*
Y537D01*
Y539D01*
Y542D01*
X10301Y546D01*
Y550D01*
X10302Y555D01*
Y561D01*
X10302Y568D01*
X10303Y574D01*
X10304Y582D01*
X10305Y589D01*
X10307Y607D01*
X10310Y625D01*
X10313Y644D01*
X10318Y664D01*
X10324Y684D01*
X10330Y705D01*
X10338Y725D01*
X10348Y744D01*
X10358Y762D01*
X10371Y779D01*
Y780D01*
X10371Y780D01*
X10374Y783D01*
X10378Y787D01*
X10383Y792D01*
X10390Y799D01*
X10398Y806D01*
X10408Y814D01*
X10419Y822D01*
X10431Y830D01*
X10444Y838D01*
X10458Y845D01*
X10474Y851D01*
X10490Y857D01*
X10507Y861D01*
X10526Y864D01*
X10535Y864D01*
X10545Y865D01*
X10548D01*
X10551Y864D01*
D02*
G37*
G36*
X7307D02*
X7312D01*
X7318Y863D01*
X7325Y863D01*
X7333Y861D01*
X7342Y860D01*
X7351Y858D01*
X7361Y856D01*
X7371Y852D01*
X7381Y849D01*
X7392Y844D01*
X7403Y839D01*
X7413Y833D01*
X7424Y826D01*
X7424Y826D01*
X7426Y825D01*
X7429Y822D01*
X7433Y819D01*
X7438Y816D01*
X7443Y811D01*
X7449Y805D01*
X7456Y798D01*
X7463Y791D01*
X7470Y783D01*
X7477Y774D01*
X7484Y764D01*
X7492Y753D01*
X7499Y741D01*
X7505Y729D01*
X7512Y715D01*
X7512Y715D01*
X7513Y712D01*
X7515Y708D01*
X7517Y703D01*
X7520Y695D01*
X7522Y687D01*
X7525Y678D01*
X7528Y667D01*
X7531Y654D01*
X7534Y641D01*
X7537Y627D01*
X7540Y612D01*
X7541Y596D01*
X7543Y579D01*
X7544Y561D01*
X7545Y543D01*
Y542D01*
Y541D01*
Y539D01*
Y537D01*
Y533D01*
X7544Y529D01*
Y525D01*
X7544Y520D01*
X7543Y514D01*
X7543Y508D01*
X7542Y501D01*
X7541Y494D01*
X7539Y479D01*
X7537Y462D01*
X7533Y445D01*
X7529Y427D01*
X7524Y408D01*
X7518Y389D01*
X7511Y371D01*
X7503Y352D01*
X7493Y334D01*
X7482Y317D01*
Y317D01*
X7481Y316D01*
X7480Y315D01*
X7479Y313D01*
X7474Y309D01*
X7469Y302D01*
X7462Y295D01*
X7454Y287D01*
X7444Y279D01*
X7433Y270D01*
X7421Y260D01*
X7407Y252D01*
X7392Y244D01*
X7376Y237D01*
X7359Y230D01*
X7341Y226D01*
X7331Y224D01*
X7321Y223D01*
X7311Y222D01*
X7301Y222D01*
X7296D01*
X7293Y222D01*
X7290D01*
X7286Y223D01*
X7282Y223D01*
X7272Y225D01*
X7262Y227D01*
X7249Y230D01*
X7236Y234D01*
X7221Y239D01*
X7207Y246D01*
X7191Y254D01*
X7176Y263D01*
X7169Y269D01*
X7161Y275D01*
X7154Y281D01*
X7147Y288D01*
X7140Y295D01*
X7132Y303D01*
X7125Y311D01*
X7119Y320D01*
Y320D01*
X7119Y321D01*
X7118Y322D01*
X7116Y324D01*
X7115Y326D01*
X7113Y329D01*
X7111Y332D01*
X7110Y336D01*
X7105Y345D01*
X7100Y355D01*
X7094Y367D01*
X7088Y380D01*
X7082Y395D01*
X7077Y411D01*
X7072Y429D01*
X7067Y448D01*
X7063Y468D01*
X7060Y489D01*
X7058Y512D01*
X7057Y535D01*
Y535D01*
Y537D01*
Y539D01*
Y542D01*
X7058Y546D01*
Y550D01*
X7058Y555D01*
Y561D01*
X7059Y568D01*
X7060Y574D01*
X7060Y582D01*
X7061Y589D01*
X7063Y607D01*
X7066Y625D01*
X7070Y644D01*
X7074Y664D01*
X7080Y684D01*
X7087Y705D01*
X7095Y725D01*
X7104Y744D01*
X7115Y762D01*
X7127Y779D01*
Y780D01*
X7128Y780D01*
X7130Y783D01*
X7134Y787D01*
X7140Y792D01*
X7146Y799D01*
X7155Y806D01*
X7164Y814D01*
X7175Y822D01*
X7187Y830D01*
X7200Y838D01*
X7215Y845D01*
X7230Y851D01*
X7247Y857D01*
X7264Y861D01*
X7282Y864D01*
X7292Y864D01*
X7301Y865D01*
X7304D01*
X7307Y864D01*
D02*
G37*
G36*
X2126D02*
X2131D01*
X2137Y863D01*
X2144Y863D01*
X2152Y861D01*
X2161Y860D01*
X2170Y858D01*
X2180Y856D01*
X2190Y852D01*
X2200Y849D01*
X2211Y844D01*
X2221Y839D01*
X2232Y833D01*
X2243Y826D01*
X2243Y826D01*
X2245Y825D01*
X2248Y822D01*
X2252Y819D01*
X2257Y816D01*
X2262Y811D01*
X2268Y805D01*
X2275Y798D01*
X2282Y791D01*
X2289Y783D01*
X2296Y774D01*
X2303Y764D01*
X2311Y753D01*
X2317Y741D01*
X2324Y729D01*
X2331Y715D01*
X2331Y715D01*
X2332Y712D01*
X2334Y708D01*
X2336Y703D01*
X2338Y695D01*
X2341Y687D01*
X2344Y678D01*
X2347Y667D01*
X2350Y654D01*
X2353Y641D01*
X2356Y627D01*
X2358Y612D01*
X2360Y596D01*
X2362Y579D01*
X2363Y561D01*
X2363Y543D01*
Y542D01*
Y541D01*
Y539D01*
Y537D01*
Y533D01*
X2363Y529D01*
Y525D01*
X2363Y520D01*
X2362Y514D01*
X2362Y508D01*
X2361Y501D01*
X2360Y494D01*
X2358Y479D01*
X2356Y462D01*
X2352Y445D01*
X2348Y427D01*
X2343Y408D01*
X2337Y389D01*
X2330Y371D01*
X2322Y352D01*
X2312Y334D01*
X2301Y317D01*
Y317D01*
X2300Y316D01*
X2299Y315D01*
X2297Y313D01*
X2293Y309D01*
X2288Y302D01*
X2281Y295D01*
X2273Y287D01*
X2263Y279D01*
X2252Y270D01*
X2240Y260D01*
X2226Y252D01*
X2211Y244D01*
X2195Y237D01*
X2178Y230D01*
X2160Y226D01*
X2150Y224D01*
X2140Y223D01*
X2130Y222D01*
X2120Y222D01*
X2115D01*
X2112Y222D01*
X2109D01*
X2105Y223D01*
X2101Y223D01*
X2091Y225D01*
X2080Y227D01*
X2068Y230D01*
X2055Y234D01*
X2040Y239D01*
X2026Y246D01*
X2010Y254D01*
X1995Y263D01*
X1988Y269D01*
X1980Y275D01*
X1973Y281D01*
X1966Y288D01*
X1958Y295D01*
X1951Y303D01*
X1944Y311D01*
X1938Y320D01*
Y320D01*
X1938Y321D01*
X1937Y322D01*
X1935Y324D01*
X1934Y326D01*
X1932Y329D01*
X1930Y332D01*
X1928Y336D01*
X1923Y345D01*
X1918Y355D01*
X1913Y367D01*
X1907Y380D01*
X1901Y395D01*
X1896Y411D01*
X1891Y429D01*
X1886Y448D01*
X1882Y468D01*
X1879Y489D01*
X1877Y512D01*
X1876Y535D01*
Y535D01*
Y537D01*
Y539D01*
Y542D01*
X1877Y546D01*
Y550D01*
X1877Y555D01*
Y561D01*
X1878Y568D01*
X1878Y574D01*
X1879Y582D01*
X1880Y589D01*
X1882Y607D01*
X1885Y625D01*
X1888Y644D01*
X1893Y664D01*
X1899Y684D01*
X1906Y705D01*
X1913Y725D01*
X1923Y744D01*
X1933Y762D01*
X1946Y779D01*
Y780D01*
X1947Y780D01*
X1949Y783D01*
X1953Y787D01*
X1958Y792D01*
X1965Y799D01*
X1974Y806D01*
X1983Y814D01*
X1994Y822D01*
X2006Y830D01*
X2019Y838D01*
X2034Y845D01*
X2049Y851D01*
X2065Y857D01*
X2083Y861D01*
X2101Y864D01*
X2110Y864D01*
X2120Y865D01*
X2123D01*
X2126Y864D01*
D02*
G37*
%LPC*%
G36*
X15685Y780D02*
X15568D01*
Y305D01*
X15682D01*
X15687Y306D01*
X15692D01*
X15698Y307D01*
X15705Y307D01*
X15713Y308D01*
X15729Y311D01*
X15745Y315D01*
X15753Y317D01*
X15761Y320D01*
X15768Y323D01*
X15775Y327D01*
X15775Y327D01*
X15776Y328D01*
X15778Y329D01*
X15780Y331D01*
X15784Y333D01*
X15787Y336D01*
X15790Y340D01*
X15795Y344D01*
X15799Y348D01*
X15803Y353D01*
X15807Y359D01*
X15811Y365D01*
X15816Y371D01*
X15820Y379D01*
X15824Y387D01*
X15827Y396D01*
X15828Y396D01*
X15828Y398D01*
X15830Y402D01*
X15831Y407D01*
X15833Y413D01*
X15835Y420D01*
X15837Y429D01*
X15840Y438D01*
X15842Y449D01*
X15844Y460D01*
X15846Y473D01*
X15848Y486D01*
X15850Y500D01*
X15851Y515D01*
X15851Y531D01*
X15852Y547D01*
Y548D01*
Y548D01*
Y549D01*
Y551D01*
Y553D01*
Y556D01*
X15851Y563D01*
X15851Y571D01*
X15851Y580D01*
X15850Y590D01*
X15849Y601D01*
X15847Y613D01*
X15846Y625D01*
X15844Y637D01*
X15841Y649D01*
X15838Y662D01*
X15835Y674D01*
X15831Y685D01*
X15826Y695D01*
X15826Y696D01*
X15825Y698D01*
X15823Y700D01*
X15821Y704D01*
X15819Y709D01*
X15816Y714D01*
X15812Y719D01*
X15808Y725D01*
X15804Y731D01*
X15799Y737D01*
X15787Y749D01*
X15781Y755D01*
X15775Y760D01*
X15767Y764D01*
X15760Y768D01*
X15760D01*
X15759Y768D01*
X15757Y769D01*
X15755Y770D01*
X15752Y771D01*
X15749Y772D01*
X15744Y773D01*
X15739Y774D01*
X15734Y775D01*
X15727Y776D01*
X15720Y778D01*
X15712Y779D01*
X15704Y779D01*
X15694Y780D01*
X15685Y780D01*
D02*
G37*
G36*
X11763D02*
X11651D01*
Y593D01*
X11771D01*
X11775Y593D01*
X11785Y593D01*
X11795Y594D01*
X11805Y595D01*
X11814Y597D01*
X11818Y598D01*
X11822Y598D01*
X11822D01*
X11823Y599D01*
X11825Y599D01*
X11827Y600D01*
X11831Y602D01*
X11837Y605D01*
X11843Y609D01*
X11850Y614D01*
X11857Y621D01*
X11862Y628D01*
Y628D01*
X11863Y629D01*
X11864Y630D01*
X11865Y632D01*
X11866Y634D01*
X11867Y637D01*
X11870Y643D01*
X11872Y651D01*
X11875Y661D01*
X11877Y673D01*
X11877Y685D01*
Y686D01*
Y687D01*
Y689D01*
Y691D01*
X11877Y694D01*
Y697D01*
X11875Y705D01*
X11874Y714D01*
X11872Y723D01*
X11868Y732D01*
X11864Y741D01*
Y741D01*
X11863Y742D01*
X11862Y745D01*
X11859Y749D01*
X11855Y753D01*
X11850Y758D01*
X11844Y763D01*
X11837Y768D01*
X11830Y772D01*
X11829D01*
X11829Y772D01*
X11827Y773D01*
X11826Y773D01*
X11823Y774D01*
X11820Y775D01*
X11817Y775D01*
X11812Y776D01*
X11807Y777D01*
X11802Y778D01*
X11795Y779D01*
X11788Y779D01*
X11781Y780D01*
X11772Y780D01*
X11763Y780D01*
D02*
G37*
G36*
X11778Y519D02*
X11651D01*
Y305D01*
X11784D01*
X11788Y306D01*
X11791D01*
X11801Y306D01*
X11811Y307D01*
X11821Y309D01*
X11831Y310D01*
X11835Y311D01*
X11839Y313D01*
X11840D01*
X11841Y313D01*
X11842Y314D01*
X11844Y315D01*
X11849Y318D01*
X11856Y321D01*
X11862Y327D01*
X11870Y333D01*
X11877Y340D01*
X11883Y349D01*
Y350D01*
X11883Y351D01*
X11884Y352D01*
X11885Y354D01*
X11887Y356D01*
X11888Y359D01*
X11889Y363D01*
X11891Y366D01*
X11893Y376D01*
X11896Y386D01*
X11898Y399D01*
X11898Y412D01*
Y413D01*
Y414D01*
Y416D01*
Y418D01*
X11898Y421D01*
X11898Y425D01*
X11897Y433D01*
X11895Y442D01*
X11893Y452D01*
X11889Y462D01*
X11884Y472D01*
Y472D01*
X11883Y473D01*
X11883Y474D01*
X11881Y476D01*
X11878Y480D01*
X11873Y486D01*
X11868Y492D01*
X11861Y497D01*
X11853Y503D01*
X11845Y508D01*
X11844D01*
X11844Y508D01*
X11842Y509D01*
X11840Y510D01*
X11837Y511D01*
X11834Y512D01*
X11831Y512D01*
X11826Y514D01*
X11821Y515D01*
X11816Y516D01*
X11809Y517D01*
X11802Y517D01*
X11795Y518D01*
X11787Y519D01*
X11778Y519D01*
D02*
G37*
G36*
X7858Y785D02*
X7697D01*
Y580D01*
X7850D01*
X7854Y580D01*
X7858D01*
X7863Y581D01*
X7869Y581D01*
X7880Y583D01*
X7893Y585D01*
X7904Y588D01*
X7909Y589D01*
X7914Y591D01*
X7914D01*
X7915Y592D01*
X7916Y593D01*
X7918Y593D01*
X7923Y596D01*
X7928Y600D01*
X7934Y605D01*
X7941Y611D01*
X7947Y618D01*
X7953Y627D01*
Y628D01*
X7954Y628D01*
X7954Y629D01*
X7955Y632D01*
X7956Y634D01*
X7958Y637D01*
X7960Y644D01*
X7963Y652D01*
X7965Y662D01*
X7967Y672D01*
X7968Y684D01*
Y684D01*
Y686D01*
Y689D01*
X7967Y692D01*
X7967Y696D01*
X7966Y700D01*
X7965Y705D01*
X7964Y711D01*
X7961Y723D01*
X7959Y729D01*
X7956Y735D01*
X7953Y741D01*
X7949Y747D01*
X7945Y752D01*
X7940Y758D01*
X7939Y758D01*
X7939Y759D01*
X7937Y760D01*
X7935Y762D01*
X7932Y764D01*
X7928Y766D01*
X7924Y769D01*
X7919Y771D01*
X7914Y774D01*
X7908Y776D01*
X7901Y779D01*
X7894Y781D01*
X7886Y782D01*
X7877Y784D01*
X7868Y785D01*
X7858Y785D01*
D02*
G37*
G36*
X6157D02*
X5997D01*
Y580D01*
X6149D01*
X6153Y580D01*
X6158D01*
X6163Y581D01*
X6168Y581D01*
X6180Y583D01*
X6192Y585D01*
X6203Y588D01*
X6208Y589D01*
X6213Y591D01*
X6214D01*
X6214Y592D01*
X6215Y593D01*
X6217Y593D01*
X6222Y596D01*
X6227Y600D01*
X6234Y605D01*
X6240Y611D01*
X6246Y618D01*
X6252Y627D01*
Y628D01*
X6253Y628D01*
X6254Y629D01*
X6255Y632D01*
X6256Y634D01*
X6257Y637D01*
X6260Y644D01*
X6262Y652D01*
X6265Y662D01*
X6266Y672D01*
X6267Y684D01*
Y684D01*
Y686D01*
Y689D01*
X6266Y692D01*
X6266Y696D01*
X6266Y700D01*
X6265Y705D01*
X6263Y711D01*
X6260Y723D01*
X6258Y729D01*
X6255Y735D01*
X6252Y741D01*
X6248Y747D01*
X6244Y752D01*
X6239Y758D01*
X6239Y758D01*
X6238Y759D01*
X6236Y760D01*
X6234Y762D01*
X6231Y764D01*
X6227Y766D01*
X6223Y769D01*
X6219Y771D01*
X6213Y774D01*
X6207Y776D01*
X6200Y779D01*
X6193Y781D01*
X6185Y782D01*
X6176Y784D01*
X6167Y785D01*
X6157Y785D01*
D02*
G37*
G36*
X4680Y788D02*
Y788D01*
X4680Y785D01*
X4679Y782D01*
X4678Y778D01*
X4678Y773D01*
X4676Y766D01*
X4675Y759D01*
X4673Y751D01*
X4671Y742D01*
X4669Y733D01*
X4667Y723D01*
X4664Y713D01*
X4659Y692D01*
X4653Y669D01*
X4596Y487D01*
X4769D01*
X4716Y659D01*
Y660D01*
X4716Y660D01*
X4715Y663D01*
X4714Y667D01*
X4712Y673D01*
X4710Y679D01*
X4708Y687D01*
X4705Y696D01*
X4703Y705D01*
X4700Y715D01*
X4697Y726D01*
X4691Y747D01*
X4685Y769D01*
X4683Y779D01*
X4680Y788D01*
D02*
G37*
G36*
X3626Y785D02*
X3465D01*
Y580D01*
X3618D01*
X3622Y580D01*
X3627D01*
X3632Y581D01*
X3637Y581D01*
X3648Y583D01*
X3661Y585D01*
X3672Y588D01*
X3677Y589D01*
X3682Y591D01*
X3683D01*
X3683Y592D01*
X3684Y593D01*
X3686Y593D01*
X3691Y596D01*
X3696Y600D01*
X3703Y605D01*
X3709Y611D01*
X3715Y618D01*
X3721Y627D01*
Y628D01*
X3722Y628D01*
X3723Y629D01*
X3723Y632D01*
X3724Y634D01*
X3726Y637D01*
X3728Y644D01*
X3731Y652D01*
X3733Y662D01*
X3735Y672D01*
X3736Y684D01*
Y684D01*
Y686D01*
Y689D01*
X3735Y692D01*
X3735Y696D01*
X3734Y700D01*
X3733Y705D01*
X3732Y711D01*
X3729Y723D01*
X3727Y729D01*
X3724Y735D01*
X3721Y741D01*
X3717Y747D01*
X3713Y752D01*
X3708Y758D01*
X3708Y758D01*
X3707Y759D01*
X3705Y760D01*
X3703Y762D01*
X3700Y764D01*
X3696Y766D01*
X3692Y769D01*
X3688Y771D01*
X3682Y774D01*
X3676Y776D01*
X3669Y779D01*
X3662Y781D01*
X3654Y782D01*
X3645Y784D01*
X3636Y785D01*
X3626Y785D01*
D02*
G37*
G36*
X13710Y794D02*
X13707D01*
X13703Y794D01*
X13697Y793D01*
X13691Y792D01*
X13683Y791D01*
X13675Y789D01*
X13666Y786D01*
X13656Y783D01*
X13646Y779D01*
X13635Y774D01*
X13625Y767D01*
X13614Y760D01*
X13604Y751D01*
X13594Y742D01*
X13584Y730D01*
X13584Y730D01*
X13582Y727D01*
X13580Y724D01*
X13576Y719D01*
X13573Y712D01*
X13569Y703D01*
X13564Y694D01*
X13560Y682D01*
X13555Y669D01*
X13551Y654D01*
X13546Y639D01*
X13543Y621D01*
X13540Y601D01*
X13537Y580D01*
X13536Y558D01*
X13535Y534D01*
Y533D01*
Y532D01*
Y531D01*
Y529D01*
Y526D01*
X13536Y523D01*
Y519D01*
X13536Y515D01*
X13536Y505D01*
X13538Y494D01*
X13539Y482D01*
X13541Y468D01*
X13544Y454D01*
X13547Y440D01*
X13551Y425D01*
X13556Y410D01*
X13562Y396D01*
X13569Y381D01*
X13576Y368D01*
X13586Y355D01*
X13586Y355D01*
X13588Y353D01*
X13591Y350D01*
X13595Y345D01*
X13600Y341D01*
X13606Y335D01*
X13612Y330D01*
X13620Y324D01*
X13628Y318D01*
X13638Y312D01*
X13648Y307D01*
X13659Y302D01*
X13670Y298D01*
X13682Y295D01*
X13695Y293D01*
X13708Y292D01*
X13712D01*
X13716Y293D01*
X13721Y293D01*
X13727Y294D01*
X13734Y295D01*
X13743Y298D01*
X13752Y300D01*
X13761Y304D01*
X13771Y308D01*
X13782Y313D01*
X13792Y319D01*
X13803Y326D01*
X13813Y335D01*
X13823Y345D01*
X13833Y356D01*
X13833Y357D01*
X13835Y359D01*
X13837Y363D01*
X13840Y368D01*
X13844Y375D01*
X13849Y383D01*
X13853Y392D01*
X13858Y404D01*
X13863Y416D01*
X13867Y430D01*
X13871Y446D01*
X13875Y462D01*
X13879Y481D01*
X13881Y501D01*
X13883Y522D01*
X13883Y544D01*
Y545D01*
Y545D01*
Y548D01*
Y552D01*
X13883Y558D01*
X13882Y565D01*
X13882Y573D01*
X13881Y582D01*
X13880Y592D01*
X13879Y603D01*
X13877Y614D01*
X13875Y626D01*
X13872Y639D01*
X13869Y651D01*
X13866Y664D01*
X13862Y676D01*
X13857Y688D01*
Y688D01*
X13856Y690D01*
X13855Y692D01*
X13854Y696D01*
X13851Y700D01*
X13849Y704D01*
X13846Y710D01*
X13842Y715D01*
X13838Y721D01*
X13834Y728D01*
X13829Y734D01*
X13824Y740D01*
X13818Y747D01*
X13811Y753D01*
X13804Y760D01*
X13797Y765D01*
X13797Y765D01*
X13795Y766D01*
X13793Y768D01*
X13790Y770D01*
X13786Y772D01*
X13782Y774D01*
X13777Y777D01*
X13771Y780D01*
X13765Y782D01*
X13758Y785D01*
X13751Y787D01*
X13743Y790D01*
X13735Y791D01*
X13727Y793D01*
X13718Y794D01*
X13710Y794D01*
D02*
G37*
G36*
X12286D02*
X12282D01*
X12278Y794D01*
X12273Y793D01*
X12267Y792D01*
X12259Y791D01*
X12251Y789D01*
X12241Y786D01*
X12231Y783D01*
X12221Y779D01*
X12211Y774D01*
X12201Y767D01*
X12190Y760D01*
X12180Y751D01*
X12170Y742D01*
X12160Y730D01*
X12160Y730D01*
X12158Y727D01*
X12156Y724D01*
X12152Y719D01*
X12149Y712D01*
X12145Y703D01*
X12140Y694D01*
X12135Y682D01*
X12131Y669D01*
X12126Y654D01*
X12122Y639D01*
X12119Y621D01*
X12115Y601D01*
X12113Y580D01*
X12111Y558D01*
X12111Y534D01*
Y533D01*
Y532D01*
Y531D01*
Y529D01*
Y526D01*
X12111Y523D01*
Y519D01*
X12112Y515D01*
X12112Y505D01*
X12114Y494D01*
X12115Y482D01*
X12117Y468D01*
X12120Y454D01*
X12123Y440D01*
X12127Y425D01*
X12132Y410D01*
X12138Y396D01*
X12145Y381D01*
X12152Y368D01*
X12161Y355D01*
X12162Y355D01*
X12164Y353D01*
X12166Y350D01*
X12171Y345D01*
X12176Y341D01*
X12181Y335D01*
X12188Y330D01*
X12196Y324D01*
X12204Y318D01*
X12214Y312D01*
X12224Y307D01*
X12235Y302D01*
X12246Y298D01*
X12258Y295D01*
X12271Y293D01*
X12284Y292D01*
X12287D01*
X12292Y293D01*
X12297Y293D01*
X12303Y294D01*
X12310Y295D01*
X12319Y298D01*
X12327Y300D01*
X12337Y304D01*
X12347Y308D01*
X12358Y313D01*
X12368Y319D01*
X12378Y326D01*
X12389Y335D01*
X12399Y345D01*
X12408Y356D01*
X12409Y357D01*
X12411Y359D01*
X12413Y363D01*
X12416Y368D01*
X12420Y375D01*
X12424Y383D01*
X12429Y392D01*
X12434Y404D01*
X12439Y416D01*
X12443Y430D01*
X12447Y446D01*
X12451Y462D01*
X12454Y481D01*
X12457Y501D01*
X12459Y522D01*
X12459Y544D01*
Y545D01*
Y545D01*
Y548D01*
Y552D01*
X12459Y558D01*
X12458Y565D01*
X12458Y573D01*
X12457Y582D01*
X12456Y592D01*
X12454Y603D01*
X12453Y614D01*
X12451Y626D01*
X12448Y639D01*
X12445Y651D01*
X12442Y664D01*
X12438Y676D01*
X12433Y688D01*
Y688D01*
X12432Y690D01*
X12431Y692D01*
X12429Y696D01*
X12427Y700D01*
X12424Y704D01*
X12422Y710D01*
X12418Y715D01*
X12414Y721D01*
X12409Y728D01*
X12405Y734D01*
X12399Y740D01*
X12393Y747D01*
X12387Y753D01*
X12380Y760D01*
X12373Y765D01*
X12373Y765D01*
X12371Y766D01*
X12369Y768D01*
X12366Y770D01*
X12362Y772D01*
X12358Y774D01*
X12353Y777D01*
X12347Y780D01*
X12341Y782D01*
X12334Y785D01*
X12327Y787D01*
X12319Y790D01*
X12311Y791D01*
X12303Y793D01*
X12294Y794D01*
X12286Y794D01*
D02*
G37*
G36*
X10545D02*
X10542D01*
X10538Y794D01*
X10533Y793D01*
X10526Y792D01*
X10518Y791D01*
X10510Y789D01*
X10501Y786D01*
X10491Y783D01*
X10481Y779D01*
X10471Y774D01*
X10460Y767D01*
X10450Y760D01*
X10439Y751D01*
X10429Y742D01*
X10420Y730D01*
X10419Y730D01*
X10417Y727D01*
X10415Y724D01*
X10412Y719D01*
X10408Y712D01*
X10404Y703D01*
X10400Y694D01*
X10395Y682D01*
X10391Y669D01*
X10386Y654D01*
X10382Y639D01*
X10378Y621D01*
X10375Y601D01*
X10373Y580D01*
X10371Y558D01*
X10371Y534D01*
Y533D01*
Y532D01*
Y531D01*
Y529D01*
Y526D01*
X10371Y523D01*
Y519D01*
X10371Y515D01*
X10372Y505D01*
X10373Y494D01*
X10375Y482D01*
X10377Y468D01*
X10380Y454D01*
X10383Y440D01*
X10387Y425D01*
X10392Y410D01*
X10398Y396D01*
X10404Y381D01*
X10412Y368D01*
X10421Y355D01*
X10422Y355D01*
X10423Y353D01*
X10426Y350D01*
X10430Y345D01*
X10435Y341D01*
X10441Y335D01*
X10447Y330D01*
X10455Y324D01*
X10464Y318D01*
X10473Y312D01*
X10483Y307D01*
X10494Y302D01*
X10506Y298D01*
X10518Y295D01*
X10531Y293D01*
X10544Y292D01*
X10547D01*
X10551Y293D01*
X10556Y293D01*
X10563Y294D01*
X10570Y295D01*
X10578Y298D01*
X10587Y300D01*
X10597Y304D01*
X10607Y308D01*
X10617Y313D01*
X10628Y319D01*
X10638Y326D01*
X10649Y335D01*
X10659Y345D01*
X10668Y356D01*
X10669Y357D01*
X10670Y359D01*
X10673Y363D01*
X10676Y368D01*
X10680Y375D01*
X10684Y383D01*
X10689Y392D01*
X10694Y404D01*
X10698Y416D01*
X10703Y430D01*
X10707Y446D01*
X10711Y462D01*
X10714Y481D01*
X10716Y501D01*
X10718Y522D01*
X10719Y544D01*
Y545D01*
Y545D01*
Y548D01*
Y552D01*
X10718Y558D01*
X10718Y565D01*
X10717Y573D01*
X10716Y582D01*
X10715Y592D01*
X10714Y603D01*
X10712Y614D01*
X10710Y626D01*
X10708Y639D01*
X10705Y651D01*
X10701Y664D01*
X10697Y676D01*
X10693Y688D01*
Y688D01*
X10692Y690D01*
X10690Y692D01*
X10689Y696D01*
X10687Y700D01*
X10684Y704D01*
X10681Y710D01*
X10678Y715D01*
X10674Y721D01*
X10669Y728D01*
X10664Y734D01*
X10659Y740D01*
X10653Y747D01*
X10647Y753D01*
X10640Y760D01*
X10633Y765D01*
X10632Y765D01*
X10631Y766D01*
X10629Y768D01*
X10626Y770D01*
X10622Y772D01*
X10618Y774D01*
X10613Y777D01*
X10607Y780D01*
X10600Y782D01*
X10593Y785D01*
X10587Y787D01*
X10579Y790D01*
X10571Y791D01*
X10563Y793D01*
X10554Y794D01*
X10545Y794D01*
D02*
G37*
G36*
X7302D02*
X7298D01*
X7294Y794D01*
X7289Y793D01*
X7282Y792D01*
X7275Y791D01*
X7267Y789D01*
X7257Y786D01*
X7247Y783D01*
X7237Y779D01*
X7227Y774D01*
X7216Y767D01*
X7206Y760D01*
X7196Y751D01*
X7186Y742D01*
X7176Y730D01*
X7176Y730D01*
X7174Y727D01*
X7171Y724D01*
X7168Y719D01*
X7165Y712D01*
X7161Y703D01*
X7156Y694D01*
X7151Y682D01*
X7147Y669D01*
X7142Y654D01*
X7138Y639D01*
X7135Y621D01*
X7131Y601D01*
X7129Y580D01*
X7127Y558D01*
X7127Y534D01*
Y533D01*
Y532D01*
Y531D01*
Y529D01*
Y526D01*
X7127Y523D01*
Y519D01*
X7128Y515D01*
X7128Y505D01*
X7130Y494D01*
X7131Y482D01*
X7133Y468D01*
X7136Y454D01*
X7139Y440D01*
X7143Y425D01*
X7148Y410D01*
X7154Y396D01*
X7161Y381D01*
X7168Y368D01*
X7177Y355D01*
X7178Y355D01*
X7180Y353D01*
X7182Y350D01*
X7186Y345D01*
X7191Y341D01*
X7197Y335D01*
X7204Y330D01*
X7211Y324D01*
X7220Y318D01*
X7230Y312D01*
X7240Y307D01*
X7251Y302D01*
X7262Y298D01*
X7274Y295D01*
X7287Y293D01*
X7300Y292D01*
X7303D01*
X7307Y293D01*
X7312Y293D01*
X7319Y294D01*
X7326Y295D01*
X7335Y298D01*
X7343Y300D01*
X7353Y304D01*
X7363Y308D01*
X7373Y313D01*
X7384Y319D01*
X7394Y326D01*
X7405Y335D01*
X7415Y345D01*
X7424Y356D01*
X7425Y357D01*
X7427Y359D01*
X7429Y363D01*
X7432Y368D01*
X7436Y375D01*
X7440Y383D01*
X7445Y392D01*
X7450Y404D01*
X7454Y416D01*
X7459Y430D01*
X7463Y446D01*
X7467Y462D01*
X7470Y481D01*
X7473Y501D01*
X7474Y522D01*
X7475Y544D01*
Y545D01*
Y545D01*
Y548D01*
Y552D01*
X7474Y558D01*
X7474Y565D01*
X7474Y573D01*
X7473Y582D01*
X7472Y592D01*
X7470Y603D01*
X7469Y614D01*
X7467Y626D01*
X7464Y639D01*
X7461Y651D01*
X7458Y664D01*
X7454Y676D01*
X7449Y688D01*
Y688D01*
X7448Y690D01*
X7447Y692D01*
X7445Y696D01*
X7443Y700D01*
X7440Y704D01*
X7438Y710D01*
X7434Y715D01*
X7430Y721D01*
X7425Y728D01*
X7421Y734D01*
X7415Y740D01*
X7409Y747D01*
X7403Y753D01*
X7396Y760D01*
X7389Y765D01*
X7388Y765D01*
X7387Y766D01*
X7385Y768D01*
X7382Y770D01*
X7378Y772D01*
X7374Y774D01*
X7369Y777D01*
X7363Y780D01*
X7357Y782D01*
X7350Y785D01*
X7343Y787D01*
X7335Y790D01*
X7327Y791D01*
X7319Y793D01*
X7310Y794D01*
X7302Y794D01*
D02*
G37*
G36*
X2120D02*
X2117D01*
X2113Y794D01*
X2108Y793D01*
X2101Y792D01*
X2094Y791D01*
X2085Y789D01*
X2076Y786D01*
X2066Y783D01*
X2056Y779D01*
X2046Y774D01*
X2035Y767D01*
X2025Y760D01*
X2014Y751D01*
X2004Y742D01*
X1995Y730D01*
X1994Y730D01*
X1993Y727D01*
X1990Y724D01*
X1987Y719D01*
X1984Y712D01*
X1979Y703D01*
X1975Y694D01*
X1970Y682D01*
X1966Y669D01*
X1961Y654D01*
X1957Y639D01*
X1954Y621D01*
X1950Y601D01*
X1948Y580D01*
X1946Y558D01*
X1946Y534D01*
Y533D01*
Y532D01*
Y531D01*
Y529D01*
Y526D01*
X1946Y523D01*
Y519D01*
X1947Y515D01*
X1947Y505D01*
X1948Y494D01*
X1950Y482D01*
X1952Y468D01*
X1955Y454D01*
X1958Y440D01*
X1962Y425D01*
X1967Y410D01*
X1973Y396D01*
X1979Y381D01*
X1987Y368D01*
X1996Y355D01*
X1997Y355D01*
X1999Y353D01*
X2001Y350D01*
X2005Y345D01*
X2010Y341D01*
X2016Y335D01*
X2023Y330D01*
X2030Y324D01*
X2039Y318D01*
X2049Y312D01*
X2059Y307D01*
X2070Y302D01*
X2081Y298D01*
X2093Y295D01*
X2106Y293D01*
X2119Y292D01*
X2122D01*
X2126Y293D01*
X2131Y293D01*
X2138Y294D01*
X2145Y295D01*
X2154Y298D01*
X2162Y300D01*
X2172Y304D01*
X2182Y308D01*
X2192Y313D01*
X2203Y319D01*
X2213Y326D01*
X2224Y335D01*
X2234Y345D01*
X2243Y356D01*
X2244Y357D01*
X2246Y359D01*
X2248Y363D01*
X2251Y368D01*
X2255Y375D01*
X2259Y383D01*
X2264Y392D01*
X2269Y404D01*
X2273Y416D01*
X2278Y430D01*
X2282Y446D01*
X2286Y462D01*
X2289Y481D01*
X2292Y501D01*
X2293Y522D01*
X2294Y544D01*
Y545D01*
Y545D01*
Y548D01*
Y552D01*
X2293Y558D01*
X2293Y565D01*
X2292Y573D01*
X2292Y582D01*
X2291Y592D01*
X2289Y603D01*
X2287Y614D01*
X2286Y626D01*
X2283Y639D01*
X2280Y651D01*
X2277Y664D01*
X2272Y676D01*
X2268Y688D01*
Y688D01*
X2267Y690D01*
X2266Y692D01*
X2264Y696D01*
X2262Y700D01*
X2259Y704D01*
X2257Y710D01*
X2253Y715D01*
X2249Y721D01*
X2244Y728D01*
X2240Y734D01*
X2234Y740D01*
X2228Y747D01*
X2222Y753D01*
X2215Y760D01*
X2208Y765D01*
X2207Y765D01*
X2206Y766D01*
X2204Y768D01*
X2201Y770D01*
X2197Y772D01*
X2193Y774D01*
X2188Y777D01*
X2182Y780D01*
X2176Y782D01*
X2169Y785D01*
X2162Y787D01*
X2154Y790D01*
X2146Y791D01*
X2138Y793D01*
X2129Y794D01*
X2120Y794D01*
D02*
G37*
%LPD*%
D19*
X-591Y1045D02*
X-587Y1000D01*
X-587Y1009D02*
X587D01*
X-588Y1019D02*
X588D01*
X-603Y1088D02*
X-591Y1045D01*
X-622Y1128D02*
X-603Y1088D01*
X-589Y1029D02*
X589D01*
X-590Y1039D02*
X590D01*
X-587Y239D02*
X586D01*
X-587Y189D02*
X586D01*
X-587Y199D02*
X586D01*
X-587Y269D02*
X586D01*
X-587Y279D02*
X586D01*
X-587Y249D02*
X586D01*
X-587Y259D02*
X586D01*
X-1109Y1269D02*
X-1074Y1258D01*
X-1038Y1255D02*
X-1035Y1254D01*
X-1074Y1258D02*
X-1038Y1255D01*
X-1192Y1337D02*
X-1169Y1309D01*
X-1209Y1369D02*
X-1192Y1337D01*
X-1141Y1286D02*
X-1109Y1269D01*
X-1169Y1309D02*
X-1141Y1286D01*
X-716Y1221D02*
X-680Y1196D01*
X-757Y1240D02*
X-716Y1221D01*
X-648Y1164D02*
X-622Y1128D01*
X-680Y1196D02*
X-648Y1164D01*
X-1032Y1255D02*
X-844D01*
X-1035Y1254D02*
X-1032Y1255D01*
X-800Y1251D02*
X-757Y1240D01*
X-844Y1255D02*
X-800Y1251D01*
X-618Y1119D02*
X618D01*
X-623Y1129D02*
X623D01*
X-630Y1139D02*
X630D01*
X-637Y1149D02*
X637D01*
X-644Y1159D02*
X645D01*
X-653Y1169D02*
X653D01*
X-663Y1179D02*
X663D01*
X-592Y1049D02*
X592D01*
X-595Y1059D02*
X595D01*
X-598Y1069D02*
X598D01*
X-600Y1079D02*
X601D01*
X-604Y1089D02*
X604D01*
X-608Y1099D02*
X608D01*
X-613Y1109D02*
X613D01*
X-1109Y1269D02*
X1098D01*
X-1128Y1279D02*
X1118D01*
X-1144Y1289D02*
X1135D01*
X-1157Y1299D02*
X1147D01*
X-1169Y1309D02*
X1159D01*
X-1177Y1319D02*
X1167D01*
X-1186Y1329D02*
X1175D01*
X-673Y1189D02*
X673D01*
X-684Y1199D02*
X685D01*
X-699Y1209D02*
X699D01*
X-713Y1219D02*
X714D01*
X-733Y1229D02*
X734D01*
X-755Y1239D02*
X756D01*
X-791Y1249D02*
X792D01*
X-1075Y1259D02*
X1066D01*
X-1224Y1440D02*
X-1220Y1403D01*
X-1209Y1369D01*
X-1220Y1409D02*
X1210D01*
X-1221Y1419D02*
X1211D01*
X-1222Y1429D02*
X1212D01*
X-1223Y1439D02*
X1213D01*
X-1224Y1739D02*
X1213D01*
X-1193Y1339D02*
X1183D01*
X-1199Y1349D02*
X1189D01*
X-1204Y1359D02*
X1194D01*
X-1209Y1369D02*
X1199D01*
X-1212Y1379D02*
X1202D01*
X-1215Y1389D02*
X1205D01*
X-1219Y1399D02*
X1208D01*
X-1224Y1440D02*
Y1869D01*
Y1829D02*
X1213D01*
X-1224Y1839D02*
X1213D01*
X-1224Y1869D02*
X1213D01*
X-1224Y1869D02*
X1213D01*
X-1224Y1849D02*
X1213D01*
X-1224Y1859D02*
X1213D01*
X-1224Y1769D02*
X1213D01*
X-1224Y1779D02*
X1213D01*
X-1224Y1749D02*
X1213D01*
X-1224Y1759D02*
X1213D01*
X-1224Y1809D02*
X1213D01*
X-1224Y1819D02*
X1213D01*
X-1224Y1789D02*
X1213D01*
X-1224Y1799D02*
X1213D01*
X-1224Y1539D02*
X1213D01*
X-1224Y1519D02*
X1213D01*
X-1224Y1529D02*
X1213D01*
X-1224Y1569D02*
X1213D01*
X-1224Y1579D02*
X1213D01*
X-1224Y1549D02*
X1213D01*
X-1224Y1559D02*
X1213D01*
X-1224Y1469D02*
X1213D01*
X-1224Y1449D02*
X1213D01*
X-1224Y1459D02*
X1213D01*
X-1224Y1499D02*
X1213D01*
X-1224Y1509D02*
X1213D01*
X-1224Y1479D02*
X1213D01*
X-1224Y1489D02*
X1213D01*
X-1224Y1689D02*
X1213D01*
X-1224Y1669D02*
X1213D01*
X-1224Y1679D02*
X1213D01*
X-1224Y1719D02*
X1213D01*
X-1224Y1729D02*
X1213D01*
X-1224Y1699D02*
X1213D01*
X-1224Y1709D02*
X1213D01*
X-1224Y1609D02*
X1213D01*
X-1224Y1619D02*
X1213D01*
X-1224Y1589D02*
X1213D01*
X-1224Y1599D02*
X1213D01*
X-1224Y1649D02*
X1213D01*
X-1224Y1659D02*
X1213D01*
X-1224Y1629D02*
X1213D01*
X-1224Y1639D02*
X1213D01*
X-587Y89D02*
X586D01*
X-587Y69D02*
X586D01*
X-587Y79D02*
X586D01*
X-587Y119D02*
X586D01*
X-587Y129D02*
X586D01*
X-587Y99D02*
X586D01*
X-587Y109D02*
X586D01*
X-587Y19D02*
X586D01*
X-587Y5D02*
X586D01*
X-587Y9D02*
X586D01*
X-587Y49D02*
X586D01*
X-587Y59D02*
X586D01*
X-587Y29D02*
X586D01*
X-587Y39D02*
X586D01*
X-587Y159D02*
X586D01*
X-587Y139D02*
X586D01*
X-587Y149D02*
X586D01*
X-587Y209D02*
X586D01*
X-587Y219D02*
X586D01*
X-587Y169D02*
X586D01*
X-587Y179D02*
X586D01*
X-587Y5D02*
Y1000D01*
X586Y5D02*
Y1000D01*
X-587Y229D02*
X586D01*
X-587Y289D02*
X586D01*
X-587Y319D02*
X586D01*
X-587Y329D02*
X586D01*
X-587Y299D02*
X586D01*
X-587Y309D02*
X586D01*
X-587Y429D02*
X586D01*
X-587Y409D02*
X586D01*
X-587Y419D02*
X586D01*
X-587Y459D02*
X586D01*
X-587Y469D02*
X586D01*
X-587Y439D02*
X586D01*
X-587Y449D02*
X586D01*
X-587Y359D02*
X586D01*
X-587Y339D02*
X586D01*
X-587Y349D02*
X586D01*
X-587Y389D02*
X586D01*
X-587Y399D02*
X586D01*
X-587Y369D02*
X586D01*
X-587Y379D02*
X586D01*
X-587Y579D02*
X586D01*
X-587Y559D02*
X586D01*
X-587Y569D02*
X586D01*
X-587Y609D02*
X586D01*
X-587Y619D02*
X586D01*
X-587Y589D02*
X586D01*
X-587Y599D02*
X586D01*
X-587Y499D02*
X586D01*
X-587Y509D02*
X586D01*
X-587Y479D02*
X586D01*
X-587Y489D02*
X586D01*
X-587Y539D02*
X586D01*
X-587Y549D02*
X586D01*
X-587Y519D02*
X586D01*
X-587Y529D02*
X586D01*
X-587Y719D02*
X586D01*
X-587Y699D02*
X586D01*
X-587Y709D02*
X586D01*
X-587Y749D02*
X586D01*
X-587Y759D02*
X586D01*
X-587Y729D02*
X586D01*
X-587Y739D02*
X586D01*
X-587Y649D02*
X586D01*
X-587Y629D02*
X586D01*
X-587Y639D02*
X586D01*
X-587Y679D02*
X586D01*
X-587Y689D02*
X586D01*
X-587Y659D02*
X586D01*
X-587Y669D02*
X586D01*
X-587Y869D02*
X586D01*
X-587Y849D02*
X586D01*
X-587Y859D02*
X586D01*
X-587Y899D02*
X586D01*
X-587Y909D02*
X586D01*
X-587Y879D02*
X586D01*
X-587Y889D02*
X586D01*
X-587Y789D02*
X586D01*
X-587Y799D02*
X586D01*
X-587Y769D02*
X586D01*
X-587Y779D02*
X586D01*
X-587Y829D02*
X586D01*
X-587Y839D02*
X586D01*
X-587Y809D02*
X586D01*
X-587Y819D02*
X586D01*
X-587Y939D02*
X586D01*
X-587Y919D02*
X586D01*
X-587Y929D02*
X586D01*
X-587Y969D02*
X586D01*
X-587Y979D02*
X586D01*
X-587Y949D02*
X586D01*
X-587Y959D02*
X586D01*
X-587Y989D02*
X586D01*
X-587Y999D02*
X586D01*
Y1000D02*
X591Y1045D01*
X603Y1088D01*
X622Y1128D01*
X648Y1164D01*
X680Y1196D01*
X717Y1221D01*
X758Y1240D01*
X801Y1251D01*
X845Y1255D02*
X1029D01*
X801Y1251D02*
X845Y1255D01*
X1029D02*
X1031Y1255D01*
X1032Y1255D02*
X1068Y1259D01*
X1102Y1270D01*
X1133Y1287D01*
X1161Y1311D01*
X1183Y1339D01*
X1200Y1370D01*
X1210Y1405D01*
X1213Y1440D01*
X1213Y1869D02*
X1213Y1440D01*
M02*
