M48
;Layer_Color=9474304
;FILE_FORMAT=2:4
INCH,TZ
;TYPE=PLATED
T1F00S00C0.0118
T2F00S00C0.0630
;TYPE=NON_PLATED
T3F00S00C0.0701
T4F00S00C0.1260
%
T01
X703Y707
X1703
X2703
X3703
X4703
X5703
X6492Y709
X7492
X8492
X9492
X10492
X11492
X12492
X13492
X14492
X15492
X15203Y1707
X14703Y2707
X13703
X12703
X11703
X10703
X10203Y3707
X9203
X8203
X7203
X6203
X5203
X4203
X3203
X2203
X1203
X703Y2707
X1703
X1203Y1707
X2203
X4203
X5203
X6203
X5748Y2207
X5703Y2707
X4703
X3703
Y4707
X4703
X5703
X6703
X7703
X8703
X9703
X10703
X11703
X12703
X13703
X14703
X15703
X15203Y3707
X14203
X13203
X12203
X11203
Y5707
X10203
X9203
X8203
X7203
X6203
X5203
X4203
X3203
X2697Y6029
X2182Y5894
X1697Y6029
X1182Y5894
X697Y6029
X291
Y7570
X697
X1697
X2697
X3697Y7295
Y6305
X4697
Y7295
X5697
Y6305
X6697
Y7295
X7697
X8213Y7591
X8697Y7295
Y6305
X9697
Y7295
X10697
Y6305
X11697
X11703Y6707
X12258Y6706
X12000Y7050
X12697Y6305
X13697
Y7295
X13095Y7401
X14697Y7295
Y6305
X15697
Y7295
X15203Y5707
X13203
X12203
X12000Y1300
X11000
X10000
X9000
X8000
X7000
X6636Y2552
X7492Y2707
X8703
X7697Y6305
X13000Y1300
X14000
X15703Y2707
X16703
X17703
X18703
X19703
X20703
X20203Y3707
X19203
X18203
X17203
X16203
X16703Y4707
X17703
X18703
X19703
X20703
X20203Y5707
X19203
X18203
X17203
X16203
X16697Y6305
Y7295
X17697
Y6305
X18697
Y7295
X19697
Y6305
X20697
Y7295
X21697Y7570
X22697
X23697
Y6029
X23213Y5894
X22697Y6029
X22213Y5894
X21697Y6029
X21203Y5707
X23203Y3707
Y1707
X22203
X21703Y707
X20492Y709
X19492
X18492
X17492
X16492
X16000Y1300
X17000
X18000
X19000
X20000
X21000
X21203Y7707
X20203
X19203
X18203
X17203
X16203
X16703Y8707
X17703
X18703
X19703
X20703
X20203Y9707
X19203
X18203
X17203
X16203
X16703Y10707
X17703
X18703
X19703
X20197Y11710
X19203Y11707
X18203
X17203
X16060Y11706
X16703Y12707
X17703
X18703
X19703
X20676Y12706
X21703Y12707
X22676Y12706
X23700Y13050
X23650Y11800
Y10600
X23203Y9707
X22203
X21203
X21703Y10707
X22176Y11706
X21203Y11707
Y13707
X20203
X19203
X18203
X17203
X16703Y14707
X16639Y15315
X17639
X17703Y14707
X18703
X18639Y15315
X19639
X19703Y14707
X20703
X20639Y15315
X21639Y15039
X22154Y14904
X22639Y15039
X22703Y14707
X23154Y14904
X23639Y15039
X23697Y16555
X23197Y16551
X22703Y16707
X22197Y16551
X21703Y16707
X21197Y16551
X20703Y16707
X20197Y16295
X19703Y16707
X19197Y16295
X18703Y16707
X18197Y16295
X17703Y16707
X17197Y16295
X16703Y16707
X17203Y17707
X18203
X19203
X20203
X19703Y18707
X18703
X18500Y19500
X17500
X17703Y18707
X18000Y20300
X17000
X16000
X16500Y19500
Y21300
X17500
X18500
X19500
X20500
X21000Y20300
X20000
X19000
X20500Y19400
X20703Y18707
X21703
X22703
X22203Y19707
X23203
X21703Y20707
X22203Y7707
X23203
X15203
X14639Y7705
X13826
X12945
X13088Y8083
Y8733
Y9002
Y9272
X13019Y9609
X12720Y10100
X12217Y10583
X11783
Y11017
X12217
X12700Y11500
X13030Y11910
X13027Y12327
X12550Y12250
X12703Y12707
X12607Y13555
X13203Y13707
X14203
X13703Y14707
X13639Y15315
X12797Y15215
X12703Y14707
X11659Y14705
X10703Y14707
X11050Y14250
X11203Y13707
X11657Y13555
X11627Y12555
X11170Y12830
X10186Y12769
X9801Y12707
X8703
X7703
X6703
X5703
X4703
X3703
X2703
X1703
X703
X1203Y13707
X2203
X3203
X4203
X5203
X6203
X7203
X8203
X9406Y13704
X9703Y14707
X8703
X7703
X6703
X5703
X4703
X3703
X2703
X1703
X703
X1203Y17707
X2203
X3203
X4203
X5203
X6203
X7203
X8203
X9396
X9858Y18517
X8900Y19500
X9400Y20300
X8400
X7400
X6400Y20300
X5400Y20300
X4400
X3400
X2900Y21300
X3900
X4900
X5900
X6900
X7900
X8900
X9900
X10900
X11900
X13200
X14500
X15500
X15000Y20300
X14000
X13203Y19707
X12400Y20300
X11400
X10400
X11900Y19400
X11703Y18707
X12703
X13703
X14703
X15703
X15203Y17707
X14203
X13203
X12203
X11203
X10703Y16707
X9703
X8703
X7703
X6703
X5703
X4703
X3703
X3203Y15707
X4203
X5203
X6203
X7203
X8203
X9396
X11203
X12197Y15995
X11713Y16707
X12703
X13703
X14197Y16295
X14703Y16707
X15197Y16295
X15703Y16707
X15580Y15315
X15713Y14706
X14703Y14707
X14639Y15315
X13703Y12707
X13740Y12040
Y11706
X14203Y11707
X14207Y10902
X14197Y10366
X14703Y10707
X15454Y10706
X15203Y11707
X15703Y12707
X13357Y12040
X13700Y11250
X13350Y10900
X13826Y9484
X14713
X15005Y9865
X14703Y8707
X13703
X12000Y8650
Y8291
Y7800
X11040Y7705
X10906Y8083
Y8733
Y9002
Y9272
X11043Y9698
X11270Y10100
X10755Y10416
X10410Y11186
X9703Y10707
X8703
X7703
X6703
X5703
X4703
X3703
X2703
X1703
X703
X1203Y9707
X2203
X3203
X4203
X5203
X6203
X7203
X8203
X9203
X10203
X9703Y8707
X8703
X7703
X6703
X5703
X4703
X3703
X3203Y7707
X2203
X1203
X4203
X5203
X6203
X7203
X9203
X10203
X12000Y9009
Y9371
X11203Y11707
X10900Y12040
X9203Y11707
X8203
X7203
X6203
X5203
X4203
X3203
X2203
X1703Y18707
X703
Y20707
X2703Y18707
X3703
X4703
X5703
X5900Y19500
X6900
X6703Y18707
X7703
X15703Y8707
T02
X900Y5125
X2211
X21788
X23099
Y8475
X21788
X21795Y14125
X23106
Y17475
X21795
X2211Y8475
X900
T03
X2836Y1707
Y2707
T04
X22000Y3300
X2000Y20300
M30
