M48
;Layer_Color=9474304
;FILE_FORMAT=2:4
INCH,TZ
;TYPE=PLATED
T3F00S00C0.0098
T4F00S00C0.0118
T5F00S00C0.0120
T7F00S00C0.0354
T8F00S00C0.0394
;TYPE=NON_PLATED
T9F00S00C0.0390
T10F00S00C0.0701
T11F00S00C0.1260
%
T03
X2697Y255
X3697
X3198Y1255
X3697Y2255
X2697Y4255
X1698
Y6255
X2198Y7255
X1198
X1698Y8255
X2697
X3198Y9255
X2198
X1198
X698Y8255
Y2255
X6697
X6198Y1255
X10197
X11697Y4255
X12198Y5255
X9197
X11697Y8255
X12697
X17697
X19698
Y4255
X17697
X16697
X15697
X19197Y1255
X6198Y9255
X20698Y8255
Y4255
X21697
X22698
X23698
X24197Y5255
X25698Y6255
X27698
X28698
X29697
X30698
Y8255
X29197Y5255
X30698Y2255
X30198Y1255
X28198
X27197
X26198
X25698Y2255
X27698
X33198Y1255
X34197Y3255
X34697Y6255
X37698Y4255
X38698
X39197Y3255
X40198
X41198
X42197
X43197
X44198
X45198
X46198
X47197
X49198
X50198
X50697Y4255
X49697
X50198Y5255
X50697Y6255
X49697
X50198Y7255
X50697Y8255
X46198Y9255
Y7255
X45198
X44198
Y5255
X45198
X46198
X47197
X45697Y6255
Y4255
Y2255
X46198Y1255
X45198
X44697Y255
X43698
X42698
X40697
X39697
X39197Y1255
X38198
X41198
X41698Y2255
Y4255
X43197Y5255
X42698Y8255
X41698
X39697
X40198Y7255
X39197
X48698Y2255
X49198Y1255
X50198
X50697Y2255
X48197Y1255
X46698Y255
X51698Y4255
X52197Y5255
X51198
X51698Y6255
X52197Y7255
X51198
X51698Y8255
X52197Y9255
X51198
X51698Y10255
X51198Y11255
X51698Y12255
X51198Y13255
X52197Y15255
X51198Y17255
X51698Y18255
X52197Y19255
X51198
X51698Y20255
X51198Y21255
X50198
X49198
Y23255
X50198
X49697Y24255
X48698
X47698
X46698
X45697
X44697
X43698
X42698
X43197Y23255
X44198
X45198
X46198
X46698Y22255
X45697
X44697
X45198Y21255
X42698Y22255
X41698
X40697
X41198Y23255
X39197
X38198
X38698Y24255
X37698
X36697
Y22255
X37698
X38698
X41698Y18255
X43698
X43197Y17255
X46698Y18255
X47698
X49697
Y12255
Y10255
X48197Y23255
X35198
X34697Y24255
X31697Y18255
X30698
X28698
X27698
X26697
X27197Y17255
X28198
X27698Y16255
X26198Y17255
Y21255
X25698Y22255
X26198Y23255
X25698Y24255
X23698Y14255
Y12255
Y10255
X25698
X26697
X27197Y11255
X29197
X30198
X30698Y10255
X29697
X25198Y11255
X22197Y13255
X20198
X20698Y14255
Y12255
X19698
X18698
X17697
X17126Y12215
Y12470
Y12795
Y11949
X17048Y13604
X16738Y13662
X15773Y13534
X15261Y13987
X15246Y14242
X15038Y14911
X14822Y15054
X14593Y14919
X14210Y14775
X14162Y15895
X13583Y15886
X14723Y15965
X14405Y13514
X13470Y13908
X13165Y13018
X13057Y12402
X13401Y12530
X13165Y11946
X12901Y11941
X13185Y11270
X13002Y11024
X13929Y10057
X13990Y9782
X14724Y9783
Y10039
X15197Y10030
Y9774
X15807Y9990
X16328Y10792
X18197Y13255
X19197
X19698Y14255
X18698
X17697
X18197Y15255
X19197
Y19255
X18197
X17198Y21255
Y23255
X6198
X5197
X5698Y24255
X6697
X4697
Y18255
Y14255
X5698
X6697
Y12255
X5698
X4198Y13255
X11697Y14255
X698
X1198Y15255
X1698Y16255
X698
X1198Y17255
X1698Y18255
X2697
X3697
X3198Y19255
X2198
X1198
X1698Y20255
X698
X1198Y21255
X2198
X3697Y24255
X698Y18255
X1698Y10255
X2697
X3697
T04
X698Y285
X728Y1035
X1648
X1696Y1470
X2176Y1660
X2446Y2050
X2566Y2480
X2478Y3193
X1686Y3170
X1410Y4790
X1420Y5250
X2050Y5630
X3290Y6040
X3370Y4990
X3767Y8122
X490Y6500
X1192Y1720
X1722Y315
X2636Y1130
X4010Y1290
X4330Y2140
X4697Y285
X5698
X6697
X6950Y880
X7697Y285
X8698
X9697
X10500Y500
Y1500
X10430Y2740
X11000Y3000
X12000
X11510Y2500
X12500
X13000Y3000
X14000
X15000
X15490Y2510
X16460Y2480
X17460Y2460
X18000Y3000
X17520Y3490
X16470Y3520
X15530Y3530
X15330Y5164
X14760Y5100
X14440Y4684
X14140Y5500
X14695Y6339
X16000Y6100
X17392Y6093
X18701
X18770Y7470
X19567Y6900
X17067Y7165
X17052Y7633
X15945Y7707
X13740Y7130
X12430Y7360
X12060Y7370
X12159Y6855
X12268Y6296
X11690Y5900
X11388Y4557
X11510Y3930
X12490Y3910
X12500Y4710
X10430Y4580
X9230Y4890
X8318Y5428
X6970Y5374
X7070Y5070
X6240Y5390
X5340Y5490
X5170Y5840
X5404Y6161
X6360Y6690
X7040Y6640
X8010Y7440
X8320Y7430
X9252Y7352
X9570Y6970
X8850Y6710
X8320Y8480
X8000Y8500
X7490Y7960
X7450Y9010
X6348Y8937
X5460Y8880
X5876Y8189
X5920Y7410
X5870Y4480
X4272Y4843
X4260Y5800
X7220Y3310
X7430Y2770
X7020Y2460
X8340Y3310
X9140Y3350
X8002Y3927
X8120Y1350
X9690Y2160
X9700Y8680
X11000Y7780
X11100Y7440
X11600Y7620
X12150Y8420
X12736Y8632
X16500Y4500
X18500
X19050Y4470
Y2570
X19470Y2240
X18698Y285
X20500Y2000
X21440
X22480
X23480
X24510
X25000Y3000
X24000
X23000
X22000
X21000
X20000
X20510Y3870
X20485Y4500
X21530Y4690
X22470Y4610
X23480Y4530
X24550Y4390
X24800Y5800
X24780Y7360
X24190Y6870
X23540Y7180
X23560Y7480
X23900Y8100
X24170Y7840
X22594Y7710
X22380Y7260
X21811Y7008
X21970Y5980
X23120Y6050
X23040Y6740
X22710Y6690
X23041Y8661
X25400Y9200
X28210Y8970
X28073Y8243
X27756Y8297
X27480Y8031
X27770Y7340
X28090Y6510
X28520Y6500
X28840Y5790
X29870Y5800
X31240Y5610
X30880Y5130
X31910Y5210
X32342Y5557
X33250Y5880
X33355Y5317
X33100Y5020
X32874Y3947
X34371Y3919
X33800Y3150
X33440Y2320
X32750Y2340
X32320Y1780
X32698Y835
X33698
X33568Y1515
X34700Y890
X34646Y2801
X34620Y5539
X34960Y5470
X34900Y5900
X34128Y5529
X35310Y6700
X35170Y8450
X34980Y8890
X34310Y9090
X34430Y9370
X33420Y8690
X33090Y8850
X33000Y8210
X33040Y7600
X33640Y7660
X32430Y7760
X32210Y8400
X31060Y8560
X31050Y8200
X31210Y7600
X30890Y7570
X29900Y7680
X30030Y8980
X30580Y8960
X31380Y9100
X32020Y7090
X32690Y7050
X31750Y6480
X31440Y6370
X31110Y6590
X30150Y3970
X30720Y3200
X31930Y3180
X29390Y3060
X28698Y3255
X27880Y2870
X27250Y4820
X27880Y5490
X27590Y5880
X27000Y6350
X26460Y6940
X28527Y8227
X28698Y285
X29697
X30698
X31697
X27590Y290
X26697Y285
X25698
X20670Y5840
X36476Y5059
X37190Y4760
X37450Y5150
X37900Y5800
X38900Y5850
X39200Y5950
Y6700
X39190Y5170
X40030Y3940
X39330Y2330
X38698Y285
X37850Y840
X37510
X37170
X36500Y850
X35700Y890
X35838Y3022
X36148Y3503
X36466Y3830
X37270Y3980
X37153Y7470
X37373Y7680
X36610Y7700
X36240Y7790
Y8100
X36610Y8840
X35580Y8700
X37340Y9360
X37800Y9080
X38100Y9060
X38380Y9180
X41120Y7560
X41340Y7770
X41460Y7250
X42120Y8450
X44640Y7920
X46670Y7960
X46555Y9065
X46772Y9291
X46998Y9075
X47299Y8865
X48340Y8490
X48450Y7820
X48410Y6700
X48430Y5450
X49660Y5540
X49670Y6750
X50030Y8150
X49870Y8490
X50620Y8996
X47370Y7140
X43690Y6780
X42923Y5709
X41698Y285
X45697
X47698
X48608Y305
X49501Y285
X50098Y866
X50630Y1427
X51013Y1988
X50200Y2920
X49490Y3250
Y2270
X48320Y3970
X51161Y3750
X51791Y2628
X52333Y3140
X52884Y3661
X53282Y4250
X53380Y5250
Y6250
Y7250
Y8250
Y9250
X52244Y8984
Y7984
Y6984
Y5984
Y4984
Y9984
Y11250
Y11984
Y12984
Y13484
Y13886
X51975Y13884
X51706Y13886
X51280Y14024
X51606Y14980
X51969
X52327
X52686
X53177
X53065Y14526
X53380Y14250
Y13250
Y12250
Y11250
Y10250
Y15417
X53065Y15447
X53380Y16417
Y17250
Y18152
Y19250
Y20250
Y20827
X52888Y21250
X52244Y21984
X51112Y21624
X51659Y21033
X52244Y19984
Y18984
Y18171
X52215Y17510
X52244Y16984
Y16484
X52244Y16068
X51975
X51706
X51348Y15871
X51122Y16575
X51142Y16890
X50955Y17707
Y18707
Y19707
X50030Y18878
Y17136
X50039Y16319
X49274Y16359
X49273Y16663
X48927Y16782
X48931Y15918
X48903Y15597
X49326Y15910
X48221Y15837
X47906Y15608
X47826Y16011
X47985Y16349
X48066Y17034
X47289Y16651
X46541Y16306
X46029Y16956
X46127Y17763
X45608Y17714
X46660Y17860
X47040Y18426
X47343Y18425
X46100Y18600
X45098Y19213
X44210Y18160
X44400Y17520
X44149Y16429
X44625Y16383
X44631Y15519
X45104
X45576
X46049
Y15046
X45576
X45104
X44631
Y14574
X45104
X45576
X46049
Y14101
X45576
X45104
X44631
X44510Y12640
X45470Y12290
X45750Y12520
X45840Y12130
X46060Y11760
X46340Y11640
X47540Y11690
Y11270
Y10850
Y10430
X47760Y10220
Y10640
Y11060
Y11480
Y11900
Y12320
X47540Y12110
X47130Y12570
Y12940
X47830Y13570
X48150Y13340
X48165Y14013
X47909Y14741
X48873Y14715
X49272Y14400
X49518Y14193
X49793Y13898
X50049Y13661
X50571Y13819
X50877Y14250
X50394Y14764
Y15197
X49961
Y14764
X50877Y15700
X50856Y12744
Y11744
Y10744
Y9744
X49705Y9685
X48808Y10020
X48583Y10430
X48278Y10220
X48487Y9636
X47254Y9685
X46511Y9857
X45950Y9742
X43381Y12301
X42919Y12251
X42407
X42690Y12910
X42394Y13487
X42013Y13127
X41950Y12740
X41289Y12825
X40709Y12274
X40770Y11930
X40550Y11710
X40660Y11430
X40272Y11350
X39690Y11710
X39410Y11830
X39320Y11360
X39020Y11350
X37880
X38040Y12510
X36450Y12280
X35787Y12500
X35780Y12000
X35781Y10209
X36140Y10210
X36190Y9480
X37580Y9550
X37860Y9680
X37827Y9380
X37350Y9970
X39760Y12080
X39530Y13590
Y14010
Y14430
Y14850
X39310Y15060
X39430Y15340
X39310Y14640
Y14220
Y13800
Y13380
X40190Y13970
X41530Y14940
Y15330
X41486Y16230
X42413Y16261
X42554Y15947
X42781Y15204
X42334Y14607
X43165Y16621
X43218Y17894
X40750Y18103
Y18403
X40590Y18663
X40310Y18783
X40030Y18903
X39250Y18620
X39310Y18270
X38160Y18510
X36570Y18500
X36340Y17500
X36190Y16510
X37234Y16506
X35900Y15510
X35522Y14656
X37890Y14500
X39400Y20079
X40561Y20463
X40768Y20758
X40650Y21102
X40600Y21600
X39620Y21800
X38640Y21440
X38340Y21490
X37270Y21700
X36300Y23430
X35698Y24255
X39697
X41560Y24050
X42130Y23130
X42057Y21988
X42600Y21850
X42579Y21250
X42900Y20920
X43150Y20550
X43950Y20850
X43860Y22260
X43710Y23230
X42920Y22620
X41250Y22700
X41590Y21400
X41770Y20590
X42070Y20600
X40994Y20384
Y20076
X44858Y21760
X45410Y21430
X46929Y21467
X47348Y21757
X47610Y22160
X48550Y22300
X48396Y21614
X48307Y21063
Y20497
Y19931
X47368Y20140
X46240Y20659
X49697Y22405
X51013Y23012
X50207Y23937
X49587Y24705
X49754Y11909
Y11565
X35400Y11710
X35270Y12010
X35150Y11050
X35030Y10770
X34910Y10490
X34790Y10210
X34670Y9930
X34550Y9650
X33650Y11060
X33240Y11100
X32810Y10900
X32250Y10900
X31600Y10960
X31030Y11780
X31043Y12746
X30000Y12780
X29100Y12560
X29080Y11680
X27950Y11590
X28040Y10630
X28200Y10300
X28950Y10190
X31100Y9920
X32030Y12580
X32490Y12560
X32990Y12580
X33090Y14340
X33020Y15770
X32520
X31490Y15750
X31330Y16790
X30910Y17720
X31970Y17580
X32910Y17480
X33720Y17303
X33799Y16033
X34220Y13870
X31000Y14240
X29490Y14120
X29050
X27980Y14190
X28190Y14410
X28400Y14630
X28610Y14850
X28340Y15910
X28750Y16500
X30170Y15800
X30040Y18600
X28910
X27250Y18560
X27790Y17700
X25630Y19000
X25230
X24830
X24459Y18287
X23494Y18258
X22810Y18050
X22835Y17116
Y16260
X22869Y15622
X22234Y15089
X21083Y15108
X20846Y17726
X20106Y17851
X22030Y18644
X22500Y21000
X23500
X24500
X24000Y22000
X23000
X22000
X21000
X20000
X20500Y23000
X21500
X22500
X23500
X24500
X25000Y22000
X27000Y22000
X27500Y21750
X28000Y22000
X29000
X30000
X31000
X31500Y21750
X32000Y22000
X33000
X34000
X34400Y21380
X34850Y20820
X33860Y20090
X32520Y21204
X32500Y23000
X31500
X30500
X29500
X28500
X27500
X28500Y21250
X29500
X30500
X32648Y18435
X35290Y18450
X34500Y22750
X21500Y21000
X20500
X24085Y16998
X24380Y17293
X24449Y16693
X24350Y16080
X24050Y15866
X24250Y14500
X24800Y14470
Y13470
X24270Y13490
X24677Y12404
X24250Y11450
X23890Y10440
X24304Y10116
X24516Y9904
X24728Y9692
X24941Y9479
X25767Y10603
X25990Y11500
X27020Y11050
X26990Y12394
X27920Y12670
X27910Y13480
X26662Y13502
X26110Y13450
X26677Y14634
X22240Y12540
X22224Y11919
X21841Y9717
X21024
X20167
X19252
X18386
X17431
X17480Y10866
X17079Y10837
X16648Y11782
X16655Y12975
X16053Y14094
X15659Y14085
X14050Y14108
X13740Y14577
X13168Y14772
X12728
X12308Y14297
X11427Y14321
X11440Y14680
X11968Y15827
X10512Y16388
X9680Y16720
X8990Y16140
X7840Y16290
X7880Y17160
X7400Y18000
X7010Y17810
X6400Y18730
X5730Y18420
X5680Y16340
X6160
X6660Y16360
X7180Y15890
X7340Y15200
X7750Y15170
X7140Y14630
X6310Y14550
X4500Y14500
X5250Y15470
X6300Y12360
X6340Y11790
X5965Y11683
X6299Y9705
X7087Y9400
X7960Y9460
X8850Y9490
X10200Y9410
X10340Y10310
X10480Y10760
X9960Y10750
X10315Y11695
X10650Y11650
X11140Y11737
X11390Y11180
X11570Y10750
X12190Y10480
X12180Y9520
X13022Y9928
X13145Y10410
X13512Y10217
X12742Y12599
X12308Y12615
X12588Y13062
X11650Y12400
X10741Y12291
X10220Y12230
X9800Y12140
X9360
X8240Y12180
X8350Y11750
X8460Y10980
X7343Y12648
X8940Y14760
X8950Y17440
X9400Y18000
X9900
X10400
X10900
X11400
X11910
X12400Y18000
X12900Y18000
X13400
X13890Y17951
X14400Y18000
X15400
X16400
X16920Y17951
X17400Y18000
X17900Y17951
X18400Y18000
X18888Y17951
X19400Y18000
X18860Y18996
X17880
X16700Y19680
X16800Y21200
X17500
X18000Y22000
X19000
X18500Y21500
Y23000
X19500
Y21000
X15900
X14900
X13900
X12900
X11900
X10900
X9900
X8900
X7900
X7340Y20790
X6726Y20752
X6430Y20910
X5760Y20780
X4420Y21800
X4460Y22290
X4570Y23540
X6910Y23000
X7900
X8900
X9900
X10900
X11900Y23000
X12900Y23000
X13900
X14900
X15900
X15400Y22000
X14400
X13400
X12400
X11400
X10400Y22004
X9400Y22000
X8400
X7400
X7870Y20120
X7900Y18500
X8400Y18000
X8880Y18720
X9908Y18957
X10908
X11918
X12908
X13898
X15400Y16821
X16890Y16847
X17215Y14970
X17785Y15089
X17210Y22760
X16400Y22000
X17210Y24580
X4216Y11080
X4311Y9744
X3270Y10255
X3632Y11073
X2970Y11360
X3140Y11682
X2746
X1660Y11844
Y12754
X1400Y14320
X410Y14760
X570Y15430
X1000Y16020
X500Y16500
X2320Y17350
X3570Y16450
X3370Y15434
X3060Y15190
X3210Y14500
X3090Y13554
X3700Y13504
X4193Y11831
X1590Y10630
X1380Y22140
Y22640
Y23140
X1520Y23670
X1380Y24140
X350Y24720
X2550Y24710
X3880Y24570
X3650Y23600
X2940Y23240
X2972Y22648
X3010Y21750
X3260Y21150
X3560Y20880
X3780Y22450
T05
X8957Y8435
X45374Y9528
X41750Y16750
X42000Y17000
X41750Y17250
X42000Y17500
X41750Y17750
X42000Y18000
X15724Y12530
Y12058
Y11585
Y11113
X15199
Y11585
Y12058
Y12530
X14674
Y12058
Y11585
Y11113
X14149
Y11585
Y12058
Y12530
T07
X3220Y4490
Y5490
X11000Y1500
Y500
X12000
Y1500
X13000
X14000
Y500
X13000
X15000
X16000
X17000
Y1500
X16000
X15000
X18000
Y500
X12000Y9000
X20000Y1500
X21000
X22000
Y500
X21000
X20000
X23000
X24000
Y1500
X23000
X25000
Y500
X50167Y19584
Y20584
X34000Y23500
X33000
X32000
Y24500
X33000
X34000
X31000
X30000
Y23500
X31000
X29000
Y24500
X28000
X27000
Y23500
X28000
X25000
X24000
X23000
Y24500
X24000
X25000
X22000
X21000
Y23500
X22000
X20000
Y24500
X19000
X18000
Y23500
X19000
X16400
X15400
X14400
Y24500
X15400
X16400
X13400
X12400
Y23500
X13400
X11400
Y24500
X10400
X9400
Y23500
X10400
X8400
Y24500
X7400
Y23500
X12000Y11000
Y10000
T08
X26750Y2250
X49250Y24000
T09
X23500Y15500
X23900Y18500
X23100
T10
X2880Y7590
Y16929
Y20157
T11
X5500Y3000
X26000Y5000
X38000Y3000
X35500Y22000
X26000Y16000
X6000Y22000
M30
