M48
;Layer_Color=9474304
;FILE_FORMAT=2:4
INCH,TZ
;TYPE=PLATED
T1F00S00C0.0039
T2F00S00C0.0059
;TYPE=NON_PLATED
%
T01
X15330Y10719
X15488
X15645
X15803
X15960
X15488Y12924
X15330
X15173Y12924
X15015Y12924
X14858
T02
X3920Y4400
X3996Y6301
X4600Y5158
X4860Y5240
X5080Y5480
X6054Y4959
X7940Y4940
X7760Y6180
X7350Y6170
X8281Y6211
X9810
X10840Y6220
X11312Y6402
X10480Y5750
X10496Y5494
X10470Y5070
X9860Y4840
X9660Y4460
X9906Y4004
X9860Y3340
X9394Y3416
X9400Y1820
X9183Y1530
X7550Y1510
X4391Y4408
X4620Y7610
X8970Y7250
X9640Y7396
X10200Y7810
X10389Y7119
X12820Y5860
X13730Y6350
X15540Y8607
X15965Y8937
X20339Y6139
X20561Y6348
X20510Y3400
X25640Y3620
X26980Y3860
X30080Y4600
X29870Y6720
X29290Y7737
X28944Y7816
X31270Y7080
X32170Y6890
X32100Y7720
X32890Y7240
X33220Y4627
X34000Y4100
X33410Y3360
X33820Y9340
X25344Y8563
X24893Y8564
X25532Y7808
X36550Y8400
X36220Y9080
X36730Y9350
X37740Y8300
X38730Y9272
X38562Y10526
X37500Y11210
X36850Y9530
X35620Y9550
X35792Y9772
X35560Y10730
X44144Y10020
X44300Y12060
X43840Y12090
X45240Y13050
X45130Y13220
X45242Y13530
X45143Y13727
X44946
X45340Y13727
X45537
X45734Y13727
X45931
X46127
X46423Y14023
Y14219
Y14416
X46423Y14613
X45931Y15893
X45734
X45537
X45340
X45143
X44946
X44257Y15204
Y15007
Y14810
Y14613
Y14416
X46029Y16280
X45070Y18240
X45190Y18420
X45390Y18780
X44508Y18730
X44250Y18450
X39587Y18435
X40709Y15561
X40430Y15200
X46063Y11388
X47170Y11190
X49055Y19657
X48895Y20217
X48730Y20777
X48557Y21337
X32414Y19046
X32273Y19187
X32131Y19329
X31989Y19471
X31848Y19612
X31706Y19754
X31564Y19896
X32556Y18904
X32698Y18762
X29500Y15720
X28990
X28480Y14110
X30030Y14290
X22868Y14744
X22817Y11580
X22659Y11421
X22500Y11250
X24940Y10630
X21959Y18102
X21811Y18266
X21663Y18431
X21515Y18595
X21366Y18760
X15217Y15236
X15038Y14403
X14818
X14598
X14378
X13593Y15020
X16265Y13514
X16655Y12588
X16246Y11587
X16362Y11428
X16246Y11269
X16456Y10453
X16456Y10217
X16456Y9980
Y9743
X16062Y9490
X15551Y9518
X17106Y11083
X11834Y12222
X9530Y12470
X8760Y12480
X7930Y11650
X9140Y10950
X9000Y9950
X9840Y10040
X6526Y10394
X6033
X5950Y15140
X6180Y19520
X7020Y18740
X8770Y20300
X9710Y20340
X10940Y20470
X12680Y20540
X13580Y20650
X4160Y23650
X1640Y22000
X270Y10860
M30
