G04*
G04 #@! TF.GenerationSoftware,Altium Limited,Altium Designer,22.6.1 (34)*
G04*
G04 Layer_Color=8388736*
%FSLAX24Y24*%
%MOIN*%
G70*
G04*
G04 #@! TF.SameCoordinates,198B4140-4809-47D1-8AA6-A140D55DAB78*
G04*
G04*
G04 #@! TF.FilePolarity,Negative*
G04*
G01*
G75*
%ADD129C,0.0240*%
%ADD130R,0.0178X0.0166*%
%ADD131R,0.0360X0.0380*%
%ADD132R,0.1143X0.0611*%
%ADD133C,0.0124*%
%ADD134C,0.0651*%
%ADD135C,0.0454*%
%ADD136R,0.0256X0.0276*%
%ADD137R,0.0276X0.0256*%
%ADD138R,0.0166X0.0178*%
%ADD139R,0.0453X0.0323*%
%ADD140R,0.0157X0.0177*%
%ADD141R,0.0257X0.0296*%
%ADD142R,0.0157X0.0146*%
%ADD143R,0.0454X0.1399*%
%ADD144R,0.0454X0.0690*%
%ADD145C,0.0128*%
%ADD146R,0.2165X0.2008*%
%ADD147C,0.0197*%
%ADD148R,0.0327X0.0209*%
%ADD149R,0.0138X0.0197*%
%ADD150R,0.0296X0.0257*%
%ADD151R,0.0375X0.0355*%
%ADD152R,0.0395X0.0434*%
%ADD153C,0.0139*%
%ADD154R,0.0769X0.0414*%
%ADD155R,0.0157X0.0236*%
%ADD156R,0.0197X0.0236*%
%ADD157R,0.0355X0.0375*%
G04:AMPARAMS|DCode=158|XSize=17.8mil|YSize=16.6mil|CornerRadius=5.7mil|HoleSize=0mil|Usage=FLASHONLY|Rotation=90.000|XOffset=0mil|YOffset=0mil|HoleType=Round|Shape=RoundedRectangle|*
%AMROUNDEDRECTD158*
21,1,0.0178,0.0053,0,0,90.0*
21,1,0.0065,0.0166,0,0,90.0*
1,1,0.0113,0.0027,0.0032*
1,1,0.0113,0.0027,-0.0032*
1,1,0.0113,-0.0027,-0.0032*
1,1,0.0113,-0.0027,0.0032*
%
%ADD158ROUNDEDRECTD158*%
%ADD159R,0.0257X0.0198*%
%ADD160R,0.0454X0.0296*%
%ADD161R,0.0454X0.0651*%
%ADD162R,0.0414X0.0769*%
%ADD163R,0.0237X0.0158*%
%ADD164R,0.0237X0.0198*%
%ADD165R,0.0493X0.0611*%
%ADD166R,0.0205X0.0146*%
%ADD167C,0.0130*%
%ADD168R,0.0560X0.0360*%
%ADD169R,0.1060X0.1111*%
%ADD170O,0.0611X0.0217*%
%ADD171O,0.0118X0.0287*%
%ADD172O,0.0287X0.0118*%
%ADD173R,0.0277X0.0296*%
%ADD174R,0.1312X0.0560*%
%ADD175R,0.0296X0.1084*%
%ADD176R,0.0157X0.0354*%
%ADD177R,0.0316X0.0257*%
%ADD178R,0.0395X0.0296*%
%ADD179R,0.0395X0.0454*%
%ADD180R,0.0532X0.0690*%
%ADD181R,0.0359X0.1005*%
%ADD182R,0.1560X0.0560*%
%ADD183R,0.0462X0.0922*%
%ADD184R,0.0296X0.0395*%
%ADD185R,0.0454X0.0395*%
%ADD186R,0.0592X0.0217*%
%ADD187R,0.0670X0.0808*%
%ADD188R,0.0611X0.0690*%
%ADD189C,0.0787*%
%ADD190C,0.0370*%
%ADD191R,0.0769X0.0532*%
%ADD192R,0.0670X0.0296*%
%ADD193R,0.0217X0.0336*%
%ADD194R,0.0198X0.0414*%
%ADD195R,0.0454X0.0769*%
%ADD196C,0.0148*%
%ADD197R,0.1949X0.1949*%
%ADD198R,0.0434X0.0395*%
%ADD199R,0.1123X0.0375*%
%ADD200R,0.0611X0.0296*%
%ADD201R,0.0729X0.0296*%
%ADD202R,0.0158X0.0202*%
%ADD203R,0.1103X0.1103*%
%ADD204O,0.0178X0.0375*%
%ADD205O,0.0375X0.0178*%
%ADD206R,0.0355X0.0375*%
%ADD207R,0.0257X0.0288*%
G04:AMPARAMS|DCode=208|XSize=78.8mil|YSize=37.5mil|CornerRadius=0mil|HoleSize=0mil|Usage=FLASHONLY|Rotation=135.000|XOffset=0mil|YOffset=0mil|HoleType=Round|Shape=Rectangle|*
%AMROTATEDRECTD208*
4,1,4,0.0411,-0.0146,0.0146,-0.0411,-0.0411,0.0146,-0.0146,0.0411,0.0411,-0.0146,0.0*
%
%ADD208ROTATEDRECTD208*%

G04:AMPARAMS|DCode=209|XSize=15.7mil|YSize=14.6mil|CornerRadius=4.6mil|HoleSize=0mil|Usage=FLASHONLY|Rotation=180.000|XOffset=0mil|YOffset=0mil|HoleType=Round|Shape=RoundedRectangle|*
%AMROUNDEDRECTD209*
21,1,0.0157,0.0053,0,0,180.0*
21,1,0.0065,0.0146,0,0,180.0*
1,1,0.0093,-0.0032,0.0027*
1,1,0.0093,0.0032,0.0027*
1,1,0.0093,0.0032,-0.0027*
1,1,0.0093,-0.0032,-0.0027*
%
%ADD209ROUNDEDRECTD209*%
G04:AMPARAMS|DCode=210|XSize=15.7mil|YSize=14.6mil|CornerRadius=4.6mil|HoleSize=0mil|Usage=FLASHONLY|Rotation=225.000|XOffset=0mil|YOffset=0mil|HoleType=Round|Shape=RoundedRectangle|*
%AMROUNDEDRECTD210*
21,1,0.0157,0.0053,0,0,225.0*
21,1,0.0065,0.0146,0,0,225.0*
1,1,0.0093,-0.0042,-0.0004*
1,1,0.0093,0.0004,0.0042*
1,1,0.0093,0.0042,0.0004*
1,1,0.0093,-0.0004,-0.0042*
%
%ADD210ROUNDEDRECTD210*%
G04:AMPARAMS|DCode=211|XSize=17.8mil|YSize=16.6mil|CornerRadius=5.7mil|HoleSize=0mil|Usage=FLASHONLY|Rotation=45.000|XOffset=0mil|YOffset=0mil|HoleType=Round|Shape=RoundedRectangle|*
%AMROUNDEDRECTD211*
21,1,0.0178,0.0053,0,0,45.0*
21,1,0.0065,0.0166,0,0,45.0*
1,1,0.0113,0.0042,0.0004*
1,1,0.0113,-0.0004,-0.0042*
1,1,0.0113,-0.0042,-0.0004*
1,1,0.0113,0.0004,0.0042*
%
%ADD211ROUNDEDRECTD211*%
G04:AMPARAMS|DCode=212|XSize=17.8mil|YSize=16.6mil|CornerRadius=5.7mil|HoleSize=0mil|Usage=FLASHONLY|Rotation=315.000|XOffset=0mil|YOffset=0mil|HoleType=Round|Shape=RoundedRectangle|*
%AMROUNDEDRECTD212*
21,1,0.0178,0.0053,0,0,315.0*
21,1,0.0065,0.0166,0,0,315.0*
1,1,0.0113,0.0004,-0.0042*
1,1,0.0113,-0.0042,0.0004*
1,1,0.0113,-0.0004,0.0042*
1,1,0.0113,0.0042,-0.0004*
%
%ADD212ROUNDEDRECTD212*%
G04:AMPARAMS|DCode=213|XSize=25.7mil|YSize=29.6mil|CornerRadius=7.9mil|HoleSize=0mil|Usage=FLASHONLY|Rotation=0.000|XOffset=0mil|YOffset=0mil|HoleType=Round|Shape=RoundedRectangle|*
%AMROUNDEDRECTD213*
21,1,0.0257,0.0138,0,0,0.0*
21,1,0.0098,0.0296,0,0,0.0*
1,1,0.0158,0.0049,-0.0069*
1,1,0.0158,-0.0049,-0.0069*
1,1,0.0158,-0.0049,0.0069*
1,1,0.0158,0.0049,0.0069*
%
%ADD213ROUNDEDRECTD213*%
G04:AMPARAMS|DCode=214|XSize=25.7mil|YSize=31.6mil|CornerRadius=7.9mil|HoleSize=0mil|Usage=FLASHONLY|Rotation=90.000|XOffset=0mil|YOffset=0mil|HoleType=Round|Shape=RoundedRectangle|*
%AMROUNDEDRECTD214*
21,1,0.0257,0.0157,0,0,90.0*
21,1,0.0098,0.0316,0,0,90.0*
1,1,0.0158,0.0079,0.0049*
1,1,0.0158,0.0079,-0.0049*
1,1,0.0158,-0.0079,-0.0049*
1,1,0.0158,-0.0079,0.0049*
%
%ADD214ROUNDEDRECTD214*%
G04:AMPARAMS|DCode=215|XSize=17.8mil|YSize=16.6mil|CornerRadius=5.7mil|HoleSize=0mil|Usage=FLASHONLY|Rotation=180.000|XOffset=0mil|YOffset=0mil|HoleType=Round|Shape=RoundedRectangle|*
%AMROUNDEDRECTD215*
21,1,0.0178,0.0053,0,0,180.0*
21,1,0.0065,0.0166,0,0,180.0*
1,1,0.0113,-0.0032,0.0027*
1,1,0.0113,0.0032,0.0027*
1,1,0.0113,0.0032,-0.0027*
1,1,0.0113,-0.0032,-0.0027*
%
%ADD215ROUNDEDRECTD215*%
G04:AMPARAMS|DCode=216|XSize=78.8mil|YSize=37.5mil|CornerRadius=0mil|HoleSize=0mil|Usage=FLASHONLY|Rotation=45.000|XOffset=0mil|YOffset=0mil|HoleType=Round|Shape=Rectangle|*
%AMROTATEDRECTD216*
4,1,4,-0.0146,-0.0411,-0.0411,-0.0146,0.0146,0.0411,0.0411,0.0146,-0.0146,-0.0411,0.0*
%
%ADD216ROTATEDRECTD216*%

G04:AMPARAMS|DCode=217|XSize=17.8mil|YSize=16.6mil|CornerRadius=0mil|HoleSize=0mil|Usage=FLASHONLY|Rotation=135.000|XOffset=0mil|YOffset=0mil|HoleType=Round|Shape=Rectangle|*
%AMROTATEDRECTD217*
4,1,4,0.0122,-0.0004,0.0004,-0.0122,-0.0122,0.0004,-0.0004,0.0122,0.0122,-0.0004,0.0*
%
%ADD217ROTATEDRECTD217*%

%ADD218R,0.0257X0.0316*%
%ADD219R,0.0690X0.0611*%
%ADD220R,0.0808X0.0670*%
%ADD221R,0.0217X0.0592*%
%ADD222R,0.1005X0.0359*%
%ADD223R,0.0336X0.0217*%
%ADD224R,0.0146X0.0205*%
%ADD225R,0.0414X0.0198*%
%ADD226R,0.0651X0.0651*%
%ADD227C,0.0761*%
%ADD228R,0.0651X0.0651*%
%ADD229O,0.0690X0.0414*%
%ADD230C,0.0450*%
%ADD231C,0.1320*%
%ADD232O,0.0414X0.0690*%
G36*
X11083Y8804D02*
X11088Y8803D01*
X11092Y8801D01*
X11096Y8798D01*
X11100Y8795D01*
X11356Y8539D01*
X11359Y8536D01*
X11361Y8532D01*
X11363Y8527D01*
X11364Y8523D01*
X11364Y8518D01*
Y8282D01*
X11364Y8277D01*
X11363Y8273D01*
X11361Y8268D01*
X11359Y8264D01*
X11356Y8261D01*
X11100Y8005D01*
X11096Y8002D01*
X11092Y7999D01*
X11088Y7997D01*
X11083Y7996D01*
X11078Y7996D01*
X10291D01*
X10286Y7996D01*
X10282Y7997D01*
X10277Y7999D01*
X10273Y8002D01*
X10270Y8005D01*
X10014Y8261D01*
X10011Y8264D01*
X10008Y8268D01*
X10006Y8273D01*
X10005Y8277D01*
X10005Y8282D01*
Y8518D01*
X10005Y8523D01*
X10006Y8527D01*
X10008Y8532D01*
X10011Y8536D01*
X10014Y8539D01*
X10270Y8795D01*
X10273Y8798D01*
X10277Y8801D01*
X10282Y8803D01*
X10286Y8804D01*
X10291Y8804D01*
X11078D01*
X11083Y8804D01*
D02*
G37*
D129*
X11630Y11940D02*
G03*
X11630Y11940I-110J0D01*
G01*
X50277Y20095D02*
G03*
X50277Y20095I-110J0D01*
G01*
Y20073D02*
G03*
X50277Y20073I-110J0D01*
G01*
X14549Y15352D02*
G03*
X14549Y15352I-110J0D01*
G01*
X34710Y7989D02*
G03*
X34710Y7989I-110J0D01*
G01*
Y8011D02*
G03*
X34710Y8011I-110J0D01*
G01*
X29459Y6970D02*
G03*
X29459Y6970I-110J0D01*
G01*
X29481D02*
G03*
X29481Y6970I-110J0D01*
G01*
X48052Y21337D02*
G03*
X48052Y21337I-110J0D01*
G01*
X48074D02*
G03*
X48074Y21337I-110J0D01*
G01*
X37000Y23649D02*
G03*
X37000Y23649I-110J0D01*
G01*
X26099Y11000D02*
G03*
X26099Y11000I-110J0D01*
G01*
X26121D02*
G03*
X26121Y11000I-110J0D01*
G01*
X9780Y6571D02*
G03*
X9780Y6571I-110J0D01*
G01*
X26711Y11000D02*
G03*
X26711Y11000I-110J0D01*
G01*
X6692Y5400D02*
G03*
X6692Y5400I-110J0D01*
G01*
Y4900D02*
G03*
X6692Y4900I-110J0D01*
G01*
X11979Y6296D02*
G03*
X11979Y6296I-110J0D01*
G01*
X19160Y4219D02*
G03*
X19160Y4219I-110J0D01*
G01*
Y4241D02*
G03*
X19160Y4241I-110J0D01*
G01*
X5980Y16950D02*
G03*
X5980Y16950I-110J0D01*
G01*
Y16928D02*
G03*
X5980Y16928I-110J0D01*
G01*
Y20141D02*
G03*
X5980Y20141I-110J0D01*
G01*
Y20119D02*
G03*
X5980Y20119I-110J0D01*
G01*
X32109Y6600D02*
G03*
X32109Y6600I-110J0D01*
G01*
X35310Y7999D02*
G03*
X35310Y7999I-110J0D01*
G01*
X34110D02*
G03*
X34110Y7999I-110J0D01*
G01*
X32111Y6000D02*
G03*
X32111Y6000I-110J0D01*
G01*
X3501Y24570D02*
G03*
X3501Y24570I-110J0D01*
G01*
X34360Y4941D02*
G03*
X34360Y4941I-110J0D01*
G01*
X48062Y21897D02*
G03*
X48062Y21897I-110J0D01*
G01*
X48074Y19657D02*
G03*
X48074Y19657I-110J0D01*
G01*
X48052D02*
G03*
X48052Y19657I-110J0D01*
G01*
X48074Y20217D02*
G03*
X48074Y20217I-110J0D01*
G01*
X48052D02*
G03*
X48052Y20217I-110J0D01*
G01*
X48074Y20777D02*
G03*
X48074Y20777I-110J0D01*
G01*
X48052D02*
G03*
X48052Y20777I-110J0D01*
G01*
X28239Y7340D02*
G03*
X28239Y7340I-110J0D01*
G01*
X28261D02*
G03*
X28261Y7340I-110J0D01*
G01*
X24211Y6330D02*
G03*
X24211Y6330I-110J0D01*
G01*
X24189D02*
G03*
X24189Y6330I-110J0D01*
G01*
X24491Y7470D02*
G03*
X24491Y7470I-110J0D01*
G01*
X24469D02*
G03*
X24469Y7470I-110J0D01*
G01*
X22829Y7980D02*
G03*
X22829Y7980I-110J0D01*
G01*
X22851D02*
G03*
X22851Y7980I-110J0D01*
G01*
X22829Y7140D02*
G03*
X22829Y7140I-110J0D01*
G01*
X22851D02*
G03*
X22851Y7140I-110J0D01*
G01*
X28759Y8520D02*
G03*
X28759Y8520I-110J0D01*
G01*
X28781D02*
G03*
X28781Y8520I-110J0D01*
G01*
X29759D02*
G03*
X29759Y8520I-110J0D01*
G01*
X29781D02*
G03*
X29781Y8520I-110J0D01*
G01*
X29621Y17000D02*
G03*
X29621Y17000I-110J0D01*
G01*
X29599D02*
G03*
X29599Y17000I-110J0D01*
G01*
X29611Y16250D02*
G03*
X29611Y16250I-110J0D01*
G01*
X9931Y2640D02*
G03*
X9931Y2640I-110J0D01*
G01*
X9909D02*
G03*
X9909Y2640I-110J0D01*
G01*
D130*
X14203Y10014D02*
D03*
Y9790D02*
D03*
X15472Y14551D02*
D03*
Y14775D02*
D03*
X15256Y14551D02*
D03*
Y14775D02*
D03*
X12323Y15781D02*
D03*
Y15557D02*
D03*
X12308Y14099D02*
D03*
Y13874D02*
D03*
X15038Y14775D02*
D03*
Y14551D02*
D03*
X13150Y10831D02*
D03*
Y10606D02*
D03*
X13165Y12820D02*
D03*
Y12595D02*
D03*
X14173Y8746D02*
D03*
Y8970D02*
D03*
X14513Y9790D02*
D03*
Y10014D02*
D03*
X14378Y14775D02*
D03*
Y14551D02*
D03*
X14598Y14775D02*
D03*
Y14551D02*
D03*
X14818Y14775D02*
D03*
Y14551D02*
D03*
X15413Y10014D02*
D03*
Y9790D02*
D03*
X51122Y16366D02*
D03*
Y16142D02*
D03*
X20460Y18132D02*
D03*
Y17908D02*
D03*
X9012Y8203D02*
D03*
Y7978D02*
D03*
X4630Y4408D02*
D03*
X40710Y14812D02*
D03*
Y14588D02*
D03*
X41070Y14812D02*
D03*
Y14588D02*
D03*
X14500Y5922D02*
D03*
Y5698D02*
D03*
X4630Y4632D02*
D03*
X3939Y5382D02*
D03*
Y5158D02*
D03*
X4149D02*
D03*
Y5382D02*
D03*
X25400Y10758D02*
D03*
Y10982D02*
D03*
X37173Y1433D02*
D03*
Y1209D02*
D03*
X6740Y15342D02*
D03*
Y15118D02*
D03*
X37400Y23478D02*
D03*
Y23702D02*
D03*
X31020Y17312D02*
D03*
Y17088D02*
D03*
X32765Y3137D02*
D03*
Y2913D02*
D03*
X37443Y1433D02*
D03*
Y1209D02*
D03*
X36076Y4428D02*
D03*
Y4653D02*
D03*
X33463Y2778D02*
D03*
Y3003D02*
D03*
X23460Y6372D02*
D03*
Y6148D02*
D03*
D131*
X14558Y8839D02*
D03*
X15108D02*
D03*
X46583Y19727D02*
D03*
X46033D02*
D03*
X44083Y21227D02*
D03*
X43533D02*
D03*
X46583D02*
D03*
X46033D02*
D03*
X44083Y19727D02*
D03*
X43533D02*
D03*
D132*
X31621Y985D02*
D03*
Y2560D02*
D03*
X29239Y985D02*
D03*
Y2560D02*
D03*
X46827Y985D02*
D03*
Y2560D02*
D03*
X44445Y985D02*
D03*
Y2560D02*
D03*
X42787Y985D02*
D03*
Y2560D02*
D03*
X40405Y985D02*
D03*
Y2560D02*
D03*
X44445Y6232D02*
D03*
Y4657D02*
D03*
X46827Y6232D02*
D03*
Y4657D02*
D03*
X40405Y6232D02*
D03*
Y4657D02*
D03*
X42787Y6232D02*
D03*
Y4657D02*
D03*
D133*
X14529Y15831D02*
D03*
X14372D02*
D03*
X14529Y15989D02*
D03*
X14372D02*
D03*
X33509Y5031D02*
D03*
Y4873D02*
D03*
X33351Y5031D02*
D03*
Y4873D02*
D03*
D134*
X38230Y6350D02*
D03*
X35980D02*
D03*
X37480D02*
D03*
X36730D02*
D03*
X50167Y19584D02*
D03*
X9400Y24500D02*
D03*
Y23500D02*
D03*
X12400D02*
D03*
Y24500D02*
D03*
X14400Y23500D02*
D03*
Y24500D02*
D03*
X15400Y23500D02*
D03*
Y24500D02*
D03*
X16400Y23500D02*
D03*
X13400Y24500D02*
D03*
Y23500D02*
D03*
X11400Y24500D02*
D03*
Y23500D02*
D03*
X10400D02*
D03*
Y24500D02*
D03*
X8400D02*
D03*
Y23500D02*
D03*
X7400D02*
D03*
Y24500D02*
D03*
X24000Y1500D02*
D03*
Y500D02*
D03*
X22000Y1500D02*
D03*
Y500D02*
D03*
X21000Y1500D02*
D03*
Y500D02*
D03*
X20000Y1500D02*
D03*
X23000Y500D02*
D03*
Y1500D02*
D03*
X25000Y500D02*
D03*
Y1500D02*
D03*
X17000Y500D02*
D03*
Y1500D02*
D03*
X16000D02*
D03*
Y500D02*
D03*
X14000Y1500D02*
D03*
Y500D02*
D03*
X11000Y1500D02*
D03*
X12000Y500D02*
D03*
Y1500D02*
D03*
X13000Y500D02*
D03*
Y1500D02*
D03*
X15000Y500D02*
D03*
Y1500D02*
D03*
X18000D02*
D03*
Y500D02*
D03*
X26750Y2250D02*
D03*
X3220Y4490D02*
D03*
X12000Y11000D02*
D03*
Y10000D02*
D03*
X49250Y24000D02*
D03*
X27000Y24500D02*
D03*
Y23500D02*
D03*
X30000D02*
D03*
Y24500D02*
D03*
X32000Y23500D02*
D03*
Y24500D02*
D03*
X33000Y23500D02*
D03*
Y24500D02*
D03*
X34000Y23500D02*
D03*
X31000Y24500D02*
D03*
Y23500D02*
D03*
X29000Y24500D02*
D03*
Y23500D02*
D03*
X28000D02*
D03*
Y24500D02*
D03*
X18000D02*
D03*
Y23500D02*
D03*
X21000D02*
D03*
Y24500D02*
D03*
X23000Y23500D02*
D03*
Y24500D02*
D03*
X24000Y23500D02*
D03*
Y24500D02*
D03*
X25000Y23500D02*
D03*
X22000Y24500D02*
D03*
Y23500D02*
D03*
X20000Y24500D02*
D03*
Y23500D02*
D03*
X19000D02*
D03*
Y24500D02*
D03*
D135*
X39250Y10900D02*
D03*
Y10150D02*
D03*
X38500Y10900D02*
D03*
Y10150D02*
D03*
X37750Y10900D02*
D03*
Y10150D02*
D03*
X27250Y15750D02*
D03*
X34000Y6000D02*
D03*
X28250D02*
D03*
X27250Y15000D02*
D03*
X24300Y15600D02*
D03*
X11300Y7000D02*
D03*
X8500Y11500D02*
D03*
Y12200D02*
D03*
X11240Y5920D02*
D03*
X8800Y6450D02*
D03*
X5810Y8930D02*
D03*
X5000Y6400D02*
D03*
X4250Y19050D02*
D03*
Y18050D02*
D03*
X30400Y17000D02*
D03*
X42430Y19020D02*
D03*
X40700Y8350D02*
D03*
Y7600D02*
D03*
X24600Y11000D02*
D03*
X49600Y7250D02*
D03*
X48600D02*
D03*
X4000Y15000D02*
D03*
Y14000D02*
D03*
X4160Y12700D02*
D03*
X4860Y12559D02*
D03*
X22000Y7500D02*
D03*
X21000D02*
D03*
X22000Y6500D02*
D03*
X21000D02*
D03*
X26900Y8500D02*
D03*
Y7500D02*
D03*
X25900Y8500D02*
D03*
X25900Y7500D02*
D03*
D136*
X6430Y19933D02*
D03*
Y20327D02*
D03*
Y16742D02*
D03*
Y17136D02*
D03*
D137*
X49705Y9370D02*
D03*
X49312D02*
D03*
X48492D02*
D03*
X48885D02*
D03*
D138*
X31502Y5150D02*
D03*
X31278D02*
D03*
X12944Y11772D02*
D03*
X13169D02*
D03*
X16868Y10453D02*
D03*
X16644D02*
D03*
Y10778D02*
D03*
X16868D02*
D03*
Y10217D02*
D03*
X16644D02*
D03*
X16868Y9980D02*
D03*
X16644D02*
D03*
X16868Y9743D02*
D03*
X16644D02*
D03*
X16655Y11950D02*
D03*
X16879D02*
D03*
Y12792D02*
D03*
X16655D02*
D03*
X16879Y12212D02*
D03*
X16655D02*
D03*
Y12462D02*
D03*
X16879D02*
D03*
X15344Y13514D02*
D03*
X15568D02*
D03*
X16576Y13442D02*
D03*
X16801D02*
D03*
X3858Y11840D02*
D03*
X3634D02*
D03*
X50335Y16330D02*
D03*
X50559D02*
D03*
X22500Y14744D02*
D03*
X22724D02*
D03*
X7878Y7120D02*
D03*
X8102D02*
D03*
X7612Y7120D02*
D03*
X7388D02*
D03*
X7398Y6900D02*
D03*
X7622D02*
D03*
X47086Y19727D02*
D03*
X47311D02*
D03*
X34672Y5890D02*
D03*
X34448D02*
D03*
X31772Y8560D02*
D03*
X31548D02*
D03*
X32528D02*
D03*
X32752D02*
D03*
X13398Y5810D02*
D03*
X13622D02*
D03*
X10092Y1820D02*
D03*
X9868D02*
D03*
X11312Y6540D02*
D03*
X11088D02*
D03*
X5762Y5730D02*
D03*
X5538D02*
D03*
X916Y10590D02*
D03*
X1141D02*
D03*
X44821Y19727D02*
D03*
X44596D02*
D03*
X47311Y21227D02*
D03*
X47086D02*
D03*
X44821D02*
D03*
X44596D02*
D03*
X5872Y14540D02*
D03*
X5648D02*
D03*
X41398Y20892D02*
D03*
X41622D02*
D03*
X10028Y5070D02*
D03*
X10252D02*
D03*
X9408Y4890D02*
D03*
X9632D02*
D03*
X10952Y11100D02*
D03*
X10728D02*
D03*
X2384Y15197D02*
D03*
X2608D02*
D03*
X916Y10310D02*
D03*
X1141D02*
D03*
X2962Y14520D02*
D03*
X2738D02*
D03*
X35902Y8430D02*
D03*
X35678D02*
D03*
X31262Y7860D02*
D03*
X31038D02*
D03*
X28102Y7950D02*
D03*
X27878D02*
D03*
D139*
X5950Y15057D02*
D03*
Y15443D02*
D03*
D140*
X5606Y15506D02*
D03*
Y15250D02*
D03*
Y14994D02*
D03*
X6294D02*
D03*
Y15250D02*
D03*
Y15506D02*
D03*
D141*
X48593Y15108D02*
D03*
Y14715D02*
D03*
X45606Y17015D02*
D03*
Y17408D02*
D03*
X47606Y15613D02*
D03*
Y16007D02*
D03*
X13736Y14312D02*
D03*
Y13918D02*
D03*
X47718Y17407D02*
D03*
Y17013D02*
D03*
X46318Y17013D02*
D03*
Y17407D02*
D03*
X45468Y12989D02*
D03*
Y12595D02*
D03*
X46531Y12989D02*
D03*
Y12595D02*
D03*
X41884Y15374D02*
D03*
Y14980D02*
D03*
D142*
X40710Y15302D02*
D03*
Y15078D02*
D03*
X41070Y15078D02*
D03*
Y15302D02*
D03*
X9012Y7530D02*
D03*
Y7754D02*
D03*
D143*
X4783Y9920D02*
D03*
X5610D02*
D03*
D144*
X17057Y8100D02*
D03*
X18435D02*
D03*
X17746Y7195D02*
D03*
X8809Y872D02*
D03*
X8120D02*
D03*
X7431D02*
D03*
Y2328D02*
D03*
X8120D02*
D03*
X8809D02*
D03*
X33189Y16797D02*
D03*
X31811D02*
D03*
X32500Y17703D02*
D03*
D145*
X16118Y10798D02*
D03*
Y10955D02*
D03*
Y11113D02*
D03*
X15803Y12924D02*
D03*
X15645D02*
D03*
X15488D02*
D03*
X13992Y13081D02*
D03*
X14622D02*
D03*
X14779D02*
D03*
X14937D02*
D03*
X15094D02*
D03*
X15251D02*
D03*
X15409D02*
D03*
X15566D02*
D03*
X13755Y12924D02*
D03*
X13913D02*
D03*
X14070D02*
D03*
X14228D02*
D03*
X14385D02*
D03*
X14543D02*
D03*
X14700D02*
D03*
X14858D02*
D03*
X15015D02*
D03*
X15173D02*
D03*
X15330D02*
D03*
X13598Y12845D02*
D03*
X16118D02*
D03*
X13755Y12766D02*
D03*
X13598Y12688D02*
D03*
X16118D02*
D03*
X13755Y12609D02*
D03*
X13598Y12530D02*
D03*
X16118D02*
D03*
X13755Y12451D02*
D03*
X13598Y12373D02*
D03*
X16118D02*
D03*
X13755Y12294D02*
D03*
X13598Y12215D02*
D03*
X16118D02*
D03*
X13598Y12058D02*
D03*
X16118D02*
D03*
X13755Y11979D02*
D03*
X13598Y11900D02*
D03*
X16118D02*
D03*
X13755Y11822D02*
D03*
X13598Y11743D02*
D03*
X16118D02*
D03*
X13755Y11664D02*
D03*
X13598Y11585D02*
D03*
X16118D02*
D03*
X13755Y11507D02*
D03*
X13598Y11428D02*
D03*
X16118D02*
D03*
X13755Y11349D02*
D03*
X13598Y11270D02*
D03*
X16118D02*
D03*
X13755Y11192D02*
D03*
X13598Y11113D02*
D03*
Y10955D02*
D03*
X13755Y11034D02*
D03*
Y10719D02*
D03*
X13913D02*
D03*
X14070D02*
D03*
X14228D02*
D03*
X14385D02*
D03*
X14543D02*
D03*
X14700D02*
D03*
X14858D02*
D03*
X15015D02*
D03*
X15173D02*
D03*
X15330D02*
D03*
X15488D02*
D03*
X15645D02*
D03*
X15803D02*
D03*
X13834Y10562D02*
D03*
X13992D02*
D03*
X14149D02*
D03*
X14307D02*
D03*
X14464D02*
D03*
X14622D02*
D03*
X14779D02*
D03*
X14937D02*
D03*
X15094D02*
D03*
X15251D02*
D03*
X15409D02*
D03*
X15566D02*
D03*
X13598Y10798D02*
D03*
X15960Y12924D02*
D03*
Y10719D02*
D03*
X15724Y10562D02*
D03*
X15881D02*
D03*
X15724Y13081D02*
D03*
X13755Y10877D02*
D03*
Y12137D02*
D03*
D146*
X14937Y11822D02*
D03*
D147*
X16118Y13081D02*
D03*
Y10562D02*
D03*
X13598D02*
D03*
Y13081D02*
D03*
D148*
X16063Y9715D02*
D03*
X16746Y11323D02*
D03*
D149*
X16152Y9990D02*
D03*
X15974D02*
D03*
X16657Y11047D02*
D03*
X16834D02*
D03*
D150*
X15271Y13800D02*
D03*
X15665D02*
D03*
X16442Y13800D02*
D03*
X16049D02*
D03*
X14622Y13763D02*
D03*
X14228D02*
D03*
X14366Y14107D02*
D03*
X14759D02*
D03*
X42844Y15927D02*
D03*
X43238D02*
D03*
X44213Y16710D02*
D03*
X44607D02*
D03*
X47466Y14023D02*
D03*
X47860D02*
D03*
X46216Y16601D02*
D03*
X46610D02*
D03*
X42637Y14587D02*
D03*
X43031D02*
D03*
X48877Y8137D02*
D03*
X48483D02*
D03*
X49697D02*
D03*
X49303D02*
D03*
X47308Y16355D02*
D03*
X47702D02*
D03*
D151*
X12722Y13940D02*
D03*
Y14471D02*
D03*
X13165Y13940D02*
D03*
Y14471D02*
D03*
X6269Y11298D02*
D03*
Y10766D02*
D03*
X6673Y11298D02*
D03*
Y10766D02*
D03*
X4763Y11298D02*
D03*
Y10766D02*
D03*
X13898Y15443D02*
D03*
Y14911D02*
D03*
X36466Y4706D02*
D03*
Y4175D02*
D03*
X43381Y12595D02*
D03*
Y13127D02*
D03*
X43667Y16769D02*
D03*
Y17300D02*
D03*
X44307Y12841D02*
D03*
Y12310D02*
D03*
X43844Y12841D02*
D03*
Y12310D02*
D03*
X42919Y13127D02*
D03*
Y12595D02*
D03*
X42367Y13127D02*
D03*
Y12595D02*
D03*
D152*
X16890Y14360D02*
D03*
X16437D02*
D03*
Y14931D02*
D03*
X16890D02*
D03*
D153*
X11520Y12062D02*
D03*
Y11816D02*
D03*
X50167Y20217D02*
D03*
Y19951D02*
D03*
X14315Y15352D02*
D03*
X14561D02*
D03*
X34600Y7867D02*
D03*
Y8133D02*
D03*
X29227Y6970D02*
D03*
X29493D02*
D03*
X47820Y21337D02*
D03*
X48086D02*
D03*
X36890Y23527D02*
D03*
Y23773D02*
D03*
X25867Y11000D02*
D03*
X26133D02*
D03*
X9670Y6693D02*
D03*
Y6447D02*
D03*
X26477Y11000D02*
D03*
X26723D02*
D03*
X6458Y5400D02*
D03*
X6704D02*
D03*
X6458Y4900D02*
D03*
X6704D02*
D03*
X11745Y6296D02*
D03*
X11991D02*
D03*
X19050Y4097D02*
D03*
Y4363D02*
D03*
X5870Y17072D02*
D03*
Y16806D02*
D03*
Y20263D02*
D03*
Y19997D02*
D03*
X32123Y6600D02*
D03*
X31877D02*
D03*
X35200Y8123D02*
D03*
Y7877D02*
D03*
X34000Y8123D02*
D03*
Y7877D02*
D03*
X31877Y6000D02*
D03*
X32123D02*
D03*
X3267Y24570D02*
D03*
X3513D02*
D03*
X34250Y4817D02*
D03*
Y5063D02*
D03*
X48076Y21897D02*
D03*
X47830D02*
D03*
X48086Y19657D02*
D03*
X47820D02*
D03*
X48086Y20217D02*
D03*
X47820D02*
D03*
X48086Y20777D02*
D03*
X47820D02*
D03*
X28007Y7340D02*
D03*
X28273D02*
D03*
X24223Y6330D02*
D03*
X23957D02*
D03*
X24503Y7470D02*
D03*
X24237D02*
D03*
X22597Y7980D02*
D03*
X22863D02*
D03*
X22597Y7140D02*
D03*
X22863D02*
D03*
X28527Y8520D02*
D03*
X28793D02*
D03*
X29527D02*
D03*
X29793D02*
D03*
X29633Y17000D02*
D03*
X29367D02*
D03*
X29377Y16250D02*
D03*
X29623D02*
D03*
X9943Y2640D02*
D03*
X9677D02*
D03*
D154*
X5521Y11298D02*
D03*
D155*
X5718Y10914D02*
D03*
X5521D02*
D03*
X5324D02*
D03*
Y11682D02*
D03*
X5521D02*
D03*
D156*
X5738D02*
D03*
D157*
X3641Y11440D02*
D03*
X4172D02*
D03*
X50558Y16704D02*
D03*
X50027D02*
D03*
X6354Y7070D02*
D03*
X6886D02*
D03*
X33434Y3700D02*
D03*
X33966D02*
D03*
X42791Y16317D02*
D03*
X43322D02*
D03*
X44149Y17119D02*
D03*
X44681D02*
D03*
D158*
X51951Y15458D02*
D03*
X52175D02*
D03*
X51951Y14502D02*
D03*
X52175D02*
D03*
X49085Y15108D02*
D03*
X48860D02*
D03*
X51707Y14502D02*
D03*
X51483D02*
D03*
X51707Y15458D02*
D03*
X51483D02*
D03*
D159*
X5126Y5226D02*
D03*
Y4970D02*
D03*
Y4714D02*
D03*
X5834Y5226D02*
D03*
Y4970D02*
D03*
Y4714D02*
D03*
D160*
X5480Y5177D02*
D03*
Y4763D02*
D03*
D161*
X40106Y21452D02*
D03*
X42074D02*
D03*
X41090D02*
D03*
Y24208D02*
D03*
X42074D02*
D03*
X40106D02*
D03*
X3160Y3488D02*
D03*
X1192D02*
D03*
X2176D02*
D03*
Y732D02*
D03*
X1192D02*
D03*
X3160D02*
D03*
D162*
X8160Y7960D02*
D03*
D163*
X8544Y8157D02*
D03*
Y7960D02*
D03*
Y7763D02*
D03*
X7776D02*
D03*
Y7960D02*
D03*
D164*
Y8177D02*
D03*
D165*
X8605Y8970D02*
D03*
X8015D02*
D03*
D166*
X11872Y7979D02*
D03*
Y7801D02*
D03*
D167*
X9991Y7119D02*
D03*
X11779Y6845D02*
D03*
X11937D02*
D03*
X11779Y6687D02*
D03*
X11937D02*
D03*
X10741Y11871D02*
D03*
Y12029D02*
D03*
X10899Y11871D02*
D03*
Y12029D02*
D03*
X9101Y7119D02*
D03*
X9259D02*
D03*
X9101Y6961D02*
D03*
X9259D02*
D03*
X7991Y6369D02*
D03*
X8149D02*
D03*
X7991Y6211D02*
D03*
X8149D02*
D03*
X10149Y6961D02*
D03*
X9991D02*
D03*
X10149Y7119D02*
D03*
X7991Y5259D02*
D03*
X8149D02*
D03*
X7991Y5101D02*
D03*
X8149D02*
D03*
X42497Y20660D02*
D03*
X42340D02*
D03*
X42497Y20817D02*
D03*
X42340D02*
D03*
D168*
X7680Y9810D02*
D03*
D169*
Y10736D02*
D03*
D170*
X10981Y9766D02*
D03*
Y10022D02*
D03*
Y10278D02*
D03*
Y10534D02*
D03*
X8659Y9766D02*
D03*
Y10022D02*
D03*
Y10278D02*
D03*
Y10534D02*
D03*
D171*
X28874Y7435D02*
D03*
X29031D02*
D03*
X29189D02*
D03*
X29346D02*
D03*
Y8085D02*
D03*
X29189D02*
D03*
X29031D02*
D03*
X28874D02*
D03*
X36436Y9782D02*
D03*
X36279D02*
D03*
X36121D02*
D03*
X35964D02*
D03*
Y8818D02*
D03*
X36121D02*
D03*
X36279D02*
D03*
X36436D02*
D03*
X32024Y8085D02*
D03*
X32181D02*
D03*
X32339D02*
D03*
X32496D02*
D03*
Y7435D02*
D03*
X32339D02*
D03*
X32181D02*
D03*
X32024D02*
D03*
X23776Y6828D02*
D03*
X23619D02*
D03*
X23461D02*
D03*
X23304D02*
D03*
Y7792D02*
D03*
X23461D02*
D03*
X23619D02*
D03*
X23776D02*
D03*
D172*
X29592Y7524D02*
D03*
Y7681D02*
D03*
Y7839D02*
D03*
Y7996D02*
D03*
X28628D02*
D03*
Y7839D02*
D03*
Y7681D02*
D03*
Y7524D02*
D03*
X36525Y9064D02*
D03*
Y9221D02*
D03*
Y9379D02*
D03*
Y9536D02*
D03*
X35875D02*
D03*
Y9379D02*
D03*
Y9221D02*
D03*
Y9064D02*
D03*
X31778Y7524D02*
D03*
Y7681D02*
D03*
Y7839D02*
D03*
Y7996D02*
D03*
X32742D02*
D03*
Y7839D02*
D03*
Y7681D02*
D03*
Y7524D02*
D03*
X23215Y7074D02*
D03*
Y7231D02*
D03*
Y7389D02*
D03*
Y7546D02*
D03*
X23865D02*
D03*
Y7389D02*
D03*
Y7231D02*
D03*
Y7074D02*
D03*
D173*
X48900Y8947D02*
D03*
Y8553D02*
D03*
X49290D02*
D03*
Y8947D02*
D03*
D174*
X4650Y17429D02*
D03*
Y16429D02*
D03*
Y8090D02*
D03*
Y7090D02*
D03*
Y20657D02*
D03*
Y19657D02*
D03*
D175*
X49842Y2767D02*
D03*
X48346D02*
D03*
D176*
X49290Y3673D02*
D03*
X49094D02*
D03*
X48897D02*
D03*
X48700D02*
D03*
X49487D02*
D03*
D177*
X2686Y14856D02*
D03*
X2312D02*
D03*
X43667Y17714D02*
D03*
X44041D02*
D03*
D178*
X35611Y4445D02*
D03*
Y3697D02*
D03*
X34804D02*
D03*
D179*
Y4366D02*
D03*
D180*
X7775Y15711D02*
D03*
X8563Y14609D02*
D03*
X7775D02*
D03*
X10137D02*
D03*
X10925D02*
D03*
X8563Y15711D02*
D03*
X10137D02*
D03*
X10925D02*
D03*
D181*
X31500Y15018D02*
D03*
X32000D02*
D03*
X32500D02*
D03*
X33000D02*
D03*
X33500D02*
D03*
X31500Y13482D02*
D03*
X32000D02*
D03*
X32500D02*
D03*
X33000D02*
D03*
X33500D02*
D03*
X31000D02*
D03*
X30500D02*
D03*
X30000D02*
D03*
X29500D02*
D03*
X29000D02*
D03*
X31000Y15018D02*
D03*
X30500D02*
D03*
X30000D02*
D03*
X29500D02*
D03*
X29000D02*
D03*
X33500Y10232D02*
D03*
X33000D02*
D03*
X32500D02*
D03*
X32000D02*
D03*
X31500D02*
D03*
X33500Y11768D02*
D03*
X33000D02*
D03*
X32500D02*
D03*
X32000D02*
D03*
X31500D02*
D03*
D182*
X38375Y14000D02*
D03*
X36625D02*
D03*
X38375Y18000D02*
D03*
Y19000D02*
D03*
X36625D02*
D03*
X38375Y20000D02*
D03*
X36625D02*
D03*
X38375Y21000D02*
D03*
X36625D02*
D03*
X38375Y15000D02*
D03*
X36625Y13000D02*
D03*
X38375D02*
D03*
X26425Y12000D02*
D03*
X24675D02*
D03*
X26425Y13000D02*
D03*
X24675D02*
D03*
X26425Y14000D02*
D03*
X24675D02*
D03*
X36625Y18000D02*
D03*
Y17000D02*
D03*
X38375D02*
D03*
X36625Y16000D02*
D03*
X38375D02*
D03*
X36625Y15000D02*
D03*
D183*
X31000Y21423D02*
D03*
Y22577D02*
D03*
X27000Y21423D02*
D03*
X30000D02*
D03*
X29000Y21423D02*
D03*
X34000Y21423D02*
D03*
X33000D02*
D03*
X27000Y22577D02*
D03*
X30000D02*
D03*
X29000D02*
D03*
X34000D02*
D03*
X33000D02*
D03*
X28000Y21423D02*
D03*
X32000D02*
D03*
X28000Y22577D02*
D03*
X32000D02*
D03*
X7400Y21423D02*
D03*
X13400D02*
D03*
X7400Y22577D02*
D03*
X13400D02*
D03*
X8400Y21423D02*
D03*
X9400Y21423D02*
D03*
X11400D02*
D03*
X12400D02*
D03*
X15400D02*
D03*
X16400D02*
D03*
X8400Y22577D02*
D03*
X9400D02*
D03*
X11400D02*
D03*
X12400D02*
D03*
X15400D02*
D03*
X16400D02*
D03*
X10400Y21423D02*
D03*
X14400Y21423D02*
D03*
X10400Y22577D02*
D03*
X14400D02*
D03*
X14000Y3577D02*
D03*
Y2423D02*
D03*
X18000Y3577D02*
D03*
X15000D02*
D03*
X16000Y3577D02*
D03*
X11000Y3577D02*
D03*
X12000D02*
D03*
X18000Y2423D02*
D03*
X15000D02*
D03*
X16000D02*
D03*
X11000D02*
D03*
X12000D02*
D03*
X17000Y3577D02*
D03*
X13000D02*
D03*
X17000Y2423D02*
D03*
X13000D02*
D03*
X23000Y3577D02*
D03*
X23000Y2423D02*
D03*
X25000Y3577D02*
D03*
X24000D02*
D03*
X21000D02*
D03*
X20000D02*
D03*
X25000Y2423D02*
D03*
X24000D02*
D03*
X21000D02*
D03*
X20000D02*
D03*
X22000Y3577D02*
D03*
Y2423D02*
D03*
X15400Y18577D02*
D03*
Y17423D02*
D03*
X16400Y18577D02*
D03*
Y17423D02*
D03*
X7400D02*
D03*
Y18577D02*
D03*
X11400D02*
D03*
Y17423D02*
D03*
X12400Y18577D02*
D03*
Y17423D02*
D03*
X10400Y18577D02*
D03*
Y17423D02*
D03*
X9400Y18577D02*
D03*
Y17423D02*
D03*
X8400D02*
D03*
Y18577D02*
D03*
X14400Y17423D02*
D03*
Y18577D02*
D03*
X13400Y17423D02*
D03*
Y18577D02*
D03*
X17400Y17423D02*
D03*
Y18577D02*
D03*
X18400Y17423D02*
D03*
Y18577D02*
D03*
X19400Y17423D02*
D03*
Y18577D02*
D03*
X23000Y22577D02*
D03*
X19000D02*
D03*
X23000Y21423D02*
D03*
X19000D02*
D03*
X24000Y22577D02*
D03*
X25000D02*
D03*
X20000D02*
D03*
X21000D02*
D03*
X18000D02*
D03*
X24000Y21423D02*
D03*
X25000D02*
D03*
X20000Y21423D02*
D03*
X21000Y21423D02*
D03*
X18000D02*
D03*
X22000Y22577D02*
D03*
Y21423D02*
D03*
D184*
X3600Y12226D02*
D03*
X2852Y13034D02*
D03*
Y12226D02*
D03*
D185*
X3521Y13034D02*
D03*
D186*
X2118Y13012D02*
D03*
Y12244D02*
D03*
Y11988D02*
D03*
Y12756D02*
D03*
Y12500D02*
D03*
D187*
X1065Y12972D02*
D03*
Y12028D02*
D03*
D188*
X2030Y11240D02*
D03*
Y13760D02*
D03*
D189*
X47205Y23750D02*
D03*
X5411Y1120D02*
D03*
D190*
X23250Y16000D02*
D03*
Y16500D02*
D03*
Y17000D02*
D03*
Y17500D02*
D03*
Y18000D02*
D03*
X23750D02*
D03*
Y17500D02*
D03*
Y17000D02*
D03*
Y16500D02*
D03*
Y16000D02*
D03*
D191*
X484Y4203D02*
D03*
Y5857D02*
D03*
D192*
X2010Y4833D02*
D03*
Y5227D02*
D03*
D193*
X12148Y7890D02*
D03*
D194*
X9394Y3726D02*
D03*
X9650D02*
D03*
X9906D02*
D03*
Y4474D02*
D03*
X9394D02*
D03*
D195*
X42292Y15167D02*
D03*
X43276D02*
D03*
D196*
X46226Y16090D02*
D03*
X44848D02*
D03*
X45045D02*
D03*
X45242D02*
D03*
X45438D02*
D03*
X45635D02*
D03*
X45832D02*
D03*
X46029D02*
D03*
X46423D02*
D03*
X44060Y15893D02*
D03*
X44356D02*
D03*
X44553D02*
D03*
X44749D02*
D03*
X44946D02*
D03*
X45143D02*
D03*
X45340D02*
D03*
X45537D02*
D03*
X45734D02*
D03*
X45931D02*
D03*
X46620D02*
D03*
X46423Y15597D02*
D03*
X44060Y15696D02*
D03*
X44257Y15597D02*
D03*
X46620Y15499D02*
D03*
X44257Y15401D02*
D03*
X46423D02*
D03*
X44060Y15302D02*
D03*
X44257Y15204D02*
D03*
X46423D02*
D03*
X44060Y15105D02*
D03*
X46620D02*
D03*
X44257Y15007D02*
D03*
X44060Y14908D02*
D03*
X46620D02*
D03*
X44257Y14810D02*
D03*
X44060Y14712D02*
D03*
X46620D02*
D03*
X44257Y14613D02*
D03*
X46423D02*
D03*
X44060Y14515D02*
D03*
X46620D02*
D03*
X44257Y14416D02*
D03*
X46423D02*
D03*
X44060Y14318D02*
D03*
X46620D02*
D03*
X46423Y14219D02*
D03*
X44060Y14121D02*
D03*
X46620D02*
D03*
X44257Y14023D02*
D03*
X46423D02*
D03*
X46620Y13924D02*
D03*
X44257Y13826D02*
D03*
X44553Y13727D02*
D03*
X44946D02*
D03*
X45143D02*
D03*
X45340D02*
D03*
X45537D02*
D03*
X45734D02*
D03*
X45931D02*
D03*
X46127D02*
D03*
X46620D02*
D03*
X44257Y13530D02*
D03*
X44454D02*
D03*
X44651D02*
D03*
X44848D02*
D03*
X45045D02*
D03*
X45242D02*
D03*
X45438D02*
D03*
X45635D02*
D03*
X45832D02*
D03*
X46029D02*
D03*
X46226D02*
D03*
X46423D02*
D03*
D197*
X45340Y14810D02*
D03*
D198*
X47303Y16983D02*
D03*
Y17436D02*
D03*
X46732D02*
D03*
Y16983D02*
D03*
D199*
X6850Y7547D02*
D03*
Y8413D02*
D03*
D200*
X9641Y7809D02*
D03*
Y8991D02*
D03*
D201*
X9700Y8400D02*
D03*
D202*
X10010Y11553D02*
D03*
Y11884D02*
D03*
X9370D02*
D03*
Y11553D02*
D03*
X9050Y11884D02*
D03*
Y11553D02*
D03*
X9690Y11884D02*
D03*
Y11553D02*
D03*
D203*
X50177Y14980D02*
D03*
D204*
X50561Y14203D02*
D03*
X50305D02*
D03*
X50049D02*
D03*
X49793D02*
D03*
Y15758D02*
D03*
X50049D02*
D03*
X50305D02*
D03*
X50561D02*
D03*
D205*
X49400Y14596D02*
D03*
Y14852D02*
D03*
Y15108D02*
D03*
Y15364D02*
D03*
X50955D02*
D03*
Y15108D02*
D03*
Y14852D02*
D03*
Y14596D02*
D03*
D206*
X53148Y17795D02*
D03*
X52341D02*
D03*
Y18543D02*
D03*
X53148D02*
D03*
X52341Y11644D02*
D03*
X53148D02*
D03*
Y10896D02*
D03*
X52341D02*
D03*
D207*
X52744Y17713D02*
D03*
Y18626D02*
D03*
Y11726D02*
D03*
Y10813D02*
D03*
D208*
X52188Y23436D02*
D03*
X53135Y24383D02*
D03*
D209*
X52244Y14067D02*
D03*
Y14291D02*
D03*
Y15667D02*
D03*
Y15891D02*
D03*
D210*
X51237Y2515D02*
D03*
X51078Y2673D02*
D03*
D211*
X51699Y2053D02*
D03*
X51541Y2211D02*
D03*
X51230Y22796D02*
D03*
X51388Y22637D02*
D03*
D212*
X51230Y2204D02*
D03*
X51388Y2363D02*
D03*
X51541Y22789D02*
D03*
X51237Y22485D02*
D03*
X51078Y22327D02*
D03*
D213*
X48256Y15113D02*
D03*
Y15507D02*
D03*
X47132Y15115D02*
D03*
Y15509D02*
D03*
D214*
X47505Y15112D02*
D03*
X47879Y15112D02*
D03*
D215*
X51703Y14067D02*
D03*
Y14291D02*
D03*
Y15891D02*
D03*
Y15667D02*
D03*
D216*
X53135Y617D02*
D03*
X52188Y1564D02*
D03*
D217*
X51699Y22947D02*
D03*
D218*
X33113Y3077D02*
D03*
Y2703D02*
D03*
D219*
X34067Y2365D02*
D03*
X36586D02*
D03*
D220*
X35799Y1400D02*
D03*
X34854D02*
D03*
D221*
X35838Y2454D02*
D03*
X35582D02*
D03*
X34815D02*
D03*
X35071D02*
D03*
X35326D02*
D03*
D222*
X2298Y24140D02*
D03*
Y23640D02*
D03*
Y23140D02*
D03*
Y22640D02*
D03*
Y22140D02*
D03*
X762Y24140D02*
D03*
Y23640D02*
D03*
Y23140D02*
D03*
Y22640D02*
D03*
Y22140D02*
D03*
D223*
X14110Y6058D02*
D03*
D224*
X14021Y5782D02*
D03*
X14199D02*
D03*
D225*
X10026Y5494D02*
D03*
Y6006D02*
D03*
X10774D02*
D03*
Y5750D02*
D03*
Y5494D02*
D03*
D226*
X50167Y20584D02*
D03*
X3220Y5490D02*
D03*
X12000Y9000D02*
D03*
D227*
X2880Y16929D02*
D03*
Y7590D02*
D03*
Y20157D02*
D03*
D228*
X16400Y24500D02*
D03*
X20000Y500D02*
D03*
X11000D02*
D03*
X34000Y24500D02*
D03*
X25000D02*
D03*
D229*
X1065Y11201D02*
D03*
Y13799D02*
D03*
D230*
X23900Y18500D02*
D03*
X23100D02*
D03*
X23500Y15500D02*
D03*
D231*
X26000Y5000D02*
D03*
Y16000D02*
D03*
X5500Y3000D02*
D03*
X6000Y22000D02*
D03*
X38000Y3000D02*
D03*
X35500Y22000D02*
D03*
D232*
X34027Y1400D02*
D03*
X36626D02*
D03*
M02*
