G04*
G04 #@! TF.GenerationSoftware,Altium Limited,Altium Designer,22.10.1 (41)*
G04*
G04 Layer_Color=32768*
%FSLAX24Y24*%
%MOIN*%
G70*
G04*
G04 #@! TF.SameCoordinates,1EAF6387-FA3A-421D-BABF-0C9075E41397*
G04*
G04*
G04 #@! TF.FilePolarity,Positive*
G04*
G01*
G75*
%ADD48C,0.0110*%
%ADD49C,0.0126*%
%ADD63C,0.0080*%
D48*
X12128Y10022D02*
G03*
X12254Y9719I430J0D01*
G01*
X12478Y7800D02*
G03*
X13478Y6800I1000J0D01*
G01*
X10522D02*
G03*
X11522Y7800I0J1000D01*
G01*
X11746Y9719D02*
G03*
X11872Y10022I-304J304D01*
G01*
X12478Y7800D02*
Y8733D01*
Y8791D01*
X11522Y8733D02*
Y8791D01*
Y7800D02*
Y8733D01*
X12686Y9274D02*
X12689D01*
X12482D02*
X12686D01*
X12478Y8733D02*
X12686D01*
X12478Y9023D02*
Y9270D01*
X11522Y9023D02*
Y9270D01*
Y9494D02*
X11746Y9719D01*
X12478Y9270D02*
X12482Y9274D01*
X12254Y9719D02*
X12478Y9494D01*
X1372Y6800D02*
X10522Y6800D01*
X11311Y8733D02*
X11522D01*
X11311Y9274D02*
X11518D01*
X11522Y9270D01*
X13478Y6800D02*
X22627D01*
X23200D01*
D49*
X13128Y15800D02*
G03*
X12128Y14800I0J-1000D01*
G01*
Y12412D02*
Y14800D01*
X13128Y15800D02*
X22441D01*
X12128Y12188D02*
X12128Y11578D01*
D63*
X14327Y11452D02*
X14061D01*
Y11252D01*
X14194Y11319D01*
X14261D01*
X14327Y11252D01*
Y11119D01*
X14261Y11052D01*
X14128D01*
X14061Y11119D01*
X14461Y11385D02*
X14527Y11452D01*
X14661D01*
X14727Y11385D01*
Y11119D01*
X14661Y11052D01*
X14527D01*
X14461Y11119D01*
Y11385D01*
X14927Y11052D02*
X15061D01*
X15127Y11119D01*
Y11252D01*
X15061Y11319D01*
X14927D01*
X14861Y11252D01*
Y11119D01*
X14927Y11052D01*
X15260Y11452D02*
Y11052D01*
Y11252D01*
X15327Y11319D01*
X15460D01*
X15527Y11252D01*
Y11052D01*
X15660D02*
Y11319D01*
X15727D01*
X15794Y11252D01*
Y11052D01*
Y11252D01*
X15860Y11319D01*
X15927Y11252D01*
Y11052D01*
X16460D02*
X16660D01*
X16727Y11119D01*
X16660Y11185D01*
X16527D01*
X16460Y11252D01*
X16527Y11319D01*
X16727D01*
X16860Y11052D02*
X16993D01*
X16927D01*
Y11319D01*
X16860D01*
X17193Y11052D02*
Y11319D01*
X17393D01*
X17460Y11252D01*
Y11052D01*
X17726Y10919D02*
X17793D01*
X17860Y10985D01*
Y11319D01*
X17660D01*
X17593Y11252D01*
Y11119D01*
X17660Y11052D01*
X17860D01*
X17993D02*
X18126D01*
X18060D01*
Y11452D01*
X17993D01*
X18526Y11052D02*
X18393D01*
X18326Y11119D01*
Y11252D01*
X18393Y11319D01*
X18526D01*
X18593Y11252D01*
Y11185D01*
X18326D01*
X19326Y11052D02*
X19193D01*
X19126Y11119D01*
Y11252D01*
X19193Y11319D01*
X19326D01*
X19392Y11252D01*
Y11185D01*
X19126D01*
X19526Y11052D02*
Y11319D01*
X19726D01*
X19792Y11252D01*
Y11052D01*
X20192Y11452D02*
Y11052D01*
X19992D01*
X19926Y11119D01*
Y11252D01*
X19992Y11319D01*
X20192D01*
X20525Y11052D02*
X20392D01*
X20326Y11119D01*
Y11252D01*
X20392Y11319D01*
X20525D01*
X20592Y11252D01*
Y11185D01*
X20326D01*
X20992Y11452D02*
Y11052D01*
X20792D01*
X20725Y11119D01*
Y11252D01*
X20792Y11319D01*
X20992D01*
X13861Y10247D02*
X13728Y10380D01*
Y10513D01*
X13861Y10647D01*
X14327Y10513D02*
X14128D01*
X14061Y10447D01*
Y10314D01*
X14128Y10247D01*
X14327D01*
X14527D02*
X14661D01*
X14727Y10314D01*
Y10447D01*
X14661Y10513D01*
X14527D01*
X14461Y10447D01*
Y10314D01*
X14527Y10247D01*
X14861Y10114D02*
Y10513D01*
X15061D01*
X15127Y10447D01*
Y10314D01*
X15061Y10247D01*
X14861D01*
X15260D02*
X15394D01*
X15327D01*
Y10647D01*
X15260D01*
X15660Y10513D02*
X15794D01*
X15860Y10447D01*
Y10247D01*
X15660D01*
X15594Y10314D01*
X15660Y10380D01*
X15860D01*
X15994Y10247D02*
Y10513D01*
X16194D01*
X16260Y10447D01*
Y10247D01*
X16460Y10513D02*
X16593D01*
X16660Y10447D01*
Y10247D01*
X16460D01*
X16393Y10314D01*
X16460Y10380D01*
X16660D01*
X16793Y10513D02*
Y10247D01*
Y10380D01*
X16860Y10447D01*
X16927Y10513D01*
X16993D01*
X17193Y10247D02*
X17326Y10380D01*
Y10513D01*
X17193Y10647D01*
X17926Y10247D02*
X18060D01*
X17993D01*
Y10513D01*
X17926D01*
X18260Y10247D02*
Y10513D01*
X18326D01*
X18393Y10447D01*
Y10247D01*
Y10447D01*
X18459Y10513D01*
X18526Y10447D01*
Y10247D01*
X18659Y10114D02*
Y10513D01*
X18859D01*
X18926Y10447D01*
Y10314D01*
X18859Y10247D01*
X18659D01*
X19259D02*
X19126D01*
X19059Y10314D01*
Y10447D01*
X19126Y10513D01*
X19259D01*
X19326Y10447D01*
Y10380D01*
X19059D01*
X19726Y10647D02*
Y10247D01*
X19526D01*
X19459Y10314D01*
Y10447D01*
X19526Y10513D01*
X19726D01*
X19926D02*
X20059D01*
X20126Y10447D01*
Y10247D01*
X19926D01*
X19859Y10314D01*
X19926Y10380D01*
X20126D01*
X20259Y10247D02*
Y10513D01*
X20459D01*
X20525Y10447D01*
Y10247D01*
X20925Y10513D02*
X20725D01*
X20659Y10447D01*
Y10314D01*
X20725Y10247D01*
X20925D01*
X21259D02*
X21125D01*
X21059Y10314D01*
Y10447D01*
X21125Y10513D01*
X21259D01*
X21325Y10447D01*
Y10380D01*
X21059D01*
M02*
