G04*
G04 #@! TF.GenerationSoftware,Altium Limited,Altium Designer,22.10.1 (41)*
G04*
G04 Layer_Physical_Order=2*
G04 Layer_Color=36540*
%FSLAX24Y24*%
%MOIN*%
G70*
G04*
G04 #@! TF.SameCoordinates,1EAF6387-FA3A-421D-BABF-0C9075E41397*
G04*
G04*
G04 #@! TF.FilePolarity,Positive*
G04*
G01*
G75*
%ADD56C,0.0945*%
%ADD58C,0.0236*%
G36*
X400Y21450D02*
X23600D01*
X23603Y21450D01*
X23628Y21448D01*
X23656Y21444D01*
X23683Y21436D01*
X23708Y21425D01*
X23733Y21412D01*
X23756Y21395D01*
X23777Y21377D01*
X23795Y21356D01*
X23812Y21333D01*
X23825Y21308D01*
X23836Y21283D01*
X23844Y21256D01*
X23845Y21248D01*
X23850Y21200D01*
X23850Y21200D01*
X23850Y21151D01*
Y16326D01*
X21138D01*
Y15274D01*
X23850D01*
Y7326D01*
X21131D01*
Y6274D01*
X23850D01*
Y400D01*
X23850Y397D01*
X23848Y372D01*
X23844Y344D01*
X23836Y317D01*
X23825Y292D01*
X23812Y267D01*
X23795Y244D01*
X23777Y223D01*
X23756Y205D01*
X23733Y188D01*
X23708Y175D01*
X23683Y164D01*
X23656Y156D01*
X23628Y152D01*
X23603Y150D01*
X23600Y150D01*
X400D01*
X397Y150D01*
X372Y152D01*
X344Y156D01*
X317Y164D01*
X292Y175D01*
X267Y188D01*
X244Y205D01*
X223Y223D01*
X205Y244D01*
X188Y267D01*
X175Y292D01*
X164Y317D01*
X156Y344D01*
X155Y352D01*
X150Y400D01*
X150Y400D01*
X150Y400D01*
Y6274D01*
X2868D01*
Y7326D01*
X150D01*
Y21200D01*
X150Y21203D01*
X152Y21228D01*
X156Y21256D01*
X164Y21283D01*
X175Y21308D01*
X188Y21333D01*
X205Y21356D01*
X223Y21377D01*
X244Y21395D01*
X267Y21412D01*
X292Y21425D01*
X317Y21436D01*
X344Y21444D01*
X372Y21448D01*
X397Y21450D01*
X400Y21450D01*
D02*
G37*
%LPC*%
G36*
X21000Y20460D02*
X20975Y20458D01*
X20951Y20452D01*
X20928Y20442D01*
X20906Y20429D01*
X20887Y20413D01*
X20871Y20394D01*
X20858Y20372D01*
X20848Y20349D01*
X20842Y20325D01*
X20840Y20300D01*
X20842Y20275D01*
X20848Y20251D01*
X20858Y20228D01*
X20871Y20206D01*
X20887Y20187D01*
X20906Y20171D01*
X20928Y20158D01*
X20951Y20148D01*
X20975Y20142D01*
X21000Y20140D01*
X21025Y20142D01*
X21049Y20148D01*
X21072Y20158D01*
X21094Y20171D01*
X21113Y20187D01*
X21129Y20206D01*
X21142Y20228D01*
X21152Y20251D01*
X21158Y20275D01*
X21160Y20300D01*
X21158Y20325D01*
X21152Y20349D01*
X21142Y20372D01*
X21129Y20394D01*
X21113Y20413D01*
X21094Y20429D01*
X21072Y20442D01*
X21049Y20452D01*
X21025Y20458D01*
X21000Y20460D01*
D02*
G37*
G36*
X20000D02*
X19975Y20458D01*
X19951Y20452D01*
X19928Y20442D01*
X19906Y20429D01*
X19887Y20413D01*
X19871Y20394D01*
X19858Y20372D01*
X19848Y20349D01*
X19842Y20325D01*
X19840Y20300D01*
X19842Y20275D01*
X19848Y20251D01*
X19858Y20228D01*
X19871Y20206D01*
X19887Y20187D01*
X19906Y20171D01*
X19928Y20158D01*
X19951Y20148D01*
X19975Y20142D01*
X20000Y20140D01*
X20025Y20142D01*
X20049Y20148D01*
X20072Y20158D01*
X20094Y20171D01*
X20113Y20187D01*
X20129Y20206D01*
X20142Y20228D01*
X20152Y20251D01*
X20158Y20275D01*
X20160Y20300D01*
X20158Y20325D01*
X20152Y20349D01*
X20142Y20372D01*
X20129Y20394D01*
X20113Y20413D01*
X20094Y20429D01*
X20072Y20442D01*
X20049Y20452D01*
X20025Y20458D01*
X20000Y20460D01*
D02*
G37*
G36*
X19000D02*
X18975Y20458D01*
X18951Y20452D01*
X18928Y20442D01*
X18906Y20429D01*
X18887Y20413D01*
X18871Y20394D01*
X18858Y20372D01*
X18848Y20349D01*
X18842Y20325D01*
X18840Y20300D01*
X18842Y20275D01*
X18848Y20251D01*
X18858Y20228D01*
X18871Y20206D01*
X18887Y20187D01*
X18906Y20171D01*
X18928Y20158D01*
X18951Y20148D01*
X18975Y20142D01*
X19000Y20140D01*
X19025Y20142D01*
X19049Y20148D01*
X19072Y20158D01*
X19094Y20171D01*
X19113Y20187D01*
X19129Y20206D01*
X19142Y20228D01*
X19152Y20251D01*
X19158Y20275D01*
X19160Y20300D01*
X19158Y20325D01*
X19152Y20349D01*
X19142Y20372D01*
X19129Y20394D01*
X19113Y20413D01*
X19094Y20429D01*
X19072Y20442D01*
X19049Y20452D01*
X19025Y20458D01*
X19000Y20460D01*
D02*
G37*
G36*
X18000D02*
X17975Y20458D01*
X17951Y20452D01*
X17928Y20442D01*
X17906Y20429D01*
X17887Y20413D01*
X17871Y20394D01*
X17858Y20372D01*
X17848Y20349D01*
X17842Y20325D01*
X17840Y20300D01*
X17842Y20275D01*
X17848Y20251D01*
X17858Y20228D01*
X17871Y20206D01*
X17887Y20187D01*
X17906Y20171D01*
X17928Y20158D01*
X17951Y20148D01*
X17975Y20142D01*
X18000Y20140D01*
X18025Y20142D01*
X18049Y20148D01*
X18072Y20158D01*
X18094Y20171D01*
X18113Y20187D01*
X18129Y20206D01*
X18142Y20228D01*
X18152Y20251D01*
X18158Y20275D01*
X18160Y20300D01*
X18158Y20325D01*
X18152Y20349D01*
X18142Y20372D01*
X18129Y20394D01*
X18113Y20413D01*
X18094Y20429D01*
X18072Y20442D01*
X18049Y20452D01*
X18025Y20458D01*
X18000Y20460D01*
D02*
G37*
G36*
X17000D02*
X16975Y20458D01*
X16951Y20452D01*
X16928Y20442D01*
X16906Y20429D01*
X16887Y20413D01*
X16871Y20394D01*
X16858Y20372D01*
X16848Y20349D01*
X16842Y20325D01*
X16840Y20300D01*
X16842Y20275D01*
X16848Y20251D01*
X16858Y20228D01*
X16871Y20206D01*
X16887Y20187D01*
X16906Y20171D01*
X16928Y20158D01*
X16951Y20148D01*
X16975Y20142D01*
X17000Y20140D01*
X17025Y20142D01*
X17049Y20148D01*
X17072Y20158D01*
X17094Y20171D01*
X17113Y20187D01*
X17129Y20206D01*
X17142Y20228D01*
X17152Y20251D01*
X17158Y20275D01*
X17160Y20300D01*
X17158Y20325D01*
X17152Y20349D01*
X17142Y20372D01*
X17129Y20394D01*
X17113Y20413D01*
X17094Y20429D01*
X17072Y20442D01*
X17049Y20452D01*
X17025Y20458D01*
X17000Y20460D01*
D02*
G37*
G36*
X16000D02*
X15975Y20458D01*
X15951Y20452D01*
X15928Y20442D01*
X15906Y20429D01*
X15887Y20413D01*
X15871Y20394D01*
X15858Y20372D01*
X15848Y20349D01*
X15842Y20325D01*
X15840Y20300D01*
X15842Y20275D01*
X15848Y20251D01*
X15858Y20228D01*
X15871Y20206D01*
X15887Y20187D01*
X15906Y20171D01*
X15928Y20158D01*
X15951Y20148D01*
X15975Y20142D01*
X16000Y20140D01*
X16025Y20142D01*
X16049Y20148D01*
X16072Y20158D01*
X16094Y20171D01*
X16113Y20187D01*
X16129Y20206D01*
X16142Y20228D01*
X16152Y20251D01*
X16158Y20275D01*
X16160Y20300D01*
X16158Y20325D01*
X16152Y20349D01*
X16142Y20372D01*
X16129Y20394D01*
X16113Y20413D01*
X16094Y20429D01*
X16072Y20442D01*
X16049Y20452D01*
X16025Y20458D01*
X16000Y20460D01*
D02*
G37*
G36*
X15000D02*
X14975Y20458D01*
X14951Y20452D01*
X14928Y20442D01*
X14906Y20429D01*
X14887Y20413D01*
X14871Y20394D01*
X14858Y20372D01*
X14848Y20349D01*
X14842Y20325D01*
X14840Y20300D01*
X14842Y20275D01*
X14848Y20251D01*
X14858Y20228D01*
X14871Y20206D01*
X14887Y20187D01*
X14906Y20171D01*
X14928Y20158D01*
X14951Y20148D01*
X14975Y20142D01*
X15000Y20140D01*
X15025Y20142D01*
X15049Y20148D01*
X15072Y20158D01*
X15094Y20171D01*
X15113Y20187D01*
X15129Y20206D01*
X15142Y20228D01*
X15152Y20251D01*
X15158Y20275D01*
X15160Y20300D01*
X15158Y20325D01*
X15152Y20349D01*
X15142Y20372D01*
X15129Y20394D01*
X15113Y20413D01*
X15094Y20429D01*
X15072Y20442D01*
X15049Y20452D01*
X15025Y20458D01*
X15000Y20460D01*
D02*
G37*
G36*
X14000D02*
X13975Y20458D01*
X13951Y20452D01*
X13928Y20442D01*
X13906Y20429D01*
X13887Y20413D01*
X13871Y20394D01*
X13858Y20372D01*
X13848Y20349D01*
X13842Y20325D01*
X13840Y20300D01*
X13842Y20275D01*
X13848Y20251D01*
X13858Y20228D01*
X13871Y20206D01*
X13887Y20187D01*
X13906Y20171D01*
X13928Y20158D01*
X13951Y20148D01*
X13975Y20142D01*
X14000Y20140D01*
X14025Y20142D01*
X14049Y20148D01*
X14072Y20158D01*
X14094Y20171D01*
X14113Y20187D01*
X14129Y20206D01*
X14142Y20228D01*
X14152Y20251D01*
X14158Y20275D01*
X14160Y20300D01*
X14158Y20325D01*
X14152Y20349D01*
X14142Y20372D01*
X14129Y20394D01*
X14113Y20413D01*
X14094Y20429D01*
X14072Y20442D01*
X14049Y20452D01*
X14025Y20458D01*
X14000Y20460D01*
D02*
G37*
G36*
X12400D02*
X12375Y20458D01*
X12351Y20452D01*
X12328Y20442D01*
X12306Y20429D01*
X12287Y20413D01*
X12271Y20394D01*
X12258Y20372D01*
X12248Y20349D01*
X12242Y20325D01*
X12240Y20300D01*
X12242Y20275D01*
X12248Y20251D01*
X12258Y20228D01*
X12271Y20206D01*
X12287Y20187D01*
X12306Y20171D01*
X12328Y20158D01*
X12351Y20148D01*
X12375Y20142D01*
X12400Y20140D01*
X12425Y20142D01*
X12449Y20148D01*
X12472Y20158D01*
X12494Y20171D01*
X12513Y20187D01*
X12529Y20206D01*
X12542Y20228D01*
X12552Y20251D01*
X12558Y20275D01*
X12560Y20300D01*
X12558Y20325D01*
X12552Y20349D01*
X12542Y20372D01*
X12529Y20394D01*
X12513Y20413D01*
X12494Y20429D01*
X12472Y20442D01*
X12449Y20452D01*
X12425Y20458D01*
X12400Y20460D01*
D02*
G37*
G36*
X11400D02*
X11375Y20458D01*
X11351Y20452D01*
X11328Y20442D01*
X11306Y20429D01*
X11287Y20413D01*
X11271Y20394D01*
X11258Y20372D01*
X11248Y20349D01*
X11242Y20325D01*
X11240Y20300D01*
X11242Y20275D01*
X11248Y20251D01*
X11258Y20228D01*
X11271Y20206D01*
X11287Y20187D01*
X11306Y20171D01*
X11328Y20158D01*
X11351Y20148D01*
X11375Y20142D01*
X11400Y20140D01*
X11425Y20142D01*
X11449Y20148D01*
X11472Y20158D01*
X11494Y20171D01*
X11513Y20187D01*
X11529Y20206D01*
X11542Y20228D01*
X11552Y20251D01*
X11558Y20275D01*
X11560Y20300D01*
X11558Y20325D01*
X11552Y20349D01*
X11542Y20372D01*
X11529Y20394D01*
X11513Y20413D01*
X11494Y20429D01*
X11472Y20442D01*
X11449Y20452D01*
X11425Y20458D01*
X11400Y20460D01*
D02*
G37*
G36*
X10400D02*
X10375Y20458D01*
X10351Y20452D01*
X10328Y20442D01*
X10306Y20429D01*
X10287Y20413D01*
X10271Y20394D01*
X10258Y20372D01*
X10248Y20349D01*
X10242Y20325D01*
X10240Y20300D01*
X10242Y20275D01*
X10248Y20251D01*
X10258Y20228D01*
X10271Y20206D01*
X10287Y20187D01*
X10306Y20171D01*
X10328Y20158D01*
X10351Y20148D01*
X10375Y20142D01*
X10400Y20140D01*
X10425Y20142D01*
X10449Y20148D01*
X10472Y20158D01*
X10494Y20171D01*
X10513Y20187D01*
X10529Y20206D01*
X10542Y20228D01*
X10552Y20251D01*
X10558Y20275D01*
X10560Y20300D01*
X10558Y20325D01*
X10552Y20349D01*
X10542Y20372D01*
X10529Y20394D01*
X10513Y20413D01*
X10494Y20429D01*
X10472Y20442D01*
X10449Y20452D01*
X10425Y20458D01*
X10400Y20460D01*
D02*
G37*
G36*
X9400D02*
X9375Y20458D01*
X9351Y20452D01*
X9328Y20442D01*
X9306Y20429D01*
X9287Y20413D01*
X9271Y20394D01*
X9258Y20372D01*
X9248Y20349D01*
X9242Y20325D01*
X9240Y20300D01*
X9242Y20275D01*
X9248Y20251D01*
X9258Y20228D01*
X9271Y20206D01*
X9287Y20187D01*
X9306Y20171D01*
X9328Y20158D01*
X9351Y20148D01*
X9375Y20142D01*
X9400Y20140D01*
X9425Y20142D01*
X9449Y20148D01*
X9472Y20158D01*
X9494Y20171D01*
X9513Y20187D01*
X9529Y20206D01*
X9542Y20228D01*
X9552Y20251D01*
X9558Y20275D01*
X9560Y20300D01*
X9558Y20325D01*
X9552Y20349D01*
X9542Y20372D01*
X9529Y20394D01*
X9513Y20413D01*
X9494Y20429D01*
X9472Y20442D01*
X9449Y20452D01*
X9425Y20458D01*
X9400Y20460D01*
D02*
G37*
G36*
X8400D02*
X8375Y20458D01*
X8351Y20452D01*
X8328Y20442D01*
X8306Y20429D01*
X8287Y20413D01*
X8271Y20394D01*
X8258Y20372D01*
X8248Y20349D01*
X8242Y20325D01*
X8240Y20300D01*
X8242Y20275D01*
X8248Y20251D01*
X8258Y20228D01*
X8271Y20206D01*
X8287Y20187D01*
X8306Y20171D01*
X8328Y20158D01*
X8351Y20148D01*
X8375Y20142D01*
X8400Y20140D01*
X8425Y20142D01*
X8449Y20148D01*
X8472Y20158D01*
X8494Y20171D01*
X8513Y20187D01*
X8529Y20206D01*
X8542Y20228D01*
X8552Y20251D01*
X8558Y20275D01*
X8560Y20300D01*
X8558Y20325D01*
X8552Y20349D01*
X8542Y20372D01*
X8529Y20394D01*
X8513Y20413D01*
X8494Y20429D01*
X8472Y20442D01*
X8449Y20452D01*
X8425Y20458D01*
X8400Y20460D01*
D02*
G37*
G36*
X7400D02*
X7375Y20458D01*
X7351Y20452D01*
X7328Y20442D01*
X7306Y20429D01*
X7287Y20413D01*
X7271Y20394D01*
X7258Y20372D01*
X7248Y20349D01*
X7242Y20325D01*
X7240Y20300D01*
X7242Y20275D01*
X7248Y20251D01*
X7258Y20228D01*
X7271Y20206D01*
X7287Y20187D01*
X7306Y20171D01*
X7328Y20158D01*
X7351Y20148D01*
X7375Y20142D01*
X7400Y20140D01*
X7425Y20142D01*
X7449Y20148D01*
X7472Y20158D01*
X7494Y20171D01*
X7513Y20187D01*
X7529Y20206D01*
X7542Y20228D01*
X7552Y20251D01*
X7558Y20275D01*
X7560Y20300D01*
X7558Y20325D01*
X7552Y20349D01*
X7542Y20372D01*
X7529Y20394D01*
X7513Y20413D01*
X7494Y20429D01*
X7472Y20442D01*
X7449Y20452D01*
X7425Y20458D01*
X7400Y20460D01*
D02*
G37*
G36*
X5400D02*
X5375Y20458D01*
X5351Y20452D01*
X5328Y20442D01*
X5306Y20429D01*
X5287Y20413D01*
X5271Y20394D01*
X5258Y20372D01*
X5248Y20349D01*
X5242Y20325D01*
X5240Y20300D01*
X5242Y20275D01*
X5248Y20251D01*
X5258Y20228D01*
X5271Y20206D01*
X5287Y20187D01*
X5306Y20171D01*
X5328Y20158D01*
X5351Y20148D01*
X5375Y20142D01*
X5400Y20140D01*
X5425Y20142D01*
X5449Y20148D01*
X5472Y20158D01*
X5494Y20171D01*
X5513Y20187D01*
X5529Y20206D01*
X5542Y20228D01*
X5552Y20251D01*
X5558Y20275D01*
X5560Y20300D01*
X5558Y20325D01*
X5552Y20349D01*
X5542Y20372D01*
X5529Y20394D01*
X5513Y20413D01*
X5494Y20429D01*
X5472Y20442D01*
X5449Y20452D01*
X5425Y20458D01*
X5400Y20460D01*
D02*
G37*
G36*
X4400D02*
X4375Y20458D01*
X4351Y20452D01*
X4328Y20442D01*
X4306Y20429D01*
X4287Y20413D01*
X4271Y20394D01*
X4258Y20372D01*
X4248Y20349D01*
X4242Y20325D01*
X4240Y20300D01*
X4242Y20275D01*
X4248Y20251D01*
X4258Y20228D01*
X4271Y20206D01*
X4287Y20187D01*
X4306Y20171D01*
X4328Y20158D01*
X4351Y20148D01*
X4375Y20142D01*
X4400Y20140D01*
X4425Y20142D01*
X4449Y20148D01*
X4472Y20158D01*
X4494Y20171D01*
X4513Y20187D01*
X4529Y20206D01*
X4542Y20228D01*
X4552Y20251D01*
X4558Y20275D01*
X4560Y20300D01*
X4558Y20325D01*
X4552Y20349D01*
X4542Y20372D01*
X4529Y20394D01*
X4513Y20413D01*
X4494Y20429D01*
X4472Y20442D01*
X4449Y20452D01*
X4425Y20458D01*
X4400Y20460D01*
D02*
G37*
G36*
X3400D02*
X3375Y20458D01*
X3351Y20452D01*
X3328Y20442D01*
X3306Y20429D01*
X3287Y20413D01*
X3271Y20394D01*
X3258Y20372D01*
X3248Y20349D01*
X3242Y20325D01*
X3240Y20300D01*
X3242Y20275D01*
X3248Y20251D01*
X3258Y20228D01*
X3271Y20206D01*
X3287Y20187D01*
X3306Y20171D01*
X3328Y20158D01*
X3351Y20148D01*
X3375Y20142D01*
X3400Y20140D01*
X3425Y20142D01*
X3449Y20148D01*
X3472Y20158D01*
X3494Y20171D01*
X3513Y20187D01*
X3529Y20206D01*
X3542Y20228D01*
X3552Y20251D01*
X3558Y20275D01*
X3560Y20300D01*
X3558Y20325D01*
X3552Y20349D01*
X3542Y20372D01*
X3529Y20394D01*
X3513Y20413D01*
X3494Y20429D01*
X3472Y20442D01*
X3449Y20452D01*
X3425Y20458D01*
X3400Y20460D01*
D02*
G37*
G36*
X2000Y21375D02*
X1935Y21373D01*
X1870Y21368D01*
X1806Y21358D01*
X1743Y21344D01*
X1680Y21327D01*
X1619Y21305D01*
X1559Y21281D01*
X1500Y21252D01*
X1444Y21220D01*
X1389Y21185D01*
X1337Y21147D01*
X1287Y21105D01*
X1240Y21060D01*
X1195Y21013D01*
X1153Y20963D01*
X1115Y20911D01*
X1080Y20856D01*
X1048Y20800D01*
X1019Y20741D01*
X994Y20681D01*
X973Y20620D01*
X956Y20557D01*
X942Y20494D01*
X932Y20430D01*
X927Y20365D01*
X925Y20300D01*
X927Y20235D01*
X932Y20170D01*
X942Y20106D01*
X956Y20043D01*
X973Y19980D01*
X994Y19919D01*
X1019Y19859D01*
X1048Y19800D01*
X1080Y19744D01*
X1115Y19689D01*
X1153Y19637D01*
X1195Y19587D01*
X1240Y19540D01*
X1287Y19495D01*
X1337Y19453D01*
X1389Y19415D01*
X1444Y19380D01*
X1500Y19348D01*
X1559Y19319D01*
X1619Y19295D01*
X1680Y19273D01*
X1743Y19256D01*
X1806Y19242D01*
X1870Y19232D01*
X1935Y19227D01*
X2000Y19225D01*
X2065Y19227D01*
X2130Y19232D01*
X2194Y19242D01*
X2257Y19256D01*
X2320Y19273D01*
X2381Y19295D01*
X2441Y19319D01*
X2500Y19348D01*
X2556Y19380D01*
X2611Y19415D01*
X2663Y19453D01*
X2713Y19495D01*
X2760Y19540D01*
X2805Y19587D01*
X2846Y19637D01*
X2885Y19689D01*
X2920Y19744D01*
X2952Y19800D01*
X2981Y19859D01*
X3005Y19919D01*
X3027Y19980D01*
X3044Y20043D01*
X3058Y20106D01*
X3068Y20170D01*
X3073Y20235D01*
X3075Y20300D01*
X3073Y20365D01*
X3068Y20430D01*
X3058Y20494D01*
X3044Y20557D01*
X3027Y20620D01*
X3005Y20681D01*
X2981Y20741D01*
X2952Y20800D01*
X2920Y20856D01*
X2885Y20911D01*
X2846Y20963D01*
X2805Y21013D01*
X2760Y21060D01*
X2713Y21105D01*
X2663Y21147D01*
X2611Y21185D01*
X2556Y21220D01*
X2500Y21252D01*
X2441Y21281D01*
X2381Y21305D01*
X2320Y21327D01*
X2257Y21344D01*
X2194Y21358D01*
X2130Y21368D01*
X2065Y21373D01*
X2000Y21375D01*
D02*
G37*
G36*
X23156Y18046D02*
Y17525D01*
X23677D01*
X23672Y17565D01*
X23663Y17609D01*
X23651Y17652D01*
X23636Y17694D01*
X23617Y17735D01*
X23595Y17775D01*
X23570Y17812D01*
X23542Y17847D01*
X23511Y17880D01*
X23478Y17911D01*
X23443Y17939D01*
X23406Y17964D01*
X23366Y17986D01*
X23325Y18004D01*
X23283Y18020D01*
X23240Y18032D01*
X23196Y18041D01*
X23156Y18046D01*
D02*
G37*
G36*
X21845D02*
Y17525D01*
X22366D01*
X22361Y17565D01*
X22352Y17609D01*
X22340Y17652D01*
X22325Y17694D01*
X22306Y17735D01*
X22284Y17775D01*
X22259Y17812D01*
X22231Y17847D01*
X22200Y17880D01*
X22167Y17911D01*
X22132Y17939D01*
X22095Y17964D01*
X22055Y17986D01*
X22014Y18004D01*
X21972Y18020D01*
X21929Y18032D01*
X21885Y18041D01*
X21845Y18046D01*
D02*
G37*
G36*
X23056Y18046D02*
X23017Y18041D01*
X22973Y18032D01*
X22929Y18020D01*
X22887Y18004D01*
X22846Y17986D01*
X22807Y17964D01*
X22770Y17939D01*
X22734Y17911D01*
X22701Y17880D01*
X22671Y17847D01*
X22643Y17812D01*
X22618Y17775D01*
X22596Y17735D01*
X22577Y17694D01*
X22561Y17652D01*
X22549Y17609D01*
X22540Y17565D01*
X22536Y17525D01*
X23056D01*
Y18046D01*
D02*
G37*
G36*
X21745D02*
X21706Y18041D01*
X21661Y18032D01*
X21618Y18020D01*
X21576Y18004D01*
X21535Y17986D01*
X21496Y17964D01*
X21458Y17939D01*
X21423Y17911D01*
X21390Y17880D01*
X21360Y17847D01*
X21332Y17812D01*
X21307Y17775D01*
X21285Y17735D01*
X21266Y17694D01*
X21250Y17652D01*
X21238Y17609D01*
X21229Y17565D01*
X21225Y17525D01*
X21745D01*
Y18046D01*
D02*
G37*
G36*
X23677Y17425D02*
X23156D01*
Y16905D01*
X23196Y16909D01*
X23240Y16918D01*
X23283Y16930D01*
X23325Y16946D01*
X23366Y16965D01*
X23406Y16987D01*
X23443Y17012D01*
X23478Y17040D01*
X23511Y17070D01*
X23542Y17103D01*
X23570Y17138D01*
X23595Y17176D01*
X23617Y17215D01*
X23636Y17256D01*
X23651Y17298D01*
X23663Y17341D01*
X23672Y17386D01*
X23677Y17425D01*
D02*
G37*
G36*
X22366D02*
X21845D01*
Y16905D01*
X21885Y16909D01*
X21929Y16918D01*
X21972Y16930D01*
X22014Y16946D01*
X22055Y16965D01*
X22095Y16987D01*
X22132Y17012D01*
X22167Y17040D01*
X22200Y17070D01*
X22231Y17103D01*
X22259Y17138D01*
X22284Y17176D01*
X22306Y17215D01*
X22325Y17256D01*
X22340Y17298D01*
X22352Y17341D01*
X22361Y17386D01*
X22366Y17425D01*
D02*
G37*
G36*
X23056D02*
X22536D01*
X22540Y17386D01*
X22549Y17341D01*
X22561Y17298D01*
X22577Y17256D01*
X22596Y17215D01*
X22618Y17176D01*
X22643Y17138D01*
X22671Y17103D01*
X22701Y17070D01*
X22734Y17040D01*
X22770Y17012D01*
X22807Y16987D01*
X22846Y16965D01*
X22887Y16946D01*
X22929Y16930D01*
X22973Y16918D01*
X23017Y16909D01*
X23056Y16905D01*
Y17425D01*
D02*
G37*
G36*
X21745D02*
X21225D01*
X21229Y17386D01*
X21238Y17341D01*
X21250Y17298D01*
X21266Y17256D01*
X21285Y17215D01*
X21307Y17176D01*
X21332Y17138D01*
X21360Y17103D01*
X21390Y17070D01*
X21423Y17040D01*
X21458Y17012D01*
X21496Y16987D01*
X21535Y16965D01*
X21576Y16946D01*
X21618Y16930D01*
X21661Y16918D01*
X21706Y16909D01*
X21745Y16905D01*
Y17425D01*
D02*
G37*
G36*
X23156Y14695D02*
Y14175D01*
X23677D01*
X23672Y14214D01*
X23663Y14259D01*
X23651Y14302D01*
X23636Y14344D01*
X23617Y14385D01*
X23595Y14424D01*
X23570Y14462D01*
X23542Y14497D01*
X23511Y14530D01*
X23478Y14560D01*
X23443Y14588D01*
X23406Y14613D01*
X23366Y14635D01*
X23325Y14654D01*
X23283Y14670D01*
X23240Y14682D01*
X23196Y14691D01*
X23156Y14695D01*
D02*
G37*
G36*
X21845D02*
Y14175D01*
X22366D01*
X22361Y14214D01*
X22352Y14259D01*
X22340Y14302D01*
X22325Y14344D01*
X22306Y14385D01*
X22284Y14424D01*
X22259Y14462D01*
X22231Y14497D01*
X22200Y14530D01*
X22167Y14560D01*
X22132Y14588D01*
X22095Y14613D01*
X22055Y14635D01*
X22014Y14654D01*
X21972Y14670D01*
X21929Y14682D01*
X21885Y14691D01*
X21845Y14695D01*
D02*
G37*
G36*
X23056Y14695D02*
X23017Y14691D01*
X22973Y14682D01*
X22929Y14670D01*
X22887Y14654D01*
X22846Y14635D01*
X22807Y14613D01*
X22770Y14588D01*
X22734Y14560D01*
X22701Y14530D01*
X22671Y14497D01*
X22643Y14462D01*
X22618Y14424D01*
X22596Y14385D01*
X22577Y14344D01*
X22561Y14302D01*
X22549Y14259D01*
X22540Y14214D01*
X22536Y14175D01*
X23056D01*
Y14695D01*
D02*
G37*
G36*
X21745D02*
X21706Y14691D01*
X21661Y14682D01*
X21618Y14670D01*
X21576Y14654D01*
X21535Y14635D01*
X21496Y14613D01*
X21458Y14588D01*
X21423Y14560D01*
X21390Y14530D01*
X21360Y14497D01*
X21332Y14462D01*
X21307Y14424D01*
X21285Y14385D01*
X21266Y14344D01*
X21250Y14302D01*
X21238Y14259D01*
X21229Y14214D01*
X21225Y14175D01*
X21745D01*
Y14695D01*
D02*
G37*
G36*
X23677Y14075D02*
X23156D01*
Y13554D01*
X23196Y13559D01*
X23240Y13568D01*
X23283Y13580D01*
X23325Y13596D01*
X23366Y13614D01*
X23406Y13636D01*
X23443Y13661D01*
X23478Y13689D01*
X23511Y13720D01*
X23542Y13753D01*
X23570Y13788D01*
X23595Y13825D01*
X23617Y13865D01*
X23636Y13906D01*
X23651Y13948D01*
X23663Y13991D01*
X23672Y14035D01*
X23677Y14075D01*
D02*
G37*
G36*
X22366D02*
X21845D01*
Y13554D01*
X21885Y13559D01*
X21929Y13568D01*
X21972Y13580D01*
X22014Y13596D01*
X22055Y13614D01*
X22095Y13636D01*
X22132Y13661D01*
X22167Y13689D01*
X22200Y13720D01*
X22231Y13753D01*
X22259Y13788D01*
X22284Y13825D01*
X22306Y13865D01*
X22325Y13906D01*
X22340Y13948D01*
X22352Y13991D01*
X22361Y14035D01*
X22366Y14075D01*
D02*
G37*
G36*
X23056D02*
X22536D01*
X22540Y14035D01*
X22549Y13991D01*
X22561Y13948D01*
X22577Y13906D01*
X22596Y13865D01*
X22618Y13825D01*
X22643Y13788D01*
X22671Y13753D01*
X22701Y13720D01*
X22734Y13689D01*
X22770Y13661D01*
X22807Y13636D01*
X22846Y13614D01*
X22887Y13596D01*
X22929Y13580D01*
X22973Y13568D01*
X23017Y13559D01*
X23056Y13554D01*
Y14075D01*
D02*
G37*
G36*
X21745D02*
X21225D01*
X21229Y14035D01*
X21238Y13991D01*
X21250Y13948D01*
X21266Y13906D01*
X21285Y13865D01*
X21307Y13825D01*
X21332Y13788D01*
X21360Y13753D01*
X21390Y13720D01*
X21423Y13689D01*
X21458Y13661D01*
X21496Y13636D01*
X21535Y13614D01*
X21576Y13596D01*
X21618Y13580D01*
X21661Y13568D01*
X21706Y13559D01*
X21745Y13554D01*
Y14075D01*
D02*
G37*
G36*
X10186Y12928D02*
X10161Y12926D01*
X10136Y12920D01*
X10113Y12911D01*
X10092Y12898D01*
X10073Y12881D01*
X10057Y12862D01*
X10044Y12841D01*
X10034Y12818D01*
X10028Y12793D01*
X10026Y12769D01*
X10028Y12744D01*
X10034Y12719D01*
X10044Y12696D01*
X10057Y12675D01*
X10073Y12656D01*
X10092Y12639D01*
X10113Y12626D01*
X10136Y12617D01*
X10161Y12611D01*
X10186Y12609D01*
X10211Y12611D01*
X10235Y12617D01*
X10258Y12626D01*
X10279Y12639D01*
X10299Y12656D01*
X10315Y12675D01*
X10328Y12696D01*
X10337Y12719D01*
X10343Y12744D01*
X10345Y12769D01*
X10343Y12793D01*
X10337Y12818D01*
X10328Y12841D01*
X10315Y12862D01*
X10299Y12881D01*
X10279Y12898D01*
X10258Y12911D01*
X10235Y12920D01*
X10211Y12926D01*
X10186Y12928D01*
D02*
G37*
G36*
X13027Y12486D02*
X13002Y12484D01*
X12977Y12478D01*
X12954Y12469D01*
X12933Y12456D01*
X12914Y12439D01*
X12898Y12420D01*
X12884Y12399D01*
X12875Y12376D01*
X12869Y12352D01*
X12867Y12327D01*
X12869Y12302D01*
X12875Y12277D01*
X12884Y12254D01*
X12898Y12233D01*
X12914Y12214D01*
X12933Y12198D01*
X12954Y12184D01*
X12977Y12175D01*
X13002Y12169D01*
X13027Y12167D01*
X13052Y12169D01*
X13076Y12175D01*
X13099Y12184D01*
X13120Y12198D01*
X13139Y12214D01*
X13156Y12233D01*
X13169Y12254D01*
X13178Y12277D01*
X13184Y12302D01*
X13186Y12327D01*
X13184Y12352D01*
X13178Y12376D01*
X13169Y12399D01*
X13156Y12420D01*
X13139Y12439D01*
X13120Y12456D01*
X13099Y12469D01*
X13076Y12478D01*
X13052Y12484D01*
X13027Y12486D01*
D02*
G37*
G36*
X13740Y12200D02*
X13715Y12198D01*
X13691Y12192D01*
X13668Y12182D01*
X13647Y12169D01*
X13628Y12153D01*
X13611Y12134D01*
X13598Y12112D01*
X13589Y12089D01*
X13583Y12065D01*
X13581Y12040D01*
X13583Y12015D01*
X13589Y11991D01*
X13598Y11968D01*
X13611Y11946D01*
X13628Y11927D01*
X13647Y11911D01*
X13664Y11900D01*
X13668Y11878D01*
Y11868D01*
X13664Y11845D01*
X13647Y11835D01*
X13628Y11819D01*
X13611Y11800D01*
X13598Y11778D01*
X13589Y11755D01*
X13583Y11731D01*
X13581Y11706D01*
X13583Y11681D01*
X13589Y11657D01*
X13598Y11633D01*
X13611Y11612D01*
X13628Y11593D01*
X13647Y11577D01*
X13668Y11564D01*
X13691Y11554D01*
X13715Y11548D01*
X13740Y11546D01*
X13765Y11548D01*
X13790Y11554D01*
X13813Y11564D01*
X13834Y11577D01*
X13853Y11593D01*
X13869Y11612D01*
X13883Y11633D01*
X13892Y11657D01*
X13898Y11681D01*
X13900Y11706D01*
X13898Y11731D01*
X13892Y11755D01*
X13883Y11778D01*
X13869Y11800D01*
X13853Y11819D01*
X13834Y11835D01*
X13817Y11845D01*
X13813Y11868D01*
Y11878D01*
X13817Y11900D01*
X13834Y11911D01*
X13853Y11927D01*
X13869Y11946D01*
X13883Y11968D01*
X13892Y11991D01*
X13898Y12015D01*
X13900Y12040D01*
X13898Y12065D01*
X13892Y12089D01*
X13883Y12112D01*
X13869Y12134D01*
X13853Y12153D01*
X13834Y12169D01*
X13813Y12182D01*
X13790Y12192D01*
X13765Y12198D01*
X13740Y12200D01*
D02*
G37*
G36*
X10410Y11345D02*
X10385Y11343D01*
X10361Y11337D01*
X10338Y11328D01*
X10316Y11315D01*
X10297Y11298D01*
X10281Y11279D01*
X10268Y11258D01*
X10258Y11235D01*
X10252Y11211D01*
X10250Y11186D01*
X10252Y11161D01*
X10258Y11136D01*
X10268Y11113D01*
X10281Y11092D01*
X10297Y11073D01*
X10316Y11056D01*
X10338Y11043D01*
X10361Y11034D01*
X10385Y11028D01*
X10410Y11026D01*
X10435Y11028D01*
X10459Y11034D01*
X10482Y11043D01*
X10504Y11056D01*
X10523Y11073D01*
X10539Y11092D01*
X10552Y11113D01*
X10562Y11136D01*
X10568Y11161D01*
X10570Y11186D01*
X10568Y11211D01*
X10562Y11235D01*
X10552Y11258D01*
X10539Y11279D01*
X10523Y11298D01*
X10504Y11315D01*
X10482Y11328D01*
X10459Y11337D01*
X10435Y11343D01*
X10410Y11345D01*
D02*
G37*
G36*
X14197Y10526D02*
X14173Y10524D01*
X14148Y10518D01*
X14125Y10508D01*
X14104Y10495D01*
X14085Y10479D01*
X14068Y10460D01*
X14055Y10439D01*
X14046Y10415D01*
X14040Y10391D01*
X14038Y10366D01*
X14040Y10341D01*
X14046Y10317D01*
X14055Y10294D01*
X14068Y10272D01*
X14085Y10253D01*
X14104Y10237D01*
X14125Y10224D01*
X14148Y10214D01*
X14173Y10209D01*
X14197Y10207D01*
X14222Y10209D01*
X14247Y10214D01*
X14270Y10224D01*
X14291Y10237D01*
X14310Y10253D01*
X14327Y10272D01*
X14340Y10294D01*
X14349Y10317D01*
X14355Y10341D01*
X14357Y10366D01*
X14355Y10391D01*
X14349Y10415D01*
X14340Y10439D01*
X14327Y10460D01*
X14310Y10479D01*
X14291Y10495D01*
X14270Y10508D01*
X14247Y10518D01*
X14222Y10524D01*
X14197Y10526D01*
D02*
G37*
G36*
X15005Y10025D02*
X14980Y10023D01*
X14956Y10017D01*
X14933Y10007D01*
X14911Y9994D01*
X14892Y9978D01*
X14876Y9959D01*
X14863Y9937D01*
X14853Y9914D01*
X14847Y9890D01*
X14845Y9865D01*
X14847Y9840D01*
X14853Y9816D01*
X14863Y9793D01*
X14876Y9771D01*
X14892Y9752D01*
X14911Y9736D01*
X14933Y9723D01*
X14956Y9713D01*
X14980Y9707D01*
X15005Y9705D01*
X15030Y9707D01*
X15054Y9713D01*
X15077Y9723D01*
X15099Y9736D01*
X15118Y9752D01*
X15134Y9771D01*
X15147Y9793D01*
X15157Y9816D01*
X15163Y9840D01*
X15165Y9865D01*
X15163Y9890D01*
X15157Y9914D01*
X15147Y9937D01*
X15134Y9959D01*
X15118Y9978D01*
X15099Y9994D01*
X15077Y10007D01*
X15054Y10017D01*
X15030Y10023D01*
X15005Y10025D01*
D02*
G37*
G36*
X23149Y9046D02*
Y8525D01*
X23670D01*
X23665Y8565D01*
X23656Y8609D01*
X23644Y8652D01*
X23628Y8694D01*
X23610Y8735D01*
X23588Y8775D01*
X23563Y8812D01*
X23535Y8847D01*
X23504Y8880D01*
X23471Y8911D01*
X23436Y8939D01*
X23399Y8964D01*
X23359Y8986D01*
X23318Y9004D01*
X23276Y9020D01*
X23233Y9032D01*
X23189Y9041D01*
X23149Y9046D01*
D02*
G37*
G36*
X21838D02*
Y8525D01*
X22359D01*
X22354Y8565D01*
X22345Y8609D01*
X22333Y8652D01*
X22317Y8694D01*
X22299Y8735D01*
X22277Y8775D01*
X22252Y8812D01*
X22224Y8847D01*
X22193Y8880D01*
X22160Y8911D01*
X22125Y8939D01*
X22088Y8964D01*
X22048Y8986D01*
X22007Y9004D01*
X21965Y9020D01*
X21922Y9032D01*
X21878Y9041D01*
X21838Y9046D01*
D02*
G37*
G36*
X23049D02*
X23010Y9041D01*
X22965Y9032D01*
X22922Y9020D01*
X22880Y9004D01*
X22839Y8986D01*
X22800Y8964D01*
X22762Y8939D01*
X22727Y8911D01*
X22694Y8880D01*
X22664Y8847D01*
X22636Y8812D01*
X22611Y8775D01*
X22589Y8735D01*
X22570Y8694D01*
X22554Y8652D01*
X22542Y8609D01*
X22533Y8565D01*
X22529Y8525D01*
X23049D01*
Y9046D01*
D02*
G37*
G36*
X21738D02*
X21699Y9041D01*
X21654Y9032D01*
X21611Y9020D01*
X21569Y9004D01*
X21528Y8986D01*
X21489Y8964D01*
X21451Y8939D01*
X21416Y8911D01*
X21383Y8880D01*
X21353Y8847D01*
X21325Y8812D01*
X21300Y8775D01*
X21278Y8735D01*
X21259Y8694D01*
X21243Y8652D01*
X21231Y8609D01*
X21222Y8565D01*
X21218Y8525D01*
X21738D01*
Y9046D01*
D02*
G37*
G36*
X2261D02*
Y8525D01*
X2781D01*
X2776Y8565D01*
X2768Y8609D01*
X2755Y8652D01*
X2740Y8694D01*
X2721Y8735D01*
X2699Y8775D01*
X2674Y8812D01*
X2646Y8847D01*
X2616Y8880D01*
X2583Y8911D01*
X2547Y8939D01*
X2510Y8964D01*
X2471Y8986D01*
X2430Y9004D01*
X2388Y9020D01*
X2344Y9032D01*
X2300Y9041D01*
X2261Y9046D01*
D02*
G37*
G36*
X2161D02*
X2121Y9041D01*
X2077Y9032D01*
X2034Y9020D01*
X1991Y9004D01*
X1951Y8986D01*
X1911Y8964D01*
X1874Y8939D01*
X1839Y8911D01*
X1806Y8880D01*
X1775Y8847D01*
X1747Y8812D01*
X1722Y8775D01*
X1700Y8735D01*
X1681Y8694D01*
X1666Y8652D01*
X1654Y8609D01*
X1645Y8565D01*
X1640Y8525D01*
X2161D01*
Y9046D01*
D02*
G37*
G36*
X950D02*
Y8525D01*
X1470D01*
X1465Y8565D01*
X1457Y8609D01*
X1444Y8652D01*
X1429Y8694D01*
X1410Y8735D01*
X1388Y8775D01*
X1363Y8812D01*
X1335Y8847D01*
X1305Y8880D01*
X1272Y8911D01*
X1236Y8939D01*
X1199Y8964D01*
X1160Y8986D01*
X1119Y9004D01*
X1077Y9020D01*
X1033Y9032D01*
X989Y9041D01*
X950Y9046D01*
D02*
G37*
G36*
X850D02*
X810Y9041D01*
X766Y9032D01*
X723Y9020D01*
X680Y9004D01*
X640Y8986D01*
X600Y8964D01*
X563Y8939D01*
X528Y8911D01*
X495Y8880D01*
X464Y8847D01*
X436Y8812D01*
X411Y8775D01*
X389Y8735D01*
X370Y8694D01*
X355Y8652D01*
X343Y8609D01*
X334Y8565D01*
X329Y8525D01*
X850D01*
Y9046D01*
D02*
G37*
G36*
X23049Y8425D02*
X22529D01*
X22533Y8386D01*
X22542Y8341D01*
X22554Y8298D01*
X22570Y8256D01*
X22589Y8215D01*
X22611Y8176D01*
X22636Y8138D01*
X22664Y8103D01*
X22694Y8070D01*
X22727Y8040D01*
X22762Y8012D01*
X22800Y7987D01*
X22839Y7965D01*
X22880Y7946D01*
X22922Y7930D01*
X22965Y7918D01*
X23010Y7909D01*
X23049Y7905D01*
Y8425D01*
D02*
G37*
G36*
X21738D02*
X21218D01*
X21222Y8386D01*
X21231Y8341D01*
X21243Y8298D01*
X21259Y8256D01*
X21278Y8215D01*
X21300Y8176D01*
X21325Y8138D01*
X21353Y8103D01*
X21383Y8070D01*
X21416Y8040D01*
X21451Y8012D01*
X21489Y7987D01*
X21528Y7965D01*
X21569Y7946D01*
X21611Y7930D01*
X21654Y7918D01*
X21699Y7909D01*
X21738Y7905D01*
Y8425D01*
D02*
G37*
G36*
X2781Y8425D02*
X2261D01*
Y7905D01*
X2300Y7909D01*
X2344Y7918D01*
X2388Y7930D01*
X2430Y7946D01*
X2471Y7965D01*
X2510Y7987D01*
X2547Y8012D01*
X2583Y8040D01*
X2616Y8070D01*
X2646Y8103D01*
X2674Y8138D01*
X2699Y8176D01*
X2721Y8215D01*
X2740Y8256D01*
X2755Y8298D01*
X2768Y8341D01*
X2776Y8386D01*
X2781Y8425D01*
D02*
G37*
G36*
X2161D02*
X1640D01*
X1645Y8386D01*
X1654Y8341D01*
X1666Y8298D01*
X1681Y8256D01*
X1700Y8215D01*
X1722Y8176D01*
X1747Y8138D01*
X1775Y8103D01*
X1806Y8070D01*
X1839Y8040D01*
X1874Y8012D01*
X1911Y7987D01*
X1951Y7965D01*
X1991Y7946D01*
X2034Y7930D01*
X2077Y7918D01*
X2121Y7909D01*
X2161Y7905D01*
Y8425D01*
D02*
G37*
G36*
X1470D02*
X950D01*
Y7905D01*
X989Y7909D01*
X1033Y7918D01*
X1077Y7930D01*
X1119Y7946D01*
X1160Y7965D01*
X1199Y7987D01*
X1236Y8012D01*
X1272Y8040D01*
X1305Y8070D01*
X1335Y8103D01*
X1363Y8138D01*
X1388Y8176D01*
X1410Y8215D01*
X1429Y8256D01*
X1444Y8298D01*
X1457Y8341D01*
X1465Y8386D01*
X1470Y8425D01*
D02*
G37*
G36*
X850D02*
X329D01*
X334Y8386D01*
X343Y8341D01*
X355Y8298D01*
X370Y8256D01*
X389Y8215D01*
X411Y8176D01*
X436Y8138D01*
X464Y8103D01*
X495Y8070D01*
X528Y8040D01*
X563Y8012D01*
X600Y7987D01*
X640Y7965D01*
X680Y7946D01*
X723Y7930D01*
X766Y7918D01*
X810Y7909D01*
X850Y7905D01*
Y8425D01*
D02*
G37*
G36*
X23670Y8425D02*
X23149D01*
Y7905D01*
X23189Y7909D01*
X23233Y7918D01*
X23276Y7930D01*
X23318Y7946D01*
X23359Y7965D01*
X23399Y7987D01*
X23436Y8012D01*
X23471Y8040D01*
X23504Y8070D01*
X23535Y8103D01*
X23563Y8138D01*
X23588Y8176D01*
X23610Y8215D01*
X23628Y8256D01*
X23644Y8298D01*
X23656Y8341D01*
X23665Y8386D01*
X23670Y8425D01*
D02*
G37*
G36*
X22359D02*
X21838D01*
Y7905D01*
X21878Y7909D01*
X21922Y7918D01*
X21965Y7930D01*
X22007Y7946D01*
X22048Y7965D01*
X22088Y7987D01*
X22125Y8012D01*
X22160Y8040D01*
X22193Y8070D01*
X22224Y8103D01*
X22252Y8138D01*
X22277Y8176D01*
X22299Y8215D01*
X22317Y8256D01*
X22333Y8298D01*
X22345Y8341D01*
X22354Y8386D01*
X22359Y8425D01*
D02*
G37*
G36*
X2261Y5695D02*
Y5175D01*
X2781D01*
X2776Y5214D01*
X2768Y5259D01*
X2755Y5302D01*
X2740Y5344D01*
X2721Y5385D01*
X2699Y5424D01*
X2674Y5462D01*
X2646Y5497D01*
X2616Y5530D01*
X2583Y5560D01*
X2547Y5588D01*
X2510Y5613D01*
X2471Y5635D01*
X2430Y5654D01*
X2388Y5670D01*
X2344Y5682D01*
X2300Y5691D01*
X2261Y5695D01*
D02*
G37*
G36*
X2161D02*
X2121Y5691D01*
X2077Y5682D01*
X2034Y5670D01*
X1991Y5654D01*
X1951Y5635D01*
X1911Y5613D01*
X1874Y5588D01*
X1839Y5560D01*
X1806Y5530D01*
X1775Y5497D01*
X1747Y5462D01*
X1722Y5424D01*
X1700Y5385D01*
X1681Y5344D01*
X1666Y5302D01*
X1654Y5259D01*
X1645Y5214D01*
X1640Y5175D01*
X2161D01*
Y5695D01*
D02*
G37*
G36*
X950D02*
Y5175D01*
X1470D01*
X1465Y5214D01*
X1457Y5259D01*
X1444Y5302D01*
X1429Y5344D01*
X1410Y5385D01*
X1388Y5424D01*
X1363Y5462D01*
X1335Y5497D01*
X1305Y5530D01*
X1272Y5560D01*
X1236Y5588D01*
X1199Y5613D01*
X1160Y5635D01*
X1119Y5654D01*
X1077Y5670D01*
X1033Y5682D01*
X989Y5691D01*
X950Y5695D01*
D02*
G37*
G36*
X850D02*
X810Y5691D01*
X766Y5682D01*
X723Y5670D01*
X680Y5654D01*
X640Y5635D01*
X600Y5613D01*
X563Y5588D01*
X528Y5560D01*
X495Y5530D01*
X464Y5497D01*
X436Y5462D01*
X411Y5424D01*
X389Y5385D01*
X370Y5344D01*
X355Y5302D01*
X343Y5259D01*
X334Y5214D01*
X329Y5175D01*
X850D01*
Y5695D01*
D02*
G37*
G36*
X23149D02*
Y5175D01*
X23670D01*
X23665Y5214D01*
X23656Y5259D01*
X23644Y5302D01*
X23628Y5344D01*
X23610Y5385D01*
X23588Y5424D01*
X23563Y5462D01*
X23535Y5497D01*
X23504Y5530D01*
X23471Y5560D01*
X23436Y5588D01*
X23399Y5613D01*
X23359Y5635D01*
X23318Y5654D01*
X23276Y5670D01*
X23233Y5682D01*
X23189Y5691D01*
X23149Y5695D01*
D02*
G37*
G36*
X21838D02*
Y5175D01*
X22359D01*
X22354Y5214D01*
X22345Y5259D01*
X22333Y5302D01*
X22317Y5344D01*
X22299Y5385D01*
X22277Y5424D01*
X22252Y5462D01*
X22224Y5497D01*
X22193Y5530D01*
X22160Y5560D01*
X22125Y5588D01*
X22088Y5613D01*
X22048Y5635D01*
X22007Y5654D01*
X21965Y5670D01*
X21922Y5682D01*
X21878Y5691D01*
X21838Y5695D01*
D02*
G37*
G36*
X23049D02*
X23010Y5691D01*
X22965Y5682D01*
X22922Y5670D01*
X22880Y5654D01*
X22839Y5635D01*
X22800Y5613D01*
X22762Y5588D01*
X22727Y5560D01*
X22694Y5530D01*
X22664Y5497D01*
X22636Y5462D01*
X22611Y5424D01*
X22589Y5385D01*
X22570Y5344D01*
X22554Y5302D01*
X22542Y5259D01*
X22533Y5214D01*
X22529Y5175D01*
X23049D01*
Y5695D01*
D02*
G37*
G36*
X21738D02*
X21699Y5691D01*
X21654Y5682D01*
X21611Y5670D01*
X21569Y5654D01*
X21528Y5635D01*
X21489Y5613D01*
X21451Y5588D01*
X21416Y5560D01*
X21383Y5530D01*
X21353Y5497D01*
X21325Y5462D01*
X21300Y5424D01*
X21278Y5385D01*
X21259Y5344D01*
X21243Y5302D01*
X21231Y5259D01*
X21222Y5214D01*
X21218Y5175D01*
X21738D01*
Y5695D01*
D02*
G37*
G36*
X23049Y5075D02*
X22529D01*
X22533Y5035D01*
X22542Y4991D01*
X22554Y4948D01*
X22570Y4906D01*
X22589Y4865D01*
X22611Y4825D01*
X22636Y4788D01*
X22664Y4753D01*
X22694Y4720D01*
X22727Y4689D01*
X22762Y4661D01*
X22800Y4636D01*
X22839Y4614D01*
X22880Y4596D01*
X22922Y4580D01*
X22965Y4568D01*
X23010Y4559D01*
X23049Y4554D01*
Y5075D01*
D02*
G37*
G36*
X21738D02*
X21218D01*
X21222Y5035D01*
X21231Y4991D01*
X21243Y4948D01*
X21259Y4906D01*
X21278Y4865D01*
X21300Y4825D01*
X21325Y4788D01*
X21353Y4753D01*
X21383Y4720D01*
X21416Y4689D01*
X21451Y4661D01*
X21489Y4636D01*
X21528Y4614D01*
X21569Y4596D01*
X21611Y4580D01*
X21654Y4568D01*
X21699Y4559D01*
X21738Y4554D01*
Y5075D01*
D02*
G37*
G36*
X2781Y5075D02*
X2261D01*
Y4554D01*
X2300Y4559D01*
X2344Y4568D01*
X2388Y4580D01*
X2430Y4596D01*
X2471Y4614D01*
X2510Y4636D01*
X2547Y4661D01*
X2583Y4689D01*
X2616Y4720D01*
X2646Y4753D01*
X2674Y4788D01*
X2699Y4825D01*
X2721Y4865D01*
X2740Y4906D01*
X2755Y4948D01*
X2768Y4991D01*
X2776Y5035D01*
X2781Y5075D01*
D02*
G37*
G36*
X2161D02*
X1640D01*
X1645Y5035D01*
X1654Y4991D01*
X1666Y4948D01*
X1681Y4906D01*
X1700Y4865D01*
X1722Y4825D01*
X1747Y4788D01*
X1775Y4753D01*
X1806Y4720D01*
X1839Y4689D01*
X1874Y4661D01*
X1911Y4636D01*
X1951Y4614D01*
X1991Y4596D01*
X2034Y4580D01*
X2077Y4568D01*
X2121Y4559D01*
X2161Y4554D01*
Y5075D01*
D02*
G37*
G36*
X1470D02*
X950D01*
Y4554D01*
X989Y4559D01*
X1033Y4568D01*
X1077Y4580D01*
X1119Y4596D01*
X1160Y4614D01*
X1199Y4636D01*
X1236Y4661D01*
X1272Y4689D01*
X1305Y4720D01*
X1335Y4753D01*
X1363Y4788D01*
X1388Y4825D01*
X1410Y4865D01*
X1429Y4906D01*
X1444Y4948D01*
X1457Y4991D01*
X1465Y5035D01*
X1470Y5075D01*
D02*
G37*
G36*
X850D02*
X329D01*
X334Y5035D01*
X343Y4991D01*
X355Y4948D01*
X370Y4906D01*
X389Y4865D01*
X411Y4825D01*
X436Y4788D01*
X464Y4753D01*
X495Y4720D01*
X528Y4689D01*
X563Y4661D01*
X600Y4636D01*
X640Y4614D01*
X680Y4596D01*
X723Y4580D01*
X766Y4568D01*
X810Y4559D01*
X850Y4554D01*
Y5075D01*
D02*
G37*
G36*
X23670Y5075D02*
X23149D01*
Y4554D01*
X23189Y4559D01*
X23233Y4568D01*
X23276Y4580D01*
X23318Y4596D01*
X23359Y4614D01*
X23399Y4636D01*
X23436Y4661D01*
X23471Y4689D01*
X23504Y4720D01*
X23535Y4753D01*
X23563Y4788D01*
X23588Y4825D01*
X23610Y4865D01*
X23628Y4906D01*
X23644Y4948D01*
X23656Y4991D01*
X23665Y5035D01*
X23670Y5075D01*
D02*
G37*
G36*
X22359D02*
X21838D01*
Y4554D01*
X21878Y4559D01*
X21922Y4568D01*
X21965Y4580D01*
X22007Y4596D01*
X22048Y4614D01*
X22088Y4636D01*
X22125Y4661D01*
X22160Y4689D01*
X22193Y4720D01*
X22224Y4753D01*
X22252Y4788D01*
X22277Y4825D01*
X22299Y4865D01*
X22317Y4906D01*
X22333Y4948D01*
X22345Y4991D01*
X22354Y5035D01*
X22359Y5075D01*
D02*
G37*
G36*
X2836Y3158D02*
X2797Y3157D01*
X2758Y3151D01*
X2720Y3143D01*
X2682Y3131D01*
X2646Y3116D01*
X2611Y3098D01*
X2578Y3077D01*
X2546Y3053D01*
X2517Y3026D01*
X2491Y2997D01*
X2467Y2966D01*
X2446Y2933D01*
X2428Y2898D01*
X2413Y2862D01*
X2401Y2824D01*
X2392Y2786D01*
X2387Y2747D01*
X2385Y2707D01*
X2387Y2668D01*
X2392Y2629D01*
X2401Y2591D01*
X2413Y2553D01*
X2428Y2517D01*
X2446Y2482D01*
X2467Y2449D01*
X2491Y2418D01*
X2517Y2389D01*
X2546Y2362D01*
X2578Y2338D01*
X2611Y2317D01*
X2646Y2299D01*
X2682Y2284D01*
X2720Y2272D01*
X2758Y2264D01*
X2797Y2258D01*
X2836Y2257D01*
X2876Y2258D01*
X2914Y2264D01*
X2953Y2272D01*
X2990Y2284D01*
X3027Y2299D01*
X3062Y2317D01*
X3095Y2338D01*
X3126Y2362D01*
X3155Y2389D01*
X3182Y2418D01*
X3206Y2449D01*
X3227Y2482D01*
X3245Y2517D01*
X3260Y2553D01*
X3272Y2591D01*
X3280Y2629D01*
X3285Y2668D01*
X3287Y2707D01*
X3285Y2747D01*
X3280Y2786D01*
X3272Y2824D01*
X3260Y2862D01*
X3245Y2898D01*
X3227Y2933D01*
X3206Y2966D01*
X3182Y2997D01*
X3155Y3026D01*
X3126Y3053D01*
X3095Y3077D01*
X3062Y3098D01*
X3027Y3116D01*
X2990Y3131D01*
X2953Y3143D01*
X2914Y3151D01*
X2876Y3157D01*
X2836Y3158D01*
D02*
G37*
G36*
X22000Y4375D02*
X21935Y4373D01*
X21870Y4368D01*
X21806Y4358D01*
X21743Y4344D01*
X21680Y4327D01*
X21619Y4305D01*
X21559Y4281D01*
X21500Y4252D01*
X21444Y4220D01*
X21389Y4185D01*
X21337Y4147D01*
X21287Y4105D01*
X21240Y4060D01*
X21195Y4013D01*
X21153Y3963D01*
X21115Y3911D01*
X21080Y3856D01*
X21048Y3800D01*
X21019Y3741D01*
X20995Y3681D01*
X20973Y3620D01*
X20956Y3557D01*
X20942Y3494D01*
X20932Y3430D01*
X20927Y3365D01*
X20925Y3300D01*
X20927Y3235D01*
X20932Y3170D01*
X20942Y3106D01*
X20956Y3043D01*
X20973Y2980D01*
X20995Y2919D01*
X21019Y2859D01*
X21048Y2800D01*
X21080Y2744D01*
X21115Y2689D01*
X21153Y2637D01*
X21195Y2587D01*
X21240Y2540D01*
X21287Y2495D01*
X21337Y2453D01*
X21389Y2415D01*
X21444Y2380D01*
X21500Y2348D01*
X21559Y2319D01*
X21619Y2295D01*
X21680Y2273D01*
X21743Y2256D01*
X21806Y2242D01*
X21870Y2232D01*
X21935Y2227D01*
X22000Y2225D01*
X22065Y2227D01*
X22130Y2232D01*
X22194Y2242D01*
X22257Y2256D01*
X22320Y2273D01*
X22381Y2295D01*
X22441Y2319D01*
X22500Y2348D01*
X22556Y2380D01*
X22611Y2415D01*
X22663Y2453D01*
X22713Y2495D01*
X22760Y2540D01*
X22805Y2587D01*
X22847Y2637D01*
X22885Y2689D01*
X22920Y2744D01*
X22952Y2800D01*
X22981Y2859D01*
X23005Y2919D01*
X23027Y2980D01*
X23044Y3043D01*
X23058Y3106D01*
X23068Y3170D01*
X23073Y3235D01*
X23075Y3300D01*
X23073Y3365D01*
X23068Y3430D01*
X23058Y3494D01*
X23044Y3557D01*
X23027Y3620D01*
X23005Y3681D01*
X22981Y3741D01*
X22952Y3800D01*
X22920Y3856D01*
X22885Y3911D01*
X22847Y3963D01*
X22805Y4013D01*
X22760Y4060D01*
X22713Y4105D01*
X22663Y4147D01*
X22611Y4185D01*
X22556Y4220D01*
X22500Y4252D01*
X22441Y4281D01*
X22381Y4305D01*
X22320Y4327D01*
X22257Y4344D01*
X22194Y4358D01*
X22130Y4368D01*
X22065Y4373D01*
X22000Y4375D01*
D02*
G37*
G36*
X5748Y2367D02*
X5723Y2365D01*
X5699Y2359D01*
X5676Y2350D01*
X5654Y2337D01*
X5635Y2320D01*
X5619Y2301D01*
X5606Y2280D01*
X5596Y2257D01*
X5590Y2232D01*
X5588Y2207D01*
X5590Y2183D01*
X5596Y2158D01*
X5606Y2135D01*
X5619Y2114D01*
X5635Y2095D01*
X5654Y2078D01*
X5676Y2065D01*
X5699Y2056D01*
X5723Y2050D01*
X5748Y2048D01*
X5773Y2050D01*
X5797Y2056D01*
X5820Y2065D01*
X5842Y2078D01*
X5861Y2095D01*
X5877Y2114D01*
X5890Y2135D01*
X5900Y2158D01*
X5906Y2183D01*
X5908Y2207D01*
X5906Y2232D01*
X5900Y2257D01*
X5890Y2280D01*
X5877Y2301D01*
X5861Y2320D01*
X5842Y2337D01*
X5820Y2350D01*
X5797Y2359D01*
X5773Y2365D01*
X5748Y2367D01*
D02*
G37*
G36*
X2836Y2158D02*
X2797Y2157D01*
X2758Y2151D01*
X2720Y2143D01*
X2682Y2131D01*
X2646Y2116D01*
X2611Y2098D01*
X2578Y2077D01*
X2546Y2053D01*
X2517Y2026D01*
X2491Y1997D01*
X2467Y1966D01*
X2446Y1933D01*
X2428Y1898D01*
X2413Y1862D01*
X2401Y1824D01*
X2392Y1786D01*
X2387Y1747D01*
X2385Y1707D01*
X2387Y1668D01*
X2392Y1629D01*
X2401Y1591D01*
X2413Y1553D01*
X2428Y1517D01*
X2446Y1482D01*
X2467Y1449D01*
X2491Y1418D01*
X2517Y1389D01*
X2546Y1362D01*
X2578Y1338D01*
X2611Y1317D01*
X2646Y1299D01*
X2682Y1284D01*
X2720Y1272D01*
X2758Y1264D01*
X2797Y1258D01*
X2836Y1257D01*
X2876Y1258D01*
X2914Y1264D01*
X2953Y1272D01*
X2990Y1284D01*
X3027Y1299D01*
X3062Y1317D01*
X3095Y1338D01*
X3126Y1362D01*
X3155Y1389D01*
X3182Y1418D01*
X3206Y1449D01*
X3227Y1482D01*
X3245Y1517D01*
X3260Y1553D01*
X3272Y1591D01*
X3280Y1629D01*
X3285Y1668D01*
X3287Y1707D01*
X3285Y1747D01*
X3280Y1786D01*
X3272Y1824D01*
X3260Y1862D01*
X3245Y1898D01*
X3227Y1933D01*
X3206Y1966D01*
X3182Y1997D01*
X3155Y2026D01*
X3126Y2053D01*
X3095Y2077D01*
X3062Y2098D01*
X3027Y2116D01*
X2990Y2131D01*
X2953Y2143D01*
X2914Y2151D01*
X2876Y2157D01*
X2836Y2158D01*
D02*
G37*
G36*
X21000Y1460D02*
X20975Y1458D01*
X20951Y1452D01*
X20928Y1442D01*
X20906Y1429D01*
X20887Y1413D01*
X20871Y1394D01*
X20858Y1372D01*
X20848Y1349D01*
X20842Y1325D01*
X20840Y1300D01*
X20842Y1275D01*
X20848Y1251D01*
X20858Y1228D01*
X20871Y1206D01*
X20887Y1187D01*
X20906Y1171D01*
X20928Y1158D01*
X20951Y1148D01*
X20975Y1142D01*
X21000Y1140D01*
X21025Y1142D01*
X21049Y1148D01*
X21072Y1158D01*
X21094Y1171D01*
X21113Y1187D01*
X21129Y1206D01*
X21142Y1228D01*
X21152Y1251D01*
X21158Y1275D01*
X21160Y1300D01*
X21158Y1325D01*
X21152Y1349D01*
X21142Y1372D01*
X21129Y1394D01*
X21113Y1413D01*
X21094Y1429D01*
X21072Y1442D01*
X21049Y1452D01*
X21025Y1458D01*
X21000Y1460D01*
D02*
G37*
G36*
X20000D02*
X19975Y1458D01*
X19951Y1452D01*
X19928Y1442D01*
X19906Y1429D01*
X19887Y1413D01*
X19871Y1394D01*
X19858Y1372D01*
X19848Y1349D01*
X19842Y1325D01*
X19840Y1300D01*
X19842Y1275D01*
X19848Y1251D01*
X19858Y1228D01*
X19871Y1206D01*
X19887Y1187D01*
X19906Y1171D01*
X19928Y1158D01*
X19951Y1148D01*
X19975Y1142D01*
X20000Y1140D01*
X20025Y1142D01*
X20049Y1148D01*
X20072Y1158D01*
X20094Y1171D01*
X20113Y1187D01*
X20129Y1206D01*
X20142Y1228D01*
X20152Y1251D01*
X20158Y1275D01*
X20160Y1300D01*
X20158Y1325D01*
X20152Y1349D01*
X20142Y1372D01*
X20129Y1394D01*
X20113Y1413D01*
X20094Y1429D01*
X20072Y1442D01*
X20049Y1452D01*
X20025Y1458D01*
X20000Y1460D01*
D02*
G37*
G36*
X19000D02*
X18975Y1458D01*
X18951Y1452D01*
X18928Y1442D01*
X18906Y1429D01*
X18887Y1413D01*
X18871Y1394D01*
X18858Y1372D01*
X18848Y1349D01*
X18842Y1325D01*
X18840Y1300D01*
X18842Y1275D01*
X18848Y1251D01*
X18858Y1228D01*
X18871Y1206D01*
X18887Y1187D01*
X18906Y1171D01*
X18928Y1158D01*
X18951Y1148D01*
X18975Y1142D01*
X19000Y1140D01*
X19025Y1142D01*
X19049Y1148D01*
X19072Y1158D01*
X19094Y1171D01*
X19113Y1187D01*
X19129Y1206D01*
X19142Y1228D01*
X19152Y1251D01*
X19158Y1275D01*
X19160Y1300D01*
X19158Y1325D01*
X19152Y1349D01*
X19142Y1372D01*
X19129Y1394D01*
X19113Y1413D01*
X19094Y1429D01*
X19072Y1442D01*
X19049Y1452D01*
X19025Y1458D01*
X19000Y1460D01*
D02*
G37*
G36*
X18000D02*
X17975Y1458D01*
X17951Y1452D01*
X17928Y1442D01*
X17906Y1429D01*
X17887Y1413D01*
X17871Y1394D01*
X17858Y1372D01*
X17848Y1349D01*
X17842Y1325D01*
X17840Y1300D01*
X17842Y1275D01*
X17848Y1251D01*
X17858Y1228D01*
X17871Y1206D01*
X17887Y1187D01*
X17906Y1171D01*
X17928Y1158D01*
X17951Y1148D01*
X17975Y1142D01*
X18000Y1140D01*
X18025Y1142D01*
X18049Y1148D01*
X18072Y1158D01*
X18094Y1171D01*
X18113Y1187D01*
X18129Y1206D01*
X18142Y1228D01*
X18152Y1251D01*
X18158Y1275D01*
X18160Y1300D01*
X18158Y1325D01*
X18152Y1349D01*
X18142Y1372D01*
X18129Y1394D01*
X18113Y1413D01*
X18094Y1429D01*
X18072Y1442D01*
X18049Y1452D01*
X18025Y1458D01*
X18000Y1460D01*
D02*
G37*
G36*
X17000D02*
X16975Y1458D01*
X16951Y1452D01*
X16928Y1442D01*
X16906Y1429D01*
X16887Y1413D01*
X16871Y1394D01*
X16858Y1372D01*
X16848Y1349D01*
X16842Y1325D01*
X16840Y1300D01*
X16842Y1275D01*
X16848Y1251D01*
X16858Y1228D01*
X16871Y1206D01*
X16887Y1187D01*
X16906Y1171D01*
X16928Y1158D01*
X16951Y1148D01*
X16975Y1142D01*
X17000Y1140D01*
X17025Y1142D01*
X17049Y1148D01*
X17072Y1158D01*
X17094Y1171D01*
X17113Y1187D01*
X17129Y1206D01*
X17142Y1228D01*
X17152Y1251D01*
X17158Y1275D01*
X17160Y1300D01*
X17158Y1325D01*
X17152Y1349D01*
X17142Y1372D01*
X17129Y1394D01*
X17113Y1413D01*
X17094Y1429D01*
X17072Y1442D01*
X17049Y1452D01*
X17025Y1458D01*
X17000Y1460D01*
D02*
G37*
G36*
X16000D02*
X15975Y1458D01*
X15951Y1452D01*
X15928Y1442D01*
X15906Y1429D01*
X15887Y1413D01*
X15871Y1394D01*
X15858Y1372D01*
X15848Y1349D01*
X15842Y1325D01*
X15840Y1300D01*
X15842Y1275D01*
X15848Y1251D01*
X15858Y1228D01*
X15871Y1206D01*
X15887Y1187D01*
X15906Y1171D01*
X15928Y1158D01*
X15951Y1148D01*
X15975Y1142D01*
X16000Y1140D01*
X16025Y1142D01*
X16049Y1148D01*
X16072Y1158D01*
X16094Y1171D01*
X16113Y1187D01*
X16129Y1206D01*
X16142Y1228D01*
X16152Y1251D01*
X16158Y1275D01*
X16160Y1300D01*
X16158Y1325D01*
X16152Y1349D01*
X16142Y1372D01*
X16129Y1394D01*
X16113Y1413D01*
X16094Y1429D01*
X16072Y1442D01*
X16049Y1452D01*
X16025Y1458D01*
X16000Y1460D01*
D02*
G37*
G36*
X14000D02*
X13975Y1458D01*
X13951Y1452D01*
X13928Y1442D01*
X13906Y1429D01*
X13887Y1413D01*
X13871Y1394D01*
X13858Y1372D01*
X13848Y1349D01*
X13842Y1325D01*
X13840Y1300D01*
X13842Y1275D01*
X13848Y1251D01*
X13858Y1228D01*
X13871Y1206D01*
X13887Y1187D01*
X13906Y1171D01*
X13928Y1158D01*
X13951Y1148D01*
X13975Y1142D01*
X14000Y1140D01*
X14025Y1142D01*
X14049Y1148D01*
X14072Y1158D01*
X14094Y1171D01*
X14113Y1187D01*
X14129Y1206D01*
X14142Y1228D01*
X14152Y1251D01*
X14158Y1275D01*
X14160Y1300D01*
X14158Y1325D01*
X14152Y1349D01*
X14142Y1372D01*
X14129Y1394D01*
X14113Y1413D01*
X14094Y1429D01*
X14072Y1442D01*
X14049Y1452D01*
X14025Y1458D01*
X14000Y1460D01*
D02*
G37*
G36*
X11000D02*
X10975Y1458D01*
X10951Y1452D01*
X10928Y1442D01*
X10906Y1429D01*
X10887Y1413D01*
X10871Y1394D01*
X10858Y1372D01*
X10848Y1349D01*
X10842Y1325D01*
X10840Y1300D01*
X10842Y1275D01*
X10848Y1251D01*
X10858Y1228D01*
X10871Y1206D01*
X10887Y1187D01*
X10906Y1171D01*
X10928Y1158D01*
X10951Y1148D01*
X10975Y1142D01*
X11000Y1140D01*
X11025Y1142D01*
X11049Y1148D01*
X11072Y1158D01*
X11094Y1171D01*
X11113Y1187D01*
X11129Y1206D01*
X11142Y1228D01*
X11152Y1251D01*
X11158Y1275D01*
X11160Y1300D01*
X11158Y1325D01*
X11152Y1349D01*
X11142Y1372D01*
X11129Y1394D01*
X11113Y1413D01*
X11094Y1429D01*
X11072Y1442D01*
X11049Y1452D01*
X11025Y1458D01*
X11000Y1460D01*
D02*
G37*
G36*
X10000D02*
X9975Y1458D01*
X9951Y1452D01*
X9928Y1442D01*
X9906Y1429D01*
X9887Y1413D01*
X9871Y1394D01*
X9858Y1372D01*
X9848Y1349D01*
X9842Y1325D01*
X9840Y1300D01*
X9842Y1275D01*
X9848Y1251D01*
X9858Y1228D01*
X9871Y1206D01*
X9887Y1187D01*
X9906Y1171D01*
X9928Y1158D01*
X9951Y1148D01*
X9975Y1142D01*
X10000Y1140D01*
X10025Y1142D01*
X10049Y1148D01*
X10072Y1158D01*
X10094Y1171D01*
X10113Y1187D01*
X10129Y1206D01*
X10142Y1228D01*
X10152Y1251D01*
X10158Y1275D01*
X10160Y1300D01*
X10158Y1325D01*
X10152Y1349D01*
X10142Y1372D01*
X10129Y1394D01*
X10113Y1413D01*
X10094Y1429D01*
X10072Y1442D01*
X10049Y1452D01*
X10025Y1458D01*
X10000Y1460D01*
D02*
G37*
G36*
X9000D02*
X8975Y1458D01*
X8951Y1452D01*
X8928Y1442D01*
X8906Y1429D01*
X8887Y1413D01*
X8871Y1394D01*
X8858Y1372D01*
X8848Y1349D01*
X8842Y1325D01*
X8840Y1300D01*
X8842Y1275D01*
X8848Y1251D01*
X8858Y1228D01*
X8871Y1206D01*
X8887Y1187D01*
X8906Y1171D01*
X8928Y1158D01*
X8951Y1148D01*
X8975Y1142D01*
X9000Y1140D01*
X9025Y1142D01*
X9049Y1148D01*
X9072Y1158D01*
X9094Y1171D01*
X9113Y1187D01*
X9129Y1206D01*
X9142Y1228D01*
X9152Y1251D01*
X9158Y1275D01*
X9160Y1300D01*
X9158Y1325D01*
X9152Y1349D01*
X9142Y1372D01*
X9129Y1394D01*
X9113Y1413D01*
X9094Y1429D01*
X9072Y1442D01*
X9049Y1452D01*
X9025Y1458D01*
X9000Y1460D01*
D02*
G37*
G36*
X8000D02*
X7975Y1458D01*
X7951Y1452D01*
X7928Y1442D01*
X7906Y1429D01*
X7887Y1413D01*
X7871Y1394D01*
X7858Y1372D01*
X7848Y1349D01*
X7842Y1325D01*
X7840Y1300D01*
X7842Y1275D01*
X7848Y1251D01*
X7858Y1228D01*
X7871Y1206D01*
X7887Y1187D01*
X7906Y1171D01*
X7928Y1158D01*
X7951Y1148D01*
X7975Y1142D01*
X8000Y1140D01*
X8025Y1142D01*
X8049Y1148D01*
X8072Y1158D01*
X8094Y1171D01*
X8113Y1187D01*
X8129Y1206D01*
X8142Y1228D01*
X8152Y1251D01*
X8158Y1275D01*
X8160Y1300D01*
X8158Y1325D01*
X8152Y1349D01*
X8142Y1372D01*
X8129Y1394D01*
X8113Y1413D01*
X8094Y1429D01*
X8072Y1442D01*
X8049Y1452D01*
X8025Y1458D01*
X8000Y1460D01*
D02*
G37*
G36*
X7000D02*
X6975Y1458D01*
X6951Y1452D01*
X6928Y1442D01*
X6906Y1429D01*
X6887Y1413D01*
X6871Y1394D01*
X6858Y1372D01*
X6848Y1349D01*
X6842Y1325D01*
X6840Y1300D01*
X6842Y1275D01*
X6848Y1251D01*
X6858Y1228D01*
X6871Y1206D01*
X6887Y1187D01*
X6906Y1171D01*
X6928Y1158D01*
X6951Y1148D01*
X6975Y1142D01*
X7000Y1140D01*
X7025Y1142D01*
X7049Y1148D01*
X7072Y1158D01*
X7094Y1171D01*
X7113Y1187D01*
X7129Y1206D01*
X7142Y1228D01*
X7152Y1251D01*
X7158Y1275D01*
X7160Y1300D01*
X7158Y1325D01*
X7152Y1349D01*
X7142Y1372D01*
X7129Y1394D01*
X7113Y1413D01*
X7094Y1429D01*
X7072Y1442D01*
X7049Y1452D01*
X7025Y1458D01*
X7000Y1460D01*
D02*
G37*
%LPD*%
D56*
X21788Y8475D02*
D03*
X23099D02*
D03*
X21788Y5125D02*
D03*
X23099D02*
D03*
X2211D02*
D03*
X900D02*
D03*
X2211Y8475D02*
D03*
X900D02*
D03*
X21795Y17475D02*
D03*
X23106D02*
D03*
X21795Y14125D02*
D03*
X23106D02*
D03*
D58*
X11783Y10583D02*
D03*
Y11017D02*
D03*
X12217Y10583D02*
D03*
Y11017D02*
D03*
X12000Y9009D02*
D03*
Y8291D02*
D03*
X7492Y2707D02*
D03*
X6636Y2552D02*
D03*
X20492Y709D02*
D03*
X19492D02*
D03*
X18492D02*
D03*
X17492D02*
D03*
X16492D02*
D03*
X15492D02*
D03*
X14492D02*
D03*
X13492D02*
D03*
X12492D02*
D03*
X11492D02*
D03*
X10492D02*
D03*
X9492D02*
D03*
X8492D02*
D03*
X7492D02*
D03*
X6492D02*
D03*
X23700Y13050D02*
D03*
X23650Y11800D02*
D03*
Y10600D02*
D03*
X6900Y19500D02*
D03*
X5900D02*
D03*
X13200Y21300D02*
D03*
X20500Y19400D02*
D03*
X18500Y19500D02*
D03*
X17500D02*
D03*
X16500D02*
D03*
X11900Y19400D02*
D03*
X2900Y21300D02*
D03*
X3900D02*
D03*
X4900D02*
D03*
X5900D02*
D03*
X6900D02*
D03*
X11900D02*
D03*
X14500D02*
D03*
X15500D02*
D03*
X16500D02*
D03*
X17500D02*
D03*
X18500D02*
D03*
X20500D02*
D03*
X19500D02*
D03*
X13019Y9609D02*
D03*
X11050Y14250D02*
D03*
X11170Y12830D02*
D03*
X10900Y12040D02*
D03*
X11270Y10100D02*
D03*
X13357Y12040D02*
D03*
X13700Y11250D02*
D03*
X13350Y10900D02*
D03*
X13030Y11910D02*
D03*
X12700Y11500D02*
D03*
X11657Y13555D02*
D03*
X11627Y12555D02*
D03*
X12607Y13555D02*
D03*
X12197Y15995D02*
D03*
X23197Y16551D02*
D03*
X22197D02*
D03*
X23697Y16555D02*
D03*
X12797Y15215D02*
D03*
X10697Y7295D02*
D03*
X14697D02*
D03*
X13697D02*
D03*
X9697D02*
D03*
X8697D02*
D03*
X7697D02*
D03*
X6697D02*
D03*
X5697D02*
D03*
X4697D02*
D03*
X3697D02*
D03*
X10697Y6305D02*
D03*
X14697D02*
D03*
X13697D02*
D03*
X12697D02*
D03*
X11697D02*
D03*
X9697D02*
D03*
X8697D02*
D03*
X7697D02*
D03*
X6697D02*
D03*
X5697D02*
D03*
X4697D02*
D03*
X3697D02*
D03*
X6400Y20300D02*
D03*
X12000Y9371D02*
D03*
Y7050D02*
D03*
Y8650D02*
D03*
Y7800D02*
D03*
X12550Y12250D02*
D03*
X21197Y16551D02*
D03*
X12000Y1300D02*
D03*
X13000D02*
D03*
X13639Y15315D02*
D03*
X14197Y16295D02*
D03*
X8900Y21300D02*
D03*
Y19500D02*
D03*
X7900Y21300D02*
D03*
X9900D02*
D03*
X10900D02*
D03*
X15697Y6305D02*
D03*
X16697D02*
D03*
X15697Y7295D02*
D03*
X16697D02*
D03*
X17697Y6305D02*
D03*
X18697D02*
D03*
X17697Y7295D02*
D03*
X18697D02*
D03*
X19697Y6305D02*
D03*
X20697D02*
D03*
X19697Y7295D02*
D03*
X20697D02*
D03*
X21697Y6029D02*
D03*
X22697D02*
D03*
X21697Y7570D02*
D03*
X22697D02*
D03*
X23697Y6029D02*
D03*
Y7570D02*
D03*
X2697Y6029D02*
D03*
Y7570D02*
D03*
X1697Y6029D02*
D03*
Y7570D02*
D03*
X697Y6029D02*
D03*
Y7570D02*
D03*
X15197Y16295D02*
D03*
X18197D02*
D03*
X17197D02*
D03*
X20197D02*
D03*
X19197D02*
D03*
X15580Y15315D02*
D03*
X14639D02*
D03*
X17639D02*
D03*
X16639D02*
D03*
X19639D02*
D03*
X18639D02*
D03*
X21639Y15039D02*
D03*
X20639Y15315D02*
D03*
X23639Y15039D02*
D03*
X22639D02*
D03*
X16060Y11706D02*
D03*
X9858Y18517D02*
D03*
X20197Y11710D02*
D03*
X22176Y11706D02*
D03*
X20676Y12706D02*
D03*
X15454Y10706D02*
D03*
X9406Y13704D02*
D03*
X15713Y14706D02*
D03*
X8213Y7591D02*
D03*
X1182Y5894D02*
D03*
X2182D02*
D03*
X291Y6029D02*
D03*
Y7570D02*
D03*
X22213Y5894D02*
D03*
X23213D02*
D03*
X22154Y14904D02*
D03*
X23154D02*
D03*
X11043Y9698D02*
D03*
X10906Y9002D02*
D03*
Y8733D02*
D03*
Y8083D02*
D03*
X11040Y7705D02*
D03*
X13088Y8733D02*
D03*
Y9002D02*
D03*
Y9272D02*
D03*
X13095Y7401D02*
D03*
X12945Y7705D02*
D03*
X14713Y9484D02*
D03*
X12720Y10100D02*
D03*
X10906Y9272D02*
D03*
X13088Y8083D02*
D03*
X12258Y6706D02*
D03*
X13826Y7705D02*
D03*
X14639D02*
D03*
X14207Y10902D02*
D03*
X703Y707D02*
D03*
X1203Y1707D02*
D03*
X703Y2707D02*
D03*
X1203Y3707D02*
D03*
Y7707D02*
D03*
Y9707D02*
D03*
X703Y10707D02*
D03*
Y12707D02*
D03*
X1203Y13707D02*
D03*
X703Y14707D02*
D03*
X1203Y17707D02*
D03*
X703Y18707D02*
D03*
Y20707D02*
D03*
X1703Y707D02*
D03*
X2203Y1707D02*
D03*
X1703Y2707D02*
D03*
X2203Y3707D02*
D03*
Y7707D02*
D03*
Y9707D02*
D03*
X1703Y10707D02*
D03*
X2203Y11707D02*
D03*
X1703Y12707D02*
D03*
X2203Y13707D02*
D03*
X1703Y14707D02*
D03*
X2203Y17707D02*
D03*
X1703Y18707D02*
D03*
X2703Y707D02*
D03*
X3203Y3707D02*
D03*
Y5707D02*
D03*
Y7707D02*
D03*
Y9707D02*
D03*
X2703Y10707D02*
D03*
X3203Y11707D02*
D03*
X2703Y12707D02*
D03*
X3203Y13707D02*
D03*
X2703Y14707D02*
D03*
X3203Y15707D02*
D03*
Y17707D02*
D03*
X2703Y18707D02*
D03*
X3703Y707D02*
D03*
X4203Y1707D02*
D03*
X3703Y2707D02*
D03*
X4203Y3707D02*
D03*
X3703Y4707D02*
D03*
X4203Y5707D02*
D03*
Y7707D02*
D03*
X3703Y8707D02*
D03*
X4203Y9707D02*
D03*
X3703Y10707D02*
D03*
X4203Y11707D02*
D03*
X3703Y12707D02*
D03*
X4203Y13707D02*
D03*
X3703Y14707D02*
D03*
X4203Y15707D02*
D03*
X3703Y16707D02*
D03*
X4203Y17707D02*
D03*
X3703Y18707D02*
D03*
X4703Y707D02*
D03*
X5203Y1707D02*
D03*
X4703Y2707D02*
D03*
X5203Y3707D02*
D03*
X4703Y4707D02*
D03*
X5203Y5707D02*
D03*
Y7707D02*
D03*
X4703Y8707D02*
D03*
X5203Y9707D02*
D03*
X4703Y10707D02*
D03*
X5203Y11707D02*
D03*
X4703Y12707D02*
D03*
X5203Y13707D02*
D03*
X4703Y14707D02*
D03*
X5203Y15707D02*
D03*
X4703Y16707D02*
D03*
X5203Y17707D02*
D03*
X4703Y18707D02*
D03*
X5703Y707D02*
D03*
X6203Y1707D02*
D03*
X5703Y2707D02*
D03*
X6203Y3707D02*
D03*
X5703Y4707D02*
D03*
X6203Y5707D02*
D03*
Y7707D02*
D03*
X5703Y8707D02*
D03*
X6203Y9707D02*
D03*
X5703Y10707D02*
D03*
X6203Y11707D02*
D03*
X5703Y12707D02*
D03*
X6203Y13707D02*
D03*
X5703Y14707D02*
D03*
X6203Y15707D02*
D03*
X5703Y16707D02*
D03*
X6203Y17707D02*
D03*
X5703Y18707D02*
D03*
X7203Y3707D02*
D03*
X6703Y4707D02*
D03*
X7203Y5707D02*
D03*
Y7707D02*
D03*
X6703Y8707D02*
D03*
X7203Y9707D02*
D03*
X6703Y10707D02*
D03*
X7203Y11707D02*
D03*
X6703Y12707D02*
D03*
X7203Y13707D02*
D03*
X6703Y14707D02*
D03*
X7203Y15707D02*
D03*
X6703Y16707D02*
D03*
X7203Y17707D02*
D03*
X6703Y18707D02*
D03*
X8203Y3707D02*
D03*
X7703Y4707D02*
D03*
X8203Y5707D02*
D03*
X7703Y8707D02*
D03*
X8203Y9707D02*
D03*
X7703Y10707D02*
D03*
X8203Y11707D02*
D03*
X7703Y12707D02*
D03*
X8203Y13707D02*
D03*
X7703Y14707D02*
D03*
X8203Y15707D02*
D03*
X7703Y16707D02*
D03*
X8203Y17707D02*
D03*
X7703Y18707D02*
D03*
X8703Y2707D02*
D03*
X9203Y3707D02*
D03*
X8703Y4707D02*
D03*
X9203Y5707D02*
D03*
Y7707D02*
D03*
X8703Y8707D02*
D03*
X9203Y9707D02*
D03*
X8703Y10707D02*
D03*
X9203Y11707D02*
D03*
X8703Y12707D02*
D03*
Y16707D02*
D03*
X10203Y3707D02*
D03*
X9703Y4707D02*
D03*
X10203Y5707D02*
D03*
Y7707D02*
D03*
X9703Y8707D02*
D03*
X10203Y9707D02*
D03*
X9703Y10707D02*
D03*
Y16707D02*
D03*
X10703Y2707D02*
D03*
X11203Y3707D02*
D03*
X10703Y4707D02*
D03*
X11203Y5707D02*
D03*
Y11707D02*
D03*
Y13707D02*
D03*
Y15707D02*
D03*
Y17707D02*
D03*
X11703Y2707D02*
D03*
X12203Y3707D02*
D03*
X11703Y4707D02*
D03*
X12203Y5707D02*
D03*
X11703Y6707D02*
D03*
X11713Y16707D02*
D03*
X12203Y17707D02*
D03*
X11703Y18707D02*
D03*
X12703Y2707D02*
D03*
X13203Y3707D02*
D03*
X12703Y4707D02*
D03*
X13203Y5707D02*
D03*
X12703Y12707D02*
D03*
X13203Y13707D02*
D03*
X12703Y14707D02*
D03*
Y16707D02*
D03*
X13203Y17707D02*
D03*
X12703Y18707D02*
D03*
X13203Y19707D02*
D03*
X13703Y2707D02*
D03*
X14203Y3707D02*
D03*
X13703Y4707D02*
D03*
Y8707D02*
D03*
X14203Y11707D02*
D03*
Y13707D02*
D03*
X13703Y14707D02*
D03*
Y16707D02*
D03*
X14203Y17707D02*
D03*
X13703Y18707D02*
D03*
X15203Y1707D02*
D03*
X14703Y2707D02*
D03*
X15203Y3707D02*
D03*
X14703Y4707D02*
D03*
X15203Y5707D02*
D03*
Y7707D02*
D03*
X14703Y8707D02*
D03*
Y10707D02*
D03*
X15203Y11707D02*
D03*
X14703Y14707D02*
D03*
Y16707D02*
D03*
X15203Y17707D02*
D03*
X14703Y18707D02*
D03*
X15703Y2707D02*
D03*
X16203Y3707D02*
D03*
X15703Y4707D02*
D03*
X16203Y5707D02*
D03*
Y7707D02*
D03*
X15703Y8707D02*
D03*
X16203Y9707D02*
D03*
X15703Y12707D02*
D03*
Y16707D02*
D03*
Y18707D02*
D03*
X16703Y2707D02*
D03*
X17203Y3707D02*
D03*
X16703Y4707D02*
D03*
X17203Y5707D02*
D03*
Y7707D02*
D03*
X16703Y8707D02*
D03*
X17203Y9707D02*
D03*
X16703Y10707D02*
D03*
X17203Y11707D02*
D03*
X16703Y12707D02*
D03*
X17203Y13707D02*
D03*
X16703Y14707D02*
D03*
Y16707D02*
D03*
X17203Y17707D02*
D03*
X17703Y2707D02*
D03*
X18203Y3707D02*
D03*
X17703Y4707D02*
D03*
X18203Y5707D02*
D03*
Y7707D02*
D03*
X17703Y8707D02*
D03*
X18203Y9707D02*
D03*
X17703Y10707D02*
D03*
X18203Y11707D02*
D03*
X17703Y12707D02*
D03*
X18203Y13707D02*
D03*
X17703Y14707D02*
D03*
Y16707D02*
D03*
X18203Y17707D02*
D03*
X17703Y18707D02*
D03*
X18703Y2707D02*
D03*
X19203Y3707D02*
D03*
X18703Y4707D02*
D03*
X19203Y5707D02*
D03*
Y7707D02*
D03*
X18703Y8707D02*
D03*
X19203Y9707D02*
D03*
X18703Y10707D02*
D03*
X19203Y11707D02*
D03*
X18703Y12707D02*
D03*
X19203Y13707D02*
D03*
X18703Y14707D02*
D03*
Y16707D02*
D03*
X19203Y17707D02*
D03*
X18703Y18707D02*
D03*
X19703Y2707D02*
D03*
X20203Y3707D02*
D03*
X19703Y4707D02*
D03*
X20203Y5707D02*
D03*
Y7707D02*
D03*
X19703Y8707D02*
D03*
X20203Y9707D02*
D03*
X19703Y10707D02*
D03*
Y12707D02*
D03*
X20203Y13707D02*
D03*
X19703Y14707D02*
D03*
Y16707D02*
D03*
X20203Y17707D02*
D03*
X19703Y18707D02*
D03*
X20703Y2707D02*
D03*
Y4707D02*
D03*
X21203Y5707D02*
D03*
Y7707D02*
D03*
X20703Y8707D02*
D03*
X21203Y9707D02*
D03*
Y11707D02*
D03*
Y13707D02*
D03*
X20703Y14707D02*
D03*
Y16707D02*
D03*
Y18707D02*
D03*
X21703Y707D02*
D03*
X22203Y1707D02*
D03*
Y7707D02*
D03*
Y9707D02*
D03*
X21703Y10707D02*
D03*
Y12707D02*
D03*
Y16707D02*
D03*
Y18707D02*
D03*
X22203Y19707D02*
D03*
X21703Y20707D02*
D03*
X23203Y1707D02*
D03*
Y3707D02*
D03*
Y7707D02*
D03*
Y9707D02*
D03*
X22703Y14707D02*
D03*
Y16707D02*
D03*
Y18707D02*
D03*
X23203Y19707D02*
D03*
X22676Y12706D02*
D03*
X10703Y16707D02*
D03*
X9396Y17707D02*
D03*
Y15707D02*
D03*
X13703Y12707D02*
D03*
X8703Y14707D02*
D03*
X9703D02*
D03*
X10703D02*
D03*
X11659Y14705D02*
D03*
X10755Y10416D02*
D03*
X9801Y12707D02*
D03*
X13826Y9484D02*
D03*
M02*
