G04*
G04 #@! TF.GenerationSoftware,Altium Limited,Altium Designer,22.10.1 (41)*
G04*
G04 Layer_Color=8388736*
%FSLAX24Y24*%
%MOIN*%
G70*
G04*
G04 #@! TF.SameCoordinates,1EAF6387-FA3A-421D-BABF-0C9075E41397*
G04*
G04*
G04 #@! TF.FilePolarity,Negative*
G04*
G01*
G75*
%ADD31R,0.0277X0.0296*%
%ADD32R,0.1312X0.0560*%
G04:AMPARAMS|DCode=33|XSize=242.2mil|YSize=56mil|CornerRadius=15.5mil|HoleSize=0mil|Usage=FLASHONLY|Rotation=180.000|XOffset=0mil|YOffset=0mil|HoleType=Round|Shape=RoundedRectangle|*
%AMROUNDEDRECTD33*
21,1,0.2422,0.0250,0,0,180.0*
21,1,0.2112,0.0560,0,0,180.0*
1,1,0.0310,-0.1056,0.0125*
1,1,0.0310,0.1056,0.0125*
1,1,0.0310,0.1056,-0.0125*
1,1,0.0310,-0.1056,-0.0125*
%
%ADD33ROUNDEDRECTD33*%
%ADD34O,0.0178X0.0375*%
%ADD35O,0.0375X0.0178*%
%ADD36R,0.1103X0.1103*%
G04:AMPARAMS|DCode=37|XSize=17.8mil|YSize=16.6mil|CornerRadius=5.7mil|HoleSize=0mil|Usage=FLASHONLY|Rotation=0.000|XOffset=0mil|YOffset=0mil|HoleType=Round|Shape=RoundedRectangle|*
%AMROUNDEDRECTD37*
21,1,0.0178,0.0053,0,0,0.0*
21,1,0.0065,0.0166,0,0,0.0*
1,1,0.0113,0.0032,-0.0027*
1,1,0.0113,-0.0032,-0.0027*
1,1,0.0113,-0.0032,0.0027*
1,1,0.0113,0.0032,0.0027*
%
%ADD37ROUNDEDRECTD37*%
%ADD38R,0.0375X0.0355*%
%ADD39R,0.0462X0.0922*%
%ADD40C,0.0454*%
%ADD41R,0.0178X0.0166*%
G04:AMPARAMS|DCode=42|XSize=17.8mil|YSize=16.6mil|CornerRadius=5.7mil|HoleSize=0mil|Usage=FLASHONLY|Rotation=270.000|XOffset=0mil|YOffset=0mil|HoleType=Round|Shape=RoundedRectangle|*
%AMROUNDEDRECTD42*
21,1,0.0178,0.0053,0,0,270.0*
21,1,0.0065,0.0166,0,0,270.0*
1,1,0.0113,-0.0027,-0.0032*
1,1,0.0113,-0.0027,0.0032*
1,1,0.0113,0.0027,0.0032*
1,1,0.0113,0.0027,-0.0032*
%
%ADD42ROUNDEDRECTD42*%
G04:AMPARAMS|DCode=43|XSize=15.7mil|YSize=14.6mil|CornerRadius=4.6mil|HoleSize=0mil|Usage=FLASHONLY|Rotation=270.000|XOffset=0mil|YOffset=0mil|HoleType=Round|Shape=RoundedRectangle|*
%AMROUNDEDRECTD43*
21,1,0.0157,0.0053,0,0,270.0*
21,1,0.0065,0.0146,0,0,270.0*
1,1,0.0093,-0.0027,-0.0032*
1,1,0.0093,-0.0027,0.0032*
1,1,0.0093,0.0027,0.0032*
1,1,0.0093,0.0027,-0.0032*
%
%ADD43ROUNDEDRECTD43*%
%ADD44R,0.0166X0.0178*%
%ADD45C,0.0761*%
%ADD46C,0.1005*%
%ADD47C,0.1320*%
D31*
X6156Y2808D02*
D03*
Y3202D02*
D03*
D32*
X4606Y1207D02*
D03*
Y3207D02*
D03*
Y2207D02*
D03*
D33*
X22627Y6800D02*
D03*
X1372D02*
D03*
X22634Y15800D02*
D03*
D34*
X11616Y10022D02*
D03*
X11872D02*
D03*
X12128D02*
D03*
X12384D02*
D03*
Y11578D02*
D03*
X12128D02*
D03*
X11872D02*
D03*
X11616D02*
D03*
D35*
X12778Y10416D02*
D03*
Y10672D02*
D03*
Y10928D02*
D03*
Y11184D02*
D03*
X11222D02*
D03*
Y10928D02*
D03*
Y10672D02*
D03*
Y10416D02*
D03*
D36*
X12000Y10800D02*
D03*
D37*
X12478Y9494D02*
D03*
Y9270D02*
D03*
Y9016D02*
D03*
Y8791D02*
D03*
X11522Y9016D02*
D03*
Y8791D02*
D03*
Y9494D02*
D03*
Y9270D02*
D03*
D38*
X13723Y10360D02*
D03*
Y10891D02*
D03*
D39*
X18000Y723D02*
D03*
Y1877D02*
D03*
X16000Y723D02*
D03*
X17000D02*
D03*
X20000D02*
D03*
X21000D02*
D03*
X16000Y1877D02*
D03*
X17000D02*
D03*
X20000D02*
D03*
X21000D02*
D03*
X19000Y723D02*
D03*
X19000Y1877D02*
D03*
X10400Y20877D02*
D03*
X6400D02*
D03*
X10400Y19723D02*
D03*
X6400Y19723D02*
D03*
X12400Y20877D02*
D03*
X11400D02*
D03*
X8400D02*
D03*
X7400D02*
D03*
X5400D02*
D03*
X4400D02*
D03*
X12400Y19723D02*
D03*
X11400D02*
D03*
X8400D02*
D03*
X7400D02*
D03*
X5400D02*
D03*
X4400Y19723D02*
D03*
X9400Y20877D02*
D03*
X3400D02*
D03*
X9400Y19723D02*
D03*
X3400D02*
D03*
X19000Y20877D02*
D03*
X15000D02*
D03*
X19000Y19723D02*
D03*
X15000D02*
D03*
X20000Y20877D02*
D03*
X21000D02*
D03*
X16000D02*
D03*
X17000D02*
D03*
X14000D02*
D03*
X20000Y19723D02*
D03*
X21000D02*
D03*
X16000Y19723D02*
D03*
X17000Y19723D02*
D03*
X14000D02*
D03*
X18000Y20877D02*
D03*
Y19723D02*
D03*
X9000Y723D02*
D03*
X13000D02*
D03*
X9000Y1877D02*
D03*
X13000D02*
D03*
X8000Y723D02*
D03*
X7000D02*
D03*
X12000D02*
D03*
X11000D02*
D03*
X14000D02*
D03*
X8000Y1877D02*
D03*
X7000D02*
D03*
X12000Y1877D02*
D03*
X11000Y1877D02*
D03*
X14000D02*
D03*
X10000Y723D02*
D03*
Y1877D02*
D03*
D40*
X23000Y20300D02*
D03*
X1213Y11706D02*
D03*
X22986Y1000D02*
D03*
D41*
X12128Y12412D02*
D03*
Y12188D02*
D03*
X13350Y10643D02*
D03*
Y10418D02*
D03*
D42*
X12911Y9274D02*
D03*
X12686D02*
D03*
X11087D02*
D03*
X11311D02*
D03*
D43*
X12686Y8733D02*
D03*
X12911D02*
D03*
X11311D02*
D03*
X11087D02*
D03*
D44*
X13386Y9855D02*
D03*
X13161D02*
D03*
D45*
X2836Y1707D02*
D03*
Y2707D02*
D03*
D46*
X21788Y8475D02*
D03*
X23099D02*
D03*
X21788Y5125D02*
D03*
X23099D02*
D03*
X2211D02*
D03*
X900D02*
D03*
X2211Y8475D02*
D03*
X900D02*
D03*
X21795Y17475D02*
D03*
X23106D02*
D03*
X21795Y14125D02*
D03*
X23106D02*
D03*
D47*
X22000Y3300D02*
D03*
X2000Y20300D02*
D03*
M02*
