G04*
G04 #@! TF.GenerationSoftware,Altium Limited,Altium Designer,22.10.1 (41)*
G04*
G04 Layer_Color=8421504*
%FSLAX24Y24*%
%MOIN*%
G70*
G04*
G04 #@! TF.SameCoordinates,1EAF6387-FA3A-421D-BABF-0C9075E41397*
G04*
G04*
G04 #@! TF.FilePolarity,Positive*
G04*
G01*
G75*
%ADD17C,0.1024*%
%ADD18R,0.0217X0.0236*%
%ADD19R,0.1252X0.0500*%
G04:AMPARAMS|DCode=20|XSize=236.2mil|YSize=50mil|CornerRadius=12.5mil|HoleSize=0mil|Usage=FLASHONLY|Rotation=180.000|XOffset=0mil|YOffset=0mil|HoleType=Round|Shape=RoundedRectangle|*
%AMROUNDEDRECTD20*
21,1,0.2362,0.0250,0,0,180.0*
21,1,0.2112,0.0500,0,0,180.0*
1,1,0.0250,-0.1056,0.0125*
1,1,0.0250,0.1056,0.0125*
1,1,0.0250,0.1056,-0.0125*
1,1,0.0250,-0.1056,-0.0125*
%
%ADD20ROUNDEDRECTD20*%
%ADD21O,0.0118X0.0315*%
%ADD22O,0.0315X0.0118*%
%ADD23R,0.1043X0.1043*%
G04:AMPARAMS|DCode=24|XSize=11.8mil|YSize=10.6mil|CornerRadius=2.7mil|HoleSize=0mil|Usage=FLASHONLY|Rotation=0.000|XOffset=0mil|YOffset=0mil|HoleType=Round|Shape=RoundedRectangle|*
%AMROUNDEDRECTD24*
21,1,0.0118,0.0053,0,0,0.0*
21,1,0.0065,0.0106,0,0,0.0*
1,1,0.0053,0.0032,-0.0027*
1,1,0.0053,-0.0032,-0.0027*
1,1,0.0053,-0.0032,0.0027*
1,1,0.0053,0.0032,0.0027*
%
%ADD24ROUNDEDRECTD24*%
%ADD25R,0.0315X0.0295*%
%ADD26R,0.0402X0.0862*%
%ADD27C,0.0394*%
%ADD28R,0.0118X0.0106*%
G04:AMPARAMS|DCode=29|XSize=11.8mil|YSize=10.6mil|CornerRadius=2.7mil|HoleSize=0mil|Usage=FLASHONLY|Rotation=270.000|XOffset=0mil|YOffset=0mil|HoleType=Round|Shape=RoundedRectangle|*
%AMROUNDEDRECTD29*
21,1,0.0118,0.0053,0,0,270.0*
21,1,0.0065,0.0106,0,0,270.0*
1,1,0.0053,-0.0027,-0.0032*
1,1,0.0053,-0.0027,0.0032*
1,1,0.0053,0.0027,0.0032*
1,1,0.0053,0.0027,-0.0032*
%
%ADD29ROUNDEDRECTD29*%
%ADD30R,0.0106X0.0118*%
D17*
X23099Y5125D02*
D03*
X21788D02*
D03*
X23099Y8475D02*
D03*
X21788D02*
D03*
X900D02*
D03*
X2211D02*
D03*
X900Y5125D02*
D03*
X2211D02*
D03*
X23106Y14125D02*
D03*
X21795D02*
D03*
X23106Y17475D02*
D03*
X21795D02*
D03*
D18*
X6156Y2808D02*
D03*
Y3202D02*
D03*
D19*
X4606Y1207D02*
D03*
Y3207D02*
D03*
Y2207D02*
D03*
D20*
X22627Y6800D02*
D03*
X1372D02*
D03*
X22634Y15800D02*
D03*
D21*
X11616Y10022D02*
D03*
X11872D02*
D03*
X12128D02*
D03*
X12384D02*
D03*
Y11578D02*
D03*
X12128D02*
D03*
X11872D02*
D03*
X11616D02*
D03*
D22*
X12778Y10416D02*
D03*
Y10672D02*
D03*
Y10928D02*
D03*
Y11184D02*
D03*
X11222D02*
D03*
Y10928D02*
D03*
Y10672D02*
D03*
Y10416D02*
D03*
D23*
X12000Y10800D02*
D03*
D24*
X12478Y9494D02*
D03*
Y9270D02*
D03*
Y9016D02*
D03*
Y8791D02*
D03*
X11522Y9016D02*
D03*
Y8791D02*
D03*
Y9494D02*
D03*
Y9270D02*
D03*
D25*
X13723Y10360D02*
D03*
Y10891D02*
D03*
D26*
X18000Y723D02*
D03*
Y1877D02*
D03*
X16000Y723D02*
D03*
X17000D02*
D03*
X20000D02*
D03*
X21000D02*
D03*
X16000Y1877D02*
D03*
X17000D02*
D03*
X20000D02*
D03*
X21000D02*
D03*
X19000Y723D02*
D03*
X19000Y1877D02*
D03*
X10400Y20877D02*
D03*
X6400D02*
D03*
X10400Y19723D02*
D03*
X6400Y19723D02*
D03*
X12400Y20877D02*
D03*
X11400D02*
D03*
X8400D02*
D03*
X7400D02*
D03*
X5400D02*
D03*
X4400D02*
D03*
X12400Y19723D02*
D03*
X11400D02*
D03*
X8400D02*
D03*
X7400D02*
D03*
X5400D02*
D03*
X4400Y19723D02*
D03*
X9400Y20877D02*
D03*
X3400D02*
D03*
X9400Y19723D02*
D03*
X3400D02*
D03*
X19000Y20877D02*
D03*
X15000D02*
D03*
X19000Y19723D02*
D03*
X15000D02*
D03*
X20000Y20877D02*
D03*
X21000D02*
D03*
X16000D02*
D03*
X17000D02*
D03*
X14000D02*
D03*
X20000Y19723D02*
D03*
X21000D02*
D03*
X16000Y19723D02*
D03*
X17000Y19723D02*
D03*
X14000D02*
D03*
X18000Y20877D02*
D03*
Y19723D02*
D03*
X9000Y723D02*
D03*
X13000D02*
D03*
X9000Y1877D02*
D03*
X13000D02*
D03*
X8000Y723D02*
D03*
X7000D02*
D03*
X12000D02*
D03*
X11000D02*
D03*
X14000D02*
D03*
X8000Y1877D02*
D03*
X7000D02*
D03*
X12000Y1877D02*
D03*
X11000Y1877D02*
D03*
X14000D02*
D03*
X10000Y723D02*
D03*
Y1877D02*
D03*
D27*
X23000Y20300D02*
D03*
X1213Y11706D02*
D03*
X22986Y1000D02*
D03*
D28*
X12128Y12412D02*
D03*
Y12188D02*
D03*
X13350Y10643D02*
D03*
Y10418D02*
D03*
D29*
X12911Y9274D02*
D03*
X12686D02*
D03*
Y8733D02*
D03*
X12911D02*
D03*
X11311D02*
D03*
X11087D02*
D03*
Y9274D02*
D03*
X11311D02*
D03*
D30*
X13386Y9855D02*
D03*
X13161D02*
D03*
M02*
