G04*
G04 #@! TF.GenerationSoftware,Altium Limited,Altium Designer,22.10.1 (41)*
G04*
G04 Layer_Physical_Order=4*
G04 Layer_Color=16711680*
%FSLAX24Y24*%
%MOIN*%
G70*
G04*
G04 #@! TF.SameCoordinates,1EAF6387-FA3A-421D-BABF-0C9075E41397*
G04*
G04*
G04 #@! TF.FilePolarity,Positive*
G04*
G01*
G75*
%ADD11C,0.0060*%
%ADD26R,0.0402X0.0862*%
%ADD27C,0.0394*%
%ADD50C,0.0300*%
%ADD52C,0.0197*%
%ADD55C,0.0701*%
%ADD56C,0.0945*%
%ADD57C,0.1260*%
%ADD58C,0.0236*%
%ADD59R,0.0874X0.0402*%
G36*
X3099Y21408D02*
X3099Y21367D01*
Y20664D01*
X3019Y20648D01*
X2961Y20789D01*
X2872Y20934D01*
X2762Y21062D01*
X2634Y21172D01*
X2489Y21261D01*
X2333Y21325D01*
X2169Y21365D01*
X2142Y21367D01*
X2145Y21447D01*
X3035D01*
X3099Y21408D01*
D02*
G37*
G36*
X21150Y20447D02*
X21200D01*
X21190Y20444D01*
X21182Y20435D01*
X21174Y20420D01*
X21168Y20399D01*
X21162Y20372D01*
X21158Y20339D01*
X21156Y20315D01*
X21162Y20228D01*
X21168Y20201D01*
X21174Y20180D01*
X21182Y20165D01*
X21190Y20156D01*
X21200Y20153D01*
X21150D01*
X21150Y20147D01*
X20850D01*
X20850Y20153D01*
X20800D01*
X20810Y20156D01*
X20818Y20165D01*
X20826Y20180D01*
X20832Y20201D01*
X20838Y20228D01*
X20842Y20261D01*
X20844Y20285D01*
X20838Y20372D01*
X20832Y20399D01*
X20826Y20420D01*
X20818Y20435D01*
X20810Y20444D01*
X20800Y20447D01*
X20850D01*
X20850Y20453D01*
X21150D01*
X21150Y20447D01*
D02*
G37*
G36*
X20150D02*
X20200D01*
X20190Y20444D01*
X20182Y20435D01*
X20174Y20420D01*
X20168Y20399D01*
X20162Y20372D01*
X20158Y20339D01*
X20156Y20315D01*
X20162Y20228D01*
X20168Y20201D01*
X20174Y20180D01*
X20182Y20165D01*
X20190Y20156D01*
X20200Y20153D01*
X20150D01*
X20150Y20147D01*
X19850D01*
X19850Y20153D01*
X19800D01*
X19810Y20156D01*
X19818Y20165D01*
X19826Y20180D01*
X19832Y20201D01*
X19838Y20228D01*
X19842Y20261D01*
X19844Y20285D01*
X19838Y20372D01*
X19832Y20399D01*
X19826Y20420D01*
X19818Y20435D01*
X19810Y20444D01*
X19800Y20447D01*
X19850D01*
X19850Y20453D01*
X20150D01*
X20150Y20447D01*
D02*
G37*
G36*
X19150D02*
X19200D01*
X19190Y20444D01*
X19182Y20435D01*
X19174Y20420D01*
X19168Y20399D01*
X19162Y20372D01*
X19158Y20339D01*
X19156Y20315D01*
X19162Y20228D01*
X19168Y20201D01*
X19174Y20180D01*
X19182Y20165D01*
X19190Y20156D01*
X19200Y20153D01*
X19150D01*
X19150Y20147D01*
X18850D01*
X18850Y20153D01*
X18800D01*
X18810Y20156D01*
X18818Y20165D01*
X18826Y20180D01*
X18832Y20201D01*
X18838Y20228D01*
X18842Y20261D01*
X18844Y20285D01*
X18838Y20372D01*
X18832Y20399D01*
X18826Y20420D01*
X18818Y20435D01*
X18810Y20444D01*
X18800Y20447D01*
X18850D01*
X18850Y20453D01*
X19150D01*
X19150Y20447D01*
D02*
G37*
G36*
X18150D02*
X18200D01*
X18190Y20444D01*
X18182Y20435D01*
X18174Y20420D01*
X18168Y20399D01*
X18162Y20372D01*
X18158Y20339D01*
X18156Y20315D01*
X18162Y20228D01*
X18168Y20201D01*
X18174Y20180D01*
X18182Y20165D01*
X18190Y20156D01*
X18200Y20153D01*
X18150D01*
X18150Y20147D01*
X17850D01*
X17850Y20153D01*
X17800D01*
X17810Y20156D01*
X17818Y20165D01*
X17826Y20180D01*
X17832Y20201D01*
X17838Y20228D01*
X17842Y20261D01*
X17844Y20285D01*
X17838Y20372D01*
X17832Y20399D01*
X17826Y20420D01*
X17818Y20435D01*
X17810Y20444D01*
X17800Y20447D01*
X17850D01*
X17850Y20453D01*
X18150D01*
X18150Y20447D01*
D02*
G37*
G36*
X17150D02*
X17200D01*
X17190Y20444D01*
X17182Y20435D01*
X17174Y20420D01*
X17168Y20399D01*
X17162Y20372D01*
X17158Y20339D01*
X17156Y20315D01*
X17162Y20228D01*
X17168Y20201D01*
X17174Y20180D01*
X17182Y20165D01*
X17190Y20156D01*
X17200Y20153D01*
X17150D01*
X17150Y20147D01*
X16850D01*
X16850Y20153D01*
X16800D01*
X16810Y20156D01*
X16818Y20165D01*
X16826Y20180D01*
X16832Y20201D01*
X16838Y20228D01*
X16842Y20261D01*
X16844Y20285D01*
X16838Y20372D01*
X16832Y20399D01*
X16826Y20420D01*
X16818Y20435D01*
X16810Y20444D01*
X16800Y20447D01*
X16850D01*
X16850Y20453D01*
X17150D01*
X17150Y20447D01*
D02*
G37*
G36*
X16150D02*
X16200D01*
X16190Y20444D01*
X16182Y20435D01*
X16174Y20420D01*
X16168Y20399D01*
X16162Y20372D01*
X16158Y20339D01*
X16156Y20315D01*
X16162Y20228D01*
X16168Y20201D01*
X16174Y20180D01*
X16182Y20165D01*
X16190Y20156D01*
X16200Y20153D01*
X16150D01*
X16150Y20147D01*
X15850D01*
X15850Y20153D01*
X15800D01*
X15810Y20156D01*
X15818Y20165D01*
X15826Y20180D01*
X15832Y20201D01*
X15838Y20228D01*
X15842Y20261D01*
X15844Y20285D01*
X15838Y20372D01*
X15832Y20399D01*
X15826Y20420D01*
X15818Y20435D01*
X15810Y20444D01*
X15800Y20447D01*
X15850D01*
X15850Y20453D01*
X16150D01*
X16150Y20447D01*
D02*
G37*
G36*
X15150D02*
X15200D01*
X15190Y20444D01*
X15182Y20435D01*
X15174Y20420D01*
X15168Y20399D01*
X15162Y20372D01*
X15158Y20339D01*
X15156Y20315D01*
X15162Y20228D01*
X15168Y20201D01*
X15174Y20180D01*
X15182Y20165D01*
X15190Y20156D01*
X15200Y20153D01*
X15150D01*
X15150Y20147D01*
X14850D01*
X14850Y20153D01*
X14800D01*
X14810Y20156D01*
X14818Y20165D01*
X14826Y20180D01*
X14832Y20201D01*
X14838Y20228D01*
X14842Y20261D01*
X14844Y20285D01*
X14838Y20372D01*
X14832Y20399D01*
X14826Y20420D01*
X14818Y20435D01*
X14810Y20444D01*
X14800Y20447D01*
X14850D01*
X14850Y20453D01*
X15150D01*
X15150Y20447D01*
D02*
G37*
G36*
X14150D02*
X14200D01*
X14190Y20444D01*
X14182Y20435D01*
X14174Y20420D01*
X14168Y20399D01*
X14162Y20372D01*
X14158Y20339D01*
X14156Y20315D01*
X14162Y20228D01*
X14168Y20201D01*
X14174Y20180D01*
X14182Y20165D01*
X14190Y20156D01*
X14200Y20153D01*
X14150D01*
X14150Y20147D01*
X13850D01*
X13850Y20153D01*
X13800D01*
X13810Y20156D01*
X13818Y20165D01*
X13826Y20180D01*
X13832Y20201D01*
X13838Y20228D01*
X13842Y20261D01*
X13844Y20285D01*
X13838Y20372D01*
X13832Y20399D01*
X13826Y20420D01*
X13818Y20435D01*
X13810Y20444D01*
X13800Y20447D01*
X13850D01*
X13850Y20453D01*
X14150D01*
X14150Y20447D01*
D02*
G37*
G36*
X12550D02*
X12600D01*
X12590Y20444D01*
X12582Y20435D01*
X12574Y20420D01*
X12568Y20399D01*
X12562Y20372D01*
X12558Y20339D01*
X12556Y20315D01*
X12562Y20228D01*
X12568Y20201D01*
X12574Y20180D01*
X12582Y20165D01*
X12590Y20156D01*
X12600Y20153D01*
X12550D01*
X12550Y20147D01*
X12250D01*
X12250Y20153D01*
X12200D01*
X12210Y20156D01*
X12218Y20165D01*
X12226Y20180D01*
X12232Y20201D01*
X12238Y20228D01*
X12242Y20261D01*
X12244Y20285D01*
X12238Y20372D01*
X12232Y20399D01*
X12226Y20420D01*
X12218Y20435D01*
X12210Y20444D01*
X12200Y20447D01*
X12250D01*
X12250Y20453D01*
X12550D01*
X12550Y20447D01*
D02*
G37*
G36*
X11550D02*
X11600D01*
X11590Y20444D01*
X11582Y20435D01*
X11574Y20420D01*
X11568Y20399D01*
X11562Y20372D01*
X11558Y20339D01*
X11556Y20315D01*
X11562Y20228D01*
X11568Y20201D01*
X11574Y20180D01*
X11582Y20165D01*
X11590Y20156D01*
X11600Y20153D01*
X11550D01*
X11550Y20147D01*
X11250D01*
X11250Y20153D01*
X11200D01*
X11210Y20156D01*
X11218Y20165D01*
X11226Y20180D01*
X11232Y20201D01*
X11238Y20228D01*
X11242Y20261D01*
X11244Y20285D01*
X11238Y20372D01*
X11232Y20399D01*
X11226Y20420D01*
X11218Y20435D01*
X11210Y20444D01*
X11200Y20447D01*
X11250D01*
X11250Y20453D01*
X11550D01*
X11550Y20447D01*
D02*
G37*
G36*
X10550D02*
X10600D01*
X10590Y20444D01*
X10582Y20435D01*
X10574Y20420D01*
X10568Y20399D01*
X10562Y20372D01*
X10558Y20339D01*
X10556Y20315D01*
X10562Y20228D01*
X10568Y20201D01*
X10574Y20180D01*
X10582Y20165D01*
X10590Y20156D01*
X10600Y20153D01*
X10550D01*
X10550Y20147D01*
X10250D01*
X10250Y20153D01*
X10200D01*
X10210Y20156D01*
X10218Y20165D01*
X10226Y20180D01*
X10232Y20201D01*
X10238Y20228D01*
X10242Y20261D01*
X10244Y20285D01*
X10238Y20372D01*
X10232Y20399D01*
X10226Y20420D01*
X10218Y20435D01*
X10210Y20444D01*
X10200Y20447D01*
X10250D01*
X10250Y20453D01*
X10550D01*
X10550Y20447D01*
D02*
G37*
G36*
X9550D02*
X9600D01*
X9590Y20444D01*
X9582Y20435D01*
X9574Y20420D01*
X9568Y20399D01*
X9562Y20372D01*
X9558Y20339D01*
X9556Y20315D01*
X9562Y20228D01*
X9568Y20201D01*
X9574Y20180D01*
X9582Y20165D01*
X9590Y20156D01*
X9600Y20153D01*
X9550D01*
X9550Y20147D01*
X9250D01*
X9250Y20153D01*
X9200D01*
X9210Y20156D01*
X9218Y20165D01*
X9226Y20180D01*
X9232Y20201D01*
X9238Y20228D01*
X9242Y20261D01*
X9244Y20285D01*
X9238Y20372D01*
X9232Y20399D01*
X9226Y20420D01*
X9218Y20435D01*
X9210Y20444D01*
X9200Y20447D01*
X9250D01*
X9250Y20453D01*
X9550D01*
X9550Y20447D01*
D02*
G37*
G36*
X8550D02*
X8600D01*
X8590Y20444D01*
X8582Y20435D01*
X8574Y20420D01*
X8568Y20399D01*
X8562Y20372D01*
X8558Y20339D01*
X8556Y20315D01*
X8562Y20228D01*
X8568Y20201D01*
X8574Y20180D01*
X8582Y20165D01*
X8590Y20156D01*
X8600Y20153D01*
X8550D01*
X8550Y20147D01*
X8250D01*
X8250Y20153D01*
X8200D01*
X8210Y20156D01*
X8218Y20165D01*
X8226Y20180D01*
X8232Y20201D01*
X8238Y20228D01*
X8242Y20261D01*
X8244Y20285D01*
X8238Y20372D01*
X8232Y20399D01*
X8226Y20420D01*
X8218Y20435D01*
X8210Y20444D01*
X8200Y20447D01*
X8250D01*
X8250Y20453D01*
X8550D01*
X8550Y20447D01*
D02*
G37*
G36*
X7550D02*
X7600D01*
X7590Y20444D01*
X7582Y20435D01*
X7574Y20420D01*
X7568Y20399D01*
X7562Y20372D01*
X7558Y20339D01*
X7556Y20315D01*
X7562Y20228D01*
X7568Y20201D01*
X7574Y20180D01*
X7582Y20165D01*
X7590Y20156D01*
X7600Y20153D01*
X7550D01*
X7550Y20147D01*
X7250D01*
X7250Y20153D01*
X7200D01*
X7210Y20156D01*
X7218Y20165D01*
X7226Y20180D01*
X7232Y20201D01*
X7238Y20228D01*
X7242Y20261D01*
X7244Y20285D01*
X7238Y20372D01*
X7232Y20399D01*
X7226Y20420D01*
X7218Y20435D01*
X7210Y20444D01*
X7200Y20447D01*
X7250D01*
X7250Y20453D01*
X7550D01*
X7550Y20447D01*
D02*
G37*
G36*
X5550D02*
X5600D01*
X5590Y20444D01*
X5582Y20435D01*
X5574Y20420D01*
X5568Y20399D01*
X5562Y20372D01*
X5558Y20339D01*
X5556Y20315D01*
X5562Y20228D01*
X5568Y20201D01*
X5574Y20180D01*
X5582Y20165D01*
X5590Y20156D01*
X5600Y20153D01*
X5550D01*
X5550Y20147D01*
X5250D01*
X5250Y20153D01*
X5200D01*
X5210Y20156D01*
X5218Y20165D01*
X5226Y20180D01*
X5232Y20201D01*
X5238Y20228D01*
X5242Y20261D01*
X5244Y20285D01*
X5238Y20372D01*
X5232Y20399D01*
X5226Y20420D01*
X5218Y20435D01*
X5210Y20444D01*
X5200Y20447D01*
X5250D01*
X5250Y20453D01*
X5550D01*
X5550Y20447D01*
D02*
G37*
G36*
X4550D02*
X4600D01*
X4590Y20444D01*
X4582Y20435D01*
X4574Y20420D01*
X4568Y20399D01*
X4562Y20372D01*
X4558Y20339D01*
X4556Y20315D01*
X4562Y20228D01*
X4568Y20201D01*
X4574Y20180D01*
X4582Y20165D01*
X4590Y20156D01*
X4600Y20153D01*
X4550D01*
X4550Y20147D01*
X4250D01*
X4250Y20153D01*
X4200D01*
X4210Y20156D01*
X4218Y20165D01*
X4226Y20180D01*
X4232Y20201D01*
X4238Y20228D01*
X4242Y20261D01*
X4244Y20285D01*
X4238Y20372D01*
X4232Y20399D01*
X4226Y20420D01*
X4218Y20435D01*
X4210Y20444D01*
X4200Y20447D01*
X4250D01*
X4250Y20453D01*
X4550D01*
X4550Y20447D01*
D02*
G37*
G36*
X3550D02*
X3600D01*
X3590Y20444D01*
X3582Y20435D01*
X3574Y20420D01*
X3568Y20399D01*
X3562Y20372D01*
X3558Y20339D01*
X3556Y20315D01*
X3562Y20228D01*
X3568Y20201D01*
X3574Y20180D01*
X3582Y20165D01*
X3590Y20156D01*
X3600Y20153D01*
X3550D01*
X3550Y20147D01*
X3250D01*
X3250Y20153D01*
X3200D01*
X3210Y20156D01*
X3218Y20165D01*
X3226Y20180D01*
X3232Y20201D01*
X3238Y20228D01*
X3242Y20261D01*
X3244Y20285D01*
X3238Y20372D01*
X3232Y20399D01*
X3226Y20420D01*
X3218Y20435D01*
X3210Y20444D01*
X3200Y20447D01*
X3250D01*
X3250Y20453D01*
X3550D01*
X3550Y20447D01*
D02*
G37*
G36*
X17030Y19500D02*
X16970D01*
X16969Y19504D01*
X16966Y19510D01*
X16962Y19518D01*
X16948Y19540D01*
X16897Y19610D01*
X16880Y19633D01*
X17120D01*
X17030Y19500D01*
D02*
G37*
G36*
X19030Y19500D02*
X18970D01*
X18969Y19504D01*
X18966Y19510D01*
X18962Y19518D01*
X18948Y19540D01*
X18897Y19610D01*
X18880Y19633D01*
X19120D01*
X19030Y19500D01*
D02*
G37*
G36*
X14030D02*
X13970D01*
X13969Y19504D01*
X13966Y19510D01*
X13962Y19518D01*
X13948Y19540D01*
X13897Y19610D01*
X13880Y19633D01*
X14120D01*
X14030Y19500D01*
D02*
G37*
G36*
X17699Y21408D02*
X17699Y21367D01*
Y20451D01*
X17698Y20447D01*
X17699Y20443D01*
Y20442D01*
X17699Y20438D01*
X17699Y20437D01*
Y20346D01*
X17699D01*
X17723Y20303D01*
X17699Y20254D01*
X17699D01*
Y20163D01*
X17699Y20162D01*
X17699Y20158D01*
Y20157D01*
X17698Y20153D01*
X17699Y20149D01*
Y19396D01*
X17696Y19393D01*
X17639Y19335D01*
X17301D01*
Y20149D01*
X17302Y20153D01*
X17301Y20157D01*
Y20158D01*
X17301Y20162D01*
X17301Y20163D01*
Y20254D01*
X17301D01*
X17277Y20297D01*
X17301Y20346D01*
X17301D01*
Y20437D01*
X17301Y20438D01*
X17301Y20442D01*
Y20443D01*
X17302Y20447D01*
X17301Y20451D01*
Y21367D01*
X17301Y21408D01*
X17365Y21447D01*
X17635D01*
X17699Y21408D01*
D02*
G37*
G36*
X18878Y19295D02*
X18874Y19298D01*
X18869Y19300D01*
X18863Y19300D01*
X18856Y19298D01*
X18848Y19295D01*
X18839Y19290D01*
X18829Y19283D01*
X18818Y19274D01*
X18793Y19251D01*
X18758Y19300D01*
X18770Y19313D01*
X18788Y19334D01*
X18795Y19344D01*
X18800Y19353D01*
X18804Y19361D01*
X18806Y19368D01*
X18806Y19375D01*
X18805Y19380D01*
X18802Y19385D01*
X18878Y19295D01*
D02*
G37*
G36*
X17870D02*
X17866Y19298D01*
X17861Y19301D01*
X17855Y19301D01*
X17848Y19299D01*
X17840Y19296D01*
X17831Y19291D01*
X17821Y19283D01*
X17810Y19274D01*
X17785Y19251D01*
X17758Y19309D01*
X17769Y19321D01*
X17787Y19342D01*
X17794Y19352D01*
X17799Y19360D01*
X17803Y19369D01*
X17805Y19376D01*
X17805Y19383D01*
X17804Y19389D01*
X17802Y19394D01*
X17870Y19295D01*
D02*
G37*
G36*
X16878D02*
X16874Y19298D01*
X16869Y19300D01*
X16863Y19300D01*
X16856Y19298D01*
X16848Y19295D01*
X16839Y19290D01*
X16829Y19283D01*
X16818Y19274D01*
X16793Y19251D01*
X16758Y19300D01*
X16770Y19313D01*
X16788Y19334D01*
X16795Y19344D01*
X16800Y19353D01*
X16804Y19361D01*
X16806Y19368D01*
X16806Y19375D01*
X16805Y19380D01*
X16802Y19385D01*
X16878Y19295D01*
D02*
G37*
G36*
X7595Y19374D02*
X7594Y19368D01*
X7594Y19362D01*
X7595Y19355D01*
X7599Y19347D01*
X7604Y19338D01*
X7611Y19328D01*
X7620Y19317D01*
X7642Y19293D01*
X7600Y19251D01*
X7587Y19263D01*
X7565Y19282D01*
X7555Y19289D01*
X7546Y19294D01*
X7538Y19297D01*
X7531Y19299D01*
X7525Y19299D01*
X7519Y19298D01*
X7515Y19295D01*
X7598Y19378D01*
X7595Y19374D01*
D02*
G37*
G36*
X10464Y19294D02*
X10459Y19292D01*
X10455Y19289D01*
X10451Y19285D01*
X10447Y19279D01*
X10445Y19272D01*
X10443Y19265D01*
X10441Y19255D01*
X10440Y19245D01*
X10440Y19233D01*
X10380D01*
X10380Y19245D01*
X10379Y19255D01*
X10377Y19265D01*
X10375Y19272D01*
X10372Y19279D01*
X10369Y19285D01*
X10365Y19289D01*
X10361Y19292D01*
X10356Y19294D01*
X10350Y19295D01*
X10470D01*
X10464Y19294D01*
D02*
G37*
G36*
X18699Y21408D02*
X18699Y21367D01*
Y20451D01*
X18698Y20447D01*
X18699Y20443D01*
Y20442D01*
X18699Y20438D01*
X18699Y20437D01*
Y20346D01*
X18699D01*
X18723Y20303D01*
X18699Y20254D01*
X18699D01*
Y20163D01*
X18699Y20162D01*
X18699Y20158D01*
Y20157D01*
X18698Y20153D01*
X18699Y20149D01*
Y19387D01*
X18697Y19384D01*
X18527Y19215D01*
X18301D01*
Y20149D01*
X18302Y20153D01*
X18301Y20157D01*
Y20158D01*
X18301Y20162D01*
X18301Y20163D01*
Y20254D01*
X18301D01*
X18277Y20297D01*
X18301Y20346D01*
X18301D01*
Y20437D01*
X18301Y20438D01*
X18301Y20442D01*
Y20443D01*
X18302Y20447D01*
X18301Y20451D01*
Y21367D01*
X18301Y21408D01*
X18365Y21447D01*
X18635D01*
X18699Y21408D01*
D02*
G37*
G36*
X10099D02*
X10099Y21367D01*
Y20451D01*
X10098Y20447D01*
X10099Y20443D01*
Y20442D01*
X10099Y20438D01*
X10099Y20437D01*
Y20346D01*
X10099D01*
X10123Y20303D01*
X10099Y20254D01*
X10099D01*
Y20163D01*
X10099Y20162D01*
X10099Y20158D01*
Y20157D01*
X10098Y20153D01*
X10099Y20149D01*
Y19192D01*
X10277D01*
Y18875D01*
X10204Y18844D01*
X10060Y18988D01*
X10017Y19016D01*
X9967Y19026D01*
X8054D01*
X7704Y19376D01*
X7701Y19380D01*
Y20149D01*
X7702Y20153D01*
X7701Y20157D01*
Y20158D01*
X7701Y20162D01*
X7701Y20163D01*
Y20254D01*
X7701D01*
X7677Y20297D01*
X7701Y20346D01*
X7701D01*
Y20437D01*
X7701Y20438D01*
X7701Y20442D01*
Y20443D01*
X7702Y20447D01*
X7701Y20451D01*
Y21367D01*
X7701Y21408D01*
X7765Y21447D01*
X8035D01*
X8099Y21408D01*
X8099Y21367D01*
Y20451D01*
X8098Y20447D01*
X8099Y20443D01*
Y20442D01*
X8099Y20438D01*
X8099Y20437D01*
Y20346D01*
X8099D01*
X8123Y20303D01*
X8099Y20254D01*
X8099D01*
Y20163D01*
X8099Y20162D01*
X8099Y20158D01*
Y20157D01*
X8098Y20153D01*
X8099Y20149D01*
Y19192D01*
X8701D01*
Y20149D01*
X8702Y20153D01*
X8701Y20157D01*
Y20158D01*
X8701Y20162D01*
X8701Y20163D01*
Y20254D01*
X8701D01*
X8677Y20297D01*
X8701Y20346D01*
X8701D01*
Y20437D01*
X8701Y20438D01*
X8701Y20442D01*
Y20443D01*
X8702Y20447D01*
X8701Y20451D01*
Y21367D01*
X8701Y21408D01*
X8765Y21447D01*
X9035D01*
X9099Y21408D01*
X9099Y21367D01*
Y20451D01*
X9098Y20447D01*
X9099Y20443D01*
Y20442D01*
X9099Y20438D01*
X9099Y20437D01*
Y20346D01*
X9099D01*
X9123Y20303D01*
X9099Y20254D01*
X9099D01*
Y20163D01*
X9099Y20162D01*
X9099Y20158D01*
Y20157D01*
X9098Y20153D01*
X9099Y20149D01*
Y19192D01*
X9701D01*
Y20149D01*
X9702Y20153D01*
X9701Y20157D01*
Y20158D01*
X9701Y20162D01*
X9701Y20163D01*
Y20254D01*
X9701D01*
X9677Y20297D01*
X9701Y20346D01*
X9701D01*
Y20437D01*
X9701Y20438D01*
X9701Y20442D01*
Y20443D01*
X9702Y20447D01*
X9701Y20451D01*
Y21367D01*
X9701Y21408D01*
X9765Y21447D01*
X10035D01*
X10099Y21408D01*
D02*
G37*
G36*
X16699D02*
X16699Y21367D01*
Y20451D01*
X16698Y20447D01*
X16699Y20443D01*
Y20442D01*
X16699Y20438D01*
X16699Y20437D01*
Y20346D01*
X16699D01*
X16723Y20303D01*
X16699Y20254D01*
X16699D01*
Y20163D01*
X16699Y20162D01*
X16699Y20158D01*
Y20157D01*
X16698Y20153D01*
X16699Y20149D01*
Y19387D01*
X16697Y19384D01*
X16216Y18903D01*
X16141Y18942D01*
X16182Y19192D01*
X16301D01*
Y20149D01*
X16302Y20153D01*
X16301Y20157D01*
Y20158D01*
X16301Y20162D01*
X16301Y20163D01*
Y20254D01*
X16301D01*
X16277Y20297D01*
X16301Y20346D01*
X16301D01*
Y20437D01*
X16301Y20438D01*
X16301Y20442D01*
Y20443D01*
X16302Y20447D01*
X16301Y20451D01*
Y21367D01*
X16301Y21408D01*
X16365Y21447D01*
X16635D01*
X16699Y21408D01*
D02*
G37*
G36*
X16127Y19487D02*
X16031Y18902D01*
X16030Y18976D01*
X15970D01*
X15969Y18902D01*
X15965Y18860D01*
X15959Y18851D01*
X15951Y18875D01*
X15940Y18932D01*
X15912Y19144D01*
X15851Y19708D01*
X16149D01*
X16127Y19487D01*
D02*
G37*
G36*
X10216Y12944D02*
X10218Y12934D01*
X10220Y12924D01*
X10224Y12914D01*
X10229Y12904D01*
X10235Y12894D01*
X10242Y12884D01*
X10249Y12873D01*
X10258Y12863D01*
X10268Y12853D01*
X10103D01*
X10113Y12863D01*
X10122Y12873D01*
X10130Y12884D01*
X10137Y12894D01*
X10143Y12904D01*
X10147Y12914D01*
X10151Y12924D01*
X10154Y12934D01*
X10155Y12944D01*
X10156Y12954D01*
X10216D01*
X10216Y12944D01*
D02*
G37*
G36*
X13118Y12404D02*
X13139Y12387D01*
X13150Y12381D01*
X13160Y12375D01*
X13170Y12370D01*
X13181Y12367D01*
X13191Y12364D01*
X13200Y12363D01*
X13210Y12362D01*
X13213Y12302D01*
X13203Y12302D01*
X13193Y12300D01*
X13183Y12297D01*
X13173Y12294D01*
X13164Y12289D01*
X13154Y12283D01*
X13144Y12276D01*
X13134Y12268D01*
X13125Y12258D01*
X13115Y12248D01*
X13107Y12413D01*
X13118Y12404D01*
D02*
G37*
G36*
X13903Y12125D02*
X13897Y12118D01*
X13891Y12111D01*
X13886Y12102D01*
X13881Y12093D01*
X13876Y12082D01*
X13871Y12071D01*
X13863Y12045D01*
X13859Y12031D01*
X13856Y12016D01*
X13767Y12155D01*
X13780Y12153D01*
X13792Y12151D01*
X13804Y12151D01*
X13815Y12151D01*
X13826Y12153D01*
X13836Y12156D01*
X13846Y12159D01*
X13854Y12164D01*
X13863Y12170D01*
X13870Y12177D01*
X13903Y12125D01*
D02*
G37*
G36*
X13893Y11816D02*
X13886Y11808D01*
X13880Y11800D01*
X13875Y11791D01*
X13870Y11782D01*
X13867Y11771D01*
X13864Y11760D01*
X13861Y11748D01*
X13860Y11735D01*
X13859Y11721D01*
X13858Y11707D01*
X13742Y11824D01*
X13756Y11824D01*
X13770Y11825D01*
X13782Y11827D01*
X13794Y11829D01*
X13806Y11832D01*
X13816Y11836D01*
X13826Y11840D01*
X13835Y11846D01*
X13843Y11851D01*
X13850Y11858D01*
X13893Y11816D01*
D02*
G37*
G36*
X10441Y11361D02*
X10442Y11351D01*
X10445Y11341D01*
X10448Y11331D01*
X10453Y11321D01*
X10459Y11311D01*
X10466Y11301D01*
X10474Y11290D01*
X10483Y11280D01*
X10493Y11270D01*
X10327D01*
X10337Y11280D01*
X10346Y11290D01*
X10354Y11301D01*
X10361Y11311D01*
X10367Y11321D01*
X10372Y11331D01*
X10375Y11341D01*
X10378Y11351D01*
X10379Y11361D01*
X10380Y11371D01*
X10440D01*
X10441Y11361D01*
D02*
G37*
G36*
X15157Y9975D02*
X15150Y9967D01*
X15145Y9959D01*
X15139Y9950D01*
X15135Y9941D01*
X15131Y9930D01*
X15128Y9919D01*
X15126Y9907D01*
X15124Y9894D01*
X15123Y9881D01*
X15123Y9866D01*
X15006Y9983D01*
X15021Y9983D01*
X15034Y9984D01*
X15047Y9986D01*
X15059Y9988D01*
X15070Y9991D01*
X15081Y9995D01*
X15090Y9999D01*
X15099Y10005D01*
X15107Y10010D01*
X15115Y10017D01*
X15157Y9975D01*
D02*
G37*
G36*
X400Y21447D02*
X1855D01*
X1858Y21367D01*
X1831Y21365D01*
X1667Y21325D01*
X1510Y21261D01*
X1366Y21172D01*
X1238Y21062D01*
X1128Y20934D01*
X1039Y20789D01*
X975Y20633D01*
X935Y20469D01*
X922Y20300D01*
X935Y20131D01*
X975Y19967D01*
X1039Y19811D01*
X1128Y19666D01*
X1238Y19538D01*
X1366Y19428D01*
X1510Y19339D01*
X1667Y19275D01*
X1831Y19235D01*
X2000Y19222D01*
X2169Y19235D01*
X2333Y19275D01*
X2489Y19339D01*
X2634Y19428D01*
X2762Y19538D01*
X2872Y19666D01*
X2961Y19811D01*
X3019Y19952D01*
X3099Y19936D01*
Y19192D01*
X3701D01*
Y20149D01*
X3702Y20153D01*
X3701Y20157D01*
Y20158D01*
X3701Y20162D01*
X3701Y20163D01*
Y20254D01*
X3701D01*
X3677Y20297D01*
X3701Y20346D01*
X3701D01*
Y20437D01*
X3701Y20438D01*
X3701Y20442D01*
Y20443D01*
X3702Y20447D01*
X3701Y20451D01*
Y21367D01*
X3701Y21408D01*
X3765Y21447D01*
X4035D01*
X4099Y21408D01*
X4099Y21367D01*
Y20451D01*
X4098Y20447D01*
X4099Y20443D01*
Y20442D01*
X4099Y20438D01*
X4099Y20437D01*
Y20346D01*
X4099D01*
X4123Y20303D01*
X4099Y20254D01*
X4099D01*
Y20163D01*
X4099Y20162D01*
X4099Y20158D01*
Y20157D01*
X4098Y20153D01*
X4099Y20149D01*
Y19192D01*
X4701D01*
Y20149D01*
X4702Y20153D01*
X4701Y20157D01*
Y20158D01*
X4701Y20162D01*
X4701Y20163D01*
Y20254D01*
X4701D01*
X4677Y20297D01*
X4701Y20346D01*
X4701D01*
Y20437D01*
X4701Y20438D01*
X4701Y20442D01*
Y20443D01*
X4702Y20447D01*
X4701Y20451D01*
Y21367D01*
X4701Y21408D01*
X4765Y21447D01*
X5035D01*
X5099Y21408D01*
X5099Y21367D01*
Y20451D01*
X5098Y20447D01*
X5099Y20443D01*
Y20442D01*
X5099Y20438D01*
X5099Y20437D01*
Y20346D01*
X5099D01*
X5123Y20303D01*
X5099Y20254D01*
X5099D01*
Y20163D01*
X5099Y20162D01*
X5099Y20158D01*
Y20157D01*
X5098Y20153D01*
X5099Y20149D01*
Y19192D01*
X5701D01*
Y20149D01*
X5702Y20153D01*
X5701Y20157D01*
Y20158D01*
X5701Y20162D01*
X5701Y20163D01*
Y20254D01*
X5701D01*
X5677Y20297D01*
X5701Y20346D01*
X5701D01*
Y20437D01*
X5701Y20438D01*
X5701Y20442D01*
Y20443D01*
X5702Y20447D01*
X5701Y20451D01*
Y21367D01*
X5701Y21408D01*
X5765Y21447D01*
X6035D01*
X6099Y21408D01*
X6099Y21367D01*
Y20927D01*
X6400D01*
X6701D01*
Y21367D01*
X6701Y21408D01*
X6765Y21447D01*
X7035D01*
X7099Y21408D01*
X7099Y21367D01*
Y20451D01*
X7098Y20447D01*
X7099Y20443D01*
Y20442D01*
X7099Y20438D01*
X7099Y20437D01*
Y20346D01*
X7099D01*
X7123Y20303D01*
X7099Y20254D01*
X7099D01*
Y20163D01*
X7099Y20162D01*
X7099Y20158D01*
Y20157D01*
X7098Y20153D01*
X7099Y20149D01*
Y19192D01*
X7513D01*
X7515Y19190D01*
X7905Y18800D01*
X7948Y18771D01*
X7999Y18761D01*
X9912D01*
X10053Y18620D01*
Y12953D01*
X10052Y12951D01*
X10050Y12948D01*
X10047Y12943D01*
X10043Y12938D01*
X10038Y12932D01*
X10038Y12932D01*
X10028Y12926D01*
X9980Y12854D01*
X9963Y12769D01*
X9980Y12683D01*
X10028Y12611D01*
X10101Y12563D01*
X10186Y12546D01*
X10197Y12548D01*
X10277Y12483D01*
Y11370D01*
X10276Y11368D01*
X10274Y11365D01*
X10272Y11360D01*
X10268Y11355D01*
X10262Y11349D01*
X10262Y11349D01*
X10253Y11343D01*
X10205Y11271D01*
X10188Y11186D01*
X10205Y11100D01*
X10253Y11028D01*
X10325Y10980D01*
X10410Y10963D01*
X10495Y10980D01*
X10567Y11028D01*
X10615Y11100D01*
X10632Y11186D01*
X10615Y11271D01*
X10567Y11343D01*
X10558Y11349D01*
X10558Y11349D01*
X10552Y11355D01*
X10548Y11360D01*
X10546Y11365D01*
X10544Y11368D01*
X10543Y11370D01*
Y19192D01*
X10701D01*
Y20149D01*
X10702Y20153D01*
X10701Y20157D01*
Y20158D01*
X10701Y20162D01*
X10701Y20163D01*
Y20254D01*
X10701D01*
X10677Y20297D01*
X10701Y20346D01*
X10701D01*
Y20437D01*
X10701Y20438D01*
X10701Y20442D01*
Y20443D01*
X10702Y20447D01*
X10701Y20451D01*
Y21367D01*
X10701Y21408D01*
X10765Y21447D01*
X11035D01*
X11099Y21408D01*
X11099Y21367D01*
Y20451D01*
X11098Y20447D01*
X11099Y20443D01*
Y20442D01*
X11099Y20438D01*
X11099Y20437D01*
Y20346D01*
X11099D01*
X11123Y20303D01*
X11099Y20254D01*
X11099D01*
Y20163D01*
X11099Y20162D01*
X11099Y20158D01*
Y20157D01*
X11098Y20153D01*
X11099Y20149D01*
Y19192D01*
X11701D01*
Y20149D01*
X11702Y20153D01*
X11701Y20157D01*
Y20158D01*
X11701Y20162D01*
X11701Y20163D01*
Y20254D01*
X11701D01*
X11677Y20297D01*
X11701Y20346D01*
X11701D01*
Y20437D01*
X11701Y20438D01*
X11701Y20442D01*
Y20443D01*
X11702Y20447D01*
X11701Y20451D01*
Y21367D01*
X11701Y21408D01*
X11765Y21447D01*
X12035D01*
X12099Y21408D01*
X12099Y21367D01*
Y20451D01*
X12098Y20447D01*
X12099Y20443D01*
Y20442D01*
X12099Y20438D01*
X12099Y20437D01*
Y20346D01*
X12099D01*
X12123Y20303D01*
X12099Y20254D01*
X12099D01*
Y20163D01*
X12099Y20162D01*
X12099Y20158D01*
Y20157D01*
X12098Y20153D01*
X12099Y20149D01*
Y19192D01*
X12701D01*
Y20149D01*
X12702Y20153D01*
X12701Y20157D01*
Y20158D01*
X12701Y20162D01*
X12701Y20163D01*
Y20254D01*
X12701D01*
X12677Y20297D01*
X12701Y20346D01*
X12701D01*
Y20437D01*
X12701Y20438D01*
X12701Y20442D01*
Y20443D01*
X12702Y20447D01*
X12701Y20451D01*
Y21367D01*
X12701Y21408D01*
X12765Y21447D01*
X13635D01*
X13699Y21408D01*
X13699Y21367D01*
Y20451D01*
X13698Y20447D01*
X13699Y20443D01*
Y20442D01*
X13699Y20438D01*
X13699Y20437D01*
Y20346D01*
X13699D01*
X13723Y20303D01*
X13699Y20254D01*
X13699D01*
Y20163D01*
X13699Y20162D01*
X13699Y20158D01*
Y20157D01*
X13698Y20153D01*
X13699Y20149D01*
Y19192D01*
X14301D01*
Y20149D01*
X14302Y20153D01*
X14301Y20157D01*
Y20158D01*
X14301Y20162D01*
X14301Y20163D01*
Y20254D01*
X14301D01*
X14277Y20297D01*
X14301Y20346D01*
X14301D01*
Y20437D01*
X14301Y20438D01*
X14301Y20442D01*
Y20443D01*
X14302Y20447D01*
X14301Y20451D01*
Y21367D01*
X14301Y21408D01*
X14365Y21447D01*
X14635D01*
X14699Y21408D01*
X14699Y21367D01*
Y20451D01*
X14698Y20447D01*
X14699Y20443D01*
Y20442D01*
X14699Y20438D01*
X14699Y20437D01*
Y20346D01*
X14699D01*
X14723Y20303D01*
X14699Y20254D01*
X14699D01*
Y20163D01*
X14699Y20162D01*
X14699Y20158D01*
Y20157D01*
X14698Y20153D01*
X14699Y20149D01*
Y19192D01*
X15301D01*
Y20149D01*
X15302Y20153D01*
X15301Y20157D01*
Y20158D01*
X15301Y20162D01*
X15301Y20163D01*
Y20254D01*
X15301D01*
X15277Y20297D01*
X15301Y20346D01*
X15301D01*
Y20437D01*
X15301Y20438D01*
X15301Y20442D01*
Y20443D01*
X15302Y20447D01*
X15301Y20451D01*
Y21367D01*
X15301Y21408D01*
X15365Y21447D01*
X15635D01*
X15699Y21408D01*
X15699Y21367D01*
Y20451D01*
X15698Y20447D01*
X15699Y20443D01*
Y20442D01*
X15699Y20438D01*
X15699Y20437D01*
Y20346D01*
X15699D01*
X15723Y20303D01*
X15699Y20254D01*
X15699D01*
Y20163D01*
X15699Y20162D01*
X15699Y20158D01*
Y20157D01*
X15698Y20153D01*
X15699Y20149D01*
Y19192D01*
X15759D01*
X15811Y19130D01*
X15839Y18918D01*
X15840Y18916D01*
X15840Y18913D01*
X15851Y18856D01*
X15854Y18849D01*
X15855Y18842D01*
X15863Y18818D01*
X15867Y18810D01*
Y14516D01*
X13816Y12465D01*
X13209D01*
X13208Y12465D01*
X13205Y12467D01*
X13201Y12469D01*
X13197Y12471D01*
X13187Y12479D01*
X13184Y12484D01*
X13112Y12532D01*
X13027Y12549D01*
X12942Y12532D01*
X12869Y12484D01*
X12821Y12412D01*
X12804Y12327D01*
X12821Y12241D01*
X12869Y12169D01*
X12942Y12121D01*
X13027Y12104D01*
X13112Y12121D01*
X13184Y12169D01*
X13191Y12181D01*
X13197Y12186D01*
X13202Y12191D01*
X13207Y12195D01*
X13210Y12198D01*
X13213Y12199D01*
X13214Y12200D01*
X13489D01*
X13534Y12127D01*
X13534Y12120D01*
X13518Y12040D01*
X13535Y11955D01*
X13583Y11883D01*
Y11863D01*
X13535Y11791D01*
X13518Y11706D01*
X13535Y11621D01*
X13583Y11549D01*
X13655Y11500D01*
X13740Y11484D01*
X13826Y11500D01*
X13898Y11549D01*
X13946Y11621D01*
X13963Y11706D01*
X13961Y11717D01*
X13961Y11717D01*
X13961Y11725D01*
X13962Y11732D01*
X13963Y11737D01*
X13964Y11740D01*
X13965Y11743D01*
X14067Y11845D01*
X14096Y11888D01*
X14106Y11939D01*
Y12003D01*
X16154Y14051D01*
X16227Y14021D01*
Y11275D01*
X15042Y10089D01*
X15040Y10089D01*
X15036Y10088D01*
X15031Y10087D01*
X15024Y10086D01*
X15016Y10085D01*
X15016Y10085D01*
X15005Y10087D01*
X14920Y10070D01*
X14848Y10022D01*
X14799Y9950D01*
X14783Y9865D01*
X14799Y9780D01*
X14848Y9708D01*
X14920Y9660D01*
X15005Y9643D01*
X15090Y9660D01*
X15162Y9708D01*
X15210Y9780D01*
X15227Y9865D01*
X15225Y9876D01*
X15225Y9876D01*
X15226Y9884D01*
X15227Y9891D01*
X15228Y9896D01*
X15229Y9900D01*
X15229Y9902D01*
X16454Y11126D01*
X16482Y11169D01*
X16493Y11220D01*
Y18382D01*
X17060Y18950D01*
X18582D01*
X18633Y18960D01*
X18676Y18988D01*
X18877Y19189D01*
X18880Y19192D01*
X19301D01*
Y20149D01*
X19302Y20153D01*
X19301Y20157D01*
Y20158D01*
X19301Y20162D01*
X19301Y20163D01*
Y20254D01*
X19301D01*
X19277Y20297D01*
X19301Y20346D01*
X19301D01*
Y20437D01*
X19301Y20438D01*
X19301Y20442D01*
Y20443D01*
X19302Y20447D01*
X19301Y20451D01*
Y21367D01*
X19301Y21408D01*
X19365Y21447D01*
X19635D01*
X19699Y21408D01*
X19699Y21367D01*
Y20451D01*
X19698Y20447D01*
X19699Y20443D01*
Y20442D01*
X19699Y20438D01*
X19699Y20437D01*
Y20346D01*
X19699D01*
X19723Y20303D01*
X19699Y20254D01*
X19699D01*
Y20163D01*
X19699Y20162D01*
X19699Y20158D01*
Y20157D01*
X19698Y20153D01*
X19699Y20149D01*
Y19192D01*
X20301D01*
Y20149D01*
X20302Y20153D01*
X20301Y20157D01*
Y20158D01*
X20301Y20162D01*
X20301Y20163D01*
Y20254D01*
X20301D01*
X20277Y20297D01*
X20301Y20346D01*
X20301D01*
Y20437D01*
X20301Y20438D01*
X20301Y20442D01*
Y20443D01*
X20302Y20447D01*
X20301Y20451D01*
Y21367D01*
X20301Y21408D01*
X20365Y21447D01*
X20635D01*
X20699Y21408D01*
X20699Y21367D01*
Y20451D01*
X20698Y20447D01*
X20699Y20443D01*
Y20442D01*
X20699Y20438D01*
X20699Y20437D01*
Y20346D01*
X20699D01*
X20723Y20303D01*
X20699Y20254D01*
X20699D01*
Y20163D01*
X20699Y20162D01*
X20699Y20158D01*
Y20157D01*
X20698Y20153D01*
X20699Y20149D01*
Y19192D01*
X21301D01*
Y20149D01*
X21302Y20153D01*
X21301Y20157D01*
Y20158D01*
X21301Y20162D01*
X21301Y20163D01*
Y20254D01*
X21301D01*
X21277Y20297D01*
X21301Y20346D01*
X21301D01*
Y20437D01*
X21301Y20438D01*
X21301Y20442D01*
Y20443D01*
X21302Y20447D01*
X21301Y20451D01*
Y21367D01*
X21301Y21408D01*
X21365Y21447D01*
X23600D01*
X23607Y21448D01*
X23696Y21431D01*
X23777Y21377D01*
X23831Y21296D01*
X23835Y21275D01*
X23847Y21200D01*
X23847Y21120D01*
X23847Y21120D01*
Y400D01*
X23848Y393D01*
X23831Y304D01*
X23777Y223D01*
X23696Y169D01*
X23607Y152D01*
X23600Y153D01*
X21365D01*
X21301Y192D01*
X21301Y233D01*
Y1254D01*
X21255D01*
Y1346D01*
X21301D01*
Y2336D01*
X21301Y2378D01*
X21341Y2409D01*
X21354Y2414D01*
X21375Y2423D01*
X21510Y2339D01*
X21667Y2275D01*
X21831Y2235D01*
X22000Y2222D01*
X22169Y2235D01*
X22333Y2275D01*
X22489Y2339D01*
X22634Y2428D01*
X22762Y2538D01*
X22872Y2666D01*
X22961Y2810D01*
X23025Y2967D01*
X23065Y3131D01*
X23078Y3300D01*
X23065Y3469D01*
X23025Y3633D01*
X22961Y3789D01*
X22872Y3934D01*
X22762Y4062D01*
X22634Y4172D01*
X22489Y4261D01*
X22333Y4325D01*
X22169Y4365D01*
X22000Y4378D01*
X21831Y4365D01*
X21667Y4325D01*
X21510Y4261D01*
X21366Y4172D01*
X21238Y4062D01*
X21128Y3934D01*
X21039Y3789D01*
X20975Y3633D01*
X20935Y3469D01*
X20922Y3300D01*
X20935Y3131D01*
X20975Y2967D01*
X21039Y2810D01*
X21128Y2666D01*
X21238Y2538D01*
X21296Y2488D01*
X21266Y2408D01*
X21233Y2408D01*
X20699D01*
Y1346D01*
X20745D01*
Y1254D01*
X20699D01*
Y233D01*
X20699Y192D01*
X20635Y153D01*
X20365D01*
X20301Y192D01*
X20301Y233D01*
Y1254D01*
X20255D01*
Y1346D01*
X20301D01*
Y2408D01*
X19699D01*
Y1346D01*
X19745D01*
Y1254D01*
X19699D01*
Y233D01*
X19699Y192D01*
X19635Y153D01*
X19365D01*
X19301Y192D01*
X19301Y233D01*
Y1254D01*
X19255D01*
Y1346D01*
X19301D01*
Y2408D01*
X18699D01*
Y1346D01*
X18745D01*
Y1254D01*
X18699D01*
Y233D01*
X18699Y192D01*
X18635Y153D01*
X18365D01*
X18301Y192D01*
X18301Y233D01*
Y1254D01*
X18255D01*
Y1346D01*
X18301D01*
Y2408D01*
X17699D01*
Y1346D01*
X17745D01*
Y1254D01*
X17699D01*
Y233D01*
X17699Y192D01*
X17635Y153D01*
X17365D01*
X17301Y192D01*
X17301Y233D01*
Y1254D01*
X17255D01*
Y1346D01*
X17301D01*
Y2408D01*
X16699D01*
Y1346D01*
X16745D01*
Y1254D01*
X16699D01*
Y233D01*
X16699Y192D01*
X16635Y153D01*
X16365D01*
X16301Y192D01*
X16301Y233D01*
Y1254D01*
X16255D01*
Y1346D01*
X16301D01*
Y2408D01*
X15699D01*
Y1346D01*
X15745D01*
Y1254D01*
X15699D01*
Y233D01*
X15699Y192D01*
X15635Y153D01*
X14365D01*
X14301Y192D01*
X14301Y233D01*
Y1254D01*
X14255D01*
Y1346D01*
X14301D01*
Y2408D01*
X13699D01*
Y1346D01*
X13745D01*
Y1254D01*
X13699D01*
Y233D01*
X13699Y192D01*
X13635Y153D01*
X13365D01*
X13301Y192D01*
X13301Y233D01*
Y673D01*
X12699D01*
Y233D01*
X12699Y192D01*
X12635Y153D01*
X12365D01*
X12301Y192D01*
X12301Y233D01*
Y673D01*
X11699D01*
Y233D01*
X11699Y192D01*
X11635Y153D01*
X11365D01*
X11301Y192D01*
X11301Y233D01*
Y1254D01*
X11255D01*
Y1346D01*
X11301D01*
Y2408D01*
X10699D01*
Y1346D01*
X10745D01*
Y1254D01*
X10699D01*
Y233D01*
X10699Y192D01*
X10635Y153D01*
X10365D01*
X10301Y192D01*
X10301Y233D01*
Y1254D01*
X10255D01*
Y1346D01*
X10301D01*
Y2408D01*
X9699D01*
Y1346D01*
X9745D01*
Y1254D01*
X9699D01*
Y233D01*
X9699Y192D01*
X9635Y153D01*
X9365D01*
X9301Y192D01*
X9301Y233D01*
Y1254D01*
X9255D01*
Y1346D01*
X9301D01*
Y2408D01*
X8699D01*
Y1346D01*
X8745D01*
Y1254D01*
X8699D01*
Y233D01*
X8699Y192D01*
X8635Y153D01*
X8365D01*
X8301Y192D01*
X8301Y233D01*
Y1254D01*
X8255D01*
Y1346D01*
X8301D01*
Y2408D01*
X7699D01*
Y1346D01*
X7745D01*
Y1254D01*
X7699D01*
Y233D01*
X7699Y192D01*
X7635Y153D01*
X7365D01*
X7301Y192D01*
X7301Y233D01*
Y1254D01*
X7255D01*
Y1346D01*
X7301D01*
Y2408D01*
X6699D01*
Y1346D01*
X6745D01*
Y1254D01*
X6699D01*
Y233D01*
X6699Y192D01*
X6635Y153D01*
X400D01*
X393Y152D01*
X304Y169D01*
X223Y223D01*
X169Y304D01*
X165Y325D01*
X153Y400D01*
X153Y400D01*
X153Y400D01*
Y21200D01*
X152Y21207D01*
X169Y21296D01*
X223Y21377D01*
X304Y21431D01*
X393Y21448D01*
X400Y21447D01*
D02*
G37*
%LPC*%
G36*
X6701Y20827D02*
X6450D01*
Y20453D01*
X6550D01*
X6550Y20447D01*
X6600D01*
X6590Y20444D01*
X6582Y20435D01*
X6574Y20420D01*
X6568Y20399D01*
X6562Y20372D01*
X6559Y20346D01*
X6701D01*
Y20827D01*
D02*
G37*
G36*
X6350D02*
X6099D01*
Y20346D01*
X6239D01*
X6238Y20372D01*
X6232Y20399D01*
X6226Y20420D01*
X6218Y20435D01*
X6210Y20444D01*
X6200Y20447D01*
X6250D01*
X6250Y20453D01*
X6350D01*
Y20827D01*
D02*
G37*
G36*
X23000Y20800D02*
X22871Y20783D01*
X22750Y20733D01*
X22646Y20654D01*
X22567Y20550D01*
X22517Y20429D01*
X22500Y20300D01*
X22517Y20171D01*
X22567Y20050D01*
X22646Y19946D01*
X22750Y19867D01*
X22871Y19817D01*
X23000Y19800D01*
X23129Y19817D01*
X23250Y19867D01*
X23354Y19946D01*
X23433Y20050D01*
X23483Y20171D01*
X23500Y20300D01*
X23483Y20429D01*
X23433Y20550D01*
X23354Y20654D01*
X23250Y20733D01*
X23129Y20783D01*
X23000Y20800D01*
D02*
G37*
G36*
X6701Y20254D02*
X6561D01*
X6562Y20228D01*
X6568Y20201D01*
X6574Y20180D01*
X6582Y20165D01*
X6590Y20156D01*
X6600Y20153D01*
X6550D01*
X6550Y20147D01*
X6450D01*
Y19773D01*
X6701D01*
Y20254D01*
D02*
G37*
G36*
X6241D02*
X6099D01*
Y19773D01*
X6350D01*
Y20147D01*
X6250D01*
X6250Y20153D01*
X6200D01*
X6210Y20156D01*
X6218Y20165D01*
X6226Y20180D01*
X6232Y20201D01*
X6238Y20228D01*
X6241Y20254D01*
D02*
G37*
G36*
X6701Y19673D02*
X6450D01*
Y19192D01*
X6701D01*
Y19673D01*
D02*
G37*
G36*
X6350D02*
X6099D01*
Y19192D01*
X6350D01*
Y19673D01*
D02*
G37*
G36*
X23156Y18046D02*
Y17525D01*
X23677D01*
X23664Y17625D01*
X23606Y17764D01*
X23515Y17883D01*
X23395Y17975D01*
X23256Y18033D01*
X23156Y18046D01*
D02*
G37*
G36*
X21845D02*
Y17525D01*
X22366D01*
X22353Y17625D01*
X22295Y17764D01*
X22204Y17883D01*
X22084Y17975D01*
X21945Y18033D01*
X21845Y18046D01*
D02*
G37*
G36*
X23056Y18046D02*
X22957Y18033D01*
X22818Y17975D01*
X22698Y17883D01*
X22606Y17764D01*
X22549Y17625D01*
X22535Y17525D01*
X23056D01*
Y18046D01*
D02*
G37*
G36*
X21745D02*
X21646Y18033D01*
X21507Y17975D01*
X21387Y17883D01*
X21295Y17764D01*
X21238Y17625D01*
X21224Y17525D01*
X21745D01*
Y18046D01*
D02*
G37*
G36*
X23677Y17425D02*
X23156D01*
Y16904D01*
X23256Y16917D01*
X23395Y16975D01*
X23515Y17067D01*
X23606Y17187D01*
X23664Y17326D01*
X23677Y17425D01*
D02*
G37*
G36*
X22366D02*
X21845D01*
Y16904D01*
X21945Y16917D01*
X22084Y16975D01*
X22204Y17067D01*
X22295Y17187D01*
X22353Y17326D01*
X22366Y17425D01*
D02*
G37*
G36*
X23056D02*
X22535D01*
X22549Y17326D01*
X22606Y17187D01*
X22698Y17067D01*
X22818Y16975D01*
X22957Y16917D01*
X23056Y16904D01*
Y17425D01*
D02*
G37*
G36*
X21745D02*
X21224D01*
X21238Y17326D01*
X21295Y17187D01*
X21387Y17067D01*
X21507Y16975D01*
X21646Y16917D01*
X21745Y16904D01*
Y17425D01*
D02*
G37*
G36*
X23156Y14696D02*
Y14175D01*
X23677D01*
X23664Y14274D01*
X23606Y14413D01*
X23515Y14533D01*
X23395Y14625D01*
X23256Y14683D01*
X23156Y14696D01*
D02*
G37*
G36*
X21845D02*
Y14175D01*
X22366D01*
X22353Y14274D01*
X22295Y14413D01*
X22204Y14533D01*
X22084Y14625D01*
X21945Y14683D01*
X21845Y14696D01*
D02*
G37*
G36*
X23056Y14696D02*
X22957Y14683D01*
X22818Y14625D01*
X22698Y14533D01*
X22606Y14413D01*
X22549Y14274D01*
X22535Y14175D01*
X23056D01*
Y14696D01*
D02*
G37*
G36*
X21745D02*
X21646Y14683D01*
X21507Y14625D01*
X21387Y14533D01*
X21295Y14413D01*
X21238Y14274D01*
X21224Y14175D01*
X21745D01*
Y14696D01*
D02*
G37*
G36*
X23677Y14075D02*
X23156D01*
Y13554D01*
X23256Y13567D01*
X23395Y13625D01*
X23515Y13717D01*
X23606Y13836D01*
X23664Y13975D01*
X23677Y14075D01*
D02*
G37*
G36*
X22366D02*
X21845D01*
Y13554D01*
X21945Y13567D01*
X22084Y13625D01*
X22204Y13717D01*
X22295Y13836D01*
X22353Y13975D01*
X22366Y14075D01*
D02*
G37*
G36*
X23056D02*
X22535D01*
X22549Y13975D01*
X22606Y13836D01*
X22698Y13717D01*
X22818Y13625D01*
X22957Y13567D01*
X23056Y13554D01*
Y14075D01*
D02*
G37*
G36*
X21745D02*
X21224D01*
X21238Y13975D01*
X21295Y13836D01*
X21387Y13717D01*
X21507Y13625D01*
X21646Y13567D01*
X21745Y13554D01*
Y14075D01*
D02*
G37*
G36*
X23199Y12601D02*
X22125D01*
Y11999D01*
X23199D01*
Y12601D01*
D02*
G37*
G36*
X20975D02*
X19901D01*
Y11999D01*
X20975D01*
Y12601D01*
D02*
G37*
G36*
X1213Y12206D02*
X1083Y12189D01*
X963Y12139D01*
X859Y12059D01*
X780Y11956D01*
X730Y11835D01*
X713Y11706D01*
X730Y11576D01*
X780Y11456D01*
X859Y11352D01*
X963Y11273D01*
X1083Y11223D01*
X1213Y11206D01*
X1342Y11223D01*
X1463Y11273D01*
X1566Y11352D01*
X1646Y11456D01*
X1696Y11576D01*
X1713Y11706D01*
X1696Y11835D01*
X1646Y11956D01*
X1566Y12059D01*
X1463Y12139D01*
X1342Y12189D01*
X1213Y12206D01*
D02*
G37*
G36*
X23199Y11601D02*
X22125D01*
Y10999D01*
X23199D01*
Y11601D01*
D02*
G37*
G36*
X20975D02*
X19901D01*
Y10999D01*
X20975D01*
Y11601D01*
D02*
G37*
G36*
X23199Y10601D02*
X22712D01*
Y10350D01*
X23199D01*
Y10601D01*
D02*
G37*
G36*
X22612D02*
X22125D01*
Y10350D01*
X22612D01*
Y10601D01*
D02*
G37*
G36*
X23199Y10250D02*
X22712D01*
Y9999D01*
X23199D01*
Y10250D01*
D02*
G37*
G36*
X22612D02*
X22125D01*
Y9999D01*
X22612D01*
Y10250D01*
D02*
G37*
G36*
X20975Y10601D02*
X19901D01*
Y9999D01*
X20975D01*
Y10601D01*
D02*
G37*
G36*
X23149Y9046D02*
Y8525D01*
X23670D01*
X23657Y8625D01*
X23599Y8764D01*
X23507Y8883D01*
X23388Y8975D01*
X23249Y9033D01*
X23149Y9046D01*
D02*
G37*
G36*
X21838D02*
Y8525D01*
X22359D01*
X22346Y8625D01*
X22288Y8764D01*
X22196Y8883D01*
X22077Y8975D01*
X21938Y9033D01*
X21838Y9046D01*
D02*
G37*
G36*
X23049Y9046D02*
X22950Y9033D01*
X22811Y8975D01*
X22691Y8883D01*
X22599Y8764D01*
X22541Y8625D01*
X22528Y8525D01*
X23049D01*
Y9046D01*
D02*
G37*
G36*
X21738D02*
X21639Y9033D01*
X21499Y8975D01*
X21380Y8883D01*
X21288Y8764D01*
X21230Y8625D01*
X21217Y8525D01*
X21738D01*
Y9046D01*
D02*
G37*
G36*
X2261D02*
Y8525D01*
X2781D01*
X2768Y8625D01*
X2711Y8764D01*
X2619Y8883D01*
X2499Y8975D01*
X2360Y9033D01*
X2261Y9046D01*
D02*
G37*
G36*
X2161D02*
X2061Y9033D01*
X1922Y8975D01*
X1802Y8883D01*
X1711Y8764D01*
X1653Y8625D01*
X1640Y8525D01*
X2161D01*
Y9046D01*
D02*
G37*
G36*
X950D02*
Y8525D01*
X1470D01*
X1457Y8625D01*
X1400Y8764D01*
X1308Y8883D01*
X1188Y8975D01*
X1049Y9033D01*
X950Y9046D01*
D02*
G37*
G36*
X850D02*
X750Y9033D01*
X611Y8975D01*
X491Y8883D01*
X400Y8764D01*
X342Y8625D01*
X329Y8525D01*
X850D01*
Y9046D01*
D02*
G37*
G36*
X23049Y8425D02*
X22528D01*
X22541Y8326D01*
X22599Y8187D01*
X22691Y8067D01*
X22811Y7975D01*
X22950Y7917D01*
X23049Y7904D01*
Y8425D01*
D02*
G37*
G36*
X21738D02*
X21217D01*
X21230Y8326D01*
X21288Y8187D01*
X21380Y8067D01*
X21499Y7975D01*
X21639Y7917D01*
X21738Y7904D01*
Y8425D01*
D02*
G37*
G36*
X2781Y8425D02*
X2261D01*
Y7904D01*
X2360Y7917D01*
X2499Y7975D01*
X2619Y8067D01*
X2711Y8187D01*
X2768Y8326D01*
X2781Y8425D01*
D02*
G37*
G36*
X2161D02*
X1640D01*
X1653Y8326D01*
X1711Y8187D01*
X1802Y8067D01*
X1922Y7975D01*
X2061Y7917D01*
X2161Y7904D01*
Y8425D01*
D02*
G37*
G36*
X1470D02*
X950D01*
Y7904D01*
X1049Y7917D01*
X1188Y7975D01*
X1308Y8067D01*
X1400Y8187D01*
X1457Y8326D01*
X1470Y8425D01*
D02*
G37*
G36*
X850D02*
X329D01*
X342Y8326D01*
X400Y8187D01*
X491Y8067D01*
X611Y7975D01*
X750Y7917D01*
X850Y7904D01*
Y8425D01*
D02*
G37*
G36*
X23670Y8425D02*
X23149D01*
Y7904D01*
X23249Y7917D01*
X23388Y7975D01*
X23507Y8067D01*
X23599Y8187D01*
X23657Y8326D01*
X23670Y8425D01*
D02*
G37*
G36*
X22359D02*
X21838D01*
Y7904D01*
X21938Y7917D01*
X22077Y7975D01*
X22196Y8067D01*
X22288Y8187D01*
X22346Y8326D01*
X22359Y8425D01*
D02*
G37*
G36*
X2261Y5696D02*
Y5175D01*
X2781D01*
X2768Y5274D01*
X2711Y5414D01*
X2619Y5533D01*
X2499Y5625D01*
X2360Y5683D01*
X2261Y5696D01*
D02*
G37*
G36*
X2161D02*
X2061Y5683D01*
X1922Y5625D01*
X1802Y5533D01*
X1711Y5414D01*
X1653Y5274D01*
X1640Y5175D01*
X2161D01*
Y5696D01*
D02*
G37*
G36*
X950D02*
Y5175D01*
X1470D01*
X1457Y5274D01*
X1400Y5414D01*
X1308Y5533D01*
X1188Y5625D01*
X1049Y5683D01*
X950Y5696D01*
D02*
G37*
G36*
X850D02*
X750Y5683D01*
X611Y5625D01*
X491Y5533D01*
X400Y5414D01*
X342Y5274D01*
X329Y5175D01*
X850D01*
Y5696D01*
D02*
G37*
G36*
X23149Y5696D02*
Y5175D01*
X23670D01*
X23657Y5274D01*
X23599Y5414D01*
X23507Y5533D01*
X23388Y5625D01*
X23249Y5683D01*
X23149Y5696D01*
D02*
G37*
G36*
X21838D02*
Y5175D01*
X22359D01*
X22346Y5274D01*
X22288Y5414D01*
X22196Y5533D01*
X22077Y5625D01*
X21938Y5683D01*
X21838Y5696D01*
D02*
G37*
G36*
X23049Y5696D02*
X22950Y5683D01*
X22811Y5625D01*
X22691Y5533D01*
X22599Y5414D01*
X22541Y5274D01*
X22528Y5175D01*
X23049D01*
Y5696D01*
D02*
G37*
G36*
X21738D02*
X21639Y5683D01*
X21499Y5625D01*
X21380Y5533D01*
X21288Y5414D01*
X21230Y5274D01*
X21217Y5175D01*
X21738D01*
Y5696D01*
D02*
G37*
G36*
X23049Y5075D02*
X22528D01*
X22541Y4975D01*
X22599Y4836D01*
X22691Y4717D01*
X22811Y4625D01*
X22950Y4567D01*
X23049Y4554D01*
Y5075D01*
D02*
G37*
G36*
X21738D02*
X21217D01*
X21230Y4975D01*
X21288Y4836D01*
X21380Y4717D01*
X21499Y4625D01*
X21639Y4567D01*
X21738Y4554D01*
Y5075D01*
D02*
G37*
G36*
X2781Y5075D02*
X2261D01*
Y4554D01*
X2360Y4567D01*
X2499Y4625D01*
X2619Y4717D01*
X2711Y4836D01*
X2768Y4975D01*
X2781Y5075D01*
D02*
G37*
G36*
X2161D02*
X1640D01*
X1653Y4975D01*
X1711Y4836D01*
X1802Y4717D01*
X1922Y4625D01*
X2061Y4567D01*
X2161Y4554D01*
Y5075D01*
D02*
G37*
G36*
X1470D02*
X950D01*
Y4554D01*
X1049Y4567D01*
X1188Y4625D01*
X1308Y4717D01*
X1400Y4836D01*
X1457Y4975D01*
X1470Y5075D01*
D02*
G37*
G36*
X850D02*
X329D01*
X342Y4975D01*
X400Y4836D01*
X491Y4717D01*
X611Y4625D01*
X750Y4567D01*
X850Y4554D01*
Y5075D01*
D02*
G37*
G36*
X23670Y5075D02*
X23149D01*
Y4554D01*
X23249Y4567D01*
X23388Y4625D01*
X23507Y4717D01*
X23599Y4836D01*
X23657Y4975D01*
X23670Y5075D01*
D02*
G37*
G36*
X22359D02*
X21838D01*
Y4554D01*
X21938Y4567D01*
X22077Y4625D01*
X22196Y4717D01*
X22288Y4836D01*
X22346Y4975D01*
X22359Y5075D01*
D02*
G37*
G36*
X2836Y3162D02*
X2719Y3146D01*
X2609Y3101D01*
X2515Y3029D01*
X2443Y2935D01*
X2397Y2825D01*
X2382Y2707D01*
X2397Y2590D01*
X2443Y2480D01*
X2515Y2386D01*
X2609Y2314D01*
X2719Y2269D01*
X2836Y2253D01*
X2954Y2269D01*
X3063Y2314D01*
X3157Y2386D01*
X3230Y2480D01*
X3275Y2590D01*
X3290Y2707D01*
X3275Y2825D01*
X3230Y2935D01*
X3157Y3029D01*
X3063Y3101D01*
X2954Y3146D01*
X2836Y3162D01*
D02*
G37*
G36*
X14197Y10589D02*
X14112Y10572D01*
X14040Y10523D01*
X13992Y10451D01*
X13975Y10366D01*
X13992Y10281D01*
X13995Y10276D01*
Y4259D01*
X13100Y3364D01*
X6702D01*
X6625Y3349D01*
X6559Y3305D01*
X5668Y2414D01*
X5663Y2413D01*
X5591Y2365D01*
X5543Y2293D01*
X5526Y2207D01*
X5543Y2122D01*
X5591Y2050D01*
X5663Y2002D01*
X5748Y1985D01*
X5833Y2002D01*
X5905Y2050D01*
X5953Y2122D01*
X5955Y2128D01*
X6786Y2959D01*
X13184D01*
X13261Y2975D01*
X13327Y3019D01*
X14341Y4032D01*
X14384Y4098D01*
X14400Y4175D01*
Y10276D01*
X14403Y10281D01*
X14420Y10366D01*
X14403Y10451D01*
X14355Y10523D01*
X14283Y10572D01*
X14197Y10589D01*
D02*
G37*
G36*
X13301Y2408D02*
X13050D01*
Y1927D01*
X13301D01*
Y2408D01*
D02*
G37*
G36*
X12950D02*
X12699D01*
Y1927D01*
X12950D01*
Y2408D01*
D02*
G37*
G36*
X12301D02*
X12050D01*
Y1927D01*
X12301D01*
Y2408D01*
D02*
G37*
G36*
X11950D02*
X11699D01*
Y1927D01*
X11950D01*
Y2408D01*
D02*
G37*
G36*
X13301Y1827D02*
X13050D01*
Y1346D01*
X13301D01*
Y1827D01*
D02*
G37*
G36*
X12950D02*
X12699D01*
Y1346D01*
X12950D01*
Y1827D01*
D02*
G37*
G36*
X12301D02*
X12050D01*
Y1346D01*
X12301D01*
Y1827D01*
D02*
G37*
G36*
X11950D02*
X11699D01*
Y1346D01*
X11950D01*
Y1827D01*
D02*
G37*
G36*
X2836Y2162D02*
X2719Y2146D01*
X2609Y2101D01*
X2515Y2029D01*
X2443Y1935D01*
X2397Y1825D01*
X2382Y1707D01*
X2397Y1590D01*
X2443Y1480D01*
X2515Y1386D01*
X2609Y1314D01*
X2719Y1269D01*
X2836Y1253D01*
X2954Y1269D01*
X3063Y1314D01*
X3157Y1386D01*
X3230Y1480D01*
X3275Y1590D01*
X3290Y1707D01*
X3275Y1825D01*
X3230Y1935D01*
X3157Y2029D01*
X3063Y2101D01*
X2954Y2146D01*
X2836Y2162D01*
D02*
G37*
G36*
X13301Y1254D02*
X13050D01*
Y773D01*
X13301D01*
Y1254D01*
D02*
G37*
G36*
X12950D02*
X12699D01*
Y773D01*
X12950D01*
Y1254D01*
D02*
G37*
G36*
X12301D02*
X12050D01*
Y773D01*
X12301D01*
Y1254D01*
D02*
G37*
G36*
X11950D02*
X11699D01*
Y773D01*
X11950D01*
Y1254D01*
D02*
G37*
G36*
X22986Y1500D02*
X22857Y1483D01*
X22736Y1433D01*
X22633Y1354D01*
X22553Y1250D01*
X22503Y1129D01*
X22486Y1000D01*
X22503Y871D01*
X22553Y750D01*
X22633Y646D01*
X22736Y567D01*
X22857Y517D01*
X22986Y500D01*
X23116Y517D01*
X23236Y567D01*
X23340Y646D01*
X23419Y750D01*
X23469Y871D01*
X23486Y1000D01*
X23469Y1129D01*
X23419Y1250D01*
X23340Y1354D01*
X23236Y1433D01*
X23116Y1483D01*
X22986Y1500D01*
D02*
G37*
%LPD*%
D11*
X13973Y12058D02*
X16240Y14325D01*
X13973Y11939D02*
Y12058D01*
X13740Y11706D02*
X13973Y11939D01*
X16240Y14325D02*
Y18536D01*
X13032Y12332D02*
X13871D01*
X16120Y14384D02*
Y18620D01*
X13776Y12040D02*
X16120Y14384D01*
X13740Y12040D02*
X13776D01*
X13871Y12332D02*
X16000Y14461D01*
X13027Y12327D02*
X13032Y12332D01*
X10186Y12769D02*
Y18675D01*
X9967Y18894D02*
X10186Y18675D01*
X7999Y18894D02*
X9967D01*
X7400Y19493D02*
X7999Y18894D01*
X10410Y11186D02*
Y19713D01*
X7400Y19493D02*
Y19500D01*
X15005Y9865D02*
X16360Y11220D01*
X18582Y19082D02*
X19000Y19500D01*
X17005Y19082D02*
X18582D01*
X16360Y18437D02*
X17005Y19082D01*
X16906Y19202D02*
X17693D01*
X16240Y18536D02*
X16906Y19202D01*
X16360Y11220D02*
Y18437D01*
X17890Y19399D02*
Y19593D01*
X17693Y19202D02*
X17890Y19399D01*
X16000Y14461D02*
Y19723D01*
X16120Y18620D02*
X17000Y19500D01*
Y19723D01*
X19000Y19500D02*
Y19723D01*
X14000Y19500D02*
Y19723D01*
D26*
X15000Y20877D02*
D03*
Y19723D02*
D03*
X14000Y20877D02*
D03*
Y19723D02*
D03*
X20000Y20877D02*
D03*
Y19723D02*
D03*
X19000D02*
D03*
Y20877D02*
D03*
X18000Y19723D02*
D03*
Y20877D02*
D03*
X16000Y19723D02*
D03*
Y20877D02*
D03*
X17000Y19723D02*
D03*
Y20877D02*
D03*
X21000D02*
D03*
Y19723D02*
D03*
X4400Y20877D02*
D03*
Y19723D02*
D03*
X3400Y20877D02*
D03*
Y19723D02*
D03*
X12400D02*
D03*
Y20877D02*
D03*
X8400D02*
D03*
Y19723D02*
D03*
X7400Y20877D02*
D03*
Y19723D02*
D03*
X9400Y20877D02*
D03*
Y19723D02*
D03*
X10400Y20877D02*
D03*
Y19723D02*
D03*
X11400D02*
D03*
Y20877D02*
D03*
X5400Y19723D02*
D03*
Y20877D02*
D03*
X6400Y19723D02*
D03*
Y20877D02*
D03*
X17000Y723D02*
D03*
Y1877D02*
D03*
X18000D02*
D03*
Y723D02*
D03*
X19000Y1877D02*
D03*
Y723D02*
D03*
X21000Y1877D02*
D03*
Y723D02*
D03*
X20000Y1877D02*
D03*
Y723D02*
D03*
X16000D02*
D03*
Y1877D02*
D03*
X13000Y723D02*
D03*
Y1877D02*
D03*
X14000Y723D02*
D03*
Y1877D02*
D03*
X8000Y723D02*
D03*
Y1877D02*
D03*
X9000D02*
D03*
Y723D02*
D03*
X10000Y1877D02*
D03*
Y723D02*
D03*
X12000Y1877D02*
D03*
Y723D02*
D03*
X11000Y1877D02*
D03*
Y723D02*
D03*
X7000D02*
D03*
Y1877D02*
D03*
D27*
X23000Y20300D02*
D03*
X1213Y11706D02*
D03*
X22986Y1000D02*
D03*
D50*
X8400Y19723D02*
Y20877D01*
X9400Y19723D02*
Y20877D01*
X18000Y19723D02*
Y20877D01*
X16000Y19723D02*
Y20877D01*
X17000Y19723D02*
Y20877D01*
X11400Y19723D02*
Y20877D01*
X7400Y19723D02*
Y20877D01*
X10400Y19723D02*
Y20877D01*
X20000Y19723D02*
Y20877D01*
X21000Y19723D02*
Y20877D01*
X19000Y19723D02*
Y20877D01*
X14000Y19723D02*
Y20877D01*
X15000Y19723D02*
Y20877D01*
X12400Y19723D02*
Y20877D01*
X5400Y19723D02*
Y20877D01*
X6400Y19723D02*
Y20877D01*
X4400Y19723D02*
Y20877D01*
X3400Y19723D02*
Y20877D01*
X21000Y1300D02*
Y1877D01*
Y723D02*
Y1300D01*
X20000D02*
Y1877D01*
Y723D02*
Y1300D01*
X19000D02*
Y1877D01*
Y723D02*
Y1300D01*
X18000D02*
Y1877D01*
Y723D02*
Y1300D01*
X17000D02*
Y1877D01*
Y723D02*
Y1300D01*
X16000D02*
Y1877D01*
Y723D02*
Y1300D01*
X13000D02*
Y1877D01*
Y723D02*
Y1300D01*
X14000D02*
Y1877D01*
Y723D02*
Y1300D01*
X12000D02*
Y1877D01*
Y723D02*
Y1300D01*
X11000D02*
Y1877D01*
Y723D02*
Y1300D01*
X10000D02*
Y1877D01*
Y723D02*
Y1300D01*
X9000D02*
Y1877D01*
Y723D02*
Y1300D01*
X8000D02*
Y1877D01*
Y723D02*
Y1300D01*
X7000Y723D02*
Y1300D01*
Y1877D01*
D52*
X6702Y3162D02*
X13184D01*
X14197Y4175D02*
Y10366D01*
X13184Y3162D02*
X14197Y4175D01*
X5748Y2207D02*
X6702Y3162D01*
D55*
X2836Y1707D02*
D03*
Y2707D02*
D03*
D56*
X21788Y8475D02*
D03*
X23099D02*
D03*
X21788Y5125D02*
D03*
X23099D02*
D03*
X2211D02*
D03*
X900D02*
D03*
X2211Y8475D02*
D03*
X900D02*
D03*
X21795Y17475D02*
D03*
X23106D02*
D03*
X21795Y14125D02*
D03*
X23106D02*
D03*
D57*
X22000Y3300D02*
D03*
X2000Y20300D02*
D03*
D58*
X11783Y10583D02*
D03*
Y11017D02*
D03*
X12217Y10583D02*
D03*
Y11017D02*
D03*
X12000Y9009D02*
D03*
Y8291D02*
D03*
X16000Y20300D02*
D03*
X7492Y2707D02*
D03*
X6636Y2552D02*
D03*
X20492Y709D02*
D03*
X19492D02*
D03*
X18492D02*
D03*
X17492D02*
D03*
X16492D02*
D03*
X15492D02*
D03*
X14492D02*
D03*
X13492D02*
D03*
X12492D02*
D03*
X11492D02*
D03*
X10492D02*
D03*
X9492D02*
D03*
X8492D02*
D03*
X7492D02*
D03*
X6492D02*
D03*
X23700Y13050D02*
D03*
X23650Y11800D02*
D03*
Y10600D02*
D03*
X6900Y19500D02*
D03*
X5900D02*
D03*
X13200Y21300D02*
D03*
X20500Y19400D02*
D03*
X18500Y19500D02*
D03*
X17500D02*
D03*
X16500D02*
D03*
X11900Y19400D02*
D03*
X2900Y21300D02*
D03*
X3900D02*
D03*
X4900D02*
D03*
X5900D02*
D03*
X6900D02*
D03*
X11900D02*
D03*
X14500D02*
D03*
X15500D02*
D03*
X16500D02*
D03*
X17500D02*
D03*
X18500D02*
D03*
X20500D02*
D03*
X19500D02*
D03*
X13019Y9609D02*
D03*
X11050Y14250D02*
D03*
X11170Y12830D02*
D03*
X10900Y12040D02*
D03*
X11270Y10100D02*
D03*
X13357Y12040D02*
D03*
X13700Y11250D02*
D03*
X13350Y10900D02*
D03*
X13030Y11910D02*
D03*
X12700Y11500D02*
D03*
X11657Y13555D02*
D03*
X11627Y12555D02*
D03*
X12607Y13555D02*
D03*
X12197Y15995D02*
D03*
X23197Y16551D02*
D03*
X22197D02*
D03*
X23697Y16555D02*
D03*
X12797Y15215D02*
D03*
X10697Y7295D02*
D03*
X14697D02*
D03*
X13697D02*
D03*
X9697D02*
D03*
X8697D02*
D03*
X7697D02*
D03*
X6697D02*
D03*
X5697D02*
D03*
X4697D02*
D03*
X3697D02*
D03*
X10697Y6305D02*
D03*
X14697D02*
D03*
X13697D02*
D03*
X12697D02*
D03*
X11697D02*
D03*
X9697D02*
D03*
X8697D02*
D03*
X7697D02*
D03*
X6697D02*
D03*
X5697D02*
D03*
X4697D02*
D03*
X3697D02*
D03*
X6400Y20300D02*
D03*
X5400Y20300D02*
D03*
X4400D02*
D03*
X3400D02*
D03*
X8400D02*
D03*
X7400D02*
D03*
X11400D02*
D03*
X9400D02*
D03*
X10400D02*
D03*
X15000D02*
D03*
X21000D02*
D03*
X14000D02*
D03*
X12400D02*
D03*
X17000D02*
D03*
X18000D02*
D03*
X19000D02*
D03*
X20000D02*
D03*
X12000Y9371D02*
D03*
Y7050D02*
D03*
Y8650D02*
D03*
Y7800D02*
D03*
X12550Y12250D02*
D03*
X21197Y16551D02*
D03*
X7000Y1300D02*
D03*
X8000D02*
D03*
X9000D02*
D03*
X10000D02*
D03*
X11000D02*
D03*
X12000D02*
D03*
X14000D02*
D03*
X13000D02*
D03*
X16000D02*
D03*
X17000D02*
D03*
X18000D02*
D03*
X19000D02*
D03*
X20000D02*
D03*
X21000D02*
D03*
X13639Y15315D02*
D03*
X14197Y16295D02*
D03*
X8900Y21300D02*
D03*
Y19500D02*
D03*
X7900Y21300D02*
D03*
X9900D02*
D03*
X10900D02*
D03*
X15697Y6305D02*
D03*
X16697D02*
D03*
X15697Y7295D02*
D03*
X16697D02*
D03*
X17697Y6305D02*
D03*
X18697D02*
D03*
X17697Y7295D02*
D03*
X18697D02*
D03*
X19697Y6305D02*
D03*
X20697D02*
D03*
X19697Y7295D02*
D03*
X20697D02*
D03*
X21697Y6029D02*
D03*
X22697D02*
D03*
X21697Y7570D02*
D03*
X22697D02*
D03*
X23697Y6029D02*
D03*
Y7570D02*
D03*
X2697Y6029D02*
D03*
Y7570D02*
D03*
X1697Y6029D02*
D03*
Y7570D02*
D03*
X697Y6029D02*
D03*
Y7570D02*
D03*
X15005Y9865D02*
D03*
X15197Y16295D02*
D03*
X18197D02*
D03*
X17197D02*
D03*
X20197D02*
D03*
X19197D02*
D03*
X15580Y15315D02*
D03*
X14639D02*
D03*
X17639D02*
D03*
X16639D02*
D03*
X19639D02*
D03*
X18639D02*
D03*
X21639Y15039D02*
D03*
X20639Y15315D02*
D03*
X23639Y15039D02*
D03*
X22639D02*
D03*
X14197Y10366D02*
D03*
X5748Y2207D02*
D03*
X16060Y11706D02*
D03*
X9858Y18517D02*
D03*
X20197Y11710D02*
D03*
X22176Y11706D02*
D03*
X20676Y12706D02*
D03*
X15454Y10706D02*
D03*
X9406Y13704D02*
D03*
X15713Y14706D02*
D03*
X8213Y7591D02*
D03*
X1182Y5894D02*
D03*
X2182D02*
D03*
X291Y6029D02*
D03*
Y7570D02*
D03*
X22213Y5894D02*
D03*
X23213D02*
D03*
X22154Y14904D02*
D03*
X23154D02*
D03*
X11043Y9698D02*
D03*
X10906Y9002D02*
D03*
Y8733D02*
D03*
Y8083D02*
D03*
X11040Y7705D02*
D03*
X13088Y8733D02*
D03*
Y9002D02*
D03*
Y9272D02*
D03*
X13095Y7401D02*
D03*
X12945Y7705D02*
D03*
X14713Y9484D02*
D03*
X12720Y10100D02*
D03*
X10906Y9272D02*
D03*
X13088Y8083D02*
D03*
X12258Y6706D02*
D03*
X10410Y11186D02*
D03*
X13740Y11706D02*
D03*
X10186Y12769D02*
D03*
X13027Y12327D02*
D03*
X13740Y12040D02*
D03*
X13826Y7705D02*
D03*
X14639D02*
D03*
X14207Y10902D02*
D03*
X703Y707D02*
D03*
X1203Y1707D02*
D03*
X703Y2707D02*
D03*
X1203Y3707D02*
D03*
Y7707D02*
D03*
Y9707D02*
D03*
X703Y10707D02*
D03*
Y12707D02*
D03*
X1203Y13707D02*
D03*
X703Y14707D02*
D03*
X1203Y17707D02*
D03*
X703Y18707D02*
D03*
Y20707D02*
D03*
X1703Y707D02*
D03*
X2203Y1707D02*
D03*
X1703Y2707D02*
D03*
X2203Y3707D02*
D03*
Y7707D02*
D03*
Y9707D02*
D03*
X1703Y10707D02*
D03*
X2203Y11707D02*
D03*
X1703Y12707D02*
D03*
X2203Y13707D02*
D03*
X1703Y14707D02*
D03*
X2203Y17707D02*
D03*
X1703Y18707D02*
D03*
X2703Y707D02*
D03*
X3203Y3707D02*
D03*
Y5707D02*
D03*
Y7707D02*
D03*
Y9707D02*
D03*
X2703Y10707D02*
D03*
X3203Y11707D02*
D03*
X2703Y12707D02*
D03*
X3203Y13707D02*
D03*
X2703Y14707D02*
D03*
X3203Y15707D02*
D03*
Y17707D02*
D03*
X2703Y18707D02*
D03*
X3703Y707D02*
D03*
X4203Y1707D02*
D03*
X3703Y2707D02*
D03*
X4203Y3707D02*
D03*
X3703Y4707D02*
D03*
X4203Y5707D02*
D03*
Y7707D02*
D03*
X3703Y8707D02*
D03*
X4203Y9707D02*
D03*
X3703Y10707D02*
D03*
X4203Y11707D02*
D03*
X3703Y12707D02*
D03*
X4203Y13707D02*
D03*
X3703Y14707D02*
D03*
X4203Y15707D02*
D03*
X3703Y16707D02*
D03*
X4203Y17707D02*
D03*
X3703Y18707D02*
D03*
X4703Y707D02*
D03*
X5203Y1707D02*
D03*
X4703Y2707D02*
D03*
X5203Y3707D02*
D03*
X4703Y4707D02*
D03*
X5203Y5707D02*
D03*
Y7707D02*
D03*
X4703Y8707D02*
D03*
X5203Y9707D02*
D03*
X4703Y10707D02*
D03*
X5203Y11707D02*
D03*
X4703Y12707D02*
D03*
X5203Y13707D02*
D03*
X4703Y14707D02*
D03*
X5203Y15707D02*
D03*
X4703Y16707D02*
D03*
X5203Y17707D02*
D03*
X4703Y18707D02*
D03*
X5703Y707D02*
D03*
X6203Y1707D02*
D03*
X5703Y2707D02*
D03*
X6203Y3707D02*
D03*
X5703Y4707D02*
D03*
X6203Y5707D02*
D03*
Y7707D02*
D03*
X5703Y8707D02*
D03*
X6203Y9707D02*
D03*
X5703Y10707D02*
D03*
X6203Y11707D02*
D03*
X5703Y12707D02*
D03*
X6203Y13707D02*
D03*
X5703Y14707D02*
D03*
X6203Y15707D02*
D03*
X5703Y16707D02*
D03*
X6203Y17707D02*
D03*
X5703Y18707D02*
D03*
X7203Y3707D02*
D03*
X6703Y4707D02*
D03*
X7203Y5707D02*
D03*
Y7707D02*
D03*
X6703Y8707D02*
D03*
X7203Y9707D02*
D03*
X6703Y10707D02*
D03*
X7203Y11707D02*
D03*
X6703Y12707D02*
D03*
X7203Y13707D02*
D03*
X6703Y14707D02*
D03*
X7203Y15707D02*
D03*
X6703Y16707D02*
D03*
X7203Y17707D02*
D03*
X6703Y18707D02*
D03*
X8203Y3707D02*
D03*
X7703Y4707D02*
D03*
X8203Y5707D02*
D03*
X7703Y8707D02*
D03*
X8203Y9707D02*
D03*
X7703Y10707D02*
D03*
X8203Y11707D02*
D03*
X7703Y12707D02*
D03*
X8203Y13707D02*
D03*
X7703Y14707D02*
D03*
X8203Y15707D02*
D03*
X7703Y16707D02*
D03*
X8203Y17707D02*
D03*
X7703Y18707D02*
D03*
X8703Y2707D02*
D03*
X9203Y3707D02*
D03*
X8703Y4707D02*
D03*
X9203Y5707D02*
D03*
Y7707D02*
D03*
X8703Y8707D02*
D03*
X9203Y9707D02*
D03*
X8703Y10707D02*
D03*
X9203Y11707D02*
D03*
X8703Y12707D02*
D03*
Y16707D02*
D03*
X10203Y3707D02*
D03*
X9703Y4707D02*
D03*
X10203Y5707D02*
D03*
Y7707D02*
D03*
X9703Y8707D02*
D03*
X10203Y9707D02*
D03*
X9703Y10707D02*
D03*
Y16707D02*
D03*
X10703Y2707D02*
D03*
X11203Y3707D02*
D03*
X10703Y4707D02*
D03*
X11203Y5707D02*
D03*
Y11707D02*
D03*
Y13707D02*
D03*
Y15707D02*
D03*
Y17707D02*
D03*
X11703Y2707D02*
D03*
X12203Y3707D02*
D03*
X11703Y4707D02*
D03*
X12203Y5707D02*
D03*
X11703Y6707D02*
D03*
X11713Y16707D02*
D03*
X12203Y17707D02*
D03*
X11703Y18707D02*
D03*
X12703Y2707D02*
D03*
X13203Y3707D02*
D03*
X12703Y4707D02*
D03*
X13203Y5707D02*
D03*
X12703Y12707D02*
D03*
X13203Y13707D02*
D03*
X12703Y14707D02*
D03*
Y16707D02*
D03*
X13203Y17707D02*
D03*
X12703Y18707D02*
D03*
X13203Y19707D02*
D03*
X13703Y2707D02*
D03*
X14203Y3707D02*
D03*
X13703Y4707D02*
D03*
Y8707D02*
D03*
X14203Y11707D02*
D03*
Y13707D02*
D03*
X13703Y14707D02*
D03*
Y16707D02*
D03*
X14203Y17707D02*
D03*
X13703Y18707D02*
D03*
X15203Y1707D02*
D03*
X14703Y2707D02*
D03*
X15203Y3707D02*
D03*
X14703Y4707D02*
D03*
X15203Y5707D02*
D03*
Y7707D02*
D03*
X14703Y8707D02*
D03*
Y10707D02*
D03*
X15203Y11707D02*
D03*
X14703Y14707D02*
D03*
Y16707D02*
D03*
X15203Y17707D02*
D03*
X14703Y18707D02*
D03*
X15703Y2707D02*
D03*
X16203Y3707D02*
D03*
X15703Y4707D02*
D03*
X16203Y5707D02*
D03*
Y7707D02*
D03*
X15703Y8707D02*
D03*
X16203Y9707D02*
D03*
X15703Y12707D02*
D03*
Y16707D02*
D03*
Y18707D02*
D03*
X16703Y2707D02*
D03*
X17203Y3707D02*
D03*
X16703Y4707D02*
D03*
X17203Y5707D02*
D03*
Y7707D02*
D03*
X16703Y8707D02*
D03*
X17203Y9707D02*
D03*
X16703Y10707D02*
D03*
X17203Y11707D02*
D03*
X16703Y12707D02*
D03*
X17203Y13707D02*
D03*
X16703Y14707D02*
D03*
Y16707D02*
D03*
X17203Y17707D02*
D03*
X17703Y2707D02*
D03*
X18203Y3707D02*
D03*
X17703Y4707D02*
D03*
X18203Y5707D02*
D03*
Y7707D02*
D03*
X17703Y8707D02*
D03*
X18203Y9707D02*
D03*
X17703Y10707D02*
D03*
X18203Y11707D02*
D03*
X17703Y12707D02*
D03*
X18203Y13707D02*
D03*
X17703Y14707D02*
D03*
Y16707D02*
D03*
X18203Y17707D02*
D03*
X17703Y18707D02*
D03*
X18703Y2707D02*
D03*
X19203Y3707D02*
D03*
X18703Y4707D02*
D03*
X19203Y5707D02*
D03*
Y7707D02*
D03*
X18703Y8707D02*
D03*
X19203Y9707D02*
D03*
X18703Y10707D02*
D03*
X19203Y11707D02*
D03*
X18703Y12707D02*
D03*
X19203Y13707D02*
D03*
X18703Y14707D02*
D03*
Y16707D02*
D03*
X19203Y17707D02*
D03*
X18703Y18707D02*
D03*
X19703Y2707D02*
D03*
X20203Y3707D02*
D03*
X19703Y4707D02*
D03*
X20203Y5707D02*
D03*
Y7707D02*
D03*
X19703Y8707D02*
D03*
X20203Y9707D02*
D03*
X19703Y10707D02*
D03*
Y12707D02*
D03*
X20203Y13707D02*
D03*
X19703Y14707D02*
D03*
Y16707D02*
D03*
X20203Y17707D02*
D03*
X19703Y18707D02*
D03*
X20703Y2707D02*
D03*
Y4707D02*
D03*
X21203Y5707D02*
D03*
Y7707D02*
D03*
X20703Y8707D02*
D03*
X21203Y9707D02*
D03*
Y11707D02*
D03*
Y13707D02*
D03*
X20703Y14707D02*
D03*
Y16707D02*
D03*
Y18707D02*
D03*
X21703Y707D02*
D03*
X22203Y1707D02*
D03*
Y7707D02*
D03*
Y9707D02*
D03*
X21703Y10707D02*
D03*
Y12707D02*
D03*
Y16707D02*
D03*
Y18707D02*
D03*
X22203Y19707D02*
D03*
X21703Y20707D02*
D03*
X23203Y1707D02*
D03*
Y3707D02*
D03*
Y7707D02*
D03*
Y9707D02*
D03*
X22703Y14707D02*
D03*
Y16707D02*
D03*
Y18707D02*
D03*
X23203Y19707D02*
D03*
X22676Y12706D02*
D03*
X10703Y16707D02*
D03*
X9396Y17707D02*
D03*
Y15707D02*
D03*
X13703Y12707D02*
D03*
X8703Y14707D02*
D03*
X9703D02*
D03*
X10703D02*
D03*
X11659Y14705D02*
D03*
X10755Y10416D02*
D03*
X9801Y12707D02*
D03*
X13826Y9484D02*
D03*
D59*
X20438Y10300D02*
D03*
X22662D02*
D03*
X20438Y11300D02*
D03*
Y12300D02*
D03*
X22662Y11300D02*
D03*
Y12300D02*
D03*
M02*
